%TF.GenerationSoftware,KiCad,Pcbnew,10.0.4*%
%TF.CreationDate,2026-10-09T22:51:57+01:00*%
%TF.ProjectId,vitalq_v2,76697461-6c71-45f7-9632-2e6b69636164,rev?*%
%TF.SameCoordinates,Original*%
%TF.FileFunction,Legend,Bot*%
%TF.FilePolarity,Positive*%
%FSLAX46Y46*%
G04 Gerber Fmt 4.6, Leading zero omitted, Abs format (unit mm)*
G04 Created by KiCad (PCBNEW 10.0.4) date 2026-10-09 22:51:57*
%MOMM*%
%LPD*%
G01*
G04 APERTURE LIST*
%ADD10C,0.080000*%
%ADD11C,0.150000*%
%ADD12C,0.070000*%
%ADD13C,0.120000*%
%ADD14C,0.100000*%
%ADD15C,0.180000*%
%ADD16C,0.200000*%
%ADD17C,0.250000*%
G04 APERTURE END LIST*
D10*
X10725000Y-3557118D02*
X10725000Y-3107118D01*
X10725000Y-3107118D02*
X10467857Y-3557118D01*
X10467857Y-3557118D02*
X10467857Y-3107118D01*
X10317856Y-3107118D02*
X10060714Y-3107118D01*
X10189285Y-3557118D02*
X10189285Y-3107118D01*
X9653571Y-3514261D02*
X9674999Y-3535690D01*
X9674999Y-3535690D02*
X9739285Y-3557118D01*
X9739285Y-3557118D02*
X9782142Y-3557118D01*
X9782142Y-3557118D02*
X9846428Y-3535690D01*
X9846428Y-3535690D02*
X9889285Y-3492832D01*
X9889285Y-3492832D02*
X9910714Y-3449975D01*
X9910714Y-3449975D02*
X9932142Y-3364261D01*
X9932142Y-3364261D02*
X9932142Y-3299975D01*
X9932142Y-3299975D02*
X9910714Y-3214261D01*
X9910714Y-3214261D02*
X9889285Y-3171404D01*
X9889285Y-3171404D02*
X9846428Y-3128547D01*
X9846428Y-3128547D02*
X9782142Y-3107118D01*
X9782142Y-3107118D02*
X9739285Y-3107118D01*
X9739285Y-3107118D02*
X9674999Y-3128547D01*
X9674999Y-3128547D02*
X9653571Y-3149975D01*
X13010714Y-3321404D02*
X12946428Y-3342832D01*
X12946428Y-3342832D02*
X12924999Y-3364261D01*
X12924999Y-3364261D02*
X12903571Y-3407118D01*
X12903571Y-3407118D02*
X12903571Y-3471404D01*
X12903571Y-3471404D02*
X12924999Y-3514261D01*
X12924999Y-3514261D02*
X12946428Y-3535690D01*
X12946428Y-3535690D02*
X12989285Y-3557118D01*
X12989285Y-3557118D02*
X13160714Y-3557118D01*
X13160714Y-3557118D02*
X13160714Y-3107118D01*
X13160714Y-3107118D02*
X13010714Y-3107118D01*
X13010714Y-3107118D02*
X12967857Y-3128547D01*
X12967857Y-3128547D02*
X12946428Y-3149975D01*
X12946428Y-3149975D02*
X12924999Y-3192832D01*
X12924999Y-3192832D02*
X12924999Y-3235690D01*
X12924999Y-3235690D02*
X12946428Y-3278547D01*
X12946428Y-3278547D02*
X12967857Y-3299975D01*
X12967857Y-3299975D02*
X13010714Y-3321404D01*
X13010714Y-3321404D02*
X13160714Y-3321404D01*
X12732142Y-3428547D02*
X12517857Y-3428547D01*
X12774999Y-3557118D02*
X12624999Y-3107118D01*
X12624999Y-3107118D02*
X12474999Y-3557118D01*
X12389285Y-3107118D02*
X12132143Y-3107118D01*
X12260714Y-3557118D02*
X12260714Y-3107118D01*
X11982143Y-3385690D02*
X11639286Y-3385690D01*
D11*
X14866666Y-3402466D02*
X14333333Y-3402466D01*
X14599999Y-3669133D02*
X14599999Y-3135800D01*
D12*
X23358276Y-55858333D02*
X23008276Y-55858333D01*
X23358276Y-56058333D02*
X23158276Y-55908333D01*
X23008276Y-56058333D02*
X23208276Y-55858333D01*
D10*
X6021428Y-61454018D02*
X6021428Y-61004018D01*
X6021428Y-61004018D02*
X5914285Y-61004018D01*
X5914285Y-61004018D02*
X5849999Y-61025447D01*
X5849999Y-61025447D02*
X5807142Y-61068304D01*
X5807142Y-61068304D02*
X5785713Y-61111161D01*
X5785713Y-61111161D02*
X5764285Y-61196875D01*
X5764285Y-61196875D02*
X5764285Y-61261161D01*
X5764285Y-61261161D02*
X5785713Y-61346875D01*
X5785713Y-61346875D02*
X5807142Y-61389732D01*
X5807142Y-61389732D02*
X5849999Y-61432590D01*
X5849999Y-61432590D02*
X5914285Y-61454018D01*
X5914285Y-61454018D02*
X6021428Y-61454018D01*
X5571428Y-61218304D02*
X5421428Y-61218304D01*
X5357142Y-61454018D02*
X5571428Y-61454018D01*
X5571428Y-61454018D02*
X5571428Y-61004018D01*
X5571428Y-61004018D02*
X5357142Y-61004018D01*
X8232142Y-61432590D02*
X8167857Y-61454018D01*
X8167857Y-61454018D02*
X8060714Y-61454018D01*
X8060714Y-61454018D02*
X8017857Y-61432590D01*
X8017857Y-61432590D02*
X7996428Y-61411161D01*
X7996428Y-61411161D02*
X7974999Y-61368304D01*
X7974999Y-61368304D02*
X7974999Y-61325447D01*
X7974999Y-61325447D02*
X7996428Y-61282590D01*
X7996428Y-61282590D02*
X8017857Y-61261161D01*
X8017857Y-61261161D02*
X8060714Y-61239732D01*
X8060714Y-61239732D02*
X8146428Y-61218304D01*
X8146428Y-61218304D02*
X8189285Y-61196875D01*
X8189285Y-61196875D02*
X8210714Y-61175447D01*
X8210714Y-61175447D02*
X8232142Y-61132590D01*
X8232142Y-61132590D02*
X8232142Y-61089732D01*
X8232142Y-61089732D02*
X8210714Y-61046875D01*
X8210714Y-61046875D02*
X8189285Y-61025447D01*
X8189285Y-61025447D02*
X8146428Y-61004018D01*
X8146428Y-61004018D02*
X8039285Y-61004018D01*
X8039285Y-61004018D02*
X7974999Y-61025447D01*
X7782143Y-61218304D02*
X7632143Y-61218304D01*
X7567857Y-61454018D02*
X7782143Y-61454018D01*
X7782143Y-61454018D02*
X7782143Y-61004018D01*
X7782143Y-61004018D02*
X7567857Y-61004018D01*
X10164285Y-61454018D02*
X10314285Y-61239732D01*
X10421428Y-61454018D02*
X10421428Y-61004018D01*
X10421428Y-61004018D02*
X10249999Y-61004018D01*
X10249999Y-61004018D02*
X10207142Y-61025447D01*
X10207142Y-61025447D02*
X10185713Y-61046875D01*
X10185713Y-61046875D02*
X10164285Y-61089732D01*
X10164285Y-61089732D02*
X10164285Y-61154018D01*
X10164285Y-61154018D02*
X10185713Y-61196875D01*
X10185713Y-61196875D02*
X10207142Y-61218304D01*
X10207142Y-61218304D02*
X10249999Y-61239732D01*
X10249999Y-61239732D02*
X10421428Y-61239732D01*
X9971428Y-61218304D02*
X9821428Y-61218304D01*
X9757142Y-61454018D02*
X9971428Y-61454018D01*
X9971428Y-61454018D02*
X9971428Y-61004018D01*
X9971428Y-61004018D02*
X9757142Y-61004018D01*
X12364285Y-61411161D02*
X12385713Y-61432590D01*
X12385713Y-61432590D02*
X12449999Y-61454018D01*
X12449999Y-61454018D02*
X12492856Y-61454018D01*
X12492856Y-61454018D02*
X12557142Y-61432590D01*
X12557142Y-61432590D02*
X12599999Y-61389732D01*
X12599999Y-61389732D02*
X12621428Y-61346875D01*
X12621428Y-61346875D02*
X12642856Y-61261161D01*
X12642856Y-61261161D02*
X12642856Y-61196875D01*
X12642856Y-61196875D02*
X12621428Y-61111161D01*
X12621428Y-61111161D02*
X12599999Y-61068304D01*
X12599999Y-61068304D02*
X12557142Y-61025447D01*
X12557142Y-61025447D02*
X12492856Y-61004018D01*
X12492856Y-61004018D02*
X12449999Y-61004018D01*
X12449999Y-61004018D02*
X12385713Y-61025447D01*
X12385713Y-61025447D02*
X12364285Y-61046875D01*
X12171428Y-61218304D02*
X12021428Y-61218304D01*
X11957142Y-61454018D02*
X12171428Y-61454018D01*
X12171428Y-61454018D02*
X12171428Y-61004018D01*
X12171428Y-61004018D02*
X11957142Y-61004018D01*
%TO.C,R33*%
D13*
X8840000Y-26716636D02*
X8840000Y-31070764D01*
X12260000Y-26716636D02*
X12260000Y-31070764D01*
%TO.C,R81*%
X8840000Y-39777064D02*
X8840000Y-35422936D01*
X12260000Y-39777064D02*
X12260000Y-35422936D01*
%TO.C,R83*%
X21740000Y-40977064D02*
X21740000Y-36622936D01*
X25160000Y-40977064D02*
X25160000Y-36622936D01*
%TO.C,J11*%
D14*
X45100000Y-54525000D02*
X45100000Y-60475000D01*
X45100000Y-60475000D02*
X48500000Y-60475000D01*
X48500000Y-54525000D02*
X45100000Y-54525000D01*
X48500000Y-60475000D02*
X48500000Y-54525000D01*
%TO.C,J2*%
X9250000Y-2803100D02*
X9250000Y-6203100D01*
X9250000Y-6203100D02*
X15550000Y-6203100D01*
X15550000Y-2803100D02*
X9250000Y-2803100D01*
X15550000Y-6203100D02*
X15550000Y-2803100D01*
%TO.C,U16*%
D15*
X9640000Y-57950000D02*
G75*
G02*
X9460000Y-57950000I-90000J0D01*
G01*
X9460000Y-57950000D02*
G75*
G02*
X9640000Y-57950000I90000J0D01*
G01*
%TO.C,U23*%
D13*
X8350000Y-46140000D02*
X6850000Y-46140000D01*
X8350000Y-47860000D02*
X6850000Y-47860000D01*
X8800000Y-46400000D02*
X9080000Y-46400000D01*
X8800000Y-46120000D01*
X8800000Y-46400000D01*
G36*
X9080000Y-46400000D02*
G01*
X8800000Y-46400000D01*
X8800000Y-46120000D01*
X9080000Y-46400000D01*
G37*
%TO.C,J13*%
D14*
X27800000Y-61200000D02*
X27800000Y-64600000D01*
X27800000Y-64600000D02*
X31400000Y-64600000D01*
X31400000Y-61200000D02*
X27800000Y-61200000D01*
X31400000Y-64600000D02*
X31400000Y-61200000D01*
%TO.C,D11*%
X15140000Y-48800000D02*
G75*
G02*
X15040000Y-48800000I-50000J0D01*
G01*
X15040000Y-48800000D02*
G75*
G02*
X15140000Y-48800000I50000J0D01*
G01*
%TO.C,R35*%
D13*
X21740000Y-27935436D02*
X21740000Y-32289564D01*
X25160000Y-27935436D02*
X25160000Y-32289564D01*
%TO.C,U10*%
D14*
X18900000Y-53900000D02*
X18900000Y-57100000D01*
X18900000Y-57100000D02*
X21100000Y-57100000D01*
X21100000Y-53900000D02*
X18900000Y-53900000D01*
X21100000Y-57100000D02*
X21100000Y-53900000D01*
X21400000Y-54300000D02*
X21400000Y-54300000D01*
X21500000Y-54300000D02*
X21500000Y-54300000D01*
X21400000Y-54300000D02*
G75*
G02*
X21500000Y-54300000I50000J0D01*
G01*
X21500000Y-54300000D02*
G75*
G02*
X21400000Y-54300000I-50000J0D01*
G01*
%TO.C,R82*%
D13*
X15290000Y-40977064D02*
X15290000Y-36622936D01*
X18710000Y-40977064D02*
X18710000Y-36622936D01*
%TO.C,J10*%
D14*
X45100000Y-39625000D02*
X45100000Y-52175000D01*
X45100000Y-52175000D02*
X48500000Y-52175000D01*
X48500000Y-39625000D02*
X45100000Y-39625000D01*
X48500000Y-52175000D02*
X48500000Y-39625000D01*
%TO.C,J6*%
X4750000Y-60700000D02*
X4750000Y-64100000D01*
X4750000Y-64100000D02*
X13250000Y-64100000D01*
X13250000Y-60700000D02*
X4750000Y-60700000D01*
X13250000Y-64100000D02*
X13250000Y-60700000D01*
%TO.C,R122*%
D13*
X32940000Y-62677064D02*
X32940000Y-58322936D01*
X36360000Y-62677064D02*
X36360000Y-58322936D01*
%TO.C,J9*%
D14*
X45100000Y-13425000D02*
X45100000Y-21575000D01*
X45100000Y-21575000D02*
X48500000Y-21575000D01*
X48500000Y-13425000D02*
X45100000Y-13425000D01*
X48500000Y-21575000D02*
X48500000Y-13425000D01*
%TO.C,U12*%
D16*
X11300000Y-52800000D02*
X11300000Y-52800000D01*
X11300000Y-52900000D02*
X11300000Y-52900000D01*
X11300000Y-52900000D02*
X11300000Y-52900000D01*
X11300000Y-52800000D02*
G75*
G02*
X11300000Y-52900000I0J-50000D01*
G01*
X11300000Y-52900000D02*
G75*
G02*
X11300000Y-52800000I0J50000D01*
G01*
X11300000Y-52900000D02*
G75*
G02*
X11300000Y-52800000I0J50000D01*
G01*
%TO.C,R121*%
D13*
X32590000Y-44377064D02*
X32590000Y-40022936D01*
X36010000Y-44377064D02*
X36010000Y-40022936D01*
%TO.C,R36*%
X28190000Y-27935436D02*
X28190000Y-32289564D01*
X31610000Y-27935436D02*
X31610000Y-32289564D01*
%TO.C,R120*%
X32590000Y-53177064D02*
X32590000Y-48822936D01*
X36010000Y-53177064D02*
X36010000Y-48822936D01*
%TO.C,U22*%
D14*
X27350000Y-46600000D02*
G75*
G02*
X27150000Y-46600000I-100000J0D01*
G01*
X27150000Y-46600000D02*
G75*
G02*
X27350000Y-46600000I100000J0D01*
G01*
%TO.C,R34*%
D13*
X15290000Y-27935436D02*
X15290000Y-32289564D01*
X18710000Y-27935436D02*
X18710000Y-32289564D01*
%TO.C,J12*%
X-3200000Y-47350000D02*
X-1460000Y-47350000D01*
X-3200000Y-57650000D02*
X-3200000Y-47350000D01*
X-1460000Y-57650000D02*
X-3200000Y-57650000D01*
X2600000Y-47350000D02*
X1260000Y-47350000D01*
X2600000Y-48840000D02*
X2600000Y-47350000D01*
X2600000Y-56160000D02*
X2600000Y-57650000D01*
X2600000Y-56160000D02*
X3800000Y-56160000D01*
X2600000Y-57650000D02*
X1260000Y-57650000D01*
%TO.C,R32*%
X2390000Y-27935436D02*
X2390000Y-32289564D01*
X5810000Y-27935436D02*
X5810000Y-32289564D01*
%TO.C,R80*%
X2390000Y-40977064D02*
X2390000Y-36622936D01*
X5810000Y-40977064D02*
X5810000Y-36622936D01*
%TO.C,U11*%
D17*
X18975000Y-51725000D02*
G75*
G02*
X18725000Y-51725000I-125000J0D01*
G01*
X18725000Y-51725000D02*
G75*
G02*
X18975000Y-51725000I125000J0D01*
G01*
%TO.C,D12*%
D14*
X17040000Y-50800000D02*
G75*
G02*
X16940000Y-50800000I-50000J0D01*
G01*
X16940000Y-50800000D02*
G75*
G02*
X17040000Y-50800000I50000J0D01*
G01*
%TD*%
%LPC*%
G36*
X46980285Y-62233060D02*
G01*
X47161397Y-62308079D01*
X47324393Y-62416990D01*
X47463010Y-62555607D01*
X47571921Y-62718603D01*
X47646940Y-62899715D01*
X47685185Y-63091983D01*
X47685185Y-63288017D01*
X47646940Y-63480285D01*
X47571921Y-63661397D01*
X47463010Y-63824393D01*
X47324393Y-63963010D01*
X47161397Y-64071921D01*
X46980285Y-64146940D01*
X46788017Y-64185185D01*
X46591983Y-64185185D01*
X46399715Y-64146940D01*
X46218603Y-64071921D01*
X46055607Y-63963010D01*
X45916990Y-63824393D01*
X45808079Y-63661397D01*
X45733060Y-63480285D01*
X45694815Y-63288017D01*
X45694815Y-63091983D01*
X45733060Y-62899715D01*
X45808079Y-62718603D01*
X45916990Y-62555607D01*
X46055607Y-62416990D01*
X46218603Y-62308079D01*
X46399715Y-62233060D01*
X46591983Y-62194815D01*
X46788017Y-62194815D01*
X46980285Y-62233060D01*
G37*
G36*
X36079047Y-62850805D02*
G01*
X36130408Y-62856764D01*
X36147954Y-62864511D01*
X36170671Y-62869030D01*
X36194991Y-62885280D01*
X36215793Y-62894465D01*
X36230000Y-62908672D01*
X36251777Y-62923223D01*
X36266327Y-62944999D01*
X36280534Y-62959206D01*
X36289718Y-62980006D01*
X36305970Y-63004329D01*
X36310489Y-63027048D01*
X36318235Y-63044591D01*
X36324192Y-63095940D01*
X36325000Y-63100000D01*
X36325000Y-63825000D01*
X36324192Y-63829059D01*
X36318235Y-63880408D01*
X36310489Y-63897950D01*
X36305970Y-63920671D01*
X36289716Y-63944995D01*
X36280534Y-63965793D01*
X36266329Y-63979997D01*
X36251777Y-64001777D01*
X36229997Y-64016329D01*
X36215793Y-64030534D01*
X36194995Y-64039716D01*
X36170671Y-64055970D01*
X36147950Y-64060489D01*
X36130408Y-64068235D01*
X36079061Y-64074192D01*
X36075000Y-64075000D01*
X33225000Y-64075000D01*
X33220941Y-64074192D01*
X33169591Y-64068235D01*
X33152048Y-64060489D01*
X33129329Y-64055970D01*
X33105006Y-64039718D01*
X33084206Y-64030534D01*
X33069999Y-64016327D01*
X33048223Y-64001777D01*
X33033672Y-63980000D01*
X33019465Y-63965793D01*
X33010280Y-63944991D01*
X32994030Y-63920671D01*
X32989511Y-63897954D01*
X32981764Y-63880408D01*
X32975805Y-63829049D01*
X32975000Y-63825000D01*
X32975000Y-63100000D01*
X32975804Y-63095953D01*
X32981764Y-63044591D01*
X32989511Y-63027043D01*
X32994030Y-63004329D01*
X33010278Y-62980010D01*
X33019465Y-62959206D01*
X33033674Y-62944996D01*
X33048223Y-62923223D01*
X33069996Y-62908674D01*
X33084206Y-62894465D01*
X33105010Y-62885278D01*
X33129329Y-62869030D01*
X33152043Y-62864511D01*
X33169591Y-62856764D01*
X33220952Y-62850805D01*
X33225000Y-62850000D01*
X36075000Y-62850000D01*
X36079047Y-62850805D01*
G37*
G36*
X6168513Y-62063131D02*
G01*
X6224476Y-62100524D01*
X6261869Y-62156487D01*
X6275000Y-62222500D01*
X6275000Y-63577500D01*
X6261869Y-63643513D01*
X6224476Y-63699476D01*
X6168513Y-63736869D01*
X6102500Y-63750000D01*
X5297500Y-63750000D01*
X5231487Y-63736869D01*
X5175524Y-63699476D01*
X5138131Y-63643513D01*
X5125000Y-63577500D01*
X5125000Y-62222500D01*
X5138131Y-62156487D01*
X5175524Y-62100524D01*
X5231487Y-62063131D01*
X5297500Y-62050000D01*
X6102500Y-62050000D01*
X6168513Y-62063131D01*
G37*
G36*
X8368513Y-62063131D02*
G01*
X8424476Y-62100524D01*
X8461869Y-62156487D01*
X8475000Y-62222500D01*
X8475000Y-63577500D01*
X8461869Y-63643513D01*
X8424476Y-63699476D01*
X8368513Y-63736869D01*
X8302500Y-63750000D01*
X7497500Y-63750000D01*
X7431487Y-63736869D01*
X7375524Y-63699476D01*
X7338131Y-63643513D01*
X7325000Y-63577500D01*
X7325000Y-62222500D01*
X7338131Y-62156487D01*
X7375524Y-62100524D01*
X7431487Y-62063131D01*
X7497500Y-62050000D01*
X8302500Y-62050000D01*
X8368513Y-62063131D01*
G37*
G36*
X10568513Y-62063131D02*
G01*
X10624476Y-62100524D01*
X10661869Y-62156487D01*
X10675000Y-62222500D01*
X10675000Y-63577500D01*
X10661869Y-63643513D01*
X10624476Y-63699476D01*
X10568513Y-63736869D01*
X10502500Y-63750000D01*
X9697500Y-63750000D01*
X9631487Y-63736869D01*
X9575524Y-63699476D01*
X9538131Y-63643513D01*
X9525000Y-63577500D01*
X9525000Y-62222500D01*
X9538131Y-62156487D01*
X9575524Y-62100524D01*
X9631487Y-62063131D01*
X9697500Y-62050000D01*
X10502500Y-62050000D01*
X10568513Y-62063131D01*
G37*
G36*
X12768513Y-62063131D02*
G01*
X12824476Y-62100524D01*
X12861869Y-62156487D01*
X12875000Y-62222500D01*
X12875000Y-63577500D01*
X12861869Y-63643513D01*
X12824476Y-63699476D01*
X12768513Y-63736869D01*
X12702500Y-63750000D01*
X11897500Y-63750000D01*
X11831487Y-63736869D01*
X11775524Y-63699476D01*
X11738131Y-63643513D01*
X11725000Y-63577500D01*
X11725000Y-62222500D01*
X11738131Y-62156487D01*
X11775524Y-62100524D01*
X11831487Y-62063131D01*
X11897500Y-62050000D01*
X12702500Y-62050000D01*
X12768513Y-62063131D01*
G37*
G36*
X15668513Y-62063131D02*
G01*
X15724476Y-62100524D01*
X15761869Y-62156487D01*
X15775000Y-62222500D01*
X15775000Y-63577500D01*
X15761869Y-63643513D01*
X15724476Y-63699476D01*
X15668513Y-63736869D01*
X15602500Y-63750000D01*
X14797500Y-63750000D01*
X14731487Y-63736869D01*
X14675524Y-63699476D01*
X14638131Y-63643513D01*
X14625000Y-63577500D01*
X14625000Y-62222500D01*
X14638131Y-62156487D01*
X14675524Y-62100524D01*
X14731487Y-62063131D01*
X14797500Y-62050000D01*
X15602500Y-62050000D01*
X15668513Y-62063131D01*
G37*
G36*
X17368513Y-62063131D02*
G01*
X17424476Y-62100524D01*
X17461869Y-62156487D01*
X17475000Y-62222500D01*
X17475000Y-63577500D01*
X17461869Y-63643513D01*
X17424476Y-63699476D01*
X17368513Y-63736869D01*
X17302500Y-63750000D01*
X16497500Y-63750000D01*
X16431487Y-63736869D01*
X16375524Y-63699476D01*
X16338131Y-63643513D01*
X16325000Y-63577500D01*
X16325000Y-62222500D01*
X16338131Y-62156487D01*
X16375524Y-62100524D01*
X16431487Y-62063131D01*
X16497500Y-62050000D01*
X17302500Y-62050000D01*
X17368513Y-62063131D01*
G37*
G36*
X19068513Y-62063131D02*
G01*
X19124476Y-62100524D01*
X19161869Y-62156487D01*
X19175000Y-62222500D01*
X19175000Y-63577500D01*
X19161869Y-63643513D01*
X19124476Y-63699476D01*
X19068513Y-63736869D01*
X19002500Y-63750000D01*
X18197500Y-63750000D01*
X18131487Y-63736869D01*
X18075524Y-63699476D01*
X18038131Y-63643513D01*
X18025000Y-63577500D01*
X18025000Y-62222500D01*
X18038131Y-62156487D01*
X18075524Y-62100524D01*
X18131487Y-62063131D01*
X18197500Y-62050000D01*
X19002500Y-62050000D01*
X19068513Y-62063131D01*
G37*
G36*
X20768513Y-62063131D02*
G01*
X20824476Y-62100524D01*
X20861869Y-62156487D01*
X20875000Y-62222500D01*
X20875000Y-63577500D01*
X20861869Y-63643513D01*
X20824476Y-63699476D01*
X20768513Y-63736869D01*
X20702500Y-63750000D01*
X19897500Y-63750000D01*
X19831487Y-63736869D01*
X19775524Y-63699476D01*
X19738131Y-63643513D01*
X19725000Y-63577500D01*
X19725000Y-62222500D01*
X19738131Y-62156487D01*
X19775524Y-62100524D01*
X19831487Y-62063131D01*
X19897500Y-62050000D01*
X20702500Y-62050000D01*
X20768513Y-62063131D01*
G37*
G36*
X22468513Y-62063131D02*
G01*
X22524476Y-62100524D01*
X22561869Y-62156487D01*
X22575000Y-62222500D01*
X22575000Y-63577500D01*
X22561869Y-63643513D01*
X22524476Y-63699476D01*
X22468513Y-63736869D01*
X22402500Y-63750000D01*
X21597500Y-63750000D01*
X21531487Y-63736869D01*
X21475524Y-63699476D01*
X21438131Y-63643513D01*
X21425000Y-63577500D01*
X21425000Y-62222500D01*
X21438131Y-62156487D01*
X21475524Y-62100524D01*
X21531487Y-62063131D01*
X21597500Y-62050000D01*
X22402500Y-62050000D01*
X22468513Y-62063131D01*
G37*
G36*
X28968513Y-62063131D02*
G01*
X29024476Y-62100524D01*
X29061869Y-62156487D01*
X29075000Y-62222500D01*
X29075000Y-63577500D01*
X29061869Y-63643513D01*
X29024476Y-63699476D01*
X28968513Y-63736869D01*
X28902500Y-63750000D01*
X28097500Y-63750000D01*
X28031487Y-63736869D01*
X27975524Y-63699476D01*
X27938131Y-63643513D01*
X27925000Y-63577500D01*
X27925000Y-62222500D01*
X27938131Y-62156487D01*
X27975524Y-62100524D01*
X28031487Y-62063131D01*
X28097500Y-62050000D01*
X28902500Y-62050000D01*
X28968513Y-62063131D01*
G37*
G36*
X31168513Y-62063131D02*
G01*
X31224476Y-62100524D01*
X31261869Y-62156487D01*
X31275000Y-62222500D01*
X31275000Y-63577500D01*
X31261869Y-63643513D01*
X31224476Y-63699476D01*
X31168513Y-63736869D01*
X31102500Y-63750000D01*
X30297500Y-63750000D01*
X30231487Y-63736869D01*
X30175524Y-63699476D01*
X30138131Y-63643513D01*
X30125000Y-63577500D01*
X30125000Y-62222500D01*
X30138131Y-62156487D01*
X30175524Y-62100524D01*
X30231487Y-62063131D01*
X30297500Y-62050000D01*
X31102500Y-62050000D01*
X31168513Y-62063131D01*
G37*
G36*
X47543513Y-59138131D02*
G01*
X47599476Y-59175524D01*
X47636869Y-59231487D01*
X47650000Y-59297500D01*
X47650000Y-60102500D01*
X47636869Y-60168513D01*
X47599476Y-60224476D01*
X47543513Y-60261869D01*
X47477500Y-60275000D01*
X46122500Y-60275000D01*
X46056487Y-60261869D01*
X46000524Y-60224476D01*
X45963131Y-60168513D01*
X45950000Y-60102500D01*
X45950000Y-59297500D01*
X45963131Y-59231487D01*
X46000524Y-59175524D01*
X46056487Y-59138131D01*
X46122500Y-59125000D01*
X47477500Y-59125000D01*
X47543513Y-59138131D01*
G37*
G36*
X25844442Y-57981851D02*
G01*
X25873640Y-58001360D01*
X25893149Y-58030558D01*
X25900000Y-58065000D01*
X25900000Y-58485000D01*
X25893149Y-58519442D01*
X25873640Y-58548640D01*
X25844442Y-58568149D01*
X25810000Y-58575000D01*
X23690000Y-58575000D01*
X23655558Y-58568149D01*
X23626360Y-58548640D01*
X23606851Y-58519442D01*
X23600000Y-58485000D01*
X23600000Y-58065000D01*
X23606851Y-58030558D01*
X23626360Y-58001360D01*
X23655558Y-57981851D01*
X23690000Y-57975000D01*
X25810000Y-57975000D01*
X25844442Y-57981851D01*
G37*
G36*
X1000000Y-58550000D02*
G01*
X-1200000Y-58550000D01*
X-1200000Y-56750000D01*
X1000000Y-56750000D01*
X1000000Y-58550000D01*
G37*
G36*
X36079047Y-56925805D02*
G01*
X36130408Y-56931764D01*
X36147954Y-56939511D01*
X36170671Y-56944030D01*
X36194991Y-56960280D01*
X36215793Y-56969465D01*
X36230000Y-56983672D01*
X36251777Y-56998223D01*
X36266327Y-57019999D01*
X36280534Y-57034206D01*
X36289718Y-57055006D01*
X36305970Y-57079329D01*
X36310489Y-57102048D01*
X36318235Y-57119591D01*
X36324192Y-57170940D01*
X36325000Y-57175000D01*
X36325000Y-57900000D01*
X36324192Y-57904059D01*
X36318235Y-57955408D01*
X36310489Y-57972950D01*
X36305970Y-57995671D01*
X36289716Y-58019995D01*
X36280534Y-58040793D01*
X36266329Y-58054997D01*
X36251777Y-58076777D01*
X36229997Y-58091329D01*
X36215793Y-58105534D01*
X36194995Y-58114716D01*
X36170671Y-58130970D01*
X36147950Y-58135489D01*
X36130408Y-58143235D01*
X36079061Y-58149192D01*
X36075000Y-58150000D01*
X33225000Y-58150000D01*
X33220941Y-58149192D01*
X33169591Y-58143235D01*
X33152048Y-58135489D01*
X33129329Y-58130970D01*
X33105006Y-58114718D01*
X33084206Y-58105534D01*
X33069999Y-58091327D01*
X33048223Y-58076777D01*
X33033672Y-58055000D01*
X33019465Y-58040793D01*
X33010280Y-58019991D01*
X32994030Y-57995671D01*
X32989511Y-57972954D01*
X32981764Y-57955408D01*
X32975805Y-57904049D01*
X32975000Y-57900000D01*
X32975000Y-57175000D01*
X32975804Y-57170953D01*
X32981764Y-57119591D01*
X32989511Y-57102043D01*
X32994030Y-57079329D01*
X33010278Y-57055010D01*
X33019465Y-57034206D01*
X33033674Y-57019996D01*
X33048223Y-56998223D01*
X33069996Y-56983674D01*
X33084206Y-56969465D01*
X33105010Y-56960278D01*
X33129329Y-56944030D01*
X33152043Y-56939511D01*
X33169591Y-56931764D01*
X33220952Y-56925805D01*
X33225000Y-56925000D01*
X36075000Y-56925000D01*
X36079047Y-56925805D01*
G37*
G36*
X47543513Y-56938131D02*
G01*
X47599476Y-56975524D01*
X47636869Y-57031487D01*
X47650000Y-57097500D01*
X47650000Y-57902500D01*
X47636869Y-57968513D01*
X47599476Y-58024476D01*
X47543513Y-58061869D01*
X47477500Y-58075000D01*
X46122500Y-58075000D01*
X46056487Y-58061869D01*
X46000524Y-58024476D01*
X45963131Y-57968513D01*
X45950000Y-57902500D01*
X45950000Y-57097500D01*
X45963131Y-57031487D01*
X46000524Y-56975524D01*
X46056487Y-56938131D01*
X46122500Y-56925000D01*
X47477500Y-56925000D01*
X47543513Y-56938131D01*
G37*
G36*
X10794442Y-56756851D02*
G01*
X10823640Y-56776360D01*
X10843149Y-56805558D01*
X10850000Y-56840000D01*
X10850000Y-57660000D01*
X10843149Y-57694442D01*
X10823640Y-57723640D01*
X10794442Y-57743149D01*
X10760000Y-57750000D01*
X10040000Y-57750000D01*
X10005558Y-57743149D01*
X9976360Y-57723640D01*
X9956851Y-57694442D01*
X9950000Y-57660000D01*
X9950000Y-56840000D01*
X9956851Y-56805558D01*
X9976360Y-56776360D01*
X10005558Y-56756851D01*
X10040000Y-56750000D01*
X10760000Y-56750000D01*
X10794442Y-56756851D01*
G37*
G36*
X11994442Y-56756851D02*
G01*
X12023640Y-56776360D01*
X12043149Y-56805558D01*
X12050000Y-56840000D01*
X12050000Y-57660000D01*
X12043149Y-57694442D01*
X12023640Y-57723640D01*
X11994442Y-57743149D01*
X11960000Y-57750000D01*
X11240000Y-57750000D01*
X11205558Y-57743149D01*
X11176360Y-57723640D01*
X11156851Y-57694442D01*
X11150000Y-57660000D01*
X11150000Y-56840000D01*
X11156851Y-56805558D01*
X11176360Y-56776360D01*
X11205558Y-56756851D01*
X11240000Y-56750000D01*
X11960000Y-56750000D01*
X11994442Y-56756851D01*
G37*
G36*
X13194442Y-56756851D02*
G01*
X13223640Y-56776360D01*
X13243149Y-56805558D01*
X13250000Y-56840000D01*
X13250000Y-57660000D01*
X13243149Y-57694442D01*
X13223640Y-57723640D01*
X13194442Y-57743149D01*
X13160000Y-57750000D01*
X12440000Y-57750000D01*
X12405558Y-57743149D01*
X12376360Y-57723640D01*
X12356851Y-57694442D01*
X12350000Y-57660000D01*
X12350000Y-56840000D01*
X12356851Y-56805558D01*
X12376360Y-56776360D01*
X12405558Y-56756851D01*
X12440000Y-56750000D01*
X13160000Y-56750000D01*
X13194442Y-56756851D01*
G37*
G36*
X14394442Y-56756851D02*
G01*
X14423640Y-56776360D01*
X14443149Y-56805558D01*
X14450000Y-56840000D01*
X14450000Y-57660000D01*
X14443149Y-57694442D01*
X14423640Y-57723640D01*
X14394442Y-57743149D01*
X14360000Y-57750000D01*
X13640000Y-57750000D01*
X13605558Y-57743149D01*
X13576360Y-57723640D01*
X13556851Y-57694442D01*
X13550000Y-57660000D01*
X13550000Y-56840000D01*
X13556851Y-56805558D01*
X13576360Y-56776360D01*
X13605558Y-56756851D01*
X13640000Y-56750000D01*
X14360000Y-56750000D01*
X14394442Y-56756851D01*
G37*
G36*
X15594442Y-56756851D02*
G01*
X15623640Y-56776360D01*
X15643149Y-56805558D01*
X15650000Y-56840000D01*
X15650000Y-57660000D01*
X15643149Y-57694442D01*
X15623640Y-57723640D01*
X15594442Y-57743149D01*
X15560000Y-57750000D01*
X14840000Y-57750000D01*
X14805558Y-57743149D01*
X14776360Y-57723640D01*
X14756851Y-57694442D01*
X14750000Y-57660000D01*
X14750000Y-56840000D01*
X14756851Y-56805558D01*
X14776360Y-56776360D01*
X14805558Y-56756851D01*
X14840000Y-56750000D01*
X15560000Y-56750000D01*
X15594442Y-56756851D01*
G37*
G36*
X16794442Y-56756851D02*
G01*
X16823640Y-56776360D01*
X16843149Y-56805558D01*
X16850000Y-56840000D01*
X16850000Y-57660000D01*
X16843149Y-57694442D01*
X16823640Y-57723640D01*
X16794442Y-57743149D01*
X16760000Y-57750000D01*
X16040000Y-57750000D01*
X16005558Y-57743149D01*
X15976360Y-57723640D01*
X15956851Y-57694442D01*
X15950000Y-57660000D01*
X15950000Y-56840000D01*
X15956851Y-56805558D01*
X15976360Y-56776360D01*
X16005558Y-56756851D01*
X16040000Y-56750000D01*
X16760000Y-56750000D01*
X16794442Y-56756851D01*
G37*
G36*
X25765734Y-55591556D02*
G01*
X25836296Y-55638704D01*
X25883444Y-55709266D01*
X25900000Y-55792500D01*
X25900000Y-56807500D01*
X25883444Y-56890734D01*
X25836296Y-56961296D01*
X25765734Y-57008444D01*
X25682500Y-57025000D01*
X23817500Y-57025000D01*
X23734266Y-57008444D01*
X23663704Y-56961296D01*
X23616556Y-56890734D01*
X23600000Y-56807500D01*
X23600000Y-55792500D01*
X23616556Y-55709266D01*
X23663704Y-55638704D01*
X23734266Y-55591556D01*
X23817500Y-55575000D01*
X25682500Y-55575000D01*
X25765734Y-55591556D01*
G37*
G36*
X19649500Y-56944000D02*
G01*
X19074500Y-56944000D01*
X19074500Y-56456000D01*
X19649500Y-56456000D01*
X19649500Y-56944000D01*
G37*
G36*
X20925500Y-56944000D02*
G01*
X20350500Y-56944000D01*
X20350500Y-56456000D01*
X20925500Y-56456000D01*
X20925500Y-56944000D01*
G37*
G36*
X19649500Y-56144000D02*
G01*
X19074500Y-56144000D01*
X19074500Y-55656000D01*
X19649500Y-55656000D01*
X19649500Y-56144000D01*
G37*
G36*
X20925500Y-56144000D02*
G01*
X20350500Y-56144000D01*
X20350500Y-55656000D01*
X20925500Y-55656000D01*
X20925500Y-56144000D01*
G37*
G36*
X3800000Y-55900000D02*
G01*
X2500000Y-55900000D01*
X2500000Y-55600000D01*
X3800000Y-55600000D01*
X3800000Y-55900000D01*
G37*
G36*
X47543513Y-54738131D02*
G01*
X47599476Y-54775524D01*
X47636869Y-54831487D01*
X47650000Y-54897500D01*
X47650000Y-55702500D01*
X47636869Y-55768513D01*
X47599476Y-55824476D01*
X47543513Y-55861869D01*
X47477500Y-55875000D01*
X46122500Y-55875000D01*
X46056487Y-55861869D01*
X46000524Y-55824476D01*
X45963131Y-55768513D01*
X45950000Y-55702500D01*
X45950000Y-54897500D01*
X45963131Y-54831487D01*
X46000524Y-54775524D01*
X46056487Y-54738131D01*
X46122500Y-54725000D01*
X47477500Y-54725000D01*
X47543513Y-54738131D01*
G37*
G36*
X3800000Y-55400000D02*
G01*
X2500000Y-55400000D01*
X2500000Y-55100000D01*
X3800000Y-55100000D01*
X3800000Y-55400000D01*
G37*
G36*
X19649500Y-55344000D02*
G01*
X19074500Y-55344000D01*
X19074500Y-54856000D01*
X19649500Y-54856000D01*
X19649500Y-55344000D01*
G37*
G36*
X20925500Y-55344000D02*
G01*
X20350500Y-55344000D01*
X20350500Y-54856000D01*
X20925500Y-54856000D01*
X20925500Y-55344000D01*
G37*
G36*
X10794442Y-54256851D02*
G01*
X10823640Y-54276360D01*
X10843149Y-54305558D01*
X10850000Y-54340000D01*
X10850000Y-55160000D01*
X10843149Y-55194442D01*
X10823640Y-55223640D01*
X10794442Y-55243149D01*
X10760000Y-55250000D01*
X10040000Y-55250000D01*
X10005558Y-55243149D01*
X9976360Y-55223640D01*
X9956851Y-55194442D01*
X9950000Y-55160000D01*
X9950000Y-54340000D01*
X9956851Y-54305558D01*
X9976360Y-54276360D01*
X10005558Y-54256851D01*
X10040000Y-54250000D01*
X10760000Y-54250000D01*
X10794442Y-54256851D01*
G37*
G36*
X11994442Y-54256851D02*
G01*
X12023640Y-54276360D01*
X12043149Y-54305558D01*
X12050000Y-54340000D01*
X12050000Y-55160000D01*
X12043149Y-55194442D01*
X12023640Y-55223640D01*
X11994442Y-55243149D01*
X11960000Y-55250000D01*
X11240000Y-55250000D01*
X11205558Y-55243149D01*
X11176360Y-55223640D01*
X11156851Y-55194442D01*
X11150000Y-55160000D01*
X11150000Y-54340000D01*
X11156851Y-54305558D01*
X11176360Y-54276360D01*
X11205558Y-54256851D01*
X11240000Y-54250000D01*
X11960000Y-54250000D01*
X11994442Y-54256851D01*
G37*
G36*
X13194442Y-54256851D02*
G01*
X13223640Y-54276360D01*
X13243149Y-54305558D01*
X13250000Y-54340000D01*
X13250000Y-55160000D01*
X13243149Y-55194442D01*
X13223640Y-55223640D01*
X13194442Y-55243149D01*
X13160000Y-55250000D01*
X12440000Y-55250000D01*
X12405558Y-55243149D01*
X12376360Y-55223640D01*
X12356851Y-55194442D01*
X12350000Y-55160000D01*
X12350000Y-54340000D01*
X12356851Y-54305558D01*
X12376360Y-54276360D01*
X12405558Y-54256851D01*
X12440000Y-54250000D01*
X13160000Y-54250000D01*
X13194442Y-54256851D01*
G37*
G36*
X14394442Y-54256851D02*
G01*
X14423640Y-54276360D01*
X14443149Y-54305558D01*
X14450000Y-54340000D01*
X14450000Y-55160000D01*
X14443149Y-55194442D01*
X14423640Y-55223640D01*
X14394442Y-55243149D01*
X14360000Y-55250000D01*
X13640000Y-55250000D01*
X13605558Y-55243149D01*
X13576360Y-55223640D01*
X13556851Y-55194442D01*
X13550000Y-55160000D01*
X13550000Y-54340000D01*
X13556851Y-54305558D01*
X13576360Y-54276360D01*
X13605558Y-54256851D01*
X13640000Y-54250000D01*
X14360000Y-54250000D01*
X14394442Y-54256851D01*
G37*
G36*
X15594442Y-54256851D02*
G01*
X15623640Y-54276360D01*
X15643149Y-54305558D01*
X15650000Y-54340000D01*
X15650000Y-55160000D01*
X15643149Y-55194442D01*
X15623640Y-55223640D01*
X15594442Y-55243149D01*
X15560000Y-55250000D01*
X14840000Y-55250000D01*
X14805558Y-55243149D01*
X14776360Y-55223640D01*
X14756851Y-55194442D01*
X14750000Y-55160000D01*
X14750000Y-54340000D01*
X14756851Y-54305558D01*
X14776360Y-54276360D01*
X14805558Y-54256851D01*
X14840000Y-54250000D01*
X15560000Y-54250000D01*
X15594442Y-54256851D01*
G37*
G36*
X16794442Y-54256851D02*
G01*
X16823640Y-54276360D01*
X16843149Y-54305558D01*
X16850000Y-54340000D01*
X16850000Y-55160000D01*
X16843149Y-55194442D01*
X16823640Y-55223640D01*
X16794442Y-55243149D01*
X16760000Y-55250000D01*
X16040000Y-55250000D01*
X16005558Y-55243149D01*
X15976360Y-55223640D01*
X15956851Y-55194442D01*
X15950000Y-55160000D01*
X15950000Y-54340000D01*
X15956851Y-54305558D01*
X15976360Y-54276360D01*
X16005558Y-54256851D01*
X16040000Y-54250000D01*
X16760000Y-54250000D01*
X16794442Y-54256851D01*
G37*
G36*
X3800000Y-54900000D02*
G01*
X2500000Y-54900000D01*
X2500000Y-54600000D01*
X3800000Y-54600000D01*
X3800000Y-54900000D01*
G37*
G36*
X29179543Y-53758402D02*
G01*
X29291520Y-53823052D01*
X29382948Y-53914480D01*
X29447598Y-54026457D01*
X29481063Y-54151350D01*
X29481063Y-54280650D01*
X29447598Y-54405543D01*
X29382948Y-54517520D01*
X29291520Y-54608948D01*
X29179543Y-54673598D01*
X29054650Y-54707063D01*
X28925350Y-54707063D01*
X28800457Y-54673598D01*
X28688480Y-54608948D01*
X28597052Y-54517520D01*
X28532402Y-54405543D01*
X28498937Y-54280650D01*
X28498937Y-54151350D01*
X28532402Y-54026457D01*
X28597052Y-53914480D01*
X28688480Y-53823052D01*
X28800457Y-53758402D01*
X28925350Y-53724937D01*
X29054650Y-53724937D01*
X29179543Y-53758402D01*
G37*
G36*
X35729047Y-53350805D02*
G01*
X35780408Y-53356764D01*
X35797954Y-53364511D01*
X35820671Y-53369030D01*
X35844991Y-53385280D01*
X35865793Y-53394465D01*
X35880000Y-53408672D01*
X35901777Y-53423223D01*
X35916327Y-53444999D01*
X35930534Y-53459206D01*
X35939718Y-53480006D01*
X35955970Y-53504329D01*
X35960489Y-53527048D01*
X35968235Y-53544591D01*
X35974192Y-53595940D01*
X35975000Y-53600000D01*
X35975000Y-54325000D01*
X35974192Y-54329059D01*
X35968235Y-54380408D01*
X35960489Y-54397950D01*
X35955970Y-54420671D01*
X35939716Y-54444995D01*
X35930534Y-54465793D01*
X35916329Y-54479997D01*
X35901777Y-54501777D01*
X35879997Y-54516329D01*
X35865793Y-54530534D01*
X35844995Y-54539716D01*
X35820671Y-54555970D01*
X35797950Y-54560489D01*
X35780408Y-54568235D01*
X35729061Y-54574192D01*
X35725000Y-54575000D01*
X32875000Y-54575000D01*
X32870941Y-54574192D01*
X32819591Y-54568235D01*
X32802048Y-54560489D01*
X32779329Y-54555970D01*
X32755006Y-54539718D01*
X32734206Y-54530534D01*
X32719999Y-54516327D01*
X32698223Y-54501777D01*
X32683672Y-54480000D01*
X32669465Y-54465793D01*
X32660280Y-54444991D01*
X32644030Y-54420671D01*
X32639511Y-54397954D01*
X32631764Y-54380408D01*
X32625805Y-54329049D01*
X32625000Y-54325000D01*
X32625000Y-53600000D01*
X32625804Y-53595953D01*
X32631764Y-53544591D01*
X32639511Y-53527043D01*
X32644030Y-53504329D01*
X32660278Y-53480010D01*
X32669465Y-53459206D01*
X32683674Y-53444996D01*
X32698223Y-53423223D01*
X32719996Y-53408674D01*
X32734206Y-53394465D01*
X32755010Y-53385278D01*
X32779329Y-53369030D01*
X32802043Y-53364511D01*
X32819591Y-53356764D01*
X32870952Y-53350805D01*
X32875000Y-53350000D01*
X35725000Y-53350000D01*
X35729047Y-53350805D01*
G37*
G36*
X19649500Y-54544000D02*
G01*
X19074500Y-54544000D01*
X19074500Y-54056000D01*
X19649500Y-54056000D01*
X19649500Y-54544000D01*
G37*
G36*
X20925500Y-54544000D02*
G01*
X20350500Y-54544000D01*
X20350500Y-54056000D01*
X20925500Y-54056000D01*
X20925500Y-54544000D01*
G37*
G36*
X3800000Y-54400000D02*
G01*
X2500000Y-54400000D01*
X2500000Y-54100000D01*
X3800000Y-54100000D01*
X3800000Y-54400000D01*
G37*
G36*
X3800000Y-53900000D02*
G01*
X2500000Y-53900000D01*
X2500000Y-53600000D01*
X3800000Y-53600000D01*
X3800000Y-53900000D01*
G37*
G36*
X24099543Y-52742402D02*
G01*
X24211520Y-52807052D01*
X24302948Y-52898480D01*
X24367598Y-53010457D01*
X24401063Y-53135350D01*
X24401063Y-53264650D01*
X24367598Y-53389543D01*
X24302948Y-53501520D01*
X24211520Y-53592948D01*
X24099543Y-53657598D01*
X23974650Y-53691063D01*
X23845350Y-53691063D01*
X23720457Y-53657598D01*
X23608480Y-53592948D01*
X23517052Y-53501520D01*
X23452402Y-53389543D01*
X23418937Y-53264650D01*
X23418937Y-53135350D01*
X23452402Y-53010457D01*
X23517052Y-52898480D01*
X23608480Y-52807052D01*
X23720457Y-52742402D01*
X23845350Y-52708937D01*
X23974650Y-52708937D01*
X24099543Y-52742402D01*
G37*
G36*
X3800000Y-53400000D02*
G01*
X2500000Y-53400000D01*
X2500000Y-53100000D01*
X3800000Y-53100000D01*
X3800000Y-53400000D01*
G37*
G36*
X3800000Y-52900000D02*
G01*
X2500000Y-52900000D01*
X2500000Y-52600000D01*
X3800000Y-52600000D01*
X3800000Y-52900000D01*
G37*
G36*
X29179543Y-51726402D02*
G01*
X29291520Y-51791052D01*
X29382948Y-51882480D01*
X29447598Y-51994457D01*
X29481063Y-52119350D01*
X29481063Y-52248650D01*
X29447598Y-52373543D01*
X29382948Y-52485520D01*
X29291520Y-52576948D01*
X29179543Y-52641598D01*
X29054650Y-52675063D01*
X28925350Y-52675063D01*
X28800457Y-52641598D01*
X28688480Y-52576948D01*
X28597052Y-52485520D01*
X28532402Y-52373543D01*
X28498937Y-52248650D01*
X28498937Y-52119350D01*
X28532402Y-51994457D01*
X28597052Y-51882480D01*
X28688480Y-51791052D01*
X28800457Y-51726402D01*
X28925350Y-51692937D01*
X29054650Y-51692937D01*
X29179543Y-51726402D01*
G37*
G36*
X3800000Y-52400000D02*
G01*
X2500000Y-52400000D01*
X2500000Y-52100000D01*
X3800000Y-52100000D01*
X3800000Y-52400000D01*
G37*
G36*
X9450000Y-52350000D02*
G01*
X9150000Y-52350000D01*
X9150000Y-51550000D01*
X9450000Y-51550000D01*
X9450000Y-52350000D01*
G37*
G36*
X9950000Y-52350000D02*
G01*
X9650000Y-52350000D01*
X9650000Y-51550000D01*
X9950000Y-51550000D01*
X9950000Y-52350000D01*
G37*
G36*
X10450000Y-52350000D02*
G01*
X10150000Y-52350000D01*
X10150000Y-51550000D01*
X10450000Y-51550000D01*
X10450000Y-52350000D01*
G37*
G36*
X10950000Y-52350000D02*
G01*
X10650000Y-52350000D01*
X10650000Y-51550000D01*
X10950000Y-51550000D01*
X10950000Y-52350000D01*
G37*
G36*
X11383336Y-51575280D02*
G01*
X11424720Y-51616664D01*
X11447118Y-51670736D01*
X11450000Y-51700000D01*
X11450000Y-52200000D01*
X11447118Y-52229264D01*
X11424720Y-52283336D01*
X11383336Y-52324720D01*
X11329264Y-52347118D01*
X11270736Y-52347118D01*
X11216664Y-52324720D01*
X11175280Y-52283336D01*
X11152882Y-52229264D01*
X11150000Y-52200000D01*
X11150000Y-51700000D01*
X11152882Y-51670736D01*
X11175280Y-51616664D01*
X11216664Y-51575280D01*
X11270736Y-51552882D01*
X11329264Y-51552882D01*
X11383336Y-51575280D01*
G37*
G36*
X47543513Y-50838131D02*
G01*
X47599476Y-50875524D01*
X47636869Y-50931487D01*
X47650000Y-50997500D01*
X47650000Y-51802500D01*
X47636869Y-51868513D01*
X47599476Y-51924476D01*
X47543513Y-51961869D01*
X47477500Y-51975000D01*
X46122500Y-51975000D01*
X46056487Y-51961869D01*
X46000524Y-51924476D01*
X45963131Y-51868513D01*
X45950000Y-51802500D01*
X45950000Y-50997500D01*
X45963131Y-50931487D01*
X46000524Y-50875524D01*
X46056487Y-50838131D01*
X46122500Y-50825000D01*
X47477500Y-50825000D01*
X47543513Y-50838131D01*
G37*
G36*
X26463891Y-51704381D02*
G01*
X26495619Y-51736109D01*
X26512790Y-51777565D01*
X26512790Y-51822435D01*
X26495619Y-51863891D01*
X26463891Y-51895619D01*
X26422435Y-51912790D01*
X26377565Y-51912790D01*
X26336109Y-51895619D01*
X26304381Y-51863891D01*
X26287210Y-51822435D01*
X26287210Y-51777565D01*
X26304381Y-51736109D01*
X26336109Y-51704381D01*
X26377565Y-51687210D01*
X26422435Y-51687210D01*
X26463891Y-51704381D01*
G37*
G36*
X26863891Y-51704381D02*
G01*
X26895619Y-51736109D01*
X26912790Y-51777565D01*
X26912790Y-51822435D01*
X26895619Y-51863891D01*
X26863891Y-51895619D01*
X26822435Y-51912790D01*
X26777565Y-51912790D01*
X26736109Y-51895619D01*
X26704381Y-51863891D01*
X26687210Y-51822435D01*
X26687210Y-51777565D01*
X26704381Y-51736109D01*
X26736109Y-51704381D01*
X26777565Y-51687210D01*
X26822435Y-51687210D01*
X26863891Y-51704381D01*
G37*
G36*
X27263891Y-51704381D02*
G01*
X27295619Y-51736109D01*
X27312790Y-51777565D01*
X27312790Y-51822435D01*
X27295619Y-51863891D01*
X27263891Y-51895619D01*
X27222435Y-51912790D01*
X27177565Y-51912790D01*
X27136109Y-51895619D01*
X27104381Y-51863891D01*
X27087210Y-51822435D01*
X27087210Y-51777565D01*
X27104381Y-51736109D01*
X27136109Y-51704381D01*
X27177565Y-51687210D01*
X27222435Y-51687210D01*
X27263891Y-51704381D01*
G37*
G36*
X27663891Y-51704381D02*
G01*
X27695619Y-51736109D01*
X27712790Y-51777565D01*
X27712790Y-51822435D01*
X27695619Y-51863891D01*
X27663891Y-51895619D01*
X27622435Y-51912790D01*
X27577565Y-51912790D01*
X27536109Y-51895619D01*
X27504381Y-51863891D01*
X27487210Y-51822435D01*
X27487210Y-51777565D01*
X27504381Y-51736109D01*
X27536109Y-51704381D01*
X27577565Y-51687210D01*
X27622435Y-51687210D01*
X27663891Y-51704381D01*
G37*
G36*
X28063891Y-51704381D02*
G01*
X28095619Y-51736109D01*
X28112790Y-51777565D01*
X28112790Y-51822435D01*
X28095619Y-51863891D01*
X28063891Y-51895619D01*
X28022435Y-51912790D01*
X27977565Y-51912790D01*
X27936109Y-51895619D01*
X27904381Y-51863891D01*
X27887210Y-51822435D01*
X27887210Y-51777565D01*
X27904381Y-51736109D01*
X27936109Y-51704381D01*
X27977565Y-51687210D01*
X28022435Y-51687210D01*
X28063891Y-51704381D01*
G37*
G36*
X3800000Y-51900000D02*
G01*
X2500000Y-51900000D01*
X2500000Y-51600000D01*
X3800000Y-51600000D01*
X3800000Y-51900000D01*
G37*
G36*
X26883336Y-51275280D02*
G01*
X26924720Y-51316664D01*
X26947118Y-51370736D01*
X26947118Y-51429264D01*
X26924720Y-51483336D01*
X26883336Y-51524720D01*
X26829264Y-51547118D01*
X26770736Y-51547118D01*
X26716664Y-51524720D01*
X26675280Y-51483336D01*
X26652882Y-51429264D01*
X26652882Y-51370736D01*
X26675280Y-51316664D01*
X26716664Y-51275280D01*
X26770736Y-51252882D01*
X26829264Y-51252882D01*
X26883336Y-51275280D01*
G37*
G36*
X27283336Y-51275280D02*
G01*
X27324720Y-51316664D01*
X27347118Y-51370736D01*
X27347118Y-51429264D01*
X27324720Y-51483336D01*
X27283336Y-51524720D01*
X27229264Y-51547118D01*
X27170736Y-51547118D01*
X27116664Y-51524720D01*
X27075280Y-51483336D01*
X27052882Y-51429264D01*
X27052882Y-51370736D01*
X27075280Y-51316664D01*
X27116664Y-51275280D01*
X27170736Y-51252882D01*
X27229264Y-51252882D01*
X27283336Y-51275280D01*
G37*
G36*
X27683336Y-51275280D02*
G01*
X27724720Y-51316664D01*
X27747118Y-51370736D01*
X27747118Y-51429264D01*
X27724720Y-51483336D01*
X27683336Y-51524720D01*
X27629264Y-51547118D01*
X27570736Y-51547118D01*
X27516664Y-51524720D01*
X27475280Y-51483336D01*
X27452882Y-51429264D01*
X27452882Y-51370736D01*
X27475280Y-51316664D01*
X27516664Y-51275280D01*
X27570736Y-51252882D01*
X27629264Y-51252882D01*
X27683336Y-51275280D01*
G37*
G36*
X26463891Y-51304381D02*
G01*
X26495619Y-51336109D01*
X26512790Y-51377565D01*
X26512790Y-51422435D01*
X26495619Y-51463891D01*
X26463891Y-51495619D01*
X26422435Y-51512790D01*
X26377565Y-51512790D01*
X26336109Y-51495619D01*
X26304381Y-51463891D01*
X26287210Y-51422435D01*
X26287210Y-51377565D01*
X26304381Y-51336109D01*
X26336109Y-51304381D01*
X26377565Y-51287210D01*
X26422435Y-51287210D01*
X26463891Y-51304381D01*
G37*
G36*
X28063891Y-51304381D02*
G01*
X28095619Y-51336109D01*
X28112790Y-51377565D01*
X28112790Y-51422435D01*
X28095619Y-51463891D01*
X28063891Y-51495619D01*
X28022435Y-51512790D01*
X27977565Y-51512790D01*
X27936109Y-51495619D01*
X27904381Y-51463891D01*
X27887210Y-51422435D01*
X27887210Y-51377565D01*
X27904381Y-51336109D01*
X27936109Y-51304381D01*
X27977565Y-51287210D01*
X28022435Y-51287210D01*
X28063891Y-51304381D01*
G37*
G36*
X3800000Y-51400000D02*
G01*
X2500000Y-51400000D01*
X2500000Y-51100000D01*
X3800000Y-51100000D01*
X3800000Y-51400000D01*
G37*
G36*
X11550000Y-51350000D02*
G01*
X9050000Y-51350000D01*
X9050000Y-49250000D01*
X11550000Y-49250000D01*
X11550000Y-51350000D01*
G37*
G36*
X20750000Y-51250000D02*
G01*
X19650000Y-51250000D01*
X19650000Y-49550000D01*
X20750000Y-49550000D01*
X20750000Y-51250000D01*
G37*
G36*
X19450000Y-51225000D02*
G01*
X18850000Y-51225000D01*
X18850000Y-50875000D01*
X19450000Y-50875000D01*
X19450000Y-51225000D01*
G37*
G36*
X21550000Y-51225000D02*
G01*
X20950000Y-51225000D01*
X20950000Y-50875000D01*
X21550000Y-50875000D01*
X21550000Y-51225000D01*
G37*
G36*
X26883336Y-50875280D02*
G01*
X26924720Y-50916664D01*
X26947118Y-50970736D01*
X26947118Y-51029264D01*
X26924720Y-51083336D01*
X26883336Y-51124720D01*
X26829264Y-51147118D01*
X26770736Y-51147118D01*
X26716664Y-51124720D01*
X26675280Y-51083336D01*
X26652882Y-51029264D01*
X26652882Y-50970736D01*
X26675280Y-50916664D01*
X26716664Y-50875280D01*
X26770736Y-50852882D01*
X26829264Y-50852882D01*
X26883336Y-50875280D01*
G37*
G36*
X27683336Y-50875280D02*
G01*
X27724720Y-50916664D01*
X27747118Y-50970736D01*
X27747118Y-51029264D01*
X27724720Y-51083336D01*
X27683336Y-51124720D01*
X27629264Y-51147118D01*
X27570736Y-51147118D01*
X27516664Y-51124720D01*
X27475280Y-51083336D01*
X27452882Y-51029264D01*
X27452882Y-50970736D01*
X27475280Y-50916664D01*
X27516664Y-50875280D01*
X27570736Y-50852882D01*
X27629264Y-50852882D01*
X27683336Y-50875280D01*
G37*
G36*
X15618946Y-50491228D02*
G01*
X15666798Y-50523202D01*
X15698772Y-50571054D01*
X15710000Y-50627500D01*
X15710000Y-50972500D01*
X15698772Y-51028946D01*
X15666798Y-51076798D01*
X15618946Y-51108772D01*
X15562500Y-51120000D01*
X15267500Y-51120000D01*
X15211054Y-51108772D01*
X15163202Y-51076798D01*
X15131228Y-51028946D01*
X15120000Y-50972500D01*
X15120000Y-50627500D01*
X15131228Y-50571054D01*
X15163202Y-50523202D01*
X15211054Y-50491228D01*
X15267500Y-50480000D01*
X15562500Y-50480000D01*
X15618946Y-50491228D01*
G37*
G36*
X16588946Y-50491228D02*
G01*
X16636798Y-50523202D01*
X16668772Y-50571054D01*
X16680000Y-50627500D01*
X16680000Y-50972500D01*
X16668772Y-51028946D01*
X16636798Y-51076798D01*
X16588946Y-51108772D01*
X16532500Y-51120000D01*
X16237500Y-51120000D01*
X16181054Y-51108772D01*
X16133202Y-51076798D01*
X16101228Y-51028946D01*
X16090000Y-50972500D01*
X16090000Y-50627500D01*
X16101228Y-50571054D01*
X16133202Y-50523202D01*
X16181054Y-50491228D01*
X16237500Y-50480000D01*
X16532500Y-50480000D01*
X16588946Y-50491228D01*
G37*
G36*
X26463891Y-50904381D02*
G01*
X26495619Y-50936109D01*
X26512790Y-50977565D01*
X26512790Y-51022435D01*
X26495619Y-51063891D01*
X26463891Y-51095619D01*
X26422435Y-51112790D01*
X26377565Y-51112790D01*
X26336109Y-51095619D01*
X26304381Y-51063891D01*
X26287210Y-51022435D01*
X26287210Y-50977565D01*
X26304381Y-50936109D01*
X26336109Y-50904381D01*
X26377565Y-50887210D01*
X26422435Y-50887210D01*
X26463891Y-50904381D01*
G37*
G36*
X27263891Y-50904381D02*
G01*
X27295619Y-50936109D01*
X27312790Y-50977565D01*
X27312790Y-51022435D01*
X27295619Y-51063891D01*
X27263891Y-51095619D01*
X27222435Y-51112790D01*
X27177565Y-51112790D01*
X27136109Y-51095619D01*
X27104381Y-51063891D01*
X27087210Y-51022435D01*
X27087210Y-50977565D01*
X27104381Y-50936109D01*
X27136109Y-50904381D01*
X27177565Y-50887210D01*
X27222435Y-50887210D01*
X27263891Y-50904381D01*
G37*
G36*
X28063891Y-50904381D02*
G01*
X28095619Y-50936109D01*
X28112790Y-50977565D01*
X28112790Y-51022435D01*
X28095619Y-51063891D01*
X28063891Y-51095619D01*
X28022435Y-51112790D01*
X27977565Y-51112790D01*
X27936109Y-51095619D01*
X27904381Y-51063891D01*
X27887210Y-51022435D01*
X27887210Y-50977565D01*
X27904381Y-50936109D01*
X27936109Y-50904381D01*
X27977565Y-50887210D01*
X28022435Y-50887210D01*
X28063891Y-50904381D01*
G37*
G36*
X3800000Y-50900000D02*
G01*
X2500000Y-50900000D01*
X2500000Y-50600000D01*
X3800000Y-50600000D01*
X3800000Y-50900000D01*
G37*
G36*
X26883336Y-50475280D02*
G01*
X26924720Y-50516664D01*
X26947118Y-50570736D01*
X26947118Y-50629264D01*
X26924720Y-50683336D01*
X26883336Y-50724720D01*
X26829264Y-50747118D01*
X26770736Y-50747118D01*
X26716664Y-50724720D01*
X26675280Y-50683336D01*
X26652882Y-50629264D01*
X26652882Y-50570736D01*
X26675280Y-50516664D01*
X26716664Y-50475280D01*
X26770736Y-50452882D01*
X26829264Y-50452882D01*
X26883336Y-50475280D01*
G37*
G36*
X26463891Y-50504381D02*
G01*
X26495619Y-50536109D01*
X26512790Y-50577565D01*
X26512790Y-50622435D01*
X26495619Y-50663891D01*
X26463891Y-50695619D01*
X26422435Y-50712790D01*
X26377565Y-50712790D01*
X26336109Y-50695619D01*
X26304381Y-50663891D01*
X26287210Y-50622435D01*
X26287210Y-50577565D01*
X26304381Y-50536109D01*
X26336109Y-50504381D01*
X26377565Y-50487210D01*
X26422435Y-50487210D01*
X26463891Y-50504381D01*
G37*
G36*
X27263891Y-50504381D02*
G01*
X27295619Y-50536109D01*
X27312790Y-50577565D01*
X27312790Y-50622435D01*
X27295619Y-50663891D01*
X27263891Y-50695619D01*
X27222435Y-50712790D01*
X27177565Y-50712790D01*
X27136109Y-50695619D01*
X27104381Y-50663891D01*
X27087210Y-50622435D01*
X27087210Y-50577565D01*
X27104381Y-50536109D01*
X27136109Y-50504381D01*
X27177565Y-50487210D01*
X27222435Y-50487210D01*
X27263891Y-50504381D01*
G37*
G36*
X27663891Y-50504381D02*
G01*
X27695619Y-50536109D01*
X27712790Y-50577565D01*
X27712790Y-50622435D01*
X27695619Y-50663891D01*
X27663891Y-50695619D01*
X27622435Y-50712790D01*
X27577565Y-50712790D01*
X27536109Y-50695619D01*
X27504381Y-50663891D01*
X27487210Y-50622435D01*
X27487210Y-50577565D01*
X27504381Y-50536109D01*
X27536109Y-50504381D01*
X27577565Y-50487210D01*
X27622435Y-50487210D01*
X27663891Y-50504381D01*
G37*
G36*
X28063891Y-50504381D02*
G01*
X28095619Y-50536109D01*
X28112790Y-50577565D01*
X28112790Y-50622435D01*
X28095619Y-50663891D01*
X28063891Y-50695619D01*
X28022435Y-50712790D01*
X27977565Y-50712790D01*
X27936109Y-50695619D01*
X27904381Y-50663891D01*
X27887210Y-50622435D01*
X27887210Y-50577565D01*
X27904381Y-50536109D01*
X27936109Y-50504381D01*
X27977565Y-50487210D01*
X28022435Y-50487210D01*
X28063891Y-50504381D01*
G37*
G36*
X19450000Y-50575000D02*
G01*
X18850000Y-50575000D01*
X18850000Y-50225000D01*
X19450000Y-50225000D01*
X19450000Y-50575000D01*
G37*
G36*
X21550000Y-50575000D02*
G01*
X20950000Y-50575000D01*
X20950000Y-50225000D01*
X21550000Y-50225000D01*
X21550000Y-50575000D01*
G37*
G36*
X3800000Y-50400000D02*
G01*
X2500000Y-50400000D01*
X2500000Y-50100000D01*
X3800000Y-50100000D01*
X3800000Y-50400000D01*
G37*
G36*
X26883336Y-50075280D02*
G01*
X26924720Y-50116664D01*
X26947118Y-50170736D01*
X26947118Y-50229264D01*
X26924720Y-50283336D01*
X26883336Y-50324720D01*
X26829264Y-50347118D01*
X26770736Y-50347118D01*
X26716664Y-50324720D01*
X26675280Y-50283336D01*
X26652882Y-50229264D01*
X26652882Y-50170736D01*
X26675280Y-50116664D01*
X26716664Y-50075280D01*
X26770736Y-50052882D01*
X26829264Y-50052882D01*
X26883336Y-50075280D01*
G37*
G36*
X27283336Y-50075280D02*
G01*
X27324720Y-50116664D01*
X27347118Y-50170736D01*
X27347118Y-50229264D01*
X27324720Y-50283336D01*
X27283336Y-50324720D01*
X27229264Y-50347118D01*
X27170736Y-50347118D01*
X27116664Y-50324720D01*
X27075280Y-50283336D01*
X27052882Y-50229264D01*
X27052882Y-50170736D01*
X27075280Y-50116664D01*
X27116664Y-50075280D01*
X27170736Y-50052882D01*
X27229264Y-50052882D01*
X27283336Y-50075280D01*
G37*
G36*
X27683336Y-50075280D02*
G01*
X27724720Y-50116664D01*
X27747118Y-50170736D01*
X27747118Y-50229264D01*
X27724720Y-50283336D01*
X27683336Y-50324720D01*
X27629264Y-50347118D01*
X27570736Y-50347118D01*
X27516664Y-50324720D01*
X27475280Y-50283336D01*
X27452882Y-50229264D01*
X27452882Y-50170736D01*
X27475280Y-50116664D01*
X27516664Y-50075280D01*
X27570736Y-50052882D01*
X27629264Y-50052882D01*
X27683336Y-50075280D01*
G37*
G36*
X26463891Y-50104381D02*
G01*
X26495619Y-50136109D01*
X26512790Y-50177565D01*
X26512790Y-50222435D01*
X26495619Y-50263891D01*
X26463891Y-50295619D01*
X26422435Y-50312790D01*
X26377565Y-50312790D01*
X26336109Y-50295619D01*
X26304381Y-50263891D01*
X26287210Y-50222435D01*
X26287210Y-50177565D01*
X26304381Y-50136109D01*
X26336109Y-50104381D01*
X26377565Y-50087210D01*
X26422435Y-50087210D01*
X26463891Y-50104381D01*
G37*
G36*
X28063891Y-50104381D02*
G01*
X28095619Y-50136109D01*
X28112790Y-50177565D01*
X28112790Y-50222435D01*
X28095619Y-50263891D01*
X28063891Y-50295619D01*
X28022435Y-50312790D01*
X27977565Y-50312790D01*
X27936109Y-50295619D01*
X27904381Y-50263891D01*
X27887210Y-50222435D01*
X27887210Y-50177565D01*
X27904381Y-50136109D01*
X27936109Y-50104381D01*
X27977565Y-50087210D01*
X28022435Y-50087210D01*
X28063891Y-50104381D01*
G37*
G36*
X19450000Y-49925000D02*
G01*
X18850000Y-49925000D01*
X18850000Y-49575000D01*
X19450000Y-49575000D01*
X19450000Y-49925000D01*
G37*
G36*
X21550000Y-49925000D02*
G01*
X20950000Y-49925000D01*
X20950000Y-49575000D01*
X21550000Y-49575000D01*
X21550000Y-49925000D01*
G37*
G36*
X26463891Y-49704381D02*
G01*
X26495619Y-49736109D01*
X26512790Y-49777565D01*
X26512790Y-49822435D01*
X26495619Y-49863891D01*
X26463891Y-49895619D01*
X26422435Y-49912790D01*
X26377565Y-49912790D01*
X26336109Y-49895619D01*
X26304381Y-49863891D01*
X26287210Y-49822435D01*
X26287210Y-49777565D01*
X26304381Y-49736109D01*
X26336109Y-49704381D01*
X26377565Y-49687210D01*
X26422435Y-49687210D01*
X26463891Y-49704381D01*
G37*
G36*
X26863891Y-49704381D02*
G01*
X26895619Y-49736109D01*
X26912790Y-49777565D01*
X26912790Y-49822435D01*
X26895619Y-49863891D01*
X26863891Y-49895619D01*
X26822435Y-49912790D01*
X26777565Y-49912790D01*
X26736109Y-49895619D01*
X26704381Y-49863891D01*
X26687210Y-49822435D01*
X26687210Y-49777565D01*
X26704381Y-49736109D01*
X26736109Y-49704381D01*
X26777565Y-49687210D01*
X26822435Y-49687210D01*
X26863891Y-49704381D01*
G37*
G36*
X27263891Y-49704381D02*
G01*
X27295619Y-49736109D01*
X27312790Y-49777565D01*
X27312790Y-49822435D01*
X27295619Y-49863891D01*
X27263891Y-49895619D01*
X27222435Y-49912790D01*
X27177565Y-49912790D01*
X27136109Y-49895619D01*
X27104381Y-49863891D01*
X27087210Y-49822435D01*
X27087210Y-49777565D01*
X27104381Y-49736109D01*
X27136109Y-49704381D01*
X27177565Y-49687210D01*
X27222435Y-49687210D01*
X27263891Y-49704381D01*
G37*
G36*
X27663891Y-49704381D02*
G01*
X27695619Y-49736109D01*
X27712790Y-49777565D01*
X27712790Y-49822435D01*
X27695619Y-49863891D01*
X27663891Y-49895619D01*
X27622435Y-49912790D01*
X27577565Y-49912790D01*
X27536109Y-49895619D01*
X27504381Y-49863891D01*
X27487210Y-49822435D01*
X27487210Y-49777565D01*
X27504381Y-49736109D01*
X27536109Y-49704381D01*
X27577565Y-49687210D01*
X27622435Y-49687210D01*
X27663891Y-49704381D01*
G37*
G36*
X28063891Y-49704381D02*
G01*
X28095619Y-49736109D01*
X28112790Y-49777565D01*
X28112790Y-49822435D01*
X28095619Y-49863891D01*
X28063891Y-49895619D01*
X28022435Y-49912790D01*
X27977565Y-49912790D01*
X27936109Y-49895619D01*
X27904381Y-49863891D01*
X27887210Y-49822435D01*
X27887210Y-49777565D01*
X27904381Y-49736109D01*
X27936109Y-49704381D01*
X27977565Y-49687210D01*
X28022435Y-49687210D01*
X28063891Y-49704381D01*
G37*
G36*
X3800000Y-49900000D02*
G01*
X2500000Y-49900000D01*
X2500000Y-49600000D01*
X3800000Y-49600000D01*
X3800000Y-49900000D01*
G37*
G36*
X47543513Y-48638131D02*
G01*
X47599476Y-48675524D01*
X47636869Y-48731487D01*
X47650000Y-48797500D01*
X47650000Y-49602500D01*
X47636869Y-49668513D01*
X47599476Y-49724476D01*
X47543513Y-49761869D01*
X47477500Y-49775000D01*
X46122500Y-49775000D01*
X46056487Y-49761869D01*
X46000524Y-49724476D01*
X45963131Y-49668513D01*
X45950000Y-49602500D01*
X45950000Y-48797500D01*
X45963131Y-48731487D01*
X46000524Y-48675524D01*
X46056487Y-48638131D01*
X46122500Y-48625000D01*
X47477500Y-48625000D01*
X47543513Y-48638131D01*
G37*
G36*
X3800000Y-49400000D02*
G01*
X2500000Y-49400000D01*
X2500000Y-49100000D01*
X3800000Y-49100000D01*
X3800000Y-49400000D01*
G37*
G36*
X13718946Y-48491228D02*
G01*
X13766798Y-48523202D01*
X13798772Y-48571054D01*
X13810000Y-48627500D01*
X13810000Y-48972500D01*
X13798772Y-49028946D01*
X13766798Y-49076798D01*
X13718946Y-49108772D01*
X13662500Y-49120000D01*
X13367500Y-49120000D01*
X13311054Y-49108772D01*
X13263202Y-49076798D01*
X13231228Y-49028946D01*
X13220000Y-48972500D01*
X13220000Y-48627500D01*
X13231228Y-48571054D01*
X13263202Y-48523202D01*
X13311054Y-48491228D01*
X13367500Y-48480000D01*
X13662500Y-48480000D01*
X13718946Y-48491228D01*
G37*
G36*
X14688946Y-48491228D02*
G01*
X14736798Y-48523202D01*
X14768772Y-48571054D01*
X14780000Y-48627500D01*
X14780000Y-48972500D01*
X14768772Y-49028946D01*
X14736798Y-49076798D01*
X14688946Y-49108772D01*
X14632500Y-49120000D01*
X14337500Y-49120000D01*
X14281054Y-49108772D01*
X14233202Y-49076798D01*
X14201228Y-49028946D01*
X14190000Y-48972500D01*
X14190000Y-48627500D01*
X14201228Y-48571054D01*
X14233202Y-48523202D01*
X14281054Y-48491228D01*
X14337500Y-48480000D01*
X14632500Y-48480000D01*
X14688946Y-48491228D01*
G37*
G36*
X35729047Y-47425805D02*
G01*
X35780408Y-47431764D01*
X35797954Y-47439511D01*
X35820671Y-47444030D01*
X35844991Y-47460280D01*
X35865793Y-47469465D01*
X35880000Y-47483672D01*
X35901777Y-47498223D01*
X35916327Y-47519999D01*
X35930534Y-47534206D01*
X35939718Y-47555006D01*
X35955970Y-47579329D01*
X35960489Y-47602048D01*
X35968235Y-47619591D01*
X35974192Y-47670940D01*
X35975000Y-47675000D01*
X35975000Y-48400000D01*
X35974192Y-48404059D01*
X35968235Y-48455408D01*
X35960489Y-48472950D01*
X35955970Y-48495671D01*
X35939716Y-48519995D01*
X35930534Y-48540793D01*
X35916329Y-48554997D01*
X35901777Y-48576777D01*
X35879997Y-48591329D01*
X35865793Y-48605534D01*
X35844995Y-48614716D01*
X35820671Y-48630970D01*
X35797950Y-48635489D01*
X35780408Y-48643235D01*
X35729061Y-48649192D01*
X35725000Y-48650000D01*
X32875000Y-48650000D01*
X32870941Y-48649192D01*
X32819591Y-48643235D01*
X32802048Y-48635489D01*
X32779329Y-48630970D01*
X32755006Y-48614718D01*
X32734206Y-48605534D01*
X32719999Y-48591327D01*
X32698223Y-48576777D01*
X32683672Y-48555000D01*
X32669465Y-48540793D01*
X32660280Y-48519991D01*
X32644030Y-48495671D01*
X32639511Y-48472954D01*
X32631764Y-48455408D01*
X32625805Y-48404049D01*
X32625000Y-48400000D01*
X32625000Y-47675000D01*
X32625804Y-47670953D01*
X32631764Y-47619591D01*
X32639511Y-47602043D01*
X32644030Y-47579329D01*
X32660278Y-47555010D01*
X32669465Y-47534206D01*
X32683674Y-47519996D01*
X32698223Y-47498223D01*
X32719996Y-47483674D01*
X32734206Y-47469465D01*
X32755010Y-47460278D01*
X32779329Y-47444030D01*
X32802043Y-47439511D01*
X32819591Y-47431764D01*
X32870952Y-47425805D01*
X32875000Y-47425000D01*
X35725000Y-47425000D01*
X35729047Y-47425805D01*
G37*
G36*
X25366668Y-48050224D02*
G01*
X25399776Y-48083332D01*
X25417694Y-48126589D01*
X25417694Y-48173411D01*
X25399776Y-48216668D01*
X25366668Y-48249776D01*
X25323411Y-48267694D01*
X25276589Y-48267694D01*
X25233332Y-48249776D01*
X25200224Y-48216668D01*
X25182306Y-48173411D01*
X25182306Y-48126589D01*
X25200224Y-48083332D01*
X25233332Y-48050224D01*
X25276589Y-48032306D01*
X25323411Y-48032306D01*
X25366668Y-48050224D01*
G37*
G36*
X25766668Y-48050224D02*
G01*
X25799776Y-48083332D01*
X25817694Y-48126589D01*
X25817694Y-48173411D01*
X25799776Y-48216668D01*
X25766668Y-48249776D01*
X25723411Y-48267694D01*
X25676589Y-48267694D01*
X25633332Y-48249776D01*
X25600224Y-48216668D01*
X25582306Y-48173411D01*
X25582306Y-48126589D01*
X25600224Y-48083332D01*
X25633332Y-48050224D01*
X25676589Y-48032306D01*
X25723411Y-48032306D01*
X25766668Y-48050224D01*
G37*
G36*
X26166668Y-48050224D02*
G01*
X26199776Y-48083332D01*
X26217694Y-48126589D01*
X26217694Y-48173411D01*
X26199776Y-48216668D01*
X26166668Y-48249776D01*
X26123411Y-48267694D01*
X26076589Y-48267694D01*
X26033332Y-48249776D01*
X26000224Y-48216668D01*
X25982306Y-48173411D01*
X25982306Y-48126589D01*
X26000224Y-48083332D01*
X26033332Y-48050224D01*
X26076589Y-48032306D01*
X26123411Y-48032306D01*
X26166668Y-48050224D01*
G37*
G36*
X26566668Y-48050224D02*
G01*
X26599776Y-48083332D01*
X26617694Y-48126589D01*
X26617694Y-48173411D01*
X26599776Y-48216668D01*
X26566668Y-48249776D01*
X26523411Y-48267694D01*
X26476589Y-48267694D01*
X26433332Y-48249776D01*
X26400224Y-48216668D01*
X26382306Y-48173411D01*
X26382306Y-48126589D01*
X26400224Y-48083332D01*
X26433332Y-48050224D01*
X26476589Y-48032306D01*
X26523411Y-48032306D01*
X26566668Y-48050224D01*
G37*
G36*
X26966668Y-48050224D02*
G01*
X26999776Y-48083332D01*
X27017694Y-48126589D01*
X27017694Y-48173411D01*
X26999776Y-48216668D01*
X26966668Y-48249776D01*
X26923411Y-48267694D01*
X26876589Y-48267694D01*
X26833332Y-48249776D01*
X26800224Y-48216668D01*
X26782306Y-48173411D01*
X26782306Y-48126589D01*
X26800224Y-48083332D01*
X26833332Y-48050224D01*
X26876589Y-48032306D01*
X26923411Y-48032306D01*
X26966668Y-48050224D01*
G37*
G36*
X1000000Y-48250000D02*
G01*
X-1200000Y-48250000D01*
X-1200000Y-46450000D01*
X1000000Y-46450000D01*
X1000000Y-48250000D01*
G37*
G36*
X25366668Y-47650224D02*
G01*
X25399776Y-47683332D01*
X25417694Y-47726589D01*
X25417694Y-47773411D01*
X25399776Y-47816668D01*
X25366668Y-47849776D01*
X25323411Y-47867694D01*
X25276589Y-47867694D01*
X25233332Y-47849776D01*
X25200224Y-47816668D01*
X25182306Y-47773411D01*
X25182306Y-47726589D01*
X25200224Y-47683332D01*
X25233332Y-47650224D01*
X25276589Y-47632306D01*
X25323411Y-47632306D01*
X25366668Y-47650224D01*
G37*
G36*
X25766668Y-47650224D02*
G01*
X25799776Y-47683332D01*
X25817694Y-47726589D01*
X25817694Y-47773411D01*
X25799776Y-47816668D01*
X25766668Y-47849776D01*
X25723411Y-47867694D01*
X25676589Y-47867694D01*
X25633332Y-47849776D01*
X25600224Y-47816668D01*
X25582306Y-47773411D01*
X25582306Y-47726589D01*
X25600224Y-47683332D01*
X25633332Y-47650224D01*
X25676589Y-47632306D01*
X25723411Y-47632306D01*
X25766668Y-47650224D01*
G37*
G36*
X26166668Y-47650224D02*
G01*
X26199776Y-47683332D01*
X26217694Y-47726589D01*
X26217694Y-47773411D01*
X26199776Y-47816668D01*
X26166668Y-47849776D01*
X26123411Y-47867694D01*
X26076589Y-47867694D01*
X26033332Y-47849776D01*
X26000224Y-47816668D01*
X25982306Y-47773411D01*
X25982306Y-47726589D01*
X26000224Y-47683332D01*
X26033332Y-47650224D01*
X26076589Y-47632306D01*
X26123411Y-47632306D01*
X26166668Y-47650224D01*
G37*
G36*
X26566668Y-47650224D02*
G01*
X26599776Y-47683332D01*
X26617694Y-47726589D01*
X26617694Y-47773411D01*
X26599776Y-47816668D01*
X26566668Y-47849776D01*
X26523411Y-47867694D01*
X26476589Y-47867694D01*
X26433332Y-47849776D01*
X26400224Y-47816668D01*
X26382306Y-47773411D01*
X26382306Y-47726589D01*
X26400224Y-47683332D01*
X26433332Y-47650224D01*
X26476589Y-47632306D01*
X26523411Y-47632306D01*
X26566668Y-47650224D01*
G37*
G36*
X26966668Y-47650224D02*
G01*
X26999776Y-47683332D01*
X27017694Y-47726589D01*
X27017694Y-47773411D01*
X26999776Y-47816668D01*
X26966668Y-47849776D01*
X26923411Y-47867694D01*
X26876589Y-47867694D01*
X26833332Y-47849776D01*
X26800224Y-47816668D01*
X26782306Y-47773411D01*
X26782306Y-47726589D01*
X26800224Y-47683332D01*
X26833332Y-47650224D01*
X26876589Y-47632306D01*
X26923411Y-47632306D01*
X26966668Y-47650224D01*
G37*
G36*
X47543513Y-46438131D02*
G01*
X47599476Y-46475524D01*
X47636869Y-46531487D01*
X47650000Y-46597500D01*
X47650000Y-47402500D01*
X47636869Y-47468513D01*
X47599476Y-47524476D01*
X47543513Y-47561869D01*
X47477500Y-47575000D01*
X46122500Y-47575000D01*
X46056487Y-47561869D01*
X46000524Y-47524476D01*
X45963131Y-47468513D01*
X45950000Y-47402500D01*
X45950000Y-46597500D01*
X45963131Y-46531487D01*
X46000524Y-46475524D01*
X46056487Y-46438131D01*
X46122500Y-46425000D01*
X47477500Y-46425000D01*
X47543513Y-46438131D01*
G37*
G36*
X7150000Y-47550000D02*
G01*
X6650000Y-47550000D01*
X6650000Y-47250000D01*
X7150000Y-47250000D01*
X7150000Y-47550000D01*
G37*
G36*
X8550000Y-47550000D02*
G01*
X8050000Y-47550000D01*
X8050000Y-47250000D01*
X8550000Y-47250000D01*
X8550000Y-47550000D01*
G37*
G36*
X25366668Y-47250224D02*
G01*
X25399776Y-47283332D01*
X25417694Y-47326589D01*
X25417694Y-47373411D01*
X25399776Y-47416668D01*
X25366668Y-47449776D01*
X25323411Y-47467694D01*
X25276589Y-47467694D01*
X25233332Y-47449776D01*
X25200224Y-47416668D01*
X25182306Y-47373411D01*
X25182306Y-47326589D01*
X25200224Y-47283332D01*
X25233332Y-47250224D01*
X25276589Y-47232306D01*
X25323411Y-47232306D01*
X25366668Y-47250224D01*
G37*
G36*
X25766668Y-47250224D02*
G01*
X25799776Y-47283332D01*
X25817694Y-47326589D01*
X25817694Y-47373411D01*
X25799776Y-47416668D01*
X25766668Y-47449776D01*
X25723411Y-47467694D01*
X25676589Y-47467694D01*
X25633332Y-47449776D01*
X25600224Y-47416668D01*
X25582306Y-47373411D01*
X25582306Y-47326589D01*
X25600224Y-47283332D01*
X25633332Y-47250224D01*
X25676589Y-47232306D01*
X25723411Y-47232306D01*
X25766668Y-47250224D01*
G37*
G36*
X26166668Y-47250224D02*
G01*
X26199776Y-47283332D01*
X26217694Y-47326589D01*
X26217694Y-47373411D01*
X26199776Y-47416668D01*
X26166668Y-47449776D01*
X26123411Y-47467694D01*
X26076589Y-47467694D01*
X26033332Y-47449776D01*
X26000224Y-47416668D01*
X25982306Y-47373411D01*
X25982306Y-47326589D01*
X26000224Y-47283332D01*
X26033332Y-47250224D01*
X26076589Y-47232306D01*
X26123411Y-47232306D01*
X26166668Y-47250224D01*
G37*
G36*
X26566668Y-47250224D02*
G01*
X26599776Y-47283332D01*
X26617694Y-47326589D01*
X26617694Y-47373411D01*
X26599776Y-47416668D01*
X26566668Y-47449776D01*
X26523411Y-47467694D01*
X26476589Y-47467694D01*
X26433332Y-47449776D01*
X26400224Y-47416668D01*
X26382306Y-47373411D01*
X26382306Y-47326589D01*
X26400224Y-47283332D01*
X26433332Y-47250224D01*
X26476589Y-47232306D01*
X26523411Y-47232306D01*
X26566668Y-47250224D01*
G37*
G36*
X26966668Y-47250224D02*
G01*
X26999776Y-47283332D01*
X27017694Y-47326589D01*
X27017694Y-47373411D01*
X26999776Y-47416668D01*
X26966668Y-47449776D01*
X26923411Y-47467694D01*
X26876589Y-47467694D01*
X26833332Y-47449776D01*
X26800224Y-47416668D01*
X26782306Y-47373411D01*
X26782306Y-47326589D01*
X26800224Y-47283332D01*
X26833332Y-47250224D01*
X26876589Y-47232306D01*
X26923411Y-47232306D01*
X26966668Y-47250224D01*
G37*
G36*
X25366668Y-46850224D02*
G01*
X25399776Y-46883332D01*
X25417694Y-46926589D01*
X25417694Y-46973411D01*
X25399776Y-47016668D01*
X25366668Y-47049776D01*
X25323411Y-47067694D01*
X25276589Y-47067694D01*
X25233332Y-47049776D01*
X25200224Y-47016668D01*
X25182306Y-46973411D01*
X25182306Y-46926589D01*
X25200224Y-46883332D01*
X25233332Y-46850224D01*
X25276589Y-46832306D01*
X25323411Y-46832306D01*
X25366668Y-46850224D01*
G37*
G36*
X25766668Y-46850224D02*
G01*
X25799776Y-46883332D01*
X25817694Y-46926589D01*
X25817694Y-46973411D01*
X25799776Y-47016668D01*
X25766668Y-47049776D01*
X25723411Y-47067694D01*
X25676589Y-47067694D01*
X25633332Y-47049776D01*
X25600224Y-47016668D01*
X25582306Y-46973411D01*
X25582306Y-46926589D01*
X25600224Y-46883332D01*
X25633332Y-46850224D01*
X25676589Y-46832306D01*
X25723411Y-46832306D01*
X25766668Y-46850224D01*
G37*
G36*
X26166668Y-46850224D02*
G01*
X26199776Y-46883332D01*
X26217694Y-46926589D01*
X26217694Y-46973411D01*
X26199776Y-47016668D01*
X26166668Y-47049776D01*
X26123411Y-47067694D01*
X26076589Y-47067694D01*
X26033332Y-47049776D01*
X26000224Y-47016668D01*
X25982306Y-46973411D01*
X25982306Y-46926589D01*
X26000224Y-46883332D01*
X26033332Y-46850224D01*
X26076589Y-46832306D01*
X26123411Y-46832306D01*
X26166668Y-46850224D01*
G37*
G36*
X26566668Y-46850224D02*
G01*
X26599776Y-46883332D01*
X26617694Y-46926589D01*
X26617694Y-46973411D01*
X26599776Y-47016668D01*
X26566668Y-47049776D01*
X26523411Y-47067694D01*
X26476589Y-47067694D01*
X26433332Y-47049776D01*
X26400224Y-47016668D01*
X26382306Y-46973411D01*
X26382306Y-46926589D01*
X26400224Y-46883332D01*
X26433332Y-46850224D01*
X26476589Y-46832306D01*
X26523411Y-46832306D01*
X26566668Y-46850224D01*
G37*
G36*
X26966668Y-46850224D02*
G01*
X26999776Y-46883332D01*
X27017694Y-46926589D01*
X27017694Y-46973411D01*
X26999776Y-47016668D01*
X26966668Y-47049776D01*
X26923411Y-47067694D01*
X26876589Y-47067694D01*
X26833332Y-47049776D01*
X26800224Y-47016668D01*
X26782306Y-46973411D01*
X26782306Y-46926589D01*
X26800224Y-46883332D01*
X26833332Y-46850224D01*
X26876589Y-46832306D01*
X26923411Y-46832306D01*
X26966668Y-46850224D01*
G37*
G36*
X7150000Y-46750000D02*
G01*
X6650000Y-46750000D01*
X6650000Y-46450000D01*
X7150000Y-46450000D01*
X7150000Y-46750000D01*
G37*
G36*
X8550000Y-46750000D02*
G01*
X8050000Y-46750000D01*
X8050000Y-46450000D01*
X8550000Y-46450000D01*
X8550000Y-46750000D01*
G37*
G36*
X35729047Y-44550805D02*
G01*
X35780408Y-44556764D01*
X35797954Y-44564511D01*
X35820671Y-44569030D01*
X35844991Y-44585280D01*
X35865793Y-44594465D01*
X35880000Y-44608672D01*
X35901777Y-44623223D01*
X35916327Y-44644999D01*
X35930534Y-44659206D01*
X35939718Y-44680006D01*
X35955970Y-44704329D01*
X35960489Y-44727048D01*
X35968235Y-44744591D01*
X35974192Y-44795940D01*
X35975000Y-44800000D01*
X35975000Y-45525000D01*
X35974192Y-45529059D01*
X35968235Y-45580408D01*
X35960489Y-45597950D01*
X35955970Y-45620671D01*
X35939716Y-45644995D01*
X35930534Y-45665793D01*
X35916329Y-45679997D01*
X35901777Y-45701777D01*
X35879997Y-45716329D01*
X35865793Y-45730534D01*
X35844995Y-45739716D01*
X35820671Y-45755970D01*
X35797950Y-45760489D01*
X35780408Y-45768235D01*
X35729061Y-45774192D01*
X35725000Y-45775000D01*
X32875000Y-45775000D01*
X32870941Y-45774192D01*
X32819591Y-45768235D01*
X32802048Y-45760489D01*
X32779329Y-45755970D01*
X32755006Y-45739718D01*
X32734206Y-45730534D01*
X32719999Y-45716327D01*
X32698223Y-45701777D01*
X32683672Y-45680000D01*
X32669465Y-45665793D01*
X32660280Y-45644991D01*
X32644030Y-45620671D01*
X32639511Y-45597954D01*
X32631764Y-45580408D01*
X32625805Y-45529049D01*
X32625000Y-45525000D01*
X32625000Y-44800000D01*
X32625804Y-44795953D01*
X32631764Y-44744591D01*
X32639511Y-44727043D01*
X32644030Y-44704329D01*
X32660278Y-44680010D01*
X32669465Y-44659206D01*
X32683674Y-44644996D01*
X32698223Y-44623223D01*
X32719996Y-44608674D01*
X32734206Y-44594465D01*
X32755010Y-44585278D01*
X32779329Y-44569030D01*
X32802043Y-44564511D01*
X32819591Y-44556764D01*
X32870952Y-44550805D01*
X32875000Y-44550000D01*
X35725000Y-44550000D01*
X35729047Y-44550805D01*
G37*
G36*
X47543513Y-44238131D02*
G01*
X47599476Y-44275524D01*
X47636869Y-44331487D01*
X47650000Y-44397500D01*
X47650000Y-45202500D01*
X47636869Y-45268513D01*
X47599476Y-45324476D01*
X47543513Y-45361869D01*
X47477500Y-45375000D01*
X46122500Y-45375000D01*
X46056487Y-45361869D01*
X46000524Y-45324476D01*
X45963131Y-45268513D01*
X45950000Y-45202500D01*
X45950000Y-44397500D01*
X45963131Y-44331487D01*
X46000524Y-44275524D01*
X46056487Y-44238131D01*
X46122500Y-44225000D01*
X47477500Y-44225000D01*
X47543513Y-44238131D01*
G37*
G36*
X47543513Y-42038131D02*
G01*
X47599476Y-42075524D01*
X47636869Y-42131487D01*
X47650000Y-42197500D01*
X47650000Y-43002500D01*
X47636869Y-43068513D01*
X47599476Y-43124476D01*
X47543513Y-43161869D01*
X47477500Y-43175000D01*
X46122500Y-43175000D01*
X46056487Y-43161869D01*
X46000524Y-43124476D01*
X45963131Y-43068513D01*
X45950000Y-43002500D01*
X45950000Y-42197500D01*
X45963131Y-42131487D01*
X46000524Y-42075524D01*
X46056487Y-42038131D01*
X46122500Y-42025000D01*
X47477500Y-42025000D01*
X47543513Y-42038131D01*
G37*
G36*
X5529047Y-41150805D02*
G01*
X5580408Y-41156764D01*
X5597954Y-41164511D01*
X5620671Y-41169030D01*
X5644991Y-41185280D01*
X5665793Y-41194465D01*
X5680000Y-41208672D01*
X5701777Y-41223223D01*
X5716327Y-41244999D01*
X5730534Y-41259206D01*
X5739718Y-41280006D01*
X5755970Y-41304329D01*
X5760489Y-41327048D01*
X5768235Y-41344591D01*
X5774192Y-41395940D01*
X5775000Y-41400000D01*
X5775000Y-42125000D01*
X5774194Y-42129050D01*
X5768235Y-42180408D01*
X5760489Y-42197950D01*
X5755970Y-42220671D01*
X5739716Y-42244995D01*
X5730534Y-42265793D01*
X5716329Y-42279997D01*
X5701777Y-42301777D01*
X5679997Y-42316329D01*
X5665793Y-42330534D01*
X5644995Y-42339716D01*
X5620671Y-42355970D01*
X5597950Y-42360489D01*
X5580408Y-42368235D01*
X5529061Y-42374192D01*
X5525000Y-42375000D01*
X2675000Y-42375000D01*
X2670941Y-42374192D01*
X2619591Y-42368235D01*
X2602048Y-42360489D01*
X2579329Y-42355970D01*
X2555006Y-42339718D01*
X2534206Y-42330534D01*
X2519999Y-42316327D01*
X2498223Y-42301777D01*
X2483672Y-42280000D01*
X2469465Y-42265793D01*
X2460280Y-42244991D01*
X2444030Y-42220671D01*
X2439511Y-42197954D01*
X2431764Y-42180408D01*
X2425805Y-42129049D01*
X2425000Y-42125000D01*
X2425000Y-41400000D01*
X2425804Y-41395953D01*
X2431764Y-41344591D01*
X2439511Y-41327043D01*
X2444030Y-41304329D01*
X2460278Y-41280010D01*
X2469465Y-41259206D01*
X2483674Y-41244996D01*
X2498223Y-41223223D01*
X2519996Y-41208674D01*
X2534206Y-41194465D01*
X2555010Y-41185278D01*
X2579329Y-41169030D01*
X2602043Y-41164511D01*
X2619591Y-41156764D01*
X2670952Y-41150805D01*
X2675000Y-41150000D01*
X5525000Y-41150000D01*
X5529047Y-41150805D01*
G37*
G36*
X18429047Y-41150805D02*
G01*
X18480408Y-41156764D01*
X18497954Y-41164511D01*
X18520671Y-41169030D01*
X18544991Y-41185280D01*
X18565793Y-41194465D01*
X18580000Y-41208672D01*
X18601777Y-41223223D01*
X18616327Y-41244999D01*
X18630534Y-41259206D01*
X18639718Y-41280006D01*
X18655970Y-41304329D01*
X18660489Y-41327048D01*
X18668235Y-41344591D01*
X18674192Y-41395940D01*
X18675000Y-41400000D01*
X18675000Y-42125000D01*
X18674194Y-42129050D01*
X18668235Y-42180408D01*
X18660489Y-42197950D01*
X18655970Y-42220671D01*
X18639716Y-42244995D01*
X18630534Y-42265793D01*
X18616329Y-42279997D01*
X18601777Y-42301777D01*
X18579997Y-42316329D01*
X18565793Y-42330534D01*
X18544995Y-42339716D01*
X18520671Y-42355970D01*
X18497950Y-42360489D01*
X18480408Y-42368235D01*
X18429061Y-42374192D01*
X18425000Y-42375000D01*
X15575000Y-42375000D01*
X15570941Y-42374192D01*
X15519591Y-42368235D01*
X15502048Y-42360489D01*
X15479329Y-42355970D01*
X15455006Y-42339718D01*
X15434206Y-42330534D01*
X15419999Y-42316327D01*
X15398223Y-42301777D01*
X15383672Y-42280000D01*
X15369465Y-42265793D01*
X15360280Y-42244991D01*
X15344030Y-42220671D01*
X15339511Y-42197954D01*
X15331764Y-42180408D01*
X15325805Y-42129049D01*
X15325000Y-42125000D01*
X15325000Y-41400000D01*
X15325804Y-41395953D01*
X15331764Y-41344591D01*
X15339511Y-41327043D01*
X15344030Y-41304329D01*
X15360278Y-41280010D01*
X15369465Y-41259206D01*
X15383674Y-41244996D01*
X15398223Y-41223223D01*
X15419996Y-41208674D01*
X15434206Y-41194465D01*
X15455010Y-41185278D01*
X15479329Y-41169030D01*
X15502043Y-41164511D01*
X15519591Y-41156764D01*
X15570952Y-41150805D01*
X15575000Y-41150000D01*
X18425000Y-41150000D01*
X18429047Y-41150805D01*
G37*
G36*
X24879047Y-41150805D02*
G01*
X24930408Y-41156764D01*
X24947954Y-41164511D01*
X24970671Y-41169030D01*
X24994991Y-41185280D01*
X25015793Y-41194465D01*
X25030000Y-41208672D01*
X25051777Y-41223223D01*
X25066327Y-41244999D01*
X25080534Y-41259206D01*
X25089718Y-41280006D01*
X25105970Y-41304329D01*
X25110489Y-41327048D01*
X25118235Y-41344591D01*
X25124192Y-41395940D01*
X25125000Y-41400000D01*
X25125000Y-42125000D01*
X25124194Y-42129050D01*
X25118235Y-42180408D01*
X25110489Y-42197950D01*
X25105970Y-42220671D01*
X25089716Y-42244995D01*
X25080534Y-42265793D01*
X25066329Y-42279997D01*
X25051777Y-42301777D01*
X25029997Y-42316329D01*
X25015793Y-42330534D01*
X24994995Y-42339716D01*
X24970671Y-42355970D01*
X24947950Y-42360489D01*
X24930408Y-42368235D01*
X24879061Y-42374192D01*
X24875000Y-42375000D01*
X22025000Y-42375000D01*
X22020941Y-42374192D01*
X21969591Y-42368235D01*
X21952048Y-42360489D01*
X21929329Y-42355970D01*
X21905006Y-42339718D01*
X21884206Y-42330534D01*
X21869999Y-42316327D01*
X21848223Y-42301777D01*
X21833672Y-42280000D01*
X21819465Y-42265793D01*
X21810280Y-42244991D01*
X21794030Y-42220671D01*
X21789511Y-42197954D01*
X21781764Y-42180408D01*
X21775805Y-42129049D01*
X21775000Y-42125000D01*
X21775000Y-41400000D01*
X21775804Y-41395953D01*
X21781764Y-41344591D01*
X21789511Y-41327043D01*
X21794030Y-41304329D01*
X21810278Y-41280010D01*
X21819465Y-41259206D01*
X21833674Y-41244996D01*
X21848223Y-41223223D01*
X21869996Y-41208674D01*
X21884206Y-41194465D01*
X21905010Y-41185278D01*
X21929329Y-41169030D01*
X21952043Y-41164511D01*
X21969591Y-41156764D01*
X22020952Y-41150805D01*
X22025000Y-41150000D01*
X24875000Y-41150000D01*
X24879047Y-41150805D01*
G37*
G36*
X11979047Y-39950805D02*
G01*
X12030408Y-39956764D01*
X12047954Y-39964511D01*
X12070671Y-39969030D01*
X12094991Y-39985280D01*
X12115793Y-39994465D01*
X12130000Y-40008672D01*
X12151777Y-40023223D01*
X12166327Y-40044999D01*
X12180534Y-40059206D01*
X12189718Y-40080006D01*
X12205970Y-40104329D01*
X12210489Y-40127048D01*
X12218235Y-40144591D01*
X12224192Y-40195940D01*
X12225000Y-40200000D01*
X12225000Y-40925000D01*
X12224192Y-40929059D01*
X12218235Y-40980408D01*
X12210489Y-40997950D01*
X12205970Y-41020671D01*
X12189716Y-41044995D01*
X12180534Y-41065793D01*
X12166329Y-41079997D01*
X12151777Y-41101777D01*
X12129997Y-41116329D01*
X12115793Y-41130534D01*
X12094995Y-41139716D01*
X12070671Y-41155970D01*
X12047950Y-41160489D01*
X12030408Y-41168235D01*
X11979061Y-41174192D01*
X11975000Y-41175000D01*
X9125000Y-41175000D01*
X9120941Y-41174192D01*
X9069591Y-41168235D01*
X9052048Y-41160489D01*
X9029329Y-41155970D01*
X9005006Y-41139718D01*
X8984206Y-41130534D01*
X8969999Y-41116327D01*
X8948223Y-41101777D01*
X8933672Y-41080000D01*
X8919465Y-41065793D01*
X8910280Y-41044991D01*
X8894030Y-41020671D01*
X8889511Y-40997954D01*
X8881764Y-40980408D01*
X8875805Y-40929049D01*
X8875000Y-40925000D01*
X8875000Y-40200000D01*
X8875804Y-40195953D01*
X8881764Y-40144591D01*
X8889511Y-40127043D01*
X8894030Y-40104329D01*
X8910278Y-40080010D01*
X8919465Y-40059206D01*
X8933674Y-40044996D01*
X8948223Y-40023223D01*
X8969996Y-40008674D01*
X8984206Y-39994465D01*
X9005010Y-39985278D01*
X9029329Y-39969030D01*
X9052043Y-39964511D01*
X9069591Y-39956764D01*
X9120952Y-39950805D01*
X9125000Y-39950000D01*
X11975000Y-39950000D01*
X11979047Y-39950805D01*
G37*
G36*
X47543513Y-39838131D02*
G01*
X47599476Y-39875524D01*
X47636869Y-39931487D01*
X47650000Y-39997500D01*
X47650000Y-40802500D01*
X47636869Y-40868513D01*
X47599476Y-40924476D01*
X47543513Y-40961869D01*
X47477500Y-40975000D01*
X46122500Y-40975000D01*
X46056487Y-40961869D01*
X46000524Y-40924476D01*
X45963131Y-40868513D01*
X45950000Y-40802500D01*
X45950000Y-39997500D01*
X45963131Y-39931487D01*
X46000524Y-39875524D01*
X46056487Y-39838131D01*
X46122500Y-39825000D01*
X47477500Y-39825000D01*
X47543513Y-39838131D01*
G37*
G36*
X35729047Y-38625805D02*
G01*
X35780408Y-38631764D01*
X35797954Y-38639511D01*
X35820671Y-38644030D01*
X35844991Y-38660280D01*
X35865793Y-38669465D01*
X35880000Y-38683672D01*
X35901777Y-38698223D01*
X35916327Y-38719999D01*
X35930534Y-38734206D01*
X35939718Y-38755006D01*
X35955970Y-38779329D01*
X35960489Y-38802048D01*
X35968235Y-38819591D01*
X35974192Y-38870940D01*
X35975000Y-38875000D01*
X35975000Y-39600000D01*
X35974192Y-39604059D01*
X35968235Y-39655408D01*
X35960489Y-39672950D01*
X35955970Y-39695671D01*
X35939716Y-39719995D01*
X35930534Y-39740793D01*
X35916329Y-39754997D01*
X35901777Y-39776777D01*
X35879997Y-39791329D01*
X35865793Y-39805534D01*
X35844995Y-39814716D01*
X35820671Y-39830970D01*
X35797950Y-39835489D01*
X35780408Y-39843235D01*
X35729061Y-39849192D01*
X35725000Y-39850000D01*
X32875000Y-39850000D01*
X32870941Y-39849192D01*
X32819591Y-39843235D01*
X32802048Y-39835489D01*
X32779329Y-39830970D01*
X32755006Y-39814718D01*
X32734206Y-39805534D01*
X32719999Y-39791327D01*
X32698223Y-39776777D01*
X32683672Y-39755000D01*
X32669465Y-39740793D01*
X32660280Y-39719991D01*
X32644030Y-39695671D01*
X32639511Y-39672954D01*
X32631764Y-39655408D01*
X32625805Y-39604049D01*
X32625000Y-39600000D01*
X32625000Y-38875000D01*
X32625804Y-38870953D01*
X32631764Y-38819591D01*
X32639511Y-38802043D01*
X32644030Y-38779329D01*
X32660278Y-38755010D01*
X32669465Y-38734206D01*
X32683674Y-38719996D01*
X32698223Y-38698223D01*
X32719996Y-38683674D01*
X32734206Y-38669465D01*
X32755010Y-38660278D01*
X32779329Y-38644030D01*
X32802043Y-38639511D01*
X32819591Y-38631764D01*
X32870952Y-38625805D01*
X32875000Y-38625000D01*
X35725000Y-38625000D01*
X35729047Y-38625805D01*
G37*
G36*
X29089451Y-35784661D02*
G01*
X29179883Y-35836872D01*
X29253719Y-35910708D01*
X29305930Y-36001140D01*
X29332956Y-36102003D01*
X29332956Y-36206423D01*
X29305930Y-36307286D01*
X29253719Y-36397718D01*
X29179883Y-36471554D01*
X29089451Y-36523765D01*
X28988588Y-36550791D01*
X28884168Y-36550791D01*
X28783305Y-36523765D01*
X28692873Y-36471554D01*
X28619037Y-36397718D01*
X28566826Y-36307286D01*
X28539800Y-36206423D01*
X28539800Y-36102003D01*
X28566826Y-36001140D01*
X28619037Y-35910708D01*
X28692873Y-35836872D01*
X28783305Y-35784661D01*
X28884168Y-35757635D01*
X28988588Y-35757635D01*
X29089451Y-35784661D01*
G37*
G36*
X5529047Y-35225805D02*
G01*
X5580408Y-35231764D01*
X5597954Y-35239511D01*
X5620671Y-35244030D01*
X5644991Y-35260280D01*
X5665793Y-35269465D01*
X5680000Y-35283672D01*
X5701777Y-35298223D01*
X5716327Y-35319999D01*
X5730534Y-35334206D01*
X5739718Y-35355006D01*
X5755970Y-35379329D01*
X5760489Y-35402048D01*
X5768235Y-35419591D01*
X5774192Y-35470940D01*
X5775000Y-35475000D01*
X5775000Y-36200000D01*
X5774192Y-36204059D01*
X5768235Y-36255408D01*
X5760489Y-36272950D01*
X5755970Y-36295671D01*
X5739716Y-36319995D01*
X5730534Y-36340793D01*
X5716329Y-36354997D01*
X5701777Y-36376777D01*
X5679997Y-36391329D01*
X5665793Y-36405534D01*
X5644995Y-36414716D01*
X5620671Y-36430970D01*
X5597950Y-36435489D01*
X5580408Y-36443235D01*
X5529061Y-36449192D01*
X5525000Y-36450000D01*
X2675000Y-36450000D01*
X2670941Y-36449192D01*
X2619591Y-36443235D01*
X2602048Y-36435489D01*
X2579329Y-36430970D01*
X2555006Y-36414718D01*
X2534206Y-36405534D01*
X2519999Y-36391327D01*
X2498223Y-36376777D01*
X2483672Y-36355000D01*
X2469465Y-36340793D01*
X2460280Y-36319991D01*
X2444030Y-36295671D01*
X2439511Y-36272954D01*
X2431764Y-36255408D01*
X2425805Y-36204049D01*
X2425000Y-36200000D01*
X2425000Y-35475000D01*
X2425804Y-35470953D01*
X2431764Y-35419591D01*
X2439511Y-35402043D01*
X2444030Y-35379329D01*
X2460278Y-35355010D01*
X2469465Y-35334206D01*
X2483674Y-35319996D01*
X2498223Y-35298223D01*
X2519996Y-35283674D01*
X2534206Y-35269465D01*
X2555010Y-35260278D01*
X2579329Y-35244030D01*
X2602043Y-35239511D01*
X2619591Y-35231764D01*
X2670952Y-35225805D01*
X2675000Y-35225000D01*
X5525000Y-35225000D01*
X5529047Y-35225805D01*
G37*
G36*
X18429047Y-35225805D02*
G01*
X18480408Y-35231764D01*
X18497954Y-35239511D01*
X18520671Y-35244030D01*
X18544991Y-35260280D01*
X18565793Y-35269465D01*
X18580000Y-35283672D01*
X18601777Y-35298223D01*
X18616327Y-35319999D01*
X18630534Y-35334206D01*
X18639718Y-35355006D01*
X18655970Y-35379329D01*
X18660489Y-35402048D01*
X18668235Y-35419591D01*
X18674192Y-35470940D01*
X18675000Y-35475000D01*
X18675000Y-36200000D01*
X18674192Y-36204059D01*
X18668235Y-36255408D01*
X18660489Y-36272950D01*
X18655970Y-36295671D01*
X18639716Y-36319995D01*
X18630534Y-36340793D01*
X18616329Y-36354997D01*
X18601777Y-36376777D01*
X18579997Y-36391329D01*
X18565793Y-36405534D01*
X18544995Y-36414716D01*
X18520671Y-36430970D01*
X18497950Y-36435489D01*
X18480408Y-36443235D01*
X18429061Y-36449192D01*
X18425000Y-36450000D01*
X15575000Y-36450000D01*
X15570941Y-36449192D01*
X15519591Y-36443235D01*
X15502048Y-36435489D01*
X15479329Y-36430970D01*
X15455006Y-36414718D01*
X15434206Y-36405534D01*
X15419999Y-36391327D01*
X15398223Y-36376777D01*
X15383672Y-36355000D01*
X15369465Y-36340793D01*
X15360280Y-36319991D01*
X15344030Y-36295671D01*
X15339511Y-36272954D01*
X15331764Y-36255408D01*
X15325805Y-36204049D01*
X15325000Y-36200000D01*
X15325000Y-35475000D01*
X15325804Y-35470953D01*
X15331764Y-35419591D01*
X15339511Y-35402043D01*
X15344030Y-35379329D01*
X15360278Y-35355010D01*
X15369465Y-35334206D01*
X15383674Y-35319996D01*
X15398223Y-35298223D01*
X15419996Y-35283674D01*
X15434206Y-35269465D01*
X15455010Y-35260278D01*
X15479329Y-35244030D01*
X15502043Y-35239511D01*
X15519591Y-35231764D01*
X15570952Y-35225805D01*
X15575000Y-35225000D01*
X18425000Y-35225000D01*
X18429047Y-35225805D01*
G37*
G36*
X24879047Y-35225805D02*
G01*
X24930408Y-35231764D01*
X24947954Y-35239511D01*
X24970671Y-35244030D01*
X24994991Y-35260280D01*
X25015793Y-35269465D01*
X25030000Y-35283672D01*
X25051777Y-35298223D01*
X25066327Y-35319999D01*
X25080534Y-35334206D01*
X25089718Y-35355006D01*
X25105970Y-35379329D01*
X25110489Y-35402048D01*
X25118235Y-35419591D01*
X25124192Y-35470940D01*
X25125000Y-35475000D01*
X25125000Y-36200000D01*
X25124192Y-36204059D01*
X25118235Y-36255408D01*
X25110489Y-36272950D01*
X25105970Y-36295671D01*
X25089716Y-36319995D01*
X25080534Y-36340793D01*
X25066329Y-36354997D01*
X25051777Y-36376777D01*
X25029997Y-36391329D01*
X25015793Y-36405534D01*
X24994995Y-36414716D01*
X24970671Y-36430970D01*
X24947950Y-36435489D01*
X24930408Y-36443235D01*
X24879061Y-36449192D01*
X24875000Y-36450000D01*
X22025000Y-36450000D01*
X22020941Y-36449192D01*
X21969591Y-36443235D01*
X21952048Y-36435489D01*
X21929329Y-36430970D01*
X21905006Y-36414718D01*
X21884206Y-36405534D01*
X21869999Y-36391327D01*
X21848223Y-36376777D01*
X21833672Y-36355000D01*
X21819465Y-36340793D01*
X21810280Y-36319991D01*
X21794030Y-36295671D01*
X21789511Y-36272954D01*
X21781764Y-36255408D01*
X21775805Y-36204049D01*
X21775000Y-36200000D01*
X21775000Y-35475000D01*
X21775804Y-35470953D01*
X21781764Y-35419591D01*
X21789511Y-35402043D01*
X21794030Y-35379329D01*
X21810278Y-35355010D01*
X21819465Y-35334206D01*
X21833674Y-35319996D01*
X21848223Y-35298223D01*
X21869996Y-35283674D01*
X21884206Y-35269465D01*
X21905010Y-35260278D01*
X21929329Y-35244030D01*
X21952043Y-35239511D01*
X21969591Y-35231764D01*
X22020952Y-35225805D01*
X22025000Y-35225000D01*
X24875000Y-35225000D01*
X24879047Y-35225805D01*
G37*
G36*
X11979047Y-34025805D02*
G01*
X12030408Y-34031764D01*
X12047954Y-34039511D01*
X12070671Y-34044030D01*
X12094991Y-34060280D01*
X12115793Y-34069465D01*
X12130000Y-34083672D01*
X12151777Y-34098223D01*
X12166327Y-34119999D01*
X12180534Y-34134206D01*
X12189718Y-34155006D01*
X12205970Y-34179329D01*
X12210489Y-34202048D01*
X12218235Y-34219591D01*
X12224192Y-34270940D01*
X12225000Y-34275000D01*
X12225000Y-35000000D01*
X12224192Y-35004059D01*
X12218235Y-35055408D01*
X12210489Y-35072950D01*
X12205970Y-35095671D01*
X12189716Y-35119995D01*
X12180534Y-35140793D01*
X12166329Y-35154997D01*
X12151777Y-35176777D01*
X12129997Y-35191329D01*
X12115793Y-35205534D01*
X12094995Y-35214716D01*
X12070671Y-35230970D01*
X12047950Y-35235489D01*
X12030408Y-35243235D01*
X11979061Y-35249192D01*
X11975000Y-35250000D01*
X9125000Y-35250000D01*
X9120941Y-35249192D01*
X9069591Y-35243235D01*
X9052048Y-35235489D01*
X9029329Y-35230970D01*
X9005006Y-35214718D01*
X8984206Y-35205534D01*
X8969999Y-35191327D01*
X8948223Y-35176777D01*
X8933672Y-35155000D01*
X8919465Y-35140793D01*
X8910280Y-35119991D01*
X8894030Y-35095671D01*
X8889511Y-35072954D01*
X8881764Y-35055408D01*
X8875805Y-35004049D01*
X8875000Y-35000000D01*
X8875000Y-34275000D01*
X8875804Y-34270953D01*
X8881764Y-34219591D01*
X8889511Y-34202043D01*
X8894030Y-34179329D01*
X8910278Y-34155010D01*
X8919465Y-34134206D01*
X8933674Y-34119996D01*
X8948223Y-34098223D01*
X8969996Y-34083674D01*
X8984206Y-34069465D01*
X9005010Y-34060278D01*
X9029329Y-34044030D01*
X9052043Y-34039511D01*
X9069591Y-34031764D01*
X9120952Y-34025805D01*
X9125000Y-34025000D01*
X11975000Y-34025000D01*
X11979047Y-34025805D01*
G37*
G36*
X5529047Y-32463305D02*
G01*
X5580408Y-32469264D01*
X5597954Y-32477011D01*
X5620671Y-32481530D01*
X5644991Y-32497780D01*
X5665793Y-32506965D01*
X5680000Y-32521172D01*
X5701777Y-32535723D01*
X5716327Y-32557499D01*
X5730534Y-32571706D01*
X5739718Y-32592506D01*
X5755970Y-32616829D01*
X5760489Y-32639548D01*
X5768235Y-32657091D01*
X5774192Y-32708440D01*
X5775000Y-32712500D01*
X5775000Y-33437500D01*
X5774192Y-33441559D01*
X5768235Y-33492908D01*
X5760489Y-33510450D01*
X5755970Y-33533171D01*
X5739716Y-33557495D01*
X5730534Y-33578293D01*
X5716329Y-33592497D01*
X5701777Y-33614277D01*
X5679997Y-33628829D01*
X5665793Y-33643034D01*
X5644995Y-33652216D01*
X5620671Y-33668470D01*
X5597950Y-33672989D01*
X5580408Y-33680735D01*
X5529061Y-33686692D01*
X5525000Y-33687500D01*
X2675000Y-33687500D01*
X2670941Y-33686692D01*
X2619591Y-33680735D01*
X2602048Y-33672989D01*
X2579329Y-33668470D01*
X2555006Y-33652218D01*
X2534206Y-33643034D01*
X2519999Y-33628827D01*
X2498223Y-33614277D01*
X2483672Y-33592500D01*
X2469465Y-33578293D01*
X2460280Y-33557491D01*
X2444030Y-33533171D01*
X2439511Y-33510454D01*
X2431764Y-33492908D01*
X2425805Y-33441549D01*
X2425000Y-33437500D01*
X2425000Y-32712500D01*
X2425804Y-32708453D01*
X2431764Y-32657091D01*
X2439511Y-32639543D01*
X2444030Y-32616829D01*
X2460278Y-32592510D01*
X2469465Y-32571706D01*
X2483674Y-32557496D01*
X2498223Y-32535723D01*
X2519996Y-32521174D01*
X2534206Y-32506965D01*
X2555010Y-32497778D01*
X2579329Y-32481530D01*
X2602043Y-32477011D01*
X2619591Y-32469264D01*
X2670952Y-32463305D01*
X2675000Y-32462500D01*
X5525000Y-32462500D01*
X5529047Y-32463305D01*
G37*
G36*
X18429047Y-32463305D02*
G01*
X18480408Y-32469264D01*
X18497954Y-32477011D01*
X18520671Y-32481530D01*
X18544991Y-32497780D01*
X18565793Y-32506965D01*
X18580000Y-32521172D01*
X18601777Y-32535723D01*
X18616327Y-32557499D01*
X18630534Y-32571706D01*
X18639718Y-32592506D01*
X18655970Y-32616829D01*
X18660489Y-32639548D01*
X18668235Y-32657091D01*
X18674192Y-32708440D01*
X18675000Y-32712500D01*
X18675000Y-33437500D01*
X18674192Y-33441559D01*
X18668235Y-33492908D01*
X18660489Y-33510450D01*
X18655970Y-33533171D01*
X18639716Y-33557495D01*
X18630534Y-33578293D01*
X18616329Y-33592497D01*
X18601777Y-33614277D01*
X18579997Y-33628829D01*
X18565793Y-33643034D01*
X18544995Y-33652216D01*
X18520671Y-33668470D01*
X18497950Y-33672989D01*
X18480408Y-33680735D01*
X18429061Y-33686692D01*
X18425000Y-33687500D01*
X15575000Y-33687500D01*
X15570941Y-33686692D01*
X15519591Y-33680735D01*
X15502048Y-33672989D01*
X15479329Y-33668470D01*
X15455006Y-33652218D01*
X15434206Y-33643034D01*
X15419999Y-33628827D01*
X15398223Y-33614277D01*
X15383672Y-33592500D01*
X15369465Y-33578293D01*
X15360280Y-33557491D01*
X15344030Y-33533171D01*
X15339511Y-33510454D01*
X15331764Y-33492908D01*
X15325805Y-33441549D01*
X15325000Y-33437500D01*
X15325000Y-32712500D01*
X15325804Y-32708453D01*
X15331764Y-32657091D01*
X15339511Y-32639543D01*
X15344030Y-32616829D01*
X15360278Y-32592510D01*
X15369465Y-32571706D01*
X15383674Y-32557496D01*
X15398223Y-32535723D01*
X15419996Y-32521174D01*
X15434206Y-32506965D01*
X15455010Y-32497778D01*
X15479329Y-32481530D01*
X15502043Y-32477011D01*
X15519591Y-32469264D01*
X15570952Y-32463305D01*
X15575000Y-32462500D01*
X18425000Y-32462500D01*
X18429047Y-32463305D01*
G37*
G36*
X24879047Y-32463305D02*
G01*
X24930408Y-32469264D01*
X24947954Y-32477011D01*
X24970671Y-32481530D01*
X24994991Y-32497780D01*
X25015793Y-32506965D01*
X25030000Y-32521172D01*
X25051777Y-32535723D01*
X25066327Y-32557499D01*
X25080534Y-32571706D01*
X25089718Y-32592506D01*
X25105970Y-32616829D01*
X25110489Y-32639548D01*
X25118235Y-32657091D01*
X25124192Y-32708440D01*
X25125000Y-32712500D01*
X25125000Y-33437500D01*
X25124192Y-33441559D01*
X25118235Y-33492908D01*
X25110489Y-33510450D01*
X25105970Y-33533171D01*
X25089716Y-33557495D01*
X25080534Y-33578293D01*
X25066329Y-33592497D01*
X25051777Y-33614277D01*
X25029997Y-33628829D01*
X25015793Y-33643034D01*
X24994995Y-33652216D01*
X24970671Y-33668470D01*
X24947950Y-33672989D01*
X24930408Y-33680735D01*
X24879061Y-33686692D01*
X24875000Y-33687500D01*
X22025000Y-33687500D01*
X22020941Y-33686692D01*
X21969591Y-33680735D01*
X21952048Y-33672989D01*
X21929329Y-33668470D01*
X21905006Y-33652218D01*
X21884206Y-33643034D01*
X21869999Y-33628827D01*
X21848223Y-33614277D01*
X21833672Y-33592500D01*
X21819465Y-33578293D01*
X21810280Y-33557491D01*
X21794030Y-33533171D01*
X21789511Y-33510454D01*
X21781764Y-33492908D01*
X21775805Y-33441549D01*
X21775000Y-33437500D01*
X21775000Y-32712500D01*
X21775804Y-32708453D01*
X21781764Y-32657091D01*
X21789511Y-32639543D01*
X21794030Y-32616829D01*
X21810278Y-32592510D01*
X21819465Y-32571706D01*
X21833674Y-32557496D01*
X21848223Y-32535723D01*
X21869996Y-32521174D01*
X21884206Y-32506965D01*
X21905010Y-32497778D01*
X21929329Y-32481530D01*
X21952043Y-32477011D01*
X21969591Y-32469264D01*
X22020952Y-32463305D01*
X22025000Y-32462500D01*
X24875000Y-32462500D01*
X24879047Y-32463305D01*
G37*
G36*
X31329047Y-32463305D02*
G01*
X31380408Y-32469264D01*
X31397954Y-32477011D01*
X31420671Y-32481530D01*
X31444991Y-32497780D01*
X31465793Y-32506965D01*
X31480000Y-32521172D01*
X31501777Y-32535723D01*
X31516327Y-32557499D01*
X31530534Y-32571706D01*
X31539718Y-32592506D01*
X31555970Y-32616829D01*
X31560489Y-32639548D01*
X31568235Y-32657091D01*
X31574192Y-32708440D01*
X31575000Y-32712500D01*
X31575000Y-33437500D01*
X31574192Y-33441559D01*
X31568235Y-33492908D01*
X31560489Y-33510450D01*
X31555970Y-33533171D01*
X31539716Y-33557495D01*
X31530534Y-33578293D01*
X31516329Y-33592497D01*
X31501777Y-33614277D01*
X31479997Y-33628829D01*
X31465793Y-33643034D01*
X31444995Y-33652216D01*
X31420671Y-33668470D01*
X31397950Y-33672989D01*
X31380408Y-33680735D01*
X31329061Y-33686692D01*
X31325000Y-33687500D01*
X28475000Y-33687500D01*
X28470941Y-33686692D01*
X28419591Y-33680735D01*
X28402048Y-33672989D01*
X28379329Y-33668470D01*
X28355006Y-33652218D01*
X28334206Y-33643034D01*
X28319999Y-33628827D01*
X28298223Y-33614277D01*
X28283672Y-33592500D01*
X28269465Y-33578293D01*
X28260280Y-33557491D01*
X28244030Y-33533171D01*
X28239511Y-33510454D01*
X28231764Y-33492908D01*
X28225805Y-33441549D01*
X28225000Y-33437500D01*
X28225000Y-32712500D01*
X28225804Y-32708453D01*
X28231764Y-32657091D01*
X28239511Y-32639543D01*
X28244030Y-32616829D01*
X28260278Y-32592510D01*
X28269465Y-32571706D01*
X28283674Y-32557496D01*
X28298223Y-32535723D01*
X28319996Y-32521174D01*
X28334206Y-32506965D01*
X28355010Y-32497778D01*
X28379329Y-32481530D01*
X28402043Y-32477011D01*
X28419591Y-32469264D01*
X28470952Y-32463305D01*
X28475000Y-32462500D01*
X31325000Y-32462500D01*
X31329047Y-32463305D01*
G37*
G36*
X11979047Y-31244505D02*
G01*
X12030408Y-31250464D01*
X12047954Y-31258211D01*
X12070671Y-31262730D01*
X12094991Y-31278980D01*
X12115793Y-31288165D01*
X12130000Y-31302372D01*
X12151777Y-31316923D01*
X12166327Y-31338699D01*
X12180534Y-31352906D01*
X12189718Y-31373706D01*
X12205970Y-31398029D01*
X12210489Y-31420748D01*
X12218235Y-31438291D01*
X12224192Y-31489640D01*
X12225000Y-31493700D01*
X12225000Y-32218700D01*
X12224192Y-32222759D01*
X12218235Y-32274108D01*
X12210489Y-32291650D01*
X12205970Y-32314371D01*
X12189716Y-32338695D01*
X12180534Y-32359493D01*
X12166329Y-32373697D01*
X12151777Y-32395477D01*
X12129997Y-32410029D01*
X12115793Y-32424234D01*
X12094995Y-32433416D01*
X12070671Y-32449670D01*
X12047950Y-32454189D01*
X12030408Y-32461935D01*
X11979061Y-32467892D01*
X11975000Y-32468700D01*
X9125000Y-32468700D01*
X9120941Y-32467892D01*
X9069591Y-32461935D01*
X9052048Y-32454189D01*
X9029329Y-32449670D01*
X9005006Y-32433418D01*
X8984206Y-32424234D01*
X8969999Y-32410027D01*
X8948223Y-32395477D01*
X8933672Y-32373700D01*
X8919465Y-32359493D01*
X8910280Y-32338691D01*
X8894030Y-32314371D01*
X8889511Y-32291654D01*
X8881764Y-32274108D01*
X8875805Y-32222749D01*
X8875000Y-32218700D01*
X8875000Y-31493700D01*
X8875804Y-31489653D01*
X8881764Y-31438291D01*
X8889511Y-31420743D01*
X8894030Y-31398029D01*
X8910278Y-31373710D01*
X8919465Y-31352906D01*
X8933674Y-31338696D01*
X8948223Y-31316923D01*
X8969996Y-31302374D01*
X8984206Y-31288165D01*
X9005010Y-31278978D01*
X9029329Y-31262730D01*
X9052043Y-31258211D01*
X9069591Y-31250464D01*
X9120952Y-31244505D01*
X9125000Y-31243700D01*
X11975000Y-31243700D01*
X11979047Y-31244505D01*
G37*
G36*
X5529047Y-26538305D02*
G01*
X5580408Y-26544264D01*
X5597954Y-26552011D01*
X5620671Y-26556530D01*
X5644991Y-26572780D01*
X5665793Y-26581965D01*
X5680000Y-26596172D01*
X5701777Y-26610723D01*
X5716327Y-26632499D01*
X5730534Y-26646706D01*
X5739718Y-26667506D01*
X5755970Y-26691829D01*
X5760489Y-26714548D01*
X5768235Y-26732091D01*
X5774192Y-26783440D01*
X5775000Y-26787500D01*
X5775000Y-27512500D01*
X5774192Y-27516559D01*
X5768235Y-27567908D01*
X5760489Y-27585450D01*
X5755970Y-27608171D01*
X5739716Y-27632495D01*
X5730534Y-27653293D01*
X5716329Y-27667497D01*
X5701777Y-27689277D01*
X5679997Y-27703829D01*
X5665793Y-27718034D01*
X5644995Y-27727216D01*
X5620671Y-27743470D01*
X5597950Y-27747989D01*
X5580408Y-27755735D01*
X5529061Y-27761692D01*
X5525000Y-27762500D01*
X2675000Y-27762500D01*
X2670941Y-27761692D01*
X2619591Y-27755735D01*
X2602048Y-27747989D01*
X2579329Y-27743470D01*
X2555006Y-27727218D01*
X2534206Y-27718034D01*
X2519999Y-27703827D01*
X2498223Y-27689277D01*
X2483672Y-27667500D01*
X2469465Y-27653293D01*
X2460280Y-27632491D01*
X2444030Y-27608171D01*
X2439511Y-27585454D01*
X2431764Y-27567908D01*
X2425805Y-27516549D01*
X2425000Y-27512500D01*
X2425000Y-26787500D01*
X2425804Y-26783453D01*
X2431764Y-26732091D01*
X2439511Y-26714543D01*
X2444030Y-26691829D01*
X2460278Y-26667510D01*
X2469465Y-26646706D01*
X2483674Y-26632496D01*
X2498223Y-26610723D01*
X2519996Y-26596174D01*
X2534206Y-26581965D01*
X2555010Y-26572778D01*
X2579329Y-26556530D01*
X2602043Y-26552011D01*
X2619591Y-26544264D01*
X2670952Y-26538305D01*
X2675000Y-26537500D01*
X5525000Y-26537500D01*
X5529047Y-26538305D01*
G37*
G36*
X18429047Y-26538305D02*
G01*
X18480408Y-26544264D01*
X18497954Y-26552011D01*
X18520671Y-26556530D01*
X18544991Y-26572780D01*
X18565793Y-26581965D01*
X18580000Y-26596172D01*
X18601777Y-26610723D01*
X18616327Y-26632499D01*
X18630534Y-26646706D01*
X18639718Y-26667506D01*
X18655970Y-26691829D01*
X18660489Y-26714548D01*
X18668235Y-26732091D01*
X18674192Y-26783440D01*
X18675000Y-26787500D01*
X18675000Y-27512500D01*
X18674192Y-27516559D01*
X18668235Y-27567908D01*
X18660489Y-27585450D01*
X18655970Y-27608171D01*
X18639716Y-27632495D01*
X18630534Y-27653293D01*
X18616329Y-27667497D01*
X18601777Y-27689277D01*
X18579997Y-27703829D01*
X18565793Y-27718034D01*
X18544995Y-27727216D01*
X18520671Y-27743470D01*
X18497950Y-27747989D01*
X18480408Y-27755735D01*
X18429061Y-27761692D01*
X18425000Y-27762500D01*
X15575000Y-27762500D01*
X15570941Y-27761692D01*
X15519591Y-27755735D01*
X15502048Y-27747989D01*
X15479329Y-27743470D01*
X15455006Y-27727218D01*
X15434206Y-27718034D01*
X15419999Y-27703827D01*
X15398223Y-27689277D01*
X15383672Y-27667500D01*
X15369465Y-27653293D01*
X15360280Y-27632491D01*
X15344030Y-27608171D01*
X15339511Y-27585454D01*
X15331764Y-27567908D01*
X15325805Y-27516549D01*
X15325000Y-27512500D01*
X15325000Y-26787500D01*
X15325804Y-26783453D01*
X15331764Y-26732091D01*
X15339511Y-26714543D01*
X15344030Y-26691829D01*
X15360278Y-26667510D01*
X15369465Y-26646706D01*
X15383674Y-26632496D01*
X15398223Y-26610723D01*
X15419996Y-26596174D01*
X15434206Y-26581965D01*
X15455010Y-26572778D01*
X15479329Y-26556530D01*
X15502043Y-26552011D01*
X15519591Y-26544264D01*
X15570952Y-26538305D01*
X15575000Y-26537500D01*
X18425000Y-26537500D01*
X18429047Y-26538305D01*
G37*
G36*
X24879047Y-26538305D02*
G01*
X24930408Y-26544264D01*
X24947954Y-26552011D01*
X24970671Y-26556530D01*
X24994991Y-26572780D01*
X25015793Y-26581965D01*
X25030000Y-26596172D01*
X25051777Y-26610723D01*
X25066327Y-26632499D01*
X25080534Y-26646706D01*
X25089718Y-26667506D01*
X25105970Y-26691829D01*
X25110489Y-26714548D01*
X25118235Y-26732091D01*
X25124192Y-26783440D01*
X25125000Y-26787500D01*
X25125000Y-27512500D01*
X25124192Y-27516559D01*
X25118235Y-27567908D01*
X25110489Y-27585450D01*
X25105970Y-27608171D01*
X25089716Y-27632495D01*
X25080534Y-27653293D01*
X25066329Y-27667497D01*
X25051777Y-27689277D01*
X25029997Y-27703829D01*
X25015793Y-27718034D01*
X24994995Y-27727216D01*
X24970671Y-27743470D01*
X24947950Y-27747989D01*
X24930408Y-27755735D01*
X24879061Y-27761692D01*
X24875000Y-27762500D01*
X22025000Y-27762500D01*
X22020941Y-27761692D01*
X21969591Y-27755735D01*
X21952048Y-27747989D01*
X21929329Y-27743470D01*
X21905006Y-27727218D01*
X21884206Y-27718034D01*
X21869999Y-27703827D01*
X21848223Y-27689277D01*
X21833672Y-27667500D01*
X21819465Y-27653293D01*
X21810280Y-27632491D01*
X21794030Y-27608171D01*
X21789511Y-27585454D01*
X21781764Y-27567908D01*
X21775805Y-27516549D01*
X21775000Y-27512500D01*
X21775000Y-26787500D01*
X21775804Y-26783453D01*
X21781764Y-26732091D01*
X21789511Y-26714543D01*
X21794030Y-26691829D01*
X21810278Y-26667510D01*
X21819465Y-26646706D01*
X21833674Y-26632496D01*
X21848223Y-26610723D01*
X21869996Y-26596174D01*
X21884206Y-26581965D01*
X21905010Y-26572778D01*
X21929329Y-26556530D01*
X21952043Y-26552011D01*
X21969591Y-26544264D01*
X22020952Y-26538305D01*
X22025000Y-26537500D01*
X24875000Y-26537500D01*
X24879047Y-26538305D01*
G37*
G36*
X31329047Y-26538305D02*
G01*
X31380408Y-26544264D01*
X31397954Y-26552011D01*
X31420671Y-26556530D01*
X31444991Y-26572780D01*
X31465793Y-26581965D01*
X31480000Y-26596172D01*
X31501777Y-26610723D01*
X31516327Y-26632499D01*
X31530534Y-26646706D01*
X31539718Y-26667506D01*
X31555970Y-26691829D01*
X31560489Y-26714548D01*
X31568235Y-26732091D01*
X31574192Y-26783440D01*
X31575000Y-26787500D01*
X31575000Y-27512500D01*
X31574192Y-27516559D01*
X31568235Y-27567908D01*
X31560489Y-27585450D01*
X31555970Y-27608171D01*
X31539716Y-27632495D01*
X31530534Y-27653293D01*
X31516329Y-27667497D01*
X31501777Y-27689277D01*
X31479997Y-27703829D01*
X31465793Y-27718034D01*
X31444995Y-27727216D01*
X31420671Y-27743470D01*
X31397950Y-27747989D01*
X31380408Y-27755735D01*
X31329061Y-27761692D01*
X31325000Y-27762500D01*
X28475000Y-27762500D01*
X28470941Y-27761692D01*
X28419591Y-27755735D01*
X28402048Y-27747989D01*
X28379329Y-27743470D01*
X28355006Y-27727218D01*
X28334206Y-27718034D01*
X28319999Y-27703827D01*
X28298223Y-27689277D01*
X28283672Y-27667500D01*
X28269465Y-27653293D01*
X28260280Y-27632491D01*
X28244030Y-27608171D01*
X28239511Y-27585454D01*
X28231764Y-27567908D01*
X28225805Y-27516549D01*
X28225000Y-27512500D01*
X28225000Y-26787500D01*
X28225804Y-26783453D01*
X28231764Y-26732091D01*
X28239511Y-26714543D01*
X28244030Y-26691829D01*
X28260278Y-26667510D01*
X28269465Y-26646706D01*
X28283674Y-26632496D01*
X28298223Y-26610723D01*
X28319996Y-26596174D01*
X28334206Y-26581965D01*
X28355010Y-26572778D01*
X28379329Y-26556530D01*
X28402043Y-26552011D01*
X28419591Y-26544264D01*
X28470952Y-26538305D01*
X28475000Y-26537500D01*
X31325000Y-26537500D01*
X31329047Y-26538305D01*
G37*
G36*
X11979047Y-25319505D02*
G01*
X12030408Y-25325464D01*
X12047954Y-25333211D01*
X12070671Y-25337730D01*
X12094991Y-25353980D01*
X12115793Y-25363165D01*
X12130000Y-25377372D01*
X12151777Y-25391923D01*
X12166327Y-25413699D01*
X12180534Y-25427906D01*
X12189718Y-25448706D01*
X12205970Y-25473029D01*
X12210489Y-25495748D01*
X12218235Y-25513291D01*
X12224192Y-25564640D01*
X12225000Y-25568700D01*
X12225000Y-26293700D01*
X12224192Y-26297759D01*
X12218235Y-26349108D01*
X12210489Y-26366650D01*
X12205970Y-26389371D01*
X12189716Y-26413695D01*
X12180534Y-26434493D01*
X12166329Y-26448697D01*
X12151777Y-26470477D01*
X12129997Y-26485029D01*
X12115793Y-26499234D01*
X12094995Y-26508416D01*
X12070671Y-26524670D01*
X12047950Y-26529189D01*
X12030408Y-26536935D01*
X11979061Y-26542892D01*
X11975000Y-26543700D01*
X9125000Y-26543700D01*
X9120941Y-26542892D01*
X9069591Y-26536935D01*
X9052048Y-26529189D01*
X9029329Y-26524670D01*
X9005006Y-26508418D01*
X8984206Y-26499234D01*
X8969999Y-26485027D01*
X8948223Y-26470477D01*
X8933672Y-26448700D01*
X8919465Y-26434493D01*
X8910280Y-26413691D01*
X8894030Y-26389371D01*
X8889511Y-26366654D01*
X8881764Y-26349108D01*
X8875805Y-26297749D01*
X8875000Y-26293700D01*
X8875000Y-25568700D01*
X8875804Y-25564653D01*
X8881764Y-25513291D01*
X8889511Y-25495743D01*
X8894030Y-25473029D01*
X8910278Y-25448710D01*
X8919465Y-25427906D01*
X8933674Y-25413696D01*
X8948223Y-25391923D01*
X8969996Y-25377374D01*
X8984206Y-25363165D01*
X9005010Y-25353978D01*
X9029329Y-25337730D01*
X9052043Y-25333211D01*
X9069591Y-25325464D01*
X9120952Y-25319505D01*
X9125000Y-25318700D01*
X11975000Y-25318700D01*
X11979047Y-25319505D01*
G37*
G36*
X47543513Y-20238131D02*
G01*
X47599476Y-20275524D01*
X47636869Y-20331487D01*
X47650000Y-20397500D01*
X47650000Y-21202500D01*
X47636869Y-21268513D01*
X47599476Y-21324476D01*
X47543513Y-21361869D01*
X47477500Y-21375000D01*
X46122500Y-21375000D01*
X46056487Y-21361869D01*
X46000524Y-21324476D01*
X45963131Y-21268513D01*
X45950000Y-21202500D01*
X45950000Y-20397500D01*
X45963131Y-20331487D01*
X46000524Y-20275524D01*
X46056487Y-20238131D01*
X46122500Y-20225000D01*
X47477500Y-20225000D01*
X47543513Y-20238131D01*
G37*
G36*
X47543513Y-18038131D02*
G01*
X47599476Y-18075524D01*
X47636869Y-18131487D01*
X47650000Y-18197500D01*
X47650000Y-19002500D01*
X47636869Y-19068513D01*
X47599476Y-19124476D01*
X47543513Y-19161869D01*
X47477500Y-19175000D01*
X46122500Y-19175000D01*
X46056487Y-19161869D01*
X46000524Y-19124476D01*
X45963131Y-19068513D01*
X45950000Y-19002500D01*
X45950000Y-18197500D01*
X45963131Y-18131487D01*
X46000524Y-18075524D01*
X46056487Y-18038131D01*
X46122500Y-18025000D01*
X47477500Y-18025000D01*
X47543513Y-18038131D01*
G37*
G36*
X47543513Y-15838131D02*
G01*
X47599476Y-15875524D01*
X47636869Y-15931487D01*
X47650000Y-15997500D01*
X47650000Y-16802500D01*
X47636869Y-16868513D01*
X47599476Y-16924476D01*
X47543513Y-16961869D01*
X47477500Y-16975000D01*
X46122500Y-16975000D01*
X46056487Y-16961869D01*
X46000524Y-16924476D01*
X45963131Y-16868513D01*
X45950000Y-16802500D01*
X45950000Y-15997500D01*
X45963131Y-15931487D01*
X46000524Y-15875524D01*
X46056487Y-15838131D01*
X46122500Y-15825000D01*
X47477500Y-15825000D01*
X47543513Y-15838131D01*
G37*
G36*
X47543513Y-13638131D02*
G01*
X47599476Y-13675524D01*
X47636869Y-13731487D01*
X47650000Y-13797500D01*
X47650000Y-14602500D01*
X47636869Y-14668513D01*
X47599476Y-14724476D01*
X47543513Y-14761869D01*
X47477500Y-14775000D01*
X46122500Y-14775000D01*
X46056487Y-14761869D01*
X46000524Y-14724476D01*
X45963131Y-14668513D01*
X45950000Y-14602500D01*
X45950000Y-13797500D01*
X45963131Y-13731487D01*
X46000524Y-13675524D01*
X46056487Y-13638131D01*
X46122500Y-13625000D01*
X47477500Y-13625000D01*
X47543513Y-13638131D01*
G37*
G36*
X15164047Y-3903905D02*
G01*
X15213118Y-3909598D01*
X15229883Y-3917000D01*
X15251844Y-3921369D01*
X15275354Y-3937078D01*
X15295142Y-3945815D01*
X15308656Y-3959329D01*
X15329706Y-3973394D01*
X15343770Y-3994443D01*
X15357284Y-4007957D01*
X15366020Y-4027743D01*
X15381731Y-4051256D01*
X15386099Y-4073218D01*
X15393501Y-4089981D01*
X15399192Y-4139042D01*
X15400000Y-4143100D01*
X15400000Y-5863100D01*
X15399192Y-5867159D01*
X15393501Y-5916218D01*
X15386099Y-5932979D01*
X15381731Y-5954944D01*
X15366019Y-5978458D01*
X15357284Y-5998242D01*
X15343772Y-6011753D01*
X15329706Y-6032806D01*
X15308653Y-6046872D01*
X15295142Y-6060384D01*
X15275358Y-6069119D01*
X15251844Y-6084831D01*
X15229879Y-6089199D01*
X15213118Y-6096601D01*
X15164059Y-6102292D01*
X15160000Y-6103100D01*
X14040000Y-6103100D01*
X14035942Y-6102292D01*
X13986881Y-6096601D01*
X13970118Y-6089199D01*
X13948156Y-6084831D01*
X13924643Y-6069120D01*
X13904857Y-6060384D01*
X13891343Y-6046870D01*
X13870294Y-6032806D01*
X13856229Y-6011756D01*
X13842715Y-5998242D01*
X13833978Y-5978454D01*
X13818269Y-5954944D01*
X13813900Y-5932983D01*
X13806498Y-5916218D01*
X13800805Y-5867147D01*
X13800000Y-5863100D01*
X13800000Y-4143100D01*
X13800804Y-4139054D01*
X13806498Y-4089981D01*
X13813901Y-4073214D01*
X13818269Y-4051256D01*
X13833976Y-4027747D01*
X13842715Y-4007957D01*
X13856231Y-3994440D01*
X13870294Y-3973394D01*
X13891340Y-3959331D01*
X13904857Y-3945815D01*
X13924647Y-3937076D01*
X13948156Y-3921369D01*
X13970114Y-3917001D01*
X13986881Y-3909598D01*
X14035954Y-3903904D01*
X14040000Y-3903100D01*
X15160000Y-3903100D01*
X15164047Y-3903905D01*
G37*
G36*
X10668513Y-4166231D02*
G01*
X10724476Y-4203624D01*
X10761869Y-4259587D01*
X10775000Y-4325600D01*
X10775000Y-5680600D01*
X10761869Y-5746613D01*
X10724476Y-5802576D01*
X10668513Y-5839969D01*
X10602500Y-5853100D01*
X9797500Y-5853100D01*
X9731487Y-5839969D01*
X9675524Y-5802576D01*
X9638131Y-5746613D01*
X9625000Y-5680600D01*
X9625000Y-4325600D01*
X9638131Y-4259587D01*
X9675524Y-4203624D01*
X9731487Y-4166231D01*
X9797500Y-4153100D01*
X10602500Y-4153100D01*
X10668513Y-4166231D01*
G37*
G36*
X12868513Y-4166231D02*
G01*
X12924476Y-4203624D01*
X12961869Y-4259587D01*
X12975000Y-4325600D01*
X12975000Y-5680600D01*
X12961869Y-5746613D01*
X12924476Y-5802576D01*
X12868513Y-5839969D01*
X12802500Y-5853100D01*
X11997500Y-5853100D01*
X11931487Y-5839969D01*
X11875524Y-5802576D01*
X11838131Y-5746613D01*
X11825000Y-5680600D01*
X11825000Y-4325600D01*
X11838131Y-4259587D01*
X11875524Y-4203624D01*
X11931487Y-4166231D01*
X11997500Y-4153100D01*
X12802500Y-4153100D01*
X12868513Y-4166231D01*
G37*
G36*
X856790Y3257107D02*
G01*
X1020952Y3203767D01*
X1174748Y3125404D01*
X1314393Y3023947D01*
X1436447Y2901893D01*
X1537904Y2762248D01*
X1616267Y2608452D01*
X1669607Y2444290D01*
X1696609Y2273805D01*
X1696609Y2101195D01*
X1669607Y1930710D01*
X1616267Y1766548D01*
X1537904Y1612752D01*
X1436447Y1473107D01*
X1314393Y1351053D01*
X1174748Y1249596D01*
X1020952Y1171233D01*
X856790Y1117893D01*
X686305Y1090891D01*
X513695Y1090891D01*
X343210Y1117893D01*
X179048Y1171233D01*
X25252Y1249596D01*
X-114393Y1351053D01*
X-236447Y1473107D01*
X-337904Y1612752D01*
X-416267Y1766548D01*
X-469607Y1930710D01*
X-496609Y2101195D01*
X-496609Y2273805D01*
X-469607Y2444290D01*
X-416267Y2608452D01*
X-337904Y2762248D01*
X-236447Y2901893D01*
X-114393Y3023947D01*
X25252Y3125404D01*
X179048Y3203767D01*
X343210Y3257107D01*
X513695Y3284109D01*
X686305Y3284109D01*
X856790Y3257107D01*
G37*
G36*
X21871342Y5681940D02*
G01*
X21984381Y5616677D01*
X22076677Y5524381D01*
X22141940Y5411342D01*
X22175722Y5285263D01*
X22180000Y5220000D01*
X22180000Y4120000D01*
X22175722Y4054737D01*
X22141940Y3928658D01*
X22076677Y3815619D01*
X21984381Y3723323D01*
X21871342Y3658060D01*
X21745263Y3624278D01*
X21614737Y3624278D01*
X21488658Y3658060D01*
X21375619Y3723323D01*
X21283323Y3815619D01*
X21218060Y3928658D01*
X21184278Y4054737D01*
X21180000Y4120000D01*
X21180000Y5220000D01*
X21184278Y5285263D01*
X21218060Y5411342D01*
X21283323Y5524381D01*
X21375619Y5616677D01*
X21488658Y5681940D01*
X21614737Y5715722D01*
X21745263Y5715722D01*
X21871342Y5681940D01*
G37*
G36*
X30511342Y5681940D02*
G01*
X30624381Y5616677D01*
X30716677Y5524381D01*
X30781940Y5411342D01*
X30815722Y5285263D01*
X30820000Y5220000D01*
X30820000Y4120000D01*
X30815722Y4054737D01*
X30781940Y3928658D01*
X30716677Y3815619D01*
X30624381Y3723323D01*
X30511342Y3658060D01*
X30385263Y3624278D01*
X30254737Y3624278D01*
X30128658Y3658060D01*
X30015619Y3723323D01*
X29923323Y3815619D01*
X29858060Y3928658D01*
X29824278Y4054737D01*
X29820000Y4120000D01*
X29820000Y5220000D01*
X29824278Y5285263D01*
X29858060Y5411342D01*
X29923323Y5524381D01*
X30015619Y5616677D01*
X30128658Y5681940D01*
X30254737Y5715722D01*
X30385263Y5715722D01*
X30511342Y5681940D01*
G37*
G36*
X23234372Y5500261D02*
G01*
X23307847Y5457840D01*
X23367840Y5397847D01*
X23410261Y5324372D01*
X23432220Y5242421D01*
X23432220Y5157579D01*
X23410261Y5075628D01*
X23367840Y5002153D01*
X23307847Y4942160D01*
X23234372Y4899739D01*
X23152421Y4877780D01*
X23067579Y4877780D01*
X22985628Y4899739D01*
X22912153Y4942160D01*
X22852160Y5002153D01*
X22809739Y5075628D01*
X22787780Y5157579D01*
X22787780Y5242421D01*
X22809739Y5324372D01*
X22852160Y5397847D01*
X22912153Y5457840D01*
X22985628Y5500261D01*
X23067579Y5522220D01*
X23152421Y5522220D01*
X23234372Y5500261D01*
G37*
G36*
X29014372Y5500261D02*
G01*
X29087847Y5457840D01*
X29147840Y5397847D01*
X29190261Y5324372D01*
X29212220Y5242421D01*
X29212220Y5157579D01*
X29190261Y5075628D01*
X29147840Y5002153D01*
X29087847Y4942160D01*
X29014372Y4899739D01*
X28932421Y4877780D01*
X28847579Y4877780D01*
X28765628Y4899739D01*
X28692153Y4942160D01*
X28632160Y5002153D01*
X28589739Y5075628D01*
X28567780Y5157579D01*
X28567780Y5242421D01*
X28589739Y5324372D01*
X28632160Y5397847D01*
X28692153Y5457840D01*
X28765628Y5500261D01*
X28847579Y5522220D01*
X28932421Y5522220D01*
X29014372Y5500261D01*
G37*
G36*
X106790Y8254007D02*
G01*
X270952Y8200667D01*
X424748Y8122304D01*
X564393Y8020847D01*
X686447Y7898793D01*
X787904Y7759148D01*
X866267Y7605352D01*
X919607Y7441190D01*
X946609Y7270705D01*
X946609Y7098095D01*
X919607Y6927610D01*
X866267Y6763448D01*
X787904Y6609652D01*
X686447Y6470007D01*
X564393Y6347953D01*
X424748Y6246496D01*
X270952Y6168133D01*
X106790Y6114793D01*
X-63695Y6087791D01*
X-236305Y6087791D01*
X-406790Y6114793D01*
X-570952Y6168133D01*
X-724748Y6246496D01*
X-864393Y6347953D01*
X-986447Y6470007D01*
X-1087904Y6609652D01*
X-1166267Y6763448D01*
X-1219607Y6927610D01*
X-1246609Y7098095D01*
X-1246609Y7270705D01*
X-1219607Y7441190D01*
X-1166267Y7605352D01*
X-1087904Y7759148D01*
X-986447Y7898793D01*
X-864393Y8020847D01*
X-724748Y8122304D01*
X-570952Y8200667D01*
X-406790Y8254007D01*
X-236305Y8281009D01*
X-63695Y8281009D01*
X106790Y8254007D01*
G37*
G36*
X21871342Y9611940D02*
G01*
X21984381Y9546677D01*
X22076677Y9454381D01*
X22141940Y9341342D01*
X22175722Y9215263D01*
X22180000Y9150000D01*
X22180000Y8550000D01*
X22175722Y8484737D01*
X22141940Y8358658D01*
X22076677Y8245619D01*
X21984381Y8153323D01*
X21871342Y8088060D01*
X21745263Y8054278D01*
X21614737Y8054278D01*
X21488658Y8088060D01*
X21375619Y8153323D01*
X21283323Y8245619D01*
X21218060Y8358658D01*
X21184278Y8484737D01*
X21180000Y8550000D01*
X21180000Y9150000D01*
X21184278Y9215263D01*
X21218060Y9341342D01*
X21283323Y9454381D01*
X21375619Y9546677D01*
X21488658Y9611940D01*
X21614737Y9645722D01*
X21745263Y9645722D01*
X21871342Y9611940D01*
G37*
G36*
X30511342Y9611940D02*
G01*
X30624381Y9546677D01*
X30716677Y9454381D01*
X30781940Y9341342D01*
X30815722Y9215263D01*
X30820000Y9150000D01*
X30820000Y8550000D01*
X30815722Y8484737D01*
X30781940Y8358658D01*
X30716677Y8245619D01*
X30624381Y8153323D01*
X30511342Y8088060D01*
X30385263Y8054278D01*
X30254737Y8054278D01*
X30128658Y8088060D01*
X30015619Y8153323D01*
X29923323Y8245619D01*
X29858060Y8358658D01*
X29824278Y8484737D01*
X29820000Y8550000D01*
X29820000Y9150000D01*
X29824278Y9215263D01*
X29858060Y9341342D01*
X29923323Y9454381D01*
X30015619Y9546677D01*
X30128658Y9611940D01*
X30254737Y9645722D01*
X30385263Y9645722D01*
X30511342Y9611940D01*
G37*
G36*
X3350285Y10146940D02*
G01*
X3531397Y10071921D01*
X3694393Y9963010D01*
X3833010Y9824393D01*
X3941921Y9661397D01*
X4016940Y9480285D01*
X4055185Y9288017D01*
X4055185Y9091983D01*
X4016940Y8899715D01*
X3941921Y8718603D01*
X3833010Y8555607D01*
X3694393Y8416990D01*
X3531397Y8308079D01*
X3350285Y8233060D01*
X3158017Y8194815D01*
X2961983Y8194815D01*
X2769715Y8233060D01*
X2588603Y8308079D01*
X2425607Y8416990D01*
X2286990Y8555607D01*
X2178079Y8718603D01*
X2103060Y8899715D01*
X2064815Y9091983D01*
X2064815Y9288017D01*
X2103060Y9480285D01*
X2178079Y9661397D01*
X2286990Y9824393D01*
X2425607Y9963010D01*
X2588603Y10071921D01*
X2769715Y10146940D01*
X2961983Y10185185D01*
X3158017Y10185185D01*
X3350285Y10146940D01*
G37*
%LPD*%
M02*
