M48
; DRILL file KiCad 10.0.4 date 2026-10-09T22:51:58
; FORMAT={-:-/ absolute / metric / decimal}
; #@! TF.CreationDate,2026-10-09T22:51:58+01:00
; #@! TF.GenerationSoftware,Kicad,Pcbnew,10.0.4
; #@! TF.FileFunction,Plated,1,8,PTH
FMAT,2
METRIC
; #@! TA.AperFunction,Plated,PTH,ViaDrill
T1C0.150
; #@! TA.AperFunction,Plated,PTH,ViaDrill
T2C0.200
; #@! TA.AperFunction,Plated,PTH,ViaDrill
T3C0.200
; #@! TA.AperFunction,Plated,PTH,ComponentDrill
T4C0.600
%
G90
G05
T1
X11.4Y-12.45
X11.7Y-10.4
X11.9Y-13.9
X12.4Y-13.9
X13.45Y-9.35
X14.95Y-8.25
X18.6Y-8.8
X22.85Y-9.2
X25.7Y-46.95
X26.4Y-51.0
X26.4Y-51.4
X26.5Y-46.95
X26.5Y-47.35
X26.8Y-50.2
X26.8Y-50.6
X26.8Y-51.0
X26.8Y-51.4
X26.9Y-47.35
X26.9Y-48.15
X27.2Y-49.8
X27.2Y-51.4
X27.6Y-50.2
X27.6Y-51.0
X27.6Y-51.8
X28.0Y-49.8
X28.0Y-51.0
X28.0Y-51.8
X29.65Y-39.45
X35.75Y-32.4
X35.75Y-33.35
X36.586Y-10.281
X36.586Y-10.681
X36.586Y-11.081
X36.586Y-11.481
X36.586Y-11.881
X36.75Y-29.45
X36.986Y-10.681
X36.986Y-11.881
X37.386Y-10.281
X37.386Y-11.481
X37.386Y-11.881
X37.786Y-11.481
X37.786Y-11.881
X38.186Y-10.281
X38.186Y-11.881
X38.586Y-11.081
T2
X-0.614Y-14.581
X0.65Y-48.55
X0.65Y-56.5
X2.25Y-43.6
X2.75Y-39.9
X5.2Y-39.9
X6.65Y-57.5
X6.786Y-59.531
X8.186Y-7.181
X9.6Y-12.05
X9.6Y-38.55
X10.75Y-42.4
X10.95Y-55.45
X11.2Y-55.9
X12.1Y-37.2
X12.45Y-56.2
X13.35Y-7.75
X14.2Y-51.85
X14.5Y-53.15
X15.2Y-53.65
X15.2Y-59.0
X15.4Y-39.9
X15.6Y-54.0
X15.95Y-58.0
X16.1Y-58.8
X17.15Y-60.75
X17.5Y-43.6
X18.4Y-45.65
X18.8Y-53.7
X18.9Y-52.05
X18.95Y-43.6
X18.95Y-44.25
X19.1Y-52.6
X19.15Y-49.25
X19.4Y-44.85
X19.55Y-48.9
X20.5Y-53.5
X21.086Y-8.181
X21.15Y-38.9
X21.15Y-49.25
X21.25Y-50.4
X21.4Y-45.35
X21.5Y-55.65
X21.6Y-25.3
X21.8Y-23.2
X21.986Y-45.131
X22.0Y-29.0
X22.1Y-30.7
X22.1Y-39.5
X22.2Y-43.6
X22.8Y-38.5
X22.8Y-55.45
X23.4Y-55.45
X23.45Y-45.5
X23.686Y-9.931
X24.0Y-45.5
X24.286Y-24.831
X24.4Y-46.15
X24.65Y-47.55
X24.85Y-53.2
X24.9Y-50.2
X24.9Y-58.9
X25.0Y-46.65
X25.2Y-51.85
X25.3Y-49.5
X25.4Y-54.5
X25.65Y-51.55
X25.65Y-57.35
X25.686Y-49.831
X25.986Y-36.831
X26.25Y-55.85
X26.3Y-48.9
X26.7Y-61.05
X26.786Y-49.081
X27.0Y-41.95
X27.036Y-41.031
X27.1Y-36.0
X27.1Y-54.55
X27.1Y-59.35
X27.3Y-55.8
X27.4Y-42.35
X27.5Y-37.7
X27.5Y-47.25
X27.95Y-34.6
X27.986Y-40.231
X28.1Y-48.35
X28.3Y-58.2
X28.45Y-37.85
X28.75Y-49.45
X28.8Y-58.35
X28.9Y-56.0
X29.15Y-25.3
X29.186Y-41.181
X29.25Y-48.9
X29.336Y-53.381
X29.35Y-42.5
X29.35Y-46.15
X29.386Y-49.481
X29.536Y-46.881
X29.6Y-56.0
X29.65Y-47.4
X29.65Y-58.2
X29.686Y-50.831
X29.85Y-42.65
X29.85Y-55.1
X29.9Y-31.3
X29.95Y-48.2
X30.3Y-56.3
X30.3Y-60.35
X30.4Y-42.5
X30.6Y-51.9
X30.65Y-55.35
X30.65Y-55.9
X30.886Y-46.481
X31.136Y-49.381
X31.236Y-50.331
X31.251Y-59.69
X31.35Y-58.55
X31.4Y-51.9
X31.4Y-54.5
X31.75Y-56.7
X31.8Y-47.0
X31.8Y-59.7
X31.95Y-49.3
X32.25Y-56.6
X32.3Y-50.2
X32.4Y-51.5
X32.636Y-19.231
X33.7Y-58.5
X33.8Y-50.2
X34.286Y-6.831
X34.286Y-9.831
X34.286Y-13.081
X34.386Y-14.531
X34.586Y-9.381
X34.7Y-51.9
X35.0Y-49.85
X35.586Y-18.331
X35.786Y-16.031
X35.936Y-9.531
X35.95Y-55.8
X36.35Y-43.3
X36.45Y-52.1
X37.336Y-15.231
X37.786Y-7.781
X38.456Y-8.484
X38.736Y-15.131
X39.236Y-9.531
X39.236Y-17.631
X39.65Y-52.75
X41.6Y-56.2
X43.186Y-40.031
X44.001Y9.21
T3
X-1.214Y-16.044
X-0.915Y-45.31
X-0.462Y-52.91
X-0.357Y-38.111
X-0.293Y-55.205
X-0.28Y-33.481
X-0.22Y-9.004
X-0.205Y-23.1
X0.087Y-0.612
X0.117Y-52.733
X0.228Y-56.177
X0.265Y-19.474
X0.79Y-27.732
X0.895Y-22.272
X1.075Y-52.975
X1.227Y-16.157
X1.769Y-12.452
X2.092Y-38.714
X2.128Y-63.039
X2.137Y-53.563
X2.146Y-49.885
X2.147Y-52.898
X2.203Y-4.598
X2.954Y-39.255
X3.135Y6.389
X3.137Y-28.195
X3.603Y-34.616
X3.704Y-43.689
X3.916Y-18.308
X3.981Y-13.643
X4.087Y-31.662
X4.177Y-7.764
X4.208Y-4.784
X4.223Y-50.602
X4.304Y-47.325
X4.318Y-14.022
X4.348Y-54.997
X4.482Y-34.384
X4.579Y-8.073
X4.666Y-5.113
X4.745Y-52.652
X4.785Y-63.807
X4.939Y-45.963
X5.075Y-52.061
X5.319Y-24.15
X5.356Y-52.606
X5.538Y-12.889
X5.597Y-45.462
X5.65Y-46.27
X5.714Y-48.591
X5.936Y-38.677
X6.003Y-12.407
X6.015Y-21.882
X6.226Y-48.696
X6.298Y-55.287
X6.315Y6.569
X6.366Y-37.993
X6.474Y-20.057
X6.507Y-12.459
X6.774Y-33.838
X6.779Y-4.733
X6.829Y-62.871
X6.881Y-7.302
X6.928Y-13.265
X6.936Y-10.924
X7.062Y-32.85
X7.113Y-3.741
X7.138Y6.454
X7.261Y-21.522
X7.34Y-50.693
X7.378Y0.996
X7.382Y-13.039
X7.43Y3.227
X7.528Y-34.594
X7.715Y-46.461
X7.793Y-54.429
X7.832Y-4.415
X7.956Y-8.954
X7.959Y-49.309
X8.047Y6.463
X8.067Y4.032
X8.087Y-59.473
X8.102Y-21.917
X8.12Y-60.525
X8.137Y-46.03
X8.244Y0.159
X8.42Y5.749
X8.452Y-53.28
X8.537Y-14.389
X8.596Y-56.631
X8.7Y-49.581
X8.768Y6.359
X8.833Y-7.284
X8.908Y-46.647
X9.034Y-16.397
X9.212Y-15.241
X9.277Y1.543
X9.348Y-43.85
X9.391Y5.852
X9.435Y-7.139
X9.64Y-7.7
X10.055Y-46.303
X10.106Y-36.681
X10.153Y5.944
X10.162Y-33.627
X10.246Y-38.075
X10.269Y-14.631
X10.269Y-58.518
X10.29Y-44.181
X10.421Y-27.047
X10.426Y-7.57
X10.442Y-23.332
X10.477Y-52.885
X10.578Y-22.551
X10.764Y-37.39
X10.845Y-9.985
X10.943Y-29.955
X11.046Y-46.265
X11.07Y-35.733
X11.233Y-42.592
X11.255Y-53.089
X11.335Y-20.06
X11.474Y3.737
X11.488Y-2.171
X11.547Y-53.531
X11.699Y-58.437
X11.744Y-38.375
X11.748Y6.03
X11.769Y-3.684
X11.776Y-11.791
X11.845Y-60.735
X11.894Y-44.604
X12.134Y-23.2
X12.207Y-43.124
X12.342Y-38.305
X12.381Y-3.64
X12.412Y3.897
X12.468Y-45.161
X12.567Y-52.819
X12.571Y-47.488
X12.622Y-37.772
X12.638Y-35.92
X12.646Y6.211
X12.79Y-53.517
X12.814Y-3.196
X12.878Y5.394
X12.916Y-34.916
X12.984Y-59.052
X13.082Y-12.231
X13.336Y-21.101
X13.337Y-20.366
X13.34Y-46.858
X13.394Y3.833
X13.427Y-3.069
X13.546Y-47.993
X13.699Y-53.603
X13.787Y6.076
X13.82Y-8.417
X13.876Y-20.545
X13.933Y-13.412
X13.996Y-23.223
X14.0Y-58.071
X14.11Y-32.237
X14.13Y-50.694
X14.223Y-59.39
X14.255Y-34.941
X14.277Y-33.732
X14.282Y-62.14
X14.333Y-31.474
X14.363Y-52.336
X14.387Y-7.513
X14.478Y-18.767
X14.537Y-39.598
X14.602Y-53.711
X14.66Y-20.196
X14.816Y-52.72
X14.857Y-47.197
X14.859Y-34.409
X14.861Y-23.422
X14.998Y-46.156
X15.04Y-11.184
X15.132Y-43.882
X15.136Y5.73
X15.229Y-21.647
X15.24Y-7.869
X15.252Y-49.773
X15.323Y-45.008
X15.37Y-24.393
X15.436Y-37.62
X15.497Y1.668
X15.529Y0.419
X15.533Y-0.879
X15.601Y-11.422
X15.627Y-39.082
X15.65Y-36.831
X15.748Y-60.532
X15.751Y-5.323
X15.824Y-23.482
X15.869Y6.185
X15.881Y-38.249
X15.931Y-31.108
X15.953Y-24.436
X16.013Y-44.497
X16.028Y-56.146
X16.047Y-53.714
X16.068Y-30.566
X16.076Y-4.632
X16.118Y-47.925
X16.173Y-49.203
X16.275Y5.423
X16.298Y-52.047
X16.316Y-11.062
X16.392Y-24.036
X16.415Y-46.45
X16.467Y-34.797
X16.471Y-31.903
X16.602Y-39.34
X16.606Y-18.5
X16.853Y6.199
X16.93Y-10.618
X16.975Y-43.575
X16.983Y-20.174
X17.014Y-29.886
X17.058Y-45.021
X17.175Y-23.35
X17.308Y-20.895
X17.439Y-24.131
X17.594Y5.843
X17.611Y-28.256
X17.617Y3.418
X17.667Y-8.25
X17.824Y-61.46
X17.895Y0.594
X17.971Y-58.524
X18.024Y-20.207
X18.081Y-36.908
X18.126Y-40.839
X18.295Y-53.789
X18.33Y-38.651
X18.398Y-39.86
X18.399Y-57.955
X18.444Y-30.599
X18.452Y-3.492
X18.665Y-5.426
X18.735Y-56.18
X18.747Y-55.108
X18.777Y-19.607
X18.798Y-37.723
X18.808Y-21.91
X18.808Y-20.152
X18.922Y-31.527
X18.989Y-35.557
X18.991Y-34.447
X19.048Y-41.747
X19.048Y-23.089
X19.259Y-7.239
X19.263Y-16.996
X19.279Y-39.77
X19.308Y-43.836
X19.34Y-58.376
X19.451Y-40.422
X19.491Y-53.718
X19.588Y-23.08
X19.598Y-13.043
X19.636Y-57.661
X19.792Y-51.685
X19.974Y-53.581
X19.992Y-49.188
X20.019Y-56.188
X20.135Y5.778
X20.144Y-39.071
X20.22Y-31.735
X20.236Y-12.511
X20.263Y-60.512
X20.449Y-5.146
X20.516Y-8.757
X20.571Y-34.626
X20.583Y-11.799
X20.751Y-33.45
X20.784Y7.76
X21.016Y-18.121
X21.268Y-23.277
X21.312Y-58.933
X21.346Y-53.692
X21.401Y-33.067
X21.452Y-58.16
X21.532Y-17.556
X21.588Y-15.531
X21.595Y-34.704
X21.63Y-59.9
X21.82Y-56.425
X22.092Y-38.451
X22.097Y-34.09
X22.203Y-21.083
X22.339Y-58.801
X22.361Y-55.803
X22.428Y-0.595
X22.543Y-39.232
X22.677Y2.629
X22.716Y-34.65
X22.939Y-56.841
X23.063Y-62.247
X23.403Y-6.791
X23.431Y-37.985
X23.457Y-34.754
X23.464Y-14.149
X23.599Y-3.233
X23.65Y-39.496
X23.759Y-29.319
X23.877Y2.006
X23.916Y-18.294
X23.976Y-37.432
X24.058Y-2.831
X24.104Y-38.34
X24.153Y-57.372
X24.214Y-9.382
X24.315Y-23.097
X24.354Y-62.864
X24.359Y4.902
X24.426Y2.69
X24.526Y-48.699
X24.589Y-54.532
X24.732Y-44.57
X24.926Y-21.747
X24.949Y-9.72
X25.036Y-30.273
X25.111Y-19.104
X25.343Y-22.429
X25.424Y-59.061
X25.498Y-0.148
X25.542Y-37.13
X25.695Y-16.613
X25.697Y-37.621
X25.798Y-52.987
X25.826Y-23.374
X25.833Y-39.84
X25.848Y-17.362
X25.887Y-20.574
X26.175Y-14.165
X26.252Y-13.408
X26.29Y-6.152
X26.296Y-7.269
X26.503Y-33.118
X26.579Y-42.237
X26.609Y-2.847
X26.694Y-32.335
X27.041Y-39.856
X27.042Y-37.98
X27.238Y-56.598
X27.409Y-12.01
X27.426Y-34.554
X27.501Y5.896
X27.512Y-36.315
X27.547Y-8.697
X27.563Y-48.92
X28.341Y-41.387
X28.402Y-1.788
X28.477Y-21.131
X28.585Y-47.299
X28.646Y-31.461
X28.666Y-56.499
X28.743Y-21.92
X28.9Y-22.779
X28.946Y0.432
X29.004Y-38.935
X29.011Y-19.221
X29.073Y-1.759
X29.101Y-9.525
X29.125Y-59.198
X29.159Y-4.49
X29.194Y-23.628
X29.264Y-56.701
X29.28Y-21.49
X29.337Y-39.85
X29.416Y-18.891
X29.521Y-7.145
X29.531Y-22.036
X29.557Y-37.732
X29.692Y-63.094
X29.726Y-57.388
X29.817Y-34.039
X29.945Y-41.357
X29.95Y-1.443
X30.155Y-49.313
X30.178Y-8.059
X30.213Y-6.993
X30.309Y-16.739
X30.35Y-30.143
X30.352Y-20.65
X30.509Y-21.398
X30.564Y-22.444
X30.639Y-34.317
X30.673Y-29.282
X30.738Y-41.131
X30.744Y-42.874
X30.752Y-15.557
X30.755Y-41.954
X30.76Y-21.949
X30.934Y-31.894
X31.145Y-30.22
X31.166Y-36.948
X31.281Y-10.891
X31.391Y-17.887
X31.663Y3.639
X31.731Y-12.04
X31.793Y-21.56
X31.891Y-32.409
X31.905Y-26.476
X32.074Y-27.035
X32.095Y-30.224
X32.154Y-31.678
X32.176Y-33.878
X32.177Y-35.521
X32.231Y-5.638
X32.272Y-22.228
X32.436Y-17.401
X32.475Y2.645
X32.477Y-32.397
X32.653Y-31.534
X32.706Y-51.02
X32.783Y-8.902
X32.838Y-23.469
X32.844Y-34.113
X32.906Y-34.895
X32.924Y-7.677
X32.94Y-54.973
X32.96Y-33.584
X33.058Y-42.107
X33.128Y-29.271
X33.21Y-13.282
X33.27Y-17.376
X33.306Y-32.254
X33.326Y-56.587
X33.456Y-28.197
X33.482Y-30.155
X33.895Y-18.414
X34.179Y-37.073
X34.217Y-46.247
X34.254Y-32.682
X34.287Y-17.949
X34.295Y-15.565
X34.32Y-28.69
X34.348Y5.766
X34.418Y-26.435
X34.429Y-49.335
X34.459Y-18.657
X34.465Y-10.447
X34.5Y-36.118
X34.603Y-31.715
X34.608Y-2.424
X34.613Y-50.211
X34.693Y-33.655
X34.715Y2.68
X34.839Y-11.62
X34.943Y-10.604
X35.024Y-36.453
X35.373Y-21.029
X35.475Y-11.661
X35.688Y-16.585
X35.716Y-34.632
X35.74Y-30.181
X35.755Y-35.869
X35.81Y-21.276
X35.984Y-40.878
X36.147Y-38.118
X36.16Y-13.42
X36.161Y-24.71
X36.181Y4.803
X36.326Y-12.69
X36.504Y0.36
X36.704Y-41.513
X36.767Y-16.411
X36.807Y-50.69
X36.961Y-5.199
X37.033Y0.26
X37.172Y-12.967
X37.214Y8.725
X37.219Y6.733
X37.303Y-14.162
X37.447Y-39.017
X37.69Y2.926
X37.706Y1.459
X37.869Y4.291
X38.111Y-28.136
X38.18Y-0.495
X38.238Y-18.489
X38.241Y-4.002
X38.258Y-17.9
X38.318Y-5.117
X38.333Y-49.253
X38.334Y-55.7
X38.391Y-62.794
X38.408Y4.037
X38.486Y-43.815
X38.535Y-15.83
X38.539Y-17.175
X38.548Y-20.043
X38.555Y-41.51
X38.605Y-0.112
X38.756Y4.497
X38.798Y8.595
X38.834Y-3.26
X38.922Y-34.66
X38.946Y-33.42
X39.065Y-40.505
X39.069Y-28.283
X39.14Y-27.147
X39.187Y-43.374
X39.234Y-31.469
X39.249Y-37.687
X39.289Y-41.015
X39.362Y-36.305
X39.374Y-13.212
X39.405Y-30.339
X39.45Y-0.501
X39.576Y-38.786
X39.584Y-11.688
X39.584Y-2.002
X39.612Y-45.481
X39.628Y-51.754
X39.655Y-46.447
X39.694Y-58.843
X39.912Y-11.184
X39.967Y-1.096
X39.979Y-5.439
X40.097Y-21.491
X40.134Y-37.364
X40.142Y-39.031
X40.195Y-13.72
X40.224Y6.361
X40.247Y-33.351
X40.322Y8.46
X40.331Y-51.408
X40.343Y-24.875
X40.358Y-15.839
X40.477Y-0.549
X40.541Y-22.902
X40.602Y-5.228
X40.614Y-31.699
X40.678Y-8.057
X40.793Y-52.156
X40.815Y-8.666
X40.868Y-9.275
X41.011Y7.473
X41.049Y-1.734
X41.148Y-12.353
X41.215Y-45.27
X41.227Y-41.421
X41.234Y-5.336
X41.292Y-48.37
X41.514Y6.838
X41.538Y-47.054
X41.634Y4.911
X41.709Y-22.325
X41.776Y7.992
X41.832Y-3.085
X42.004Y-38.548
X42.398Y-13.944
X42.472Y-41.639
X42.516Y4.255
X42.581Y-20.11
X42.624Y-20.938
X42.696Y-62.591
X42.738Y0.288
X42.752Y-47.597
X42.921Y-16.419
X43.006Y-48.544
X43.029Y-33.634
X43.22Y-12.294
X43.224Y-11.147
X43.224Y-9.462
X43.266Y-17.472
X43.308Y2.926
X43.328Y0.933
X43.342Y-14.241
X43.402Y-45.002
X43.432Y-56.205
X43.45Y-21.867
X43.507Y5.392
X43.541Y-10.466
X43.564Y-3.937
X43.582Y-41.674
X43.602Y-55.684
X43.635Y-32.857
X43.65Y6.15
X43.686Y-23.867
X43.804Y-27.865
X43.98Y4.478
X44.023Y-24.409
X44.046Y-6.169
X44.119Y-34.862
X44.348Y6.741
X44.443Y-10.717
X44.446Y-48.359
X44.463Y3.667
X44.497Y-39.745
X44.506Y-26.93
X44.511Y8.77
X44.626Y-21.531
X44.679Y4.192
X44.774Y0.889
X44.793Y-14.243
X44.913Y-17.435
X45.117Y-47.512
X45.148Y-34.594
X45.162Y-11.512
X45.316Y2.204
X45.389Y-18.87
X45.653Y-15.219
X45.694Y-0.738
X46.1Y-2.555
X46.158Y-12.981
X46.242Y-0.299
X46.286Y-52.728
X46.487Y-19.891
X46.575Y3.792
X46.655Y4.971
X46.68Y-56.409
X46.728Y-30.42
X46.819Y-6.308
X47.025Y4.189
X47.042Y-39.244
X47.22Y-24.059
X47.341Y-21.857
T4
X21.68Y8.55G85X21.68Y9.15
G05
X21.68Y4.12G85X21.68Y5.22
G05
X30.32Y8.55G85X30.32Y9.15
G05
X30.32Y4.12G85X30.32Y5.22
G05
M30
