%TF.GenerationSoftware,KiCad,Pcbnew,10.0.4*%
%TF.CreationDate,2026-10-09T22:51:56+01:00*%
%TF.ProjectId,vitalq_v2,76697461-6c71-45f7-9632-2e6b69636164,rev?*%
%TF.SameCoordinates,Original*%
%TF.FileFunction,Copper,L8,Bot*%
%TF.FilePolarity,Positive*%
%FSLAX46Y46*%
G04 Gerber Fmt 4.6, Leading zero omitted, Abs format (unit mm)*
G04 Created by KiCad (PCBNEW 10.0.4) date 2026-10-09 22:51:56*
%MOMM*%
%LPD*%
G01*
G04 APERTURE LIST*
G04 Aperture macros list*
%AMRoundRect*
0 Rectangle with rounded corners*
0 $1 Rounding radius*
0 $2 $3 $4 $5 $6 $7 $8 $9 X,Y pos of 4 corners*
0 Add a 4 corners polygon primitive as box body*
4,1,4,$2,$3,$4,$5,$6,$7,$8,$9,$2,$3,0*
0 Add four circle primitives for the rounded corners*
1,1,$1+$1,$2,$3*
1,1,$1+$1,$4,$5*
1,1,$1+$1,$6,$7*
1,1,$1+$1,$8,$9*
0 Add four rect primitives between the rounded corners*
20,1,$1+$1,$2,$3,$4,$5,0*
20,1,$1+$1,$4,$5,$6,$7,0*
20,1,$1+$1,$6,$7,$8,$9,0*
20,1,$1+$1,$8,$9,$2,$3,0*%
G04 Aperture macros list end*
%TA.AperFunction,ComponentPad*%
%ADD10O,1.000000X2.100000*%
%TD*%
%TA.AperFunction,ComponentPad*%
%ADD11O,1.000000X1.600000*%
%TD*%
%TA.AperFunction,SMDPad,CuDef*%
%ADD12RoundRect,0.250000X-1.425000X0.362500X-1.425000X-0.362500X1.425000X-0.362500X1.425000X0.362500X0*%
%TD*%
%TA.AperFunction,SMDPad,CuDef*%
%ADD13RoundRect,0.250000X1.425000X-0.362500X1.425000X0.362500X-1.425000X0.362500X-1.425000X-0.362500X0*%
%TD*%
%TA.AperFunction,SMDPad,CuDef*%
%ADD14C,1.000000*%
%TD*%
%TA.AperFunction,SMDPad,CuDef*%
%ADD15RoundRect,0.172500X0.677500X-0.402500X0.677500X0.402500X-0.677500X0.402500X-0.677500X-0.402500X0*%
%TD*%
%TA.AperFunction,SMDPad,CuDef*%
%ADD16RoundRect,0.240000X0.560000X0.860000X-0.560000X0.860000X-0.560000X-0.860000X0.560000X-0.860000X0*%
%TD*%
%TA.AperFunction,SMDPad,CuDef*%
%ADD17RoundRect,0.172500X0.402500X0.677500X-0.402500X0.677500X-0.402500X-0.677500X0.402500X-0.677500X0*%
%TD*%
%TA.AperFunction,SMDPad,CuDef*%
%ADD18RoundRect,0.090000X0.360000X0.410000X-0.360000X0.410000X-0.360000X-0.410000X0.360000X-0.410000X0*%
%TD*%
%TA.AperFunction,SMDPad,CuDef*%
%ADD19R,0.500000X0.300000*%
%TD*%
%TA.AperFunction,SMDPad,CuDef*%
%ADD20RoundRect,0.147500X0.147500X0.172500X-0.147500X0.172500X-0.147500X-0.172500X0.147500X-0.172500X0*%
%TD*%
%TA.AperFunction,SMDPad,CuDef*%
%ADD21RoundRect,0.090000X1.060000X-0.210000X1.060000X0.210000X-1.060000X0.210000X-1.060000X-0.210000X0*%
%TD*%
%TA.AperFunction,SMDPad,CuDef*%
%ADD22RoundRect,0.217500X0.932500X-0.507500X0.932500X0.507500X-0.932500X0.507500X-0.932500X-0.507500X0*%
%TD*%
%TA.AperFunction,SMDPad,CuDef*%
%ADD23R,0.575000X0.488000*%
%TD*%
%TA.AperFunction,SMDPad,CuDef*%
%ADD24O,0.300000X0.800000*%
%TD*%
%TA.AperFunction,SMDPad,CuDef*%
%ADD25R,0.300000X0.800000*%
%TD*%
%TA.AperFunction,SMDPad,CuDef*%
%ADD26R,2.500000X2.100000*%
%TD*%
%TA.AperFunction,SMDPad,CuDef*%
%ADD27C,0.240000*%
%TD*%
%TA.AperFunction,SMDPad,CuDef*%
%ADD28R,1.300000X0.300000*%
%TD*%
%TA.AperFunction,SMDPad,CuDef*%
%ADD29R,2.200000X1.800000*%
%TD*%
%TA.AperFunction,SMDPad,CuDef*%
%ADD30R,0.600000X0.350000*%
%TD*%
%TA.AperFunction,SMDPad,CuDef*%
%ADD31R,1.100000X1.700000*%
%TD*%
%TA.AperFunction,SMDPad,CuDef*%
%ADD32C,0.230000*%
%TD*%
%TA.AperFunction,SMDPad,CuDef*%
%ADD33C,0.250000*%
%TD*%
%TA.AperFunction,ViaPad*%
%ADD34C,0.400400*%
%TD*%
%TA.AperFunction,ViaPad*%
%ADD35C,0.250000*%
%TD*%
%TA.AperFunction,ViaPad*%
%ADD36C,0.400000*%
%TD*%
%TA.AperFunction,ViaPad*%
%ADD37C,0.300000*%
%TD*%
%TA.AperFunction,Conductor*%
%ADD38C,0.101702*%
%TD*%
%TA.AperFunction,Conductor*%
%ADD39C,0.101600*%
%TD*%
%TA.AperFunction,Conductor*%
%ADD40C,0.106787*%
%TD*%
%TA.AperFunction,Conductor*%
%ADD41C,0.145123*%
%TD*%
%TA.AperFunction,Conductor*%
%ADD42C,0.129007*%
%TD*%
%TA.AperFunction,Conductor*%
%ADD43C,0.102000*%
%TD*%
%TA.AperFunction,Conductor*%
%ADD44C,0.197427*%
%TD*%
G04 APERTURE END LIST*
D10*
%TO.P,J1,SH*%
%TO.N,GND*%
X30320000Y4670000D03*
D11*
X30320000Y8850000D03*
D10*
X21680000Y4670000D03*
D11*
X21680000Y8850000D03*
%TD*%
D12*
%TO.P,R33,1*%
%TO.N,ECG2_PAD*%
X10550000Y-25931200D03*
%TO.P,R33,2*%
%TO.N,ECG_N*%
X10550000Y-31856200D03*
%TD*%
D13*
%TO.P,R81,1*%
%TO.N,BIOZ_FN_PAD*%
X10550000Y-40562500D03*
%TO.P,R81,2*%
%TO.N,FN_SURGE*%
X10550000Y-34637500D03*
%TD*%
D14*
%TO.P,FID6,1*%
%TO.N,unconnected-(FID6-FID-Pad1)*%
X46690000Y-63190000D03*
%TD*%
D13*
%TO.P,R83,1*%
%TO.N,BIOZ_SN_PAD*%
X23450000Y-41762500D03*
%TO.P,R83,2*%
%TO.N,SN_SURGE*%
X23450000Y-35837500D03*
%TD*%
D15*
%TO.P,J11,1*%
%TO.N,J11_WE*%
X46800000Y-59700000D03*
%TO.P,J11,2*%
%TO.N,J11_RE*%
X46800000Y-57500000D03*
%TO.P,J11,3*%
%TO.N,J11_CE*%
X46800000Y-55300000D03*
%TD*%
D16*
%TO.P,J2,1*%
%TO.N,VBAT*%
X14600000Y-5003100D03*
D17*
%TO.P,J2,2*%
%TO.N,GND*%
X12400000Y-5003100D03*
%TO.P,J2,3*%
%TO.N,TS*%
X10200000Y-5003100D03*
%TD*%
D18*
%TO.P,U16,1*%
%TO.N,PD_INP*%
X10400000Y-57250000D03*
%TO.P,U16,2*%
%TO.N,PD_INM*%
X11600000Y-57250000D03*
%TO.P,U16,3*%
%TO.N,PD2_INP*%
X12800000Y-57250000D03*
%TO.P,U16,4*%
%TO.N,TX_5V*%
X14000000Y-57250000D03*
%TO.P,U16,5*%
X15200000Y-57250000D03*
%TO.P,U16,6*%
%TO.N,TX1*%
X16400000Y-57250000D03*
%TO.P,U16,7*%
%TO.N,TX_5V*%
X16400000Y-54750000D03*
%TO.P,U16,8*%
%TO.N,TX3*%
X15200000Y-54750000D03*
%TO.P,U16,9*%
%TO.N,TX4*%
X14000000Y-54750000D03*
%TO.P,U16,10*%
%TO.N,PD2_INM*%
X12800000Y-54750000D03*
%TO.P,U16,11*%
%TO.N,TX_5V*%
X11600000Y-54750000D03*
%TO.P,U16,12*%
%TO.N,TX2*%
X10400000Y-54750000D03*
%TD*%
D19*
%TO.P,U23,1*%
%TO.N,I2C_SDA*%
X8300000Y-46600000D03*
%TO.P,U23,2*%
%TO.N,I2C_SCL*%
X8300000Y-47400000D03*
%TO.P,U23,3*%
%TO.N,+3V3*%
X6900000Y-47400000D03*
%TO.P,U23,4*%
%TO.N,GND*%
X6900000Y-46600000D03*
%TD*%
D17*
%TO.P,J13,1*%
%TO.N,J13_INP*%
X30700000Y-62900000D03*
%TO.P,J13,2*%
%TO.N,J13_INM*%
X28500000Y-62900000D03*
%TD*%
D20*
%TO.P,D11,1*%
%TO.N,IR_AN*%
X14485000Y-48800000D03*
%TO.P,D11,2*%
%TO.N,IR_K*%
X13515000Y-48800000D03*
%TD*%
D12*
%TO.P,R35,1*%
%TO.N,AFE_P_PAD*%
X23450000Y-27150000D03*
%TO.P,R35,2*%
%TO.N,AFE_P_AC*%
X23450000Y-33075000D03*
%TD*%
D21*
%TO.P,D10,1*%
%TO.N,+3V3*%
X24750000Y-58275000D03*
D22*
%TO.P,D10,2*%
%TO.N,LDR*%
X24750000Y-56300000D03*
%TD*%
D23*
%TO.P,U10,1*%
%TO.N,+1V8*%
X20638000Y-54300000D03*
%TO.P,U10,2*%
%TO.N,I2C_SCL_1V8*%
X20638000Y-55100000D03*
%TO.P,U10,3*%
%TO.N,GND*%
X20638000Y-55900000D03*
%TO.P,U10,4*%
%TO.N,LDR*%
X20638000Y-56700000D03*
%TO.P,U10,5*%
%TO.N,GND*%
X19362000Y-56700000D03*
%TO.P,U10,6*%
%TO.N,unconnected-(U10-GPIO-Pad6)*%
X19362000Y-55900000D03*
%TO.P,U10,7*%
%TO.N,unconnected-(U10-INT-Pad7)*%
X19362000Y-55100000D03*
%TO.P,U10,8*%
%TO.N,I2C_SDA_1V8*%
X19362000Y-54300000D03*
%TD*%
D13*
%TO.P,R82,1*%
%TO.N,BIOZ_SP_PAD*%
X17000000Y-41762500D03*
%TO.P,R82,2*%
%TO.N,SP_SURGE*%
X17000000Y-35837500D03*
%TD*%
D15*
%TO.P,J10,1*%
%TO.N,LED1_K*%
X46800000Y-51400000D03*
%TO.P,J10,2*%
%TO.N,LED2_K*%
X46800000Y-49200000D03*
%TO.P,J10,3*%
%TO.N,LED3_K*%
X46800000Y-47000000D03*
%TO.P,J10,4*%
%TO.N,LED_AN*%
X46800000Y-44800000D03*
%TO.P,J10,5*%
%TO.N,PD_K*%
X46800000Y-42600000D03*
%TO.P,J10,6*%
%TO.N,PD_A*%
X46800000Y-40400000D03*
%TD*%
D17*
%TO.P,J6,1*%
%TO.N,EDA_CE_PAD*%
X12300000Y-62900000D03*
%TO.P,J6,2*%
%TO.N,EDA_RE_PAD*%
X10100000Y-62900000D03*
%TO.P,J6,3*%
%TO.N,EDA_SE_PAD*%
X7900000Y-62900000D03*
%TO.P,J6,4*%
%TO.N,EDA_DE_PAD*%
X5700000Y-62900000D03*
%TD*%
D13*
%TO.P,R122,1*%
%TO.N,J11_CE*%
X34650000Y-63462500D03*
%TO.P,R122,2*%
%TO.N,SWEAT_CE*%
X34650000Y-57537500D03*
%TD*%
D15*
%TO.P,J9,1*%
%TO.N,+3V3*%
X46800000Y-20800000D03*
%TO.P,J9,2*%
%TO.N,I2C_SDA*%
X46800000Y-18600000D03*
%TO.P,J9,3*%
%TO.N,I2C_SCL*%
X46800000Y-16400000D03*
%TO.P,J9,4*%
%TO.N,GND*%
X46800000Y-14200000D03*
%TD*%
D24*
%TO.P,U12,1*%
%TO.N,I2C_SDA_1V8*%
X11300000Y-51950000D03*
D25*
%TO.P,U12,2*%
%TO.N,+3V3*%
X10800000Y-51950000D03*
%TO.P,U12,3*%
%TO.N,GND*%
X10300000Y-51950000D03*
%TO.P,U12,4*%
%TO.N,I2C_SCL_1V8*%
X9800000Y-51950000D03*
%TO.P,U12,5*%
%TO.N,GND*%
X9300000Y-51950000D03*
D26*
%TO.P,U12,6*%
X10300000Y-50300000D03*
%TD*%
D13*
%TO.P,R121,1*%
%TO.N,J11_RE*%
X34300000Y-45162500D03*
%TO.P,R121,2*%
%TO.N,SWEAT_RE*%
X34300000Y-39237500D03*
%TD*%
D12*
%TO.P,R36,1*%
%TO.N,AFE_N_PAD*%
X29900000Y-27150000D03*
%TO.P,R36,2*%
%TO.N,AFE_N_AC*%
X29900000Y-33075000D03*
%TD*%
D13*
%TO.P,R120,1*%
%TO.N,J11_WE*%
X34300000Y-53962500D03*
%TO.P,R120,2*%
%TO.N,SWEAT_WE*%
X34300000Y-48037500D03*
%TD*%
D27*
%TO.P,U22,A1,VLED_A1*%
%TO.N,TX_5V*%
X26900000Y-46950000D03*
%TO.P,U22,A2,SCLK_A2*%
%TO.N,SPI_SCK*%
X26500000Y-46950000D03*
%TO.P,U22,A3,SDO_A3*%
%TO.N,MX_SDO_1V8*%
X26100000Y-46950000D03*
%TO.P,U22,A4,SDI_A4*%
%TO.N,SPI_MOSI*%
X25700000Y-46950000D03*
%TO.P,U22,A5,CSB_A5*%
%TO.N,CS_MAX86178*%
X25300000Y-46950000D03*
%TO.P,U22,B1,LED3_DRV_B1*%
%TO.N,LED3_K*%
X26900000Y-47350000D03*
%TO.P,U22,B2,INT_B2*%
%TO.N,MAX86178_INT*%
X26500000Y-47350000D03*
%TO.P,U22,B3,GPIO1_B3*%
%TO.N,unconnected-(U22-GPIO1-PadB3)*%
X26100000Y-47350000D03*
%TO.P,U22,B4,GPIO2_B4*%
%TO.N,unconnected-(U22-GPIO2-PadB4)*%
X25700000Y-47350000D03*
%TO.P,U22,B5,VREF_B5*%
%TO.N,MX_VREF*%
X25300000Y-47350000D03*
%TO.P,U22,C1,LED2_DRV_C1*%
%TO.N,LED2_K*%
X26900000Y-47750000D03*
%TO.P,U22,C2,VDD_DIG_C2*%
%TO.N,+1V8*%
X26500000Y-47750000D03*
%TO.P,U22,C3,GND_DIG_C3*%
%TO.N,GND*%
X26100000Y-47750000D03*
%TO.P,U22,C4,GND_ANA_C4*%
X25700000Y-47750000D03*
%TO.P,U22,C5,PD_GND_C5*%
%TO.N,PD_A*%
X25300000Y-47750000D03*
%TO.P,U22,D1,LED1_DRV_D1*%
%TO.N,LED1_K*%
X26900000Y-48150000D03*
%TO.P,U22,D2,VDD_ANA_D2*%
%TO.N,+1V8*%
X26500000Y-48150000D03*
%TO.P,U22,D3,PGND_D3*%
%TO.N,GND*%
X26100000Y-48150000D03*
%TO.P,U22,D4,PD2_IN_D4*%
%TO.N,unconnected-(U22-PD2_IN-PadD4)*%
X25700000Y-48150000D03*
%TO.P,U22,D5,PD1_IN_D5*%
%TO.N,PD_K*%
X25300000Y-48150000D03*
%TD*%
D12*
%TO.P,R34,1*%
%TO.N,RLD_PAD*%
X17000000Y-27150000D03*
%TO.P,R34,2*%
%TO.N,RLD_CLAMP*%
X17000000Y-33075000D03*
%TD*%
D28*
%TO.P,J12,1*%
%TO.N,+3V3*%
X3150000Y-55750000D03*
%TO.P,J12,2*%
%TO.N,I2C_SDA*%
X3150000Y-55250000D03*
%TO.P,J12,3*%
%TO.N,I2C_SCL*%
X3150000Y-54750000D03*
%TO.P,J12,4*%
%TO.N,GND*%
X3150000Y-54250000D03*
%TO.P,J12,5*%
%TO.N,LED1_K*%
X3150000Y-53750000D03*
%TO.P,J12,6*%
%TO.N,LED2_K*%
X3150000Y-53250000D03*
%TO.P,J12,7*%
%TO.N,LED3_K*%
X3150000Y-52750000D03*
%TO.P,J12,8*%
%TO.N,LED_AN*%
X3150000Y-52250000D03*
%TO.P,J12,9*%
%TO.N,PD_K*%
X3150000Y-51750000D03*
%TO.P,J12,10*%
%TO.N,PD_A*%
X3150000Y-51250000D03*
%TO.P,J12,11*%
%TO.N,SWEAT_WE*%
X3150000Y-50750000D03*
%TO.P,J12,12*%
%TO.N,SWEAT_RE*%
X3150000Y-50250000D03*
%TO.P,J12,13*%
%TO.N,SWEAT_CE*%
X3150000Y-49750000D03*
%TO.P,J12,14*%
%TO.N,unconnected-(J12-Pin_14-Pad14)*%
X3150000Y-49250000D03*
D29*
%TO.P,J12,MP,MP_MP*%
%TO.N,unconnected-(J12-PadMP)*%
X-100000Y-57650000D03*
X-100000Y-47350000D03*
%TD*%
D14*
%TO.P,FID4,1*%
%TO.N,unconnected-(FID4-FID-Pad1)*%
X3060000Y9190000D03*
%TD*%
D17*
%TO.P,J5,1*%
%TO.N,ECG1_PAD*%
X22000000Y-62900000D03*
%TO.P,J5,2*%
%TO.N,ECG2_PAD*%
X20300000Y-62900000D03*
%TO.P,J5,3*%
%TO.N,RLD_PAD*%
X18600000Y-62900000D03*
%TO.P,J5,4*%
%TO.N,AFE_P_PAD*%
X16900000Y-62900000D03*
%TO.P,J5,5*%
%TO.N,AFE_N_PAD*%
X15200000Y-62900000D03*
%TD*%
D12*
%TO.P,R32,1*%
%TO.N,ECG1_PAD*%
X4100000Y-27150000D03*
%TO.P,R32,2*%
%TO.N,ECG_P*%
X4100000Y-33075000D03*
%TD*%
D13*
%TO.P,R80,1*%
%TO.N,BIOZ_FP_PAD*%
X4100000Y-41762500D03*
%TO.P,R80,2*%
%TO.N,FP_SURGE*%
X4100000Y-35837500D03*
%TD*%
D30*
%TO.P,U11,1*%
%TO.N,I2C_SCL*%
X19150000Y-51050000D03*
%TO.P,U11,2*%
%TO.N,GND*%
X19150000Y-50400000D03*
%TO.P,U11,3*%
%TO.N,TMP117_ALERT*%
X19150000Y-49750000D03*
%TO.P,U11,4*%
%TO.N,GND*%
X21250000Y-49750000D03*
%TO.P,U11,5*%
%TO.N,+3V3*%
X21250000Y-50400000D03*
%TO.P,U11,6*%
%TO.N,I2C_SDA*%
X21250000Y-51050000D03*
D31*
%TO.P,U11,7*%
%TO.N,GND*%
X20200000Y-50400000D03*
%TD*%
D20*
%TO.P,D12,1*%
%TO.N,NIR_AN*%
X16385000Y-50800000D03*
%TO.P,D12,2*%
%TO.N,NIR_K*%
X15415000Y-50800000D03*
%TD*%
D32*
%TO.P,U6,A1*%
%TO.N,AFE_INM*%
X28000000Y-49800000D03*
%TO.P,U6,A2*%
%TO.N,PD_INP*%
X27600000Y-49800000D03*
%TO.P,U6,A3*%
%TO.N,PD_INM*%
X27200000Y-49800000D03*
%TO.P,U6,A4*%
%TO.N,+3V3_ANA*%
X26800000Y-49800000D03*
%TO.P,U6,A5*%
%TO.N,unconnected-(U6-INM3-PadA5)*%
X26400000Y-49800000D03*
%TO.P,U6,B1*%
%TO.N,AFE_INP*%
X28000000Y-50200000D03*
D33*
%TO.P,U6,B2*%
%TO.N,PD2_INP*%
X27600000Y-50200000D03*
%TO.P,U6,B3*%
%TO.N,PD2_INM*%
X27200000Y-50200000D03*
%TO.P,U6,B4*%
%TO.N,GND*%
X26800000Y-50200000D03*
D32*
%TO.P,U6,B5*%
%TO.N,unconnected-(U6-INP3-PadB5)*%
X26400000Y-50200000D03*
%TO.P,U6,C1*%
%TO.N,+3V3_ANA*%
X28000000Y-50600000D03*
%TO.P,U6,C2*%
%TO.N,unconnected-(U6-RLD_OUT-PadC2)*%
X27600000Y-50600000D03*
%TO.P,U6,C3*%
%TO.N,unconnected-(U6-DNC-PadC3)*%
X27200000Y-50600000D03*
D33*
%TO.P,U6,C4*%
%TO.N,+3V3_ANA*%
X26800000Y-50600000D03*
D32*
%TO.P,U6,C5*%
%TO.N,TX4*%
X26400000Y-50600000D03*
%TO.P,U6,D1*%
%TO.N,GND*%
X28000000Y-51000000D03*
D33*
%TO.P,U6,D2*%
%TO.N,AFE_BG*%
X27600000Y-51000000D03*
D32*
%TO.P,U6,D3*%
%TO.N,unconnected-(U6-PROG_OUT1-PadD3)*%
X27200000Y-51000000D03*
D33*
%TO.P,U6,D4*%
%TO.N,TX1*%
X26800000Y-51000000D03*
D32*
%TO.P,U6,D5*%
%TO.N,GND*%
X26400000Y-51000000D03*
%TO.P,U6,E1*%
%TO.N,AFE4900_RESETZ*%
X28000000Y-51400000D03*
D33*
%TO.P,U6,E2*%
%TO.N,MISO_AFE*%
X27600000Y-51400000D03*
%TO.P,U6,E3*%
%TO.N,CS_AFE4900*%
X27200000Y-51400000D03*
%TO.P,U6,E4*%
%TO.N,TX3*%
X26800000Y-51400000D03*
D32*
%TO.P,U6,E5*%
%TO.N,TX2*%
X26400000Y-51400000D03*
%TO.P,U6,F1*%
%TO.N,AFE_CLK*%
X28000000Y-51800000D03*
%TO.P,U6,F2*%
%TO.N,SPI_MOSI*%
X27600000Y-51800000D03*
%TO.P,U6,F3*%
%TO.N,SPI_SCK*%
X27200000Y-51800000D03*
%TO.P,U6,F4*%
%TO.N,AFE4900_ADC_RDY*%
X26800000Y-51800000D03*
%TO.P,U6,F5*%
%TO.N,TX_5V*%
X26400000Y-51800000D03*
%TD*%
D34*
%TO.N,SP_ISO*%
X34458621Y-18656538D03*
X32271818Y-22228193D03*
%TO.N,GND*%
X25498161Y-148463D03*
X38486186Y-43814520D03*
X44506156Y-26929648D03*
X8046760Y6462838D03*
X227785Y-56177272D03*
X37219361Y6733476D03*
X34428759Y-49334568D03*
X24314550Y-23096579D03*
X20220226Y-31735259D03*
X28585093Y-47298914D03*
X39979241Y-5439002D03*
X41514212Y6837782D03*
X43804224Y-27864788D03*
X27408518Y-12009956D03*
X19258703Y-7239151D03*
X32783052Y-8901799D03*
X44626414Y-21530806D03*
D35*
X28000000Y-51000000D03*
D34*
X23975633Y-37432352D03*
X11487537Y-2170890D03*
X-915447Y-45309972D03*
D35*
X36985910Y-10680775D03*
D34*
X43449775Y-21866896D03*
X11768645Y-3683909D03*
X27511861Y-36314923D03*
X11474444Y3736769D03*
X18807940Y-21909891D03*
X38797761Y8595044D03*
X46727889Y-30420484D03*
X7714558Y-46461077D03*
X15496950Y1667563D03*
X30213371Y-6992750D03*
X22202683Y-21082814D03*
X28646007Y-31461123D03*
X9033728Y-16396644D03*
X19451354Y-40422007D03*
X36807214Y-50689703D03*
X16467389Y-34797077D03*
X34612866Y-50210510D03*
X15131913Y-43882070D03*
X14477846Y-18767265D03*
X40357661Y-15838516D03*
D35*
X26400000Y-51000000D03*
D34*
X7260866Y-21521934D03*
X18398446Y-39860258D03*
X20018837Y-56187787D03*
X20582507Y-11799132D03*
X15136127Y5730418D03*
X37689955Y2926442D03*
X1075407Y-52975382D03*
X46242152Y-298547D03*
X47219792Y-24058646D03*
X10105507Y-36680839D03*
X8420435Y5749293D03*
X36767498Y-16411247D03*
X2145524Y-49885261D03*
X6225550Y-48695629D03*
X35688330Y-16585150D03*
X36960795Y-5199075D03*
X12878135Y5394303D03*
D36*
X15400000Y-39900000D03*
D34*
X31730968Y-12039512D03*
X30755114Y-41954041D03*
X13394352Y3832649D03*
X27546608Y-8697430D03*
X20571337Y-34625529D03*
X45316352Y2204338D03*
X10578283Y-22550501D03*
X17594183Y5843303D03*
X12411827Y3897469D03*
X3135440Y6389079D03*
X22676898Y2628899D03*
X6473928Y-20057492D03*
X31144782Y-30219628D03*
X6829248Y-62871193D03*
X32706157Y-51019885D03*
D35*
X26800000Y-50200000D03*
D34*
X43541340Y-10465996D03*
X46819229Y-6308177D03*
X20784303Y7759964D03*
X17175192Y-23350442D03*
X26693514Y-32334782D03*
X2128426Y-63038885D03*
X43220141Y-12293832D03*
X44497237Y-39745454D03*
X25848029Y-17362098D03*
D35*
X37785910Y-11480775D03*
D34*
X8243967Y158890D03*
X19991852Y-49187915D03*
X43224429Y-9462112D03*
X2091877Y-38714290D03*
X38946327Y-33420378D03*
X43563878Y-3936893D03*
X-356509Y-38111007D03*
X23464246Y-14148831D03*
X15869281Y6185023D03*
X38111438Y-28136055D03*
X18734701Y-56179950D03*
X25697164Y-37621466D03*
X12134415Y-23199737D03*
X11776441Y-11790943D03*
X8067012Y4031837D03*
X13787428Y6075675D03*
X37447369Y-39016867D03*
X43005542Y-48544333D03*
X12916093Y-34916278D03*
X9391413Y5851644D03*
X36146668Y-38117601D03*
X38241338Y-4001608D03*
X34295204Y-15565407D03*
X21268341Y-23277379D03*
X44792632Y-14242863D03*
X32474756Y2645187D03*
X12645766Y6210911D03*
X25798257Y-52987001D03*
X29556585Y-37732153D03*
X42398023Y-13944372D03*
X29159109Y-4489682D03*
X23649952Y-39496131D03*
X14860649Y-23422209D03*
X15229139Y-21647134D03*
X4666499Y-5112688D03*
D36*
X31400000Y-54500000D03*
D34*
X7793067Y-54429215D03*
X34178831Y-37072568D03*
X46655075Y4971419D03*
X42920895Y-16419101D03*
X17617394Y3418421D03*
X86948Y-612436D03*
X31280846Y-10891093D03*
D36*
X2750000Y-39900000D03*
D34*
X8767787Y6358871D03*
X3703694Y-43688995D03*
X15528989Y419306D03*
X14130277Y-50694016D03*
X39248677Y-37686866D03*
X2202951Y-4598419D03*
X8700297Y-49580891D03*
X22360861Y-55803390D03*
X38318302Y-5116621D03*
X38535262Y-15830148D03*
X19587687Y-23079605D03*
X10476956Y-52884714D03*
X36504234Y360164D03*
X18798120Y-37723055D03*
X18295391Y-53788853D03*
X41011283Y7473130D03*
X31891338Y-32408761D03*
X30177718Y-8059071D03*
X44022546Y-24408730D03*
X46486773Y-19890603D03*
X7137960Y6454237D03*
X9277370Y1543183D03*
X15649828Y-36831100D03*
X6314583Y6569100D03*
X23876752Y2005566D03*
X16028320Y-56146075D03*
X30155067Y-49313058D03*
X41233582Y-5336052D03*
X8102341Y-21917310D03*
X12341612Y-38305497D03*
X38554925Y-41509664D03*
X38548440Y-20043195D03*
X34715389Y2679892D03*
X20134623Y5777893D03*
X28666094Y-56499180D03*
X36181248Y4802845D03*
X45388692Y-18869753D03*
X13336595Y-20365927D03*
X6015291Y-21882248D03*
X2136551Y-53562628D03*
X11748369Y6030043D03*
X40330558Y-51408237D03*
X19792427Y-51685242D03*
X32959691Y-33584371D03*
X24153500Y-57372180D03*
X39068897Y-28283371D03*
X32906020Y-34894538D03*
X42472053Y-41639460D03*
X44678512Y4191978D03*
X16852576Y6199165D03*
D36*
X6785910Y-59530775D03*
D34*
X35024141Y-36452968D03*
X45652971Y-15219271D03*
X22543499Y-39232053D03*
X42737541Y287872D03*
X16275437Y5422771D03*
X10153307Y5944225D03*
X43635498Y-32856769D03*
X24732380Y-44569722D03*
X41776273Y7992352D03*
X42003737Y-38548008D03*
X24525941Y-48699183D03*
%TO.N,RLDOUT*%
X44046214Y-6169053D03*
X43307818Y2925966D03*
%TO.N,RLDINV*%
X44773761Y888547D03*
X43341860Y-14241161D03*
D36*
%TO.N,+3V3_ANA*%
X37785910Y-7780775D03*
D34*
X30751796Y-15556583D03*
D35*
X38185910Y-10280775D03*
D36*
X26785910Y-49080775D03*
X25685910Y-49830775D03*
X29385910Y-49480775D03*
X25985910Y-36830775D03*
X21985910Y-45130775D03*
X31235910Y-50330775D03*
D35*
X26800000Y-50600000D03*
D34*
X37302708Y-14162266D03*
D36*
%TO.N,CS_AFE4900*%
X21800000Y-23200000D03*
X22000000Y-29000000D03*
D34*
X30308652Y-16738718D03*
D36*
X21600000Y-25300000D03*
D34*
X9640057Y-7699795D03*
D35*
X27200000Y-51400000D03*
D34*
%TO.N,+3V3*%
X23456725Y-34753891D03*
X18080840Y-36908494D03*
X33305748Y-32254496D03*
X39186522Y-43373915D03*
X34692814Y-33654956D03*
X4348173Y-54997439D03*
X35740252Y-30181157D03*
X11546945Y-53531272D03*
X4939099Y-45963425D03*
X33127888Y-29271342D03*
X35716370Y-34631931D03*
D36*
X10750000Y-42400000D03*
X9600000Y-38550000D03*
D34*
X27041761Y-37979510D03*
X22092208Y-38451427D03*
X30673208Y-29281688D03*
X11070022Y-35733394D03*
X13340448Y-46857661D03*
X30743954Y-42874208D03*
X32153967Y-31677670D03*
X16172907Y-49203069D03*
D36*
X18950000Y-43600000D03*
D34*
X23430939Y-37985384D03*
X26503433Y-33118094D03*
X30933887Y-31894073D03*
X35983598Y-40877647D03*
X31166272Y-36948030D03*
X47340642Y-21857265D03*
X27040518Y-39856029D03*
X30738086Y-41131246D03*
D36*
X21250000Y-50400000D03*
D34*
X11232612Y-42591689D03*
X5713924Y-48591116D03*
X27425883Y-34553743D03*
X10055351Y-46303206D03*
X27562874Y-48920408D03*
X15251944Y-49772776D03*
X12638133Y-35919541D03*
X10290220Y-44181235D03*
X20751444Y-33450276D03*
D36*
X36350000Y-43300000D03*
X29150000Y-25300000D03*
D34*
X21819605Y-56424687D03*
X11255321Y-53089462D03*
X25423641Y-59060540D03*
X30638876Y-34316831D03*
X24353751Y-62863767D03*
X21345764Y-53692109D03*
D36*
X22100000Y-39500000D03*
D34*
X18330105Y-38650623D03*
X20143900Y-39071428D03*
X32177024Y-35521120D03*
X18988856Y-35556780D03*
D36*
X31250851Y-59690000D03*
D34*
X16414574Y-46449606D03*
X32175998Y-33878491D03*
X35755337Y-35869102D03*
X11045985Y-46265432D03*
X24588913Y-54531712D03*
X14277500Y-33732158D03*
X10764460Y-37389646D03*
X19308080Y-43836148D03*
%TO.N,ESP_EN*%
X23915951Y-18293603D03*
D36*
X26700000Y-61050000D03*
D34*
X44118515Y-34861722D03*
D36*
X35000000Y-49850000D03*
X27100000Y-54550000D03*
X29350000Y-42500000D03*
D34*
X18126288Y-40839377D03*
X25541961Y-37130011D03*
X39612108Y-45480735D03*
D36*
X13350000Y-7750000D03*
D34*
X16316482Y-11061920D03*
D36*
X31800000Y-59700000D03*
D34*
X41215099Y-45269602D03*
X21016475Y-18120740D03*
D36*
X31800000Y-47000000D03*
D34*
%TO.N,ECG_N*%
X46574720Y3792062D03*
X10942826Y-29954934D03*
X41831587Y-3084931D03*
X38834493Y-3259994D03*
X40224282Y6360851D03*
X30563675Y-22443946D03*
%TO.N,FSR_ADC*%
X-279609Y-33481153D03*
X7430121Y3226603D03*
%TO.N,+1V8*%
X18747253Y-55107501D03*
D36*
X30650000Y-55900000D03*
D34*
X27237902Y-56598444D03*
D36*
X27100000Y-59350000D03*
X26300000Y-48900000D03*
X35950000Y-55800000D03*
D34*
%TO.N,CS_FLASH*%
X9435427Y-7139489D03*
X14856504Y-47197181D03*
D36*
X24400000Y-46150000D03*
X27400000Y-42350000D03*
X12100000Y-37200000D03*
D34*
X6366149Y-37993124D03*
%TO.N,EDA_DE_PAD*%
X18922331Y-31527237D03*
%TO.N,DE_SURGE*%
X1769137Y-12452426D03*
X16982964Y-20174402D03*
%TO.N,TS*%
X23599358Y-3233427D03*
X24057763Y-2831204D03*
X29520988Y-7144931D03*
X26608942Y-2846966D03*
D35*
%TO.N,CS_AD5940*%
X36585910Y-10280775D03*
D36*
X23685910Y-9930775D03*
D34*
X34603022Y-31714798D03*
X8833405Y-7284266D03*
X43601913Y-55683912D03*
D36*
X21085910Y-8180775D03*
X34585910Y-9380775D03*
D34*
%TO.N,USB_DM*%
X6928240Y-13265051D03*
X3980712Y-13643267D03*
D36*
X9600000Y-12050000D03*
D34*
%TO.N,USB_DM_S3*%
X6002976Y-12407149D03*
X4177304Y-7763602D03*
%TO.N,I2C_SCL*%
X42623545Y-20938066D03*
X32843526Y-34112756D03*
D36*
X19400000Y-44850000D03*
D34*
X21594784Y-34703660D03*
X32652727Y-31533620D03*
X34500149Y-36117846D03*
X5649712Y-46270263D03*
X40342749Y-24875064D03*
X14537078Y-39598367D03*
X15436141Y-37620015D03*
X6778785Y-4732903D03*
X8907517Y-46646710D03*
X16298487Y-52046697D03*
D36*
X18900000Y-52050000D03*
D34*
X13546457Y-47993087D03*
D36*
X19550000Y-48900000D03*
D34*
%TO.N,I2C_SDA*%
X32094502Y-30223817D03*
X7958962Y-49308570D03*
X9348496Y-43850029D03*
X8451997Y-53279839D03*
X4207864Y-4784407D03*
X16067666Y-30565676D03*
X14362820Y-52335761D03*
D36*
X18950000Y-44250000D03*
D34*
X36160732Y-24710438D03*
D36*
X19100000Y-52600000D03*
D34*
X3915719Y-18307545D03*
X12566695Y-52818997D03*
X12622148Y-37772493D03*
X18990726Y-34447000D03*
D36*
X21150000Y-49250000D03*
D34*
X43685918Y-23867205D03*
%TO.N,CS_MAX86178*%
X13820136Y-8416749D03*
X28341222Y-41386889D03*
X39064830Y-40505130D03*
%TO.N,MX_SDO_1V8*%
X36703919Y-41512528D03*
%TO.N,I2C_SDA_1V8*%
X13699253Y-53603406D03*
X19490774Y-53717769D03*
X29264326Y-56701149D03*
X19636226Y-57660803D03*
X32838265Y-23468623D03*
X12790162Y-53517367D03*
X21312472Y-58932609D03*
X35810046Y-21276416D03*
%TO.N,NIR730_GATE*%
X39628248Y-51754331D03*
X43582143Y-41673607D03*
X45147899Y-34594072D03*
X40868289Y-9275113D03*
%TO.N,SPI_MISO*%
X41537972Y-47053877D03*
X29073222Y-1758943D03*
X44913302Y-17435097D03*
X15532730Y-878597D03*
X44443212Y-10717052D03*
X43402188Y-45002123D03*
%TO.N,VBUS*%
X6774091Y-33838252D03*
X27500982Y5896325D03*
X24359197Y4902121D03*
X18808308Y-20152165D03*
X13336341Y-21101172D03*
%TO.N,CHG_ISET*%
X26174789Y-14165268D03*
X25694662Y-16612562D03*
%TO.N,CHG_STAT*%
X25035621Y-30273361D03*
X22096849Y-34089902D03*
X30760171Y-21948782D03*
X16013440Y-44496855D03*
%TO.N,CHG_PG*%
X30508554Y-21397968D03*
X12380739Y-3640199D03*
X26290423Y-6152188D03*
X31904733Y-26475733D03*
%TO.N,CHG_VSET*%
X40322245Y8459809D03*
X29101056Y-9524828D03*
%TO.N,VBAT*%
X26295775Y-7269375D03*
D35*
%TO.N,VBIAS0*%
X36585910Y-11480775D03*
D36*
X34285910Y-9830775D03*
D34*
%TO.N,MISO_ADS*%
X34607933Y-2424107D03*
X40476528Y-549378D03*
D36*
%TO.N,AFE_INP*%
X29250000Y-48900000D03*
D34*
X22338813Y-58800910D03*
D36*
%TO.N,MAX86178_INT*%
X27500000Y-37700000D03*
D35*
X26500000Y-47350000D03*
D36*
X29900000Y-31300000D03*
D34*
X18452382Y-3492482D03*
X31793482Y-21559519D03*
%TO.N,USB_DP*%
X4317738Y-14022139D03*
X7382157Y-13039022D03*
D36*
%TO.N,ESP_TX*%
X27950000Y-34600000D03*
D34*
X24948888Y-9720250D03*
D36*
X23450000Y-45500000D03*
X18400000Y-45650000D03*
X14200000Y-51850000D03*
X15200000Y-53650000D03*
D34*
X15240092Y-7868544D03*
D36*
X22800000Y-38500000D03*
D34*
%TO.N,ESP_RX*%
X17666900Y-8250277D03*
X12984327Y-59051911D03*
D36*
X6650000Y-57500000D03*
X22200000Y-43600000D03*
X24900000Y-50200000D03*
D34*
X16076490Y-4631772D03*
D36*
X21150000Y-38900000D03*
D34*
X16930444Y-10618121D03*
D36*
X24000000Y-45500000D03*
D34*
%TO.N,ESP_IO0*%
X-220166Y-9003961D03*
X14997592Y-46155671D03*
X17970985Y-58524113D03*
X3603379Y-34615627D03*
%TO.N,RESP_MODP*%
X43979990Y4478355D03*
X41049047Y-1733700D03*
%TO.N,ECG_P*%
X14387384Y-7512818D03*
X18023528Y-20206609D03*
X15601198Y-11422219D03*
X5319445Y-24149524D03*
%TO.N,CS_ADS1292*%
X37032570Y260020D03*
X7062489Y-32850314D03*
X39449729Y-501493D03*
X12813888Y-3196275D03*
%TO.N,EDA_CE_PAD*%
X3137483Y-28195003D03*
X10269159Y-58517603D03*
%TO.N,CHG_DIS*%
X15323226Y-45007550D03*
X20236261Y-12511200D03*
X16391764Y-24035814D03*
X21588061Y-15530678D03*
%TO.N,I2C_SCL_1V8*%
X35372668Y-21028942D03*
D36*
X28800000Y-58350000D03*
D34*
X23063453Y-62246811D03*
X41227378Y-41420612D03*
X38333780Y-55700094D03*
D36*
X33700000Y-58500000D03*
D34*
X8119731Y-60525000D03*
%TO.N,SWEAT_CE*%
X41148042Y-12352923D03*
D36*
X43185910Y-40030775D03*
D34*
X18443891Y-30598875D03*
X25832644Y-39839788D03*
D36*
X29185910Y-41180775D03*
X27035910Y-41030775D03*
D34*
X33326340Y-56587464D03*
X21401272Y-33066932D03*
%TO.N,SWEAT_RE*%
X40195466Y-13719676D03*
X32073931Y-27034623D03*
X4304207Y-47325295D03*
X14858637Y-34408805D03*
X24104404Y-38340228D03*
%TO.N,BIOZ_SN*%
X34286680Y-17949497D03*
X39374114Y-13211987D03*
%TO.N,SE0*%
X36160431Y-13420008D03*
X33895291Y-18413925D03*
%TO.N,CE0*%
X36325900Y-12690122D03*
X20516018Y-8757054D03*
%TO.N,RE0*%
X23402900Y-6790668D03*
X37171685Y-12967301D03*
%TO.N,RCAL1*%
X39584187Y-11688452D03*
X38539385Y-17174769D03*
D36*
%TO.N,BIOZ_FP*%
X24285910Y-24830775D03*
D35*
X38185910Y-11880775D03*
D36*
X35785910Y-16030775D03*
%TO.N,AIN4_LPF0*%
X38735910Y-15130775D03*
D35*
X37785910Y-11880775D03*
%TO.N,BIOZ_SP*%
X37385910Y-11880775D03*
D36*
X35585910Y-18330775D03*
X37335910Y-15230775D03*
%TO.N,DE0*%
X-614090Y-14580775D03*
D35*
X36985910Y-11880775D03*
D36*
%TO.N,VZERO0*%
X34385910Y-14530775D03*
D35*
X36585910Y-11880775D03*
D34*
%TO.N,RC0_1*%
X34839216Y-11620229D03*
X33269804Y-17375610D03*
%TO.N,RCAL0*%
X39911918Y-11184025D03*
X38258299Y-17899884D03*
%TO.N,SWEAT_WE*%
X10246373Y-38074712D03*
D37*
X35750000Y-33350000D03*
D34*
X34217279Y-46246830D03*
X16602484Y-39339879D03*
D35*
X37385910Y-11480775D03*
D37*
X29650000Y-39450000D03*
X35750000Y-32400000D03*
X36750000Y-29450000D03*
D34*
X29944665Y-41356642D03*
D36*
X39235910Y-17630775D03*
D34*
%TO.N,RC0_0*%
X32435502Y-17401455D03*
X35475462Y-11661237D03*
D36*
%TO.N,BIOZ_FN*%
X32635910Y-19230775D03*
D35*
X38585910Y-11080775D03*
D36*
%TO.N,VREF_2V5*%
X34285910Y-13080775D03*
D35*
X36585910Y-11080775D03*
D34*
%TO.N,SPI_MOSI*%
X13427463Y-3069212D03*
X29004169Y-38934733D03*
D36*
X31135910Y-49380775D03*
D35*
X36585910Y-10680775D03*
D36*
X29685910Y-50830775D03*
D35*
X27600000Y-51800000D03*
D34*
X24213768Y-9382184D03*
X28402496Y-1788310D03*
D36*
X34285910Y-6830775D03*
D34*
X38604572Y-111918D03*
D35*
X25700000Y-46950000D03*
D36*
X30885910Y-46480775D03*
%TO.N,MISO_AD*%
X39235910Y-9530775D03*
D34*
X34465142Y-10446892D03*
D36*
X35935910Y-9530775D03*
D34*
X43223659Y-11147343D03*
%TO.N,AD5940_RESET*%
X46157756Y-12981070D03*
X40815470Y-8666204D03*
D36*
%TO.N,AD5940_GPIO0*%
X8185910Y-7180775D03*
D35*
X37385910Y-10280775D03*
D36*
%TO.N,SPI_SCK*%
X29535910Y-46880775D03*
X29335910Y-53380775D03*
D34*
X28945970Y432020D03*
X34942521Y-10603821D03*
X39966720Y-1095592D03*
D35*
X26500000Y-46950000D03*
D34*
X6880559Y-7301729D03*
D36*
X27985910Y-40230775D03*
D34*
X31390842Y-17886778D03*
%TO.N,IOVDD*%
X44510537Y8769562D03*
D36*
X44000900Y9210447D03*
X38455600Y-8483600D03*
D34*
X40678366Y-8057463D03*
%TO.N,RLDREF*%
X45694336Y-738021D03*
X44463030Y3667196D03*
%TO.N,USB_CC2*%
X24425586Y2689948D03*
X31662923Y3639076D03*
%TO.N,GAUGE_ALRT*%
X41708766Y-22325211D03*
X7112990Y-3741486D03*
X28742719Y-21920014D03*
%TO.N,AFE4900_RESETZ*%
X21630205Y-59899708D03*
D36*
X30600000Y-51900000D03*
D34*
X14281903Y-62140344D03*
X16974805Y-43574580D03*
%TO.N,VDD_CP2102*%
X13082315Y-12230825D03*
X26251578Y-13408481D03*
X9211507Y-15240624D03*
%TO.N,CP_VBUS*%
X14659779Y-20195529D03*
X25886758Y-20573584D03*
X25110720Y-19104012D03*
X17308102Y-20894534D03*
%TO.N,CP_RST*%
X11334521Y-20059832D03*
X265148Y-19473762D03*
%TO.N,CP_RTS*%
X13933166Y-13411910D03*
X10844624Y-9984736D03*
D37*
%TO.N,CP_RX*%
X12400000Y-13900000D03*
X11400000Y-12450000D03*
X22850000Y-9200000D03*
X13450000Y-9350000D03*
%TO.N,CP_TX*%
X18600000Y-8800000D03*
X11900000Y-13900000D03*
X11700000Y-10400000D03*
X14950000Y-8250000D03*
D34*
%TO.N,CP_DTR*%
X18777491Y-19606612D03*
X8537211Y-14388899D03*
X5537658Y-12888648D03*
D36*
%TO.N,TX_5V*%
X31400000Y-51900000D03*
X27500000Y-47250000D03*
X23400000Y-55450000D03*
D34*
X14000000Y-58071400D03*
D36*
X29600000Y-56000000D03*
D34*
%TO.N,STATUS_LED*%
X-205472Y-23100411D03*
X10426099Y-7569821D03*
%TO.N,RTC_INT*%
X14254939Y-34940596D03*
X1226916Y-16156619D03*
X11893785Y-44603873D03*
%TO.N,PGA1N*%
X38407780Y4036663D03*
X42516426Y4255473D03*
%TO.N,PGA1P*%
X37869062Y4291111D03*
X41633617Y4910522D03*
%TO.N,IN1N*%
X43506593Y5392269D03*
X39139701Y-27147445D03*
X43266422Y-17471610D03*
X45161908Y-11511511D03*
%TO.N,IN1P*%
X46099606Y-2555156D03*
X34348129Y5765564D03*
X43650139Y6150014D03*
X22427945Y-594605D03*
%TO.N,PGA2P*%
X37214145Y8725224D03*
X38755513Y4496765D03*
%TO.N,ADS1292_PWDN*%
X32231457Y-5637961D03*
X29949906Y-1442513D03*
X37706443Y1458833D03*
%TO.N,ADS1292_DRDY*%
X38179663Y-495326D03*
X894541Y-22271713D03*
X7377572Y996043D03*
X117103Y-52732605D03*
%TO.N,ADS_GPIO1*%
X43328470Y932794D03*
X39584215Y-2002343D03*
%TO.N,RESP_MODN*%
X44348173Y6740943D03*
X47024829Y4188955D03*
%TO.N,VBAT_SYS*%
X39404783Y-30338637D03*
X40134331Y-37363767D03*
X38921887Y-34660196D03*
X39234256Y-31469103D03*
X39576289Y-38785948D03*
X40614327Y-31698809D03*
X39362496Y-36304837D03*
%TO.N,TX_SW*%
X40246569Y-33350879D03*
X40141603Y-39031154D03*
%TO.N,RE_SURGE*%
X16471035Y-31902549D03*
X13876281Y-20545388D03*
X13996138Y-23223350D03*
X15953371Y-24435682D03*
%TO.N,FP_SURGE*%
X5935671Y-38676912D03*
%TO.N,FP_ISO*%
X17438953Y-24130644D03*
X7528329Y-34593985D03*
%TO.N,Q3_B1*%
X21531914Y-17556199D03*
X10268512Y-14631234D03*
%TO.N,AFE_P_AC*%
X32477280Y-32396833D03*
X34254433Y-32682459D03*
X34418415Y-26434949D03*
X38237569Y-18488889D03*
%TO.N,AFE4900_ADC_RDY*%
X28899765Y-22778691D03*
X15751040Y-5323077D03*
D36*
X29850000Y-42650000D03*
X29850000Y-55100000D03*
D34*
%TO.N,IR_GATE*%
X-293340Y-55204502D03*
X-461556Y-52909935D03*
%TO.N,IR_K*%
X4222622Y-50602022D03*
X8136513Y-46029642D03*
X12570512Y-47488098D03*
%TO.N,IN1N_AC*%
X40097227Y-21490642D03*
X40602371Y-5228121D03*
%TO.N,RLD_CLAMP*%
X29194281Y-23628389D03*
X40540757Y-22901994D03*
X15931381Y-31108396D03*
%TO.N,EXP_INT*%
X10162031Y-33626883D03*
X15880541Y-38249404D03*
X17058052Y-45020728D03*
X-1214197Y-16044185D03*
D36*
%TO.N,TMP117_ALERT*%
X18800000Y-53700000D03*
X5200000Y-39900000D03*
X14500000Y-53150000D03*
X19150000Y-49250000D03*
D34*
X7831972Y-4414809D03*
D36*
X2250000Y-43600000D03*
D34*
X14109592Y-32237236D03*
%TO.N,USB_DP_S3*%
X6507449Y-12458502D03*
X4579098Y-8072942D03*
%TO.N,MIC_CLK*%
X28477442Y-21130806D03*
X20448992Y-5145717D03*
%TO.N,MIC_DAT*%
X18665058Y-5425778D03*
X29280402Y-21490120D03*
%TO.N,SPARE_IN*%
X33209713Y-13281707D03*
X42580746Y-20109576D03*
X17895031Y594061D03*
X32923872Y-7676997D03*
D36*
%TO.N,MISO_FL*%
X32400000Y-51500000D03*
X29650000Y-47400000D03*
D34*
%TO.N,J13_INP*%
X38333404Y-49253216D03*
%TO.N,RTC_VBK*%
X17014270Y-29886038D03*
X29531175Y-22036240D03*
X11744255Y-38375012D03*
X43029458Y-33633708D03*
%TO.N,FN_SURGE*%
X16605837Y-18500230D03*
%TO.N,FN_ISO*%
X19048388Y-23089051D03*
X30351752Y-20650288D03*
X19262832Y-16995546D03*
%TO.N,AFE_P_SER*%
X42696010Y-62590948D03*
X34319800Y-28690487D03*
%TO.N,SN_ISO*%
X25825557Y-23373740D03*
X25343204Y-22429113D03*
%TO.N,MX_ECG_INM*%
X29125039Y-59197679D03*
X19047820Y-41747101D03*
%TO.N,SN_SURGE*%
X19597614Y-13043416D03*
X22716491Y-34650177D03*
%TO.N,NIR_AN*%
X15626540Y-39082017D03*
%TO.N,TX5_EN*%
X39289350Y-41014801D03*
X29336834Y-39850380D03*
X19278868Y-39770075D03*
%TO.N,NIR_K*%
X16118086Y-47925224D03*
D36*
X36450000Y-52100000D03*
X32250000Y-56600000D03*
X20500000Y-53500000D03*
X26250000Y-55850000D03*
X28300000Y-58200000D03*
D34*
%TO.N,Q3_B2*%
X6935557Y-10924362D03*
X7956088Y-8954478D03*
D36*
%TO.N,AFE_INM*%
X31350000Y-58550000D03*
D35*
X28000000Y-49800000D03*
D36*
X41600000Y-56200000D03*
D34*
%TO.N,CE_ISO*%
X10441545Y-23332145D03*
X15823857Y-23482208D03*
X15040392Y-11183811D03*
X790394Y-27732066D03*
D35*
%TO.N,AFE_BG*%
X27600000Y-51000000D03*
D36*
X28750000Y-49450000D03*
D34*
%TO.N,SP_SURGE*%
X33456490Y-28197239D03*
X33481826Y-30155044D03*
X30349677Y-30142890D03*
D36*
%TO.N,MX_VREF*%
X31950000Y-49300000D03*
X29350000Y-46150000D03*
X25000000Y-46650000D03*
D34*
%TO.N,BIOZ_FP_PAD*%
X4784682Y-63807125D03*
%TO.N,BIOZ_FN_PAD*%
X11844503Y-60734762D03*
X5596857Y-45461536D03*
%TO.N,BIOZ_SP_PAD*%
X15747854Y-60532148D03*
%TO.N,BIOZ_SN_PAD*%
X20262914Y-60511743D03*
D36*
X25650000Y-57350000D03*
X29950000Y-48200000D03*
X33800000Y-50200000D03*
D34*
X26579389Y-42237369D03*
D36*
X31750000Y-56700000D03*
D34*
%TO.N,IR_AN*%
X12468467Y-45161417D03*
%TO.N,LED_AN*%
X2147205Y-52898337D03*
X44446203Y-48358659D03*
X7340462Y-50692682D03*
X29726278Y-57388174D03*
X14223058Y-59389736D03*
%TO.N,SE_ISO*%
X29010529Y-19220834D03*
X15370155Y-24393469D03*
%TO.N,J13_INM*%
X29691932Y-63093654D03*
%TO.N,AFE_N_AC*%
X43432076Y-56205046D03*
X29816628Y-34039151D03*
X41292244Y-48369991D03*
D36*
%TO.N,AFE_CLK*%
X16100000Y-58800000D03*
D35*
X28000000Y-51800000D03*
D34*
%TO.N,EDA_RE_PAD*%
X17611288Y-28256295D03*
X12207353Y-43123533D03*
%TO.N,SE_SURGE*%
X14333422Y-31473818D03*
X29415733Y-18891172D03*
%TO.N,EDA_SE_PAD*%
X2954020Y-39255205D03*
X8086663Y-59472707D03*
X10421244Y-27046759D03*
%TO.N,ECG2_PAD*%
X18398674Y-57955359D03*
X4481734Y-34383552D03*
%TO.N,J11_RE*%
X40792587Y-52155961D03*
X39655200Y-46446615D03*
%TO.N,J11_CE*%
X38390616Y-62793693D03*
X46679795Y-56408725D03*
D36*
%TO.N,PD_INP*%
X21400000Y-45350000D03*
X28100000Y-48350000D03*
X11200000Y-55900000D03*
%TO.N,PD_INM*%
X25300000Y-49500000D03*
X25200000Y-51850000D03*
D35*
X27200000Y-49800000D03*
D36*
X12450000Y-56200000D03*
D35*
%TO.N,PD2_INP*%
X27600000Y-50200000D03*
D36*
X15200000Y-59000000D03*
%TO.N,TX1*%
X15950000Y-58000000D03*
D35*
X26800000Y-51000000D03*
D36*
X21500000Y-55650000D03*
D35*
%TO.N,TX3*%
X26800000Y-51400000D03*
D36*
X24850000Y-53200000D03*
X15600000Y-54000000D03*
D34*
%TO.N,TX4*%
X14602430Y-53711443D03*
D36*
X25650000Y-51550000D03*
D35*
%TO.N,TX2*%
X26400000Y-51400000D03*
D36*
X10950000Y-55450000D03*
X22800000Y-55450000D03*
X25400000Y-54500000D03*
D34*
%TO.N,AFE_P_PAD*%
X23758732Y-29319389D03*
X17824442Y-61459825D03*
D36*
X27000000Y-41950000D03*
X34700000Y-51900000D03*
X27300000Y-55800000D03*
D34*
%TO.N,LDR*%
X22939030Y-56841177D03*
X21452240Y-58160243D03*
D36*
%TO.N,LED1_K*%
X30300000Y-60350000D03*
D34*
X5356176Y-52606450D03*
D35*
X26900000Y-48150000D03*
D36*
X30300000Y-56300000D03*
D34*
X46285854Y-52728229D03*
D36*
%TO.N,LED2_K*%
X39650000Y-52750000D03*
X32300000Y-50200000D03*
D34*
X4744740Y-52652203D03*
X39693862Y-58842686D03*
%TO.N,LED3_K*%
X5075056Y-52061332D03*
D35*
X26900000Y-47350000D03*
D36*
X29650000Y-58200000D03*
X30650000Y-55350000D03*
D34*
X45117449Y-47512468D03*
%TO.N,PD_K*%
X11699361Y-58437293D03*
X33058285Y-42107134D03*
D36*
X17500000Y-43600000D03*
X24650000Y-47550000D03*
X30400000Y-42500000D03*
D34*
X42751807Y-47596820D03*
X16046525Y-53713518D03*
X6298044Y-55287005D03*
%TO.N,PD_A*%
X8596450Y-56630540D03*
X47042256Y-39243504D03*
D36*
%TO.N,AFE_N_PAD*%
X28900000Y-56000000D03*
X27100000Y-36000000D03*
X24900000Y-58900000D03*
X22100000Y-30700000D03*
X17150000Y-60750000D03*
X28450000Y-37850000D03*
D34*
%TO.N,RLD_PAD*%
X32939840Y-54973369D03*
X24925919Y-21746561D03*
D36*
%TO.N,unconnected-(J12-PadMP)*%
X650000Y-56500000D03*
X650000Y-48550000D03*
D34*
%TO.N,ECG1_PAD*%
X19339868Y-58375776D03*
X4086962Y-31661989D03*
X19974382Y-53581073D03*
X14816146Y-52719541D03*
%TD*%
%TO.N,GND*%
D38*
X44835495Y-14200000D02*
X45656127Y-14200000D01*
D39*
X25985910Y-48330775D02*
X25735910Y-48430775D01*
D38*
X7150000Y-46600000D02*
X7442773Y-46600000D01*
D39*
X20985910Y-49580775D02*
X20735910Y-49580775D01*
X19285910Y-40330775D02*
X18585910Y-39880775D01*
D38*
X44792632Y-14242863D02*
X44835495Y-14200000D01*
X45948900Y-14200000D02*
X46800000Y-14200000D01*
X18894500Y-56276000D02*
X18798450Y-56179950D01*
X11688938Y-4017036D02*
X11688938Y-3763616D01*
X10300000Y-50300000D02*
X10300000Y-49580891D01*
X2500000Y-54250000D02*
X2207227Y-54250000D01*
X9300000Y-51950000D02*
X9300000Y-51550000D01*
X7442773Y-46600000D02*
X7575635Y-46600000D01*
X7575635Y-46600000D02*
X7714558Y-46461077D01*
D39*
X25735910Y-48430775D02*
X24685910Y-48580775D01*
X25785910Y-47730775D02*
X25985910Y-47730775D01*
D38*
X19362000Y-56700000D02*
X19318500Y-56700000D01*
X2136551Y-54179324D02*
X2136551Y-53562628D01*
X12400000Y-5003100D02*
X12400000Y-4728097D01*
X9300000Y-51550000D02*
X9300000Y-51308179D01*
X20185108Y-55900000D02*
X20018837Y-56066271D01*
D39*
X19435910Y-50230775D02*
X19685910Y-49880775D01*
D38*
X9300000Y-51308179D02*
X10231839Y-50376340D01*
X10300000Y-51350000D02*
X10300000Y-51642773D01*
X10300000Y-49580891D02*
X8700297Y-49580891D01*
X20350500Y-55900000D02*
X20185108Y-55900000D01*
X10300000Y-50300000D02*
X10300000Y-51350000D01*
X45656127Y-14200000D02*
X45948900Y-14200000D01*
X2207227Y-54250000D02*
X2136551Y-54179324D01*
X10300000Y-51642773D02*
X10300000Y-51950000D01*
X20638000Y-55900000D02*
X20350500Y-55900000D01*
X20018837Y-56066271D02*
X20018837Y-56187787D01*
X10231839Y-50376340D02*
X10300000Y-50300000D01*
X3150000Y-54250000D02*
X2500000Y-54250000D01*
X12400000Y-4728097D02*
X11688938Y-4017036D01*
D39*
X19685910Y-49880775D02*
X19985910Y-49380775D01*
D38*
X6900000Y-46600000D02*
X7150000Y-46600000D01*
D39*
X6785910Y-62680775D02*
X6785910Y-59530775D01*
D38*
X19318500Y-56700000D02*
X18894500Y-56276000D01*
X11688938Y-3763616D02*
X11768645Y-3683909D01*
X18798450Y-56179950D02*
X18734701Y-56179950D01*
D39*
X26035910Y-47830775D02*
X25985910Y-48330775D01*
%TO.N,RLDINV*%
D38*
X43209467Y-4638465D02*
X43209467Y-2277338D01*
X43903170Y-10252905D02*
X43582938Y-9932672D01*
X43582938Y-5011936D02*
X43209467Y-4638465D01*
X43341860Y-14241161D02*
X43903170Y-13679850D01*
X43209467Y-2277338D02*
X44773761Y-713045D01*
X44773761Y-713045D02*
X44773761Y888547D01*
X43903170Y-13679850D02*
X43903170Y-10252905D01*
X43582938Y-9932672D02*
X43582938Y-5011936D01*
%TO.N,+3V3_ANA*%
D39*
X30285910Y-50430775D02*
X30285910Y-49980775D01*
D40*
X37302708Y-14162266D02*
X32146113Y-14162266D01*
D39*
X26785910Y-49730775D02*
X26785910Y-49080775D01*
X28085910Y-50530775D02*
X30285910Y-50430775D01*
D40*
X32146113Y-14162266D02*
X30751796Y-15556583D01*
D39*
X31235910Y-50330775D02*
X30335910Y-50330775D01*
X30285910Y-49980775D02*
X29385910Y-49480775D01*
%TO.N,CS_AFE4900*%
D38*
X10161785Y-7178066D02*
X11749648Y-7178066D01*
X9640057Y-7699795D02*
X10161785Y-7178066D01*
X20168504Y-11963353D02*
X20529038Y-12209663D01*
X18023785Y-9818634D02*
X20168504Y-11963353D01*
X25779597Y-12209663D02*
X30308652Y-16738718D01*
X11749648Y-7178066D02*
X14390217Y-9818634D01*
X20529038Y-12209663D02*
X25779597Y-12209663D01*
X14390217Y-9818634D02*
X18023785Y-9818634D01*
%TO.N,+3V3*%
D41*
X4939099Y-46124882D02*
X5439343Y-46625126D01*
X10800000Y-52618739D02*
X10800000Y-52350000D01*
X11234924Y-53069065D02*
X11234924Y-53053663D01*
X46800000Y-21536672D02*
X47120592Y-21857265D01*
X5498224Y-46625126D02*
X6273098Y-47400000D01*
X5439343Y-46625126D02*
X5498224Y-46625126D01*
X11234924Y-53053663D02*
X10800000Y-52618739D01*
X47120592Y-21857265D02*
X47340642Y-21857265D01*
X25423641Y-58275000D02*
X25423641Y-59060540D01*
X4939099Y-45963425D02*
X4939099Y-46124882D01*
X6650000Y-47400000D02*
X6900000Y-47400000D01*
X10800000Y-52350000D02*
X10800000Y-51950000D01*
X4348173Y-55516921D02*
X4115094Y-55750000D01*
X24750000Y-58275000D02*
X25423641Y-58275000D01*
X4115094Y-55750000D02*
X3800000Y-55750000D01*
X46800000Y-20800000D02*
X46800000Y-21376097D01*
X6273098Y-47400000D02*
X6650000Y-47400000D01*
X11255321Y-53089462D02*
X11234924Y-53069065D01*
X46800000Y-21376097D02*
X46800000Y-21536672D01*
X4348173Y-54997439D02*
X4348173Y-55516921D01*
X3800000Y-55750000D02*
X3150000Y-55750000D01*
%TO.N,ESP_EN*%
D38*
X41765818Y-39459621D02*
X44118515Y-37106924D01*
X41765818Y-44718883D02*
X41765818Y-39459621D01*
X15385855Y-38700027D02*
X17384963Y-38700027D01*
X25424137Y-37012187D02*
X25541961Y-37130011D01*
X15230191Y-38855691D02*
X15385855Y-38700027D01*
X18126288Y-40839377D02*
X17355834Y-40068923D01*
X17789253Y-39104317D02*
X18884247Y-39104317D01*
X44118515Y-37106924D02*
X44118515Y-34861722D01*
X20976378Y-37012187D02*
X25424137Y-37012187D01*
X41215099Y-45269602D02*
X41765818Y-44718883D01*
X18884247Y-39104317D02*
X20976378Y-37012187D01*
X16081260Y-40068923D02*
X15230191Y-39217855D01*
X17355834Y-40068923D02*
X16081260Y-40068923D01*
X15230191Y-39217855D02*
X15230191Y-38855691D01*
X17384963Y-38700027D02*
X17789253Y-39104317D01*
%TO.N,ECG_N*%
X8666379Y-32677310D02*
X8666379Y-33157102D01*
X14742730Y-31671408D02*
X14742730Y-30883642D01*
X10550000Y-30347760D02*
X10942826Y-29954934D01*
X29798911Y-23208710D02*
X30563675Y-22443946D01*
X13858287Y-31866562D02*
X14547576Y-31866562D01*
X9413838Y-33204547D02*
X12520302Y-33204547D01*
X9487489Y-31856200D02*
X8666379Y-32677310D01*
X7641095Y-34182386D02*
X7511380Y-34182386D01*
X23720616Y-24202433D02*
X26774642Y-24202433D01*
X27768365Y-23208710D02*
X29798911Y-23208710D01*
X7091253Y-34472797D02*
X7091253Y-34700969D01*
X14742730Y-30883642D02*
X15710894Y-29915478D01*
X16683191Y-30316532D02*
X17953009Y-30316532D01*
X20780550Y-30043549D02*
X21619989Y-29204110D01*
X10550000Y-31856200D02*
X10550000Y-31242112D01*
X10550000Y-31242112D02*
X10550000Y-30949339D01*
X8087837Y-34640109D02*
X8087837Y-34530548D01*
X12520302Y-33204547D02*
X13858287Y-31866562D01*
X8087837Y-34530548D02*
X9413838Y-33204547D01*
X18225992Y-30043549D02*
X20780550Y-30043549D01*
X16282137Y-29915478D02*
X16683191Y-30316532D01*
X7511380Y-34182386D02*
X7193362Y-34370688D01*
X21619989Y-26303060D02*
X23720616Y-24202433D01*
X26774642Y-24202433D02*
X27768365Y-23208710D01*
X7091253Y-34700969D02*
X7382453Y-34992169D01*
X7735777Y-34992169D02*
X8087837Y-34640109D01*
X17953009Y-30316532D02*
X18225992Y-30043549D01*
X10550000Y-31856200D02*
X9487489Y-31856200D01*
X21619989Y-29204110D02*
X21619989Y-26303060D01*
X7193362Y-34370688D02*
X7091253Y-34472797D01*
X10550000Y-30949339D02*
X10550000Y-30347760D01*
X7382453Y-34992169D02*
X7735777Y-34992169D01*
X14547576Y-31866562D02*
X14742730Y-31671408D01*
X8666379Y-33157102D02*
X7641095Y-34182386D01*
X15710894Y-29915478D02*
X16282137Y-29915478D01*
%TO.N,+1V8*%
D40*
X20925500Y-54300000D02*
X21228125Y-54300000D01*
D39*
X22200000Y-56350000D02*
X22150000Y-56700000D01*
X23600000Y-58750000D02*
X24900000Y-59300000D01*
X22200000Y-57300000D02*
X23600000Y-58750000D01*
D40*
X18747253Y-55343016D02*
X18904238Y-55500000D01*
X19975146Y-55263740D02*
X19975146Y-54919354D01*
D39*
X22150000Y-56700000D02*
X22050000Y-57000000D01*
X22000000Y-56000000D02*
X22200000Y-56350000D01*
X22050000Y-57000000D02*
X22200000Y-57300000D01*
X26450000Y-48250000D02*
X26300000Y-48900000D01*
D40*
X27237902Y-56507487D02*
X27237902Y-56598444D01*
X20210367Y-54684133D02*
X20594500Y-54300000D01*
D39*
X22000000Y-55800000D02*
X22000000Y-56000000D01*
D40*
X18747253Y-55107501D02*
X18747253Y-55343016D01*
D39*
X25500000Y-59450000D02*
X27100000Y-59350000D01*
D40*
X20594500Y-54300000D02*
X20638000Y-54300000D01*
X19738887Y-55500000D02*
X19975146Y-55263740D01*
D39*
X26450000Y-48050000D02*
X26450000Y-47850000D01*
D40*
X19975146Y-54919354D02*
X20210367Y-54684133D01*
X20638000Y-54300000D02*
X20925500Y-54300000D01*
X18904238Y-55500000D02*
X19738887Y-55500000D01*
D39*
X21200000Y-54350000D02*
X22000000Y-55800000D01*
X24900000Y-59300000D02*
X25500000Y-59450000D01*
%TO.N,EDA_DE_PAD*%
D38*
X8885430Y-53185430D02*
X8976952Y-53276952D01*
X8917874Y-47819906D02*
X8372170Y-48365610D01*
X8283048Y-49709494D02*
X8885430Y-50311876D01*
X12886768Y-39512109D02*
X12886768Y-41668724D01*
X9684427Y-45434664D02*
X9684427Y-46479114D01*
X8976952Y-53276952D02*
X8976952Y-56803098D01*
X12886768Y-41668724D02*
X11838490Y-42717003D01*
X14697601Y-37701276D02*
X12886768Y-39512109D01*
X14697601Y-35551955D02*
X14697601Y-37701276D01*
X8372170Y-48365610D02*
X8372170Y-49431442D01*
X8283048Y-49520564D02*
X8283048Y-49709494D01*
X19224809Y-31829715D02*
X19224809Y-33669819D01*
X8885430Y-50311876D02*
X8885430Y-53185430D01*
X5700000Y-62048900D02*
X5700000Y-62900000D01*
X19224809Y-33669819D02*
X18535265Y-34359363D01*
X9684427Y-46479114D02*
X8917874Y-47245667D01*
X18535265Y-34359363D02*
X15890194Y-34359363D01*
X8917874Y-47245667D02*
X8917874Y-47819906D01*
X8976952Y-56803098D02*
X5700000Y-60080050D01*
X11838490Y-42717003D02*
X11838490Y-43280601D01*
X8372170Y-49431442D02*
X8283048Y-49520564D01*
X15890194Y-34359363D02*
X14697601Y-35551955D01*
X18922331Y-31527237D02*
X19224809Y-31829715D01*
X11838490Y-43280601D02*
X9684427Y-45434664D01*
X5700000Y-60080050D02*
X5700000Y-61756127D01*
X5700000Y-61756127D02*
X5700000Y-62048900D01*
%TO.N,TS*%
X13262922Y-2731530D02*
X13323374Y-2671078D01*
X23037010Y-2671078D02*
X23599358Y-3233427D01*
X11068870Y-5003100D02*
X11321408Y-4750562D01*
X10776097Y-5003100D02*
X11068870Y-5003100D01*
X12092326Y-2852433D02*
X12714337Y-2852433D01*
X12714337Y-2852433D02*
X13262922Y-2731530D01*
X13323374Y-2671078D02*
X23037010Y-2671078D01*
X11321408Y-3623351D02*
X12092326Y-2852433D01*
X11321408Y-4750562D02*
X11321408Y-3623351D01*
X10200000Y-5003100D02*
X10776097Y-5003100D01*
%TO.N,CS_AD5940*%
D39*
X36485910Y-10230775D02*
X34585910Y-9380775D01*
%TO.N,USB_DM*%
D42*
X4389552Y-13654295D02*
X4288918Y-13648461D01*
X4687028Y-14069435D02*
X4691389Y-13992969D01*
X4243404Y-13654796D02*
X4168933Y-13680684D01*
X6629883Y-14211586D02*
X4981721Y-14211586D01*
X4288918Y-13648461D02*
X4243404Y-13654796D01*
X4168933Y-13680684D02*
X3980712Y-13643267D01*
X4524780Y-13709729D02*
X4434029Y-13665849D01*
X4651824Y-13852278D02*
X4628525Y-13812669D01*
X4561457Y-13737416D02*
X4524780Y-13709729D01*
X4981721Y-14211586D02*
X4687028Y-14069435D01*
X4434029Y-13665849D02*
X4389552Y-13654295D01*
X4691389Y-13992969D02*
X4685011Y-13947461D01*
X6974319Y-13867150D02*
X6629883Y-14211586D01*
X6928240Y-13265051D02*
X7042093Y-13419533D01*
X7042093Y-13419533D02*
X6974319Y-13867150D01*
X4685011Y-13947461D02*
X4651824Y-13852278D01*
X4628525Y-13812669D02*
X4561457Y-13737416D01*
%TO.N,USB_DM_S3*%
X4592001Y-8446902D02*
X4633620Y-8443131D01*
X4228855Y-7948451D02*
X4210777Y-8006972D01*
X5661156Y-11486000D02*
X5663539Y-11509576D01*
X4210777Y-8006972D02*
X4205718Y-8048455D01*
X5713532Y-11754412D02*
X5731343Y-11796802D01*
X5461417Y-9568415D02*
X5661156Y-9870442D01*
X5661156Y-9870442D02*
X5661156Y-11486000D01*
X5731343Y-11796802D02*
X5733312Y-11799628D01*
X4633620Y-8443131D02*
X4689769Y-8427675D01*
X4976167Y-8834665D02*
X5242127Y-9236825D01*
X5733312Y-11799628D02*
X5756384Y-11831717D01*
X4280656Y-8298652D02*
X4344247Y-8364245D01*
X4896030Y-8713489D02*
X4976167Y-8834665D01*
X4257349Y-8263966D02*
X4280656Y-8298652D01*
X5663539Y-11509576D02*
X5713532Y-11754412D01*
X6033938Y-12217760D02*
X6002976Y-12407149D01*
X4344247Y-8364245D02*
X4378194Y-8388616D01*
X4460678Y-8427892D02*
X4500996Y-8438883D01*
X4220649Y-8180304D02*
X4257349Y-8263966D01*
X4177304Y-7763602D02*
X4228855Y-7948451D01*
X4378194Y-8388616D02*
X4460678Y-8427892D01*
X4689769Y-8427675D02*
X4896030Y-8713489D01*
X4205718Y-8048455D02*
X4210913Y-8139664D01*
X4210913Y-8139664D02*
X4220649Y-8180304D01*
X4500996Y-8438883D02*
X4592001Y-8446902D01*
X5242127Y-9236825D02*
X5461417Y-9568415D01*
X5756384Y-11831717D02*
X6033938Y-12217760D01*
%TO.N,I2C_SCL*%
D38*
X3475000Y-54750000D02*
X3150000Y-54750000D01*
X45948900Y-16400000D02*
X46800000Y-16400000D01*
X3800000Y-54635660D02*
X3800000Y-54750000D01*
X31973948Y-33506398D02*
X31796476Y-33683869D01*
X32843526Y-34112756D02*
X32600432Y-33869663D01*
X32357339Y-33506398D02*
X31973948Y-33506398D01*
X35885319Y-12929956D02*
X36462019Y-13105414D01*
X8536146Y-6490264D02*
X12656979Y-6490264D01*
X7450106Y-51108814D02*
X7170483Y-51108814D01*
X34681596Y-12929956D02*
X35885319Y-12929956D01*
X41583485Y-21978127D02*
X41419321Y-21978127D01*
X22716087Y-34082885D02*
X22095313Y-34703660D01*
X7514439Y-49430175D02*
X7775527Y-49691262D01*
X45741878Y-17183119D02*
X45667629Y-17183119D01*
X46800000Y-16400000D02*
X46524997Y-16400000D01*
X7357227Y-47000000D02*
X7757227Y-47400000D01*
X30519474Y-33909260D02*
X29929416Y-34499319D01*
X7514439Y-48628334D02*
X7514439Y-49430175D01*
X8907517Y-46646710D02*
X8907517Y-46795012D01*
X8352433Y-47019437D02*
X8300000Y-47071870D01*
X41419321Y-21978127D02*
X41060464Y-22336984D01*
X45667629Y-17183119D02*
X45225530Y-16741019D01*
X22095313Y-34703660D02*
X21594784Y-34703660D01*
X32600432Y-33869663D02*
X32600432Y-33749491D01*
X5649712Y-46270263D02*
X6379449Y-47000000D01*
X6155806Y-52123490D02*
X6155806Y-52329054D01*
X8683092Y-47019437D02*
X8352433Y-47019437D01*
X7757227Y-47400000D02*
X8050000Y-47400000D01*
X3800000Y-54750000D02*
X3475000Y-54750000D01*
X3891866Y-54592994D02*
X3842665Y-54592994D01*
X36462019Y-13105414D02*
X36797196Y-13440592D01*
X6379449Y-47000000D02*
X7357227Y-47000000D01*
X32563023Y-33150254D02*
X32563023Y-33601094D01*
X7775527Y-50783393D02*
X7450106Y-51108814D01*
X19294856Y-9194235D02*
X21453384Y-11352763D01*
X41060464Y-22336984D02*
X41060464Y-24157349D01*
X43909186Y-19652426D02*
X42623545Y-20938066D01*
X8300000Y-47400000D02*
X8300000Y-47550000D01*
X8300000Y-47250000D02*
X8300000Y-47400000D01*
X29929416Y-34499319D02*
X29594030Y-34499319D01*
X21453384Y-11352763D02*
X33104403Y-11352763D01*
X32838004Y-31718897D02*
X32838004Y-32875273D01*
X6155806Y-52329054D02*
X3891866Y-54592994D01*
X8300000Y-47071870D02*
X8300000Y-47250000D01*
X40471997Y-14967249D02*
X44223376Y-14967249D01*
X6778785Y-4732903D02*
X8536146Y-6490264D01*
X32838004Y-32875273D02*
X32563023Y-33150254D01*
X45656127Y-16400000D02*
X45948900Y-16400000D01*
X44223376Y-14967249D02*
X45656127Y-16400000D01*
X32563023Y-33601094D02*
X32843526Y-34112756D01*
X33104403Y-11352763D02*
X34681596Y-12929956D01*
D39*
X18900000Y-51200000D02*
X18900000Y-52050000D01*
D38*
X3842665Y-54592994D02*
X3800000Y-54635660D01*
X18976099Y-37322344D02*
X15733811Y-37322344D01*
X42623545Y-20938066D02*
X41583485Y-21978127D01*
X31649431Y-33909260D02*
X30519474Y-33909260D01*
X32600432Y-33749491D02*
X32357339Y-33506398D01*
X8907517Y-46795012D02*
X8683092Y-47019437D01*
X7170483Y-51108814D02*
X6155806Y-52123490D01*
X8300000Y-47550000D02*
X8300000Y-47842773D01*
X46524997Y-16400000D02*
X45741878Y-17183119D01*
X14537078Y-39598367D02*
X14537078Y-38519078D01*
X14537078Y-38519078D02*
X15436141Y-37620015D01*
X8300000Y-47842773D02*
X7514439Y-48628334D01*
X7775527Y-49691262D02*
X7775527Y-50783393D01*
X38945340Y-13440592D02*
X40471997Y-14967249D01*
X45225530Y-16741019D02*
X44665820Y-16741019D01*
X31796476Y-33683869D02*
X31796476Y-33762215D01*
X44665820Y-16741019D02*
X43909186Y-17497654D01*
X15360950Y-9194235D02*
X19294856Y-9194235D01*
X15733811Y-37322344D02*
X15436141Y-37620015D01*
X21594784Y-34703660D02*
X18976099Y-37322344D01*
X43909186Y-17497654D02*
X43909186Y-19652426D01*
X31796476Y-33762215D02*
X31649431Y-33909260D01*
X8050000Y-47400000D02*
X8300000Y-47400000D01*
X41060464Y-24157349D02*
X40342749Y-24875064D01*
X36797196Y-13440592D02*
X38945340Y-13440592D01*
X12656979Y-6490264D02*
X15360950Y-9194235D01*
X29177596Y-34082885D02*
X22716087Y-34082885D01*
X32652727Y-31533620D02*
X32838004Y-31718897D01*
X29594030Y-34499319D02*
X29177596Y-34082885D01*
%TO.N,I2C_SDA*%
X11029817Y-43363946D02*
X9834578Y-43363946D01*
X44711874Y-17048888D02*
X44477254Y-17283507D01*
X26051516Y-30813578D02*
X27594274Y-30813578D01*
X3990868Y-54828560D02*
X3990868Y-55250000D01*
X44477254Y-19577781D02*
X42929375Y-21125660D01*
X15425148Y-31716245D02*
X14932302Y-32209092D01*
X19797603Y-33480223D02*
X21393568Y-31884258D01*
X12451983Y-41295491D02*
X11632910Y-42114564D01*
X46800000Y-19290537D02*
X46800000Y-19176097D01*
X38831925Y-27523078D02*
X36160732Y-24851885D01*
X45074146Y-17048888D02*
X44711874Y-17048888D01*
X9834578Y-43363946D02*
X9348496Y-43850029D01*
X36160732Y-24851885D02*
X36160732Y-24710438D01*
X45310111Y-20340396D02*
X46222726Y-19427781D01*
X44477254Y-17283507D02*
X44477254Y-19577781D01*
X3990868Y-55250000D02*
X3800000Y-55250000D01*
X14462334Y-34114800D02*
X14462334Y-34535201D01*
X9348496Y-43850029D02*
X9348496Y-45651504D01*
X19797603Y-33640123D02*
X19797603Y-33480223D01*
X5539589Y-53279839D02*
X3990868Y-54828560D01*
X46800000Y-19176097D02*
X46800000Y-18600000D01*
X14462334Y-34535201D02*
X14640724Y-34713591D01*
X21393568Y-31884258D02*
X24980836Y-31884258D01*
X42929375Y-23889307D02*
X39295604Y-27523078D01*
X8400000Y-46600000D02*
X8300000Y-46600000D01*
X18990726Y-34447000D02*
X19797603Y-33640123D01*
X46662756Y-19427781D02*
X46800000Y-19290537D01*
X14640724Y-35216249D02*
X12622148Y-37234825D01*
X45656127Y-18600000D02*
X45605458Y-18549331D01*
X14640724Y-34713591D02*
X14640724Y-35216249D01*
X9348496Y-45651504D02*
X8684964Y-46315036D01*
X14932302Y-33644831D02*
X14462334Y-34114800D01*
X31613582Y-29742898D02*
X32094502Y-30223817D01*
X12622148Y-37772493D02*
X12724379Y-37874724D01*
X12451983Y-39362603D02*
X12451983Y-41295491D01*
X8684964Y-46315036D02*
X8400000Y-46600000D01*
X46800000Y-18600000D02*
X45948900Y-18600000D01*
X8451997Y-53279839D02*
X5539589Y-53279839D01*
X16067666Y-30565676D02*
X15857848Y-30565676D01*
X14932302Y-32209092D02*
X14932302Y-33644831D01*
X27594274Y-30813578D02*
X28664954Y-29742898D01*
X3800000Y-55250000D02*
X3150000Y-55250000D01*
X24980836Y-31884258D02*
X26051516Y-30813578D01*
X11632910Y-42114564D02*
X11632910Y-42760853D01*
X42929375Y-21125660D02*
X42929375Y-23889307D01*
X28664954Y-29742898D02*
X31613582Y-29742898D01*
X43685918Y-23867205D02*
X45310111Y-22243012D01*
X12622148Y-37234825D02*
X12622148Y-37772493D01*
X11632910Y-42760853D02*
X11029817Y-43363946D01*
X15857848Y-30565676D02*
X15425148Y-30998375D01*
X39295604Y-27523078D02*
X38831925Y-27523078D01*
X12724379Y-37874724D02*
X12724379Y-39090207D01*
X45605458Y-17580200D02*
X45074146Y-17048888D01*
X45605458Y-18549331D02*
X45605458Y-17580200D01*
X12724379Y-39090207D02*
X12451983Y-39362603D01*
X46222726Y-19427781D02*
X46662756Y-19427781D01*
X45310111Y-22243012D02*
X45310111Y-20340396D01*
X45948900Y-18600000D02*
X45656127Y-18600000D01*
X15425148Y-30998375D02*
X15425148Y-31716245D01*
%TO.N,CS_MAX86178*%
X39064830Y-40505130D02*
X38202413Y-39642713D01*
X28688066Y-41733733D02*
X28341222Y-41386889D01*
X14922337Y-9518950D02*
X19058366Y-9518950D01*
X31746156Y-23165652D02*
X32575000Y-23994496D01*
X32575000Y-23994496D02*
X32575000Y-27140020D01*
X30592193Y-41555020D02*
X30413481Y-41733733D01*
X19058366Y-9518950D02*
X21262768Y-11723353D01*
X35090625Y-35837910D02*
X36752308Y-37499592D01*
D39*
X25350000Y-46850000D02*
X28650000Y-41750000D01*
D38*
X31342039Y-18387024D02*
X31342039Y-21713027D01*
X35090625Y-31215992D02*
X35090625Y-35837910D01*
D43*
X32575000Y-27140000D02*
X32575000Y-27399000D01*
D38*
X38202413Y-39642713D02*
X36752308Y-39642713D01*
X35233439Y-40181274D02*
X36213746Y-40181274D01*
X33617754Y-41796959D02*
X33375815Y-41555020D01*
X33617754Y-41796959D02*
X35233439Y-40181274D01*
X33773010Y-29030799D02*
X33773010Y-29898377D01*
X36752308Y-37499592D02*
X36752308Y-39642713D01*
X36213746Y-40181274D02*
X36752308Y-39642713D01*
X32575000Y-27399000D02*
X32575000Y-27832789D01*
X32575000Y-27832789D02*
X33773010Y-29030799D01*
X25892674Y-11723353D02*
X30958534Y-16789213D01*
X30958534Y-16789213D02*
X30958534Y-18003519D01*
X13820136Y-8416749D02*
X14922337Y-9518950D01*
X31342039Y-21713027D02*
X31746156Y-22117144D01*
X31746156Y-22117144D02*
X31746156Y-23165652D01*
X33375815Y-41555020D02*
X30592193Y-41555020D01*
X21262768Y-11723353D02*
X25892674Y-11723353D01*
X30958534Y-18003519D02*
X31342039Y-18387024D01*
X30413481Y-41733733D02*
X28688066Y-41733733D01*
X33773010Y-29898377D02*
X35090625Y-31215992D01*
%TO.N,MX_SDO_1V8*%
D40*
X36703919Y-41512528D02*
X35377231Y-41512528D01*
D39*
X33850000Y-43100000D02*
X35350000Y-41550000D01*
X26350000Y-46600000D02*
X33850000Y-43100000D01*
X26150000Y-46850000D02*
X26350000Y-46600000D01*
%TO.N,I2C_SDA_1V8*%
D38*
X40043492Y-46562398D02*
X40043492Y-46303234D01*
X40043492Y-46303234D02*
X39755844Y-46015586D01*
X39718646Y-41971283D02*
X39718646Y-40508533D01*
X38921405Y-43939794D02*
X38810607Y-43386770D01*
X39552743Y-46015586D02*
X38921405Y-45384247D01*
X33997535Y-29063068D02*
X33900929Y-28596864D01*
X33900929Y-28596864D02*
X33900929Y-27857668D01*
D39*
X37050000Y-48350000D02*
X30250000Y-55100000D01*
D38*
X32838265Y-23468623D02*
X32891093Y-23415795D01*
X38275533Y-48330357D02*
X40043492Y-46562398D01*
X39718646Y-40508533D02*
X37323682Y-38113569D01*
X12790162Y-53517367D02*
X12474869Y-53517367D01*
X39755844Y-46015586D02*
X39552743Y-46015586D01*
X33670666Y-23415795D02*
X35810046Y-21276416D01*
X19362000Y-54300000D02*
X19362000Y-54056000D01*
X37323682Y-38113569D02*
X37323682Y-36794983D01*
X19362000Y-53846544D02*
X19490774Y-53717769D01*
X38921405Y-45384247D02*
X38921405Y-43939794D01*
X37052012Y-48330357D02*
X38275533Y-48330357D01*
X11399927Y-52743653D02*
X11300000Y-52643726D01*
X37323682Y-36794983D02*
X35322458Y-34793759D01*
D39*
X29900000Y-56300000D02*
X29450000Y-56650000D01*
D38*
X32838265Y-26795004D02*
X32838265Y-23468623D01*
X35322458Y-34793759D02*
X35322458Y-30387990D01*
X35322458Y-30387990D02*
X33997535Y-29063068D01*
X11300000Y-52350953D02*
X11300000Y-51950000D01*
X21312472Y-58932609D02*
X20040666Y-57660803D01*
X11701156Y-52743653D02*
X11399927Y-52743653D01*
X11300000Y-52643726D02*
X11300000Y-52350953D01*
X19362000Y-54056000D02*
X19362000Y-53941560D01*
X19362000Y-53941560D02*
X19362000Y-53846544D01*
X12474869Y-53517367D02*
X11701156Y-52743653D01*
D39*
X30250000Y-55100000D02*
X29900000Y-56300000D01*
D38*
X32891093Y-23415795D02*
X33670666Y-23415795D01*
X33900929Y-27857668D02*
X32838265Y-26795004D01*
X38810607Y-43386770D02*
X38810607Y-42879322D01*
X38810607Y-42879322D02*
X39718646Y-41971283D01*
X20040666Y-57660803D02*
X19636226Y-57660803D01*
%TO.N,NIR730_GATE*%
X43582143Y-37997755D02*
X43582143Y-41673607D01*
X39628248Y-48520892D02*
X39628248Y-51754331D01*
X45147899Y-34594072D02*
X45147899Y-36431998D01*
X43582143Y-41673607D02*
X43582143Y-43525227D01*
X41196736Y-45910633D02*
X41196736Y-46952404D01*
X45147899Y-36431998D02*
X43582143Y-37997755D01*
X41196736Y-46952404D02*
X39628248Y-48520892D01*
X43582143Y-43525227D02*
X41196736Y-45910633D01*
%TO.N,SPI_MISO*%
X45501298Y-42903013D02*
X43402188Y-45002123D01*
X43288528Y-23657460D02*
X43288528Y-26612725D01*
X43402188Y-45189660D02*
X43402188Y-45002123D01*
X41537972Y-47053877D02*
X43402188Y-45189660D01*
X45501298Y-28825495D02*
X45501298Y-42903013D01*
X44913302Y-17435097D02*
X44913302Y-20544448D01*
X44026250Y-22919738D02*
X43288528Y-23657460D01*
X43288528Y-26612725D02*
X45501298Y-28825495D01*
X44913302Y-20544448D02*
X44026250Y-21431500D01*
X44026250Y-21431500D02*
X44026250Y-22919738D01*
%TO.N,VBUS*%
D44*
X13824669Y-21630104D02*
X14249184Y-21205589D01*
X16033321Y-21205589D02*
X16183409Y-21355677D01*
X12574713Y-26824609D02*
X7810129Y-31589192D01*
X24359197Y4902121D02*
X25353402Y5896325D01*
X7810129Y-31589192D02*
X7810129Y-33191062D01*
X7353882Y-33647309D02*
X6965034Y-33647309D01*
X17604796Y-21355677D02*
X18808308Y-20152165D01*
X7810129Y-33191062D02*
X7353882Y-33647309D01*
X16183409Y-21355677D02*
X17604796Y-21355677D01*
X13336341Y-21141776D02*
X13336341Y-21101172D01*
X14249184Y-21205589D02*
X16033321Y-21205589D01*
X12574713Y-22880060D02*
X12574713Y-26824609D01*
X13824669Y-21630104D02*
X12574713Y-22880060D01*
X13824669Y-21630104D02*
X13336341Y-21141776D01*
X25353402Y5896325D02*
X27500982Y5896325D01*
X6965034Y-33647309D02*
X6774091Y-33838252D01*
%TO.N,CHG_ISET*%
D38*
X25694662Y-14645395D02*
X25694662Y-16612562D01*
X26174789Y-14165268D02*
X25694662Y-14645395D01*
%TO.N,CHG_STAT*%
X30958766Y-22738927D02*
X30958766Y-22147376D01*
X25554286Y-29754696D02*
X27143834Y-29754696D01*
X27555062Y-26142631D02*
X30958766Y-22738927D01*
X30958766Y-22147376D02*
X30760171Y-21948782D01*
X25035621Y-30273361D02*
X25554286Y-29754696D01*
X27555062Y-29343469D02*
X27555062Y-26142631D01*
X27143834Y-29754696D02*
X27555062Y-29343469D01*
%TO.N,CHG_PG*%
X31171595Y-25742595D02*
X31904733Y-26475733D01*
X30508554Y-21397968D02*
X30798383Y-21397968D01*
X31171595Y-21918441D02*
X31171595Y-25742595D01*
X30798383Y-21397968D02*
X31104244Y-21703830D01*
X31104244Y-21703830D02*
X31104244Y-21851090D01*
X31104244Y-21851090D02*
X31171595Y-21918441D01*
%TO.N,CHG_VSET*%
X29101056Y-9524828D02*
X30474954Y-9524828D01*
X40041777Y5311053D02*
X39716343Y5636487D01*
X40016106Y-1615762D02*
X40390503Y-1241364D01*
X40390503Y-978880D02*
X40041777Y-630154D01*
X39422821Y-1615762D02*
X40016106Y-1615762D01*
X36691114Y-4954016D02*
X36691114Y-4347469D01*
X30474954Y-9524828D02*
X31642182Y-8357600D01*
X31642182Y-8357600D02*
X33287531Y-8357600D01*
X36691114Y-4347469D02*
X39422821Y-1615762D01*
X40390503Y-1241364D02*
X40390503Y-978880D01*
X33287531Y-8357600D02*
X36691114Y-4954016D01*
X39716343Y5636487D02*
X39716343Y7853907D01*
X40041777Y-630154D02*
X40041777Y5311053D01*
X39716343Y7853907D02*
X40322245Y8459809D01*
%TO.N,VBAT*%
D41*
X16105853Y-3635060D02*
X15668037Y-3635060D01*
X16990375Y-4519582D02*
X16105853Y-3635060D01*
X14600000Y-4703097D02*
X14600000Y-5003100D01*
X23545983Y-4519582D02*
X16990375Y-4519582D01*
X15668037Y-3635060D02*
X14600000Y-4703097D01*
X26295775Y-7269375D02*
X23545983Y-4519582D01*
%TO.N,VBIAS0*%
D39*
X34785910Y-9980775D02*
X34285910Y-9830775D01*
X36485910Y-11430775D02*
X34785910Y-9980775D01*
%TO.N,AFE_INP*%
X28400000Y-49200000D02*
X28800000Y-49050000D01*
X28800000Y-49050000D02*
X29250000Y-48900000D01*
X28100000Y-50150000D02*
X28350000Y-49950000D01*
X28350000Y-49950000D02*
X28400000Y-49200000D01*
%TO.N,USB_DP*%
D42*
X4903585Y-14435571D02*
X4494900Y-14238434D01*
X7382157Y-13039022D02*
X7295574Y-13210284D01*
X7295574Y-13210284D02*
X7301193Y-13246039D01*
X4436066Y-14173220D02*
X4317738Y-14022139D01*
X4458179Y-14210761D02*
X4436066Y-14173220D01*
X4494900Y-14238434D02*
X4458179Y-14210761D01*
X4948100Y-14447084D02*
X4903585Y-14435571D01*
X6762024Y-14412758D02*
X6723793Y-14438303D01*
X7295438Y-13320648D02*
X7201552Y-13940731D01*
X7168365Y-14006417D02*
X6762024Y-14412758D01*
X7193910Y-13968186D02*
X7168365Y-14006417D01*
X4954784Y-14447274D02*
X4948100Y-14447084D01*
X6678696Y-14447274D02*
X4954784Y-14447274D01*
X7301294Y-13281974D02*
X7295438Y-13320648D01*
X7301193Y-13246039D02*
X7301294Y-13281974D01*
X6723793Y-14438303D02*
X6678696Y-14447274D01*
X7201552Y-13940731D02*
X7193910Y-13968186D01*
%TO.N,ESP_TX*%
D39*
X26850000Y-35650000D02*
X27950000Y-34600000D01*
X22800000Y-38500000D02*
X23700000Y-38300000D01*
X26350000Y-36850000D02*
X26850000Y-35650000D01*
X23700000Y-38300000D02*
X23900000Y-37950000D01*
X25850000Y-38000000D02*
X26100000Y-37700000D01*
X26100000Y-37700000D02*
X26350000Y-36850000D01*
X23900000Y-37950000D02*
X25850000Y-38000000D01*
%TO.N,ESP_RX*%
D38*
X16076490Y-4631772D02*
X17666900Y-6222182D01*
X17666900Y-6222182D02*
X17666900Y-8250277D01*
%TO.N,ESP_IO0*%
X2742579Y-34615627D02*
X3603379Y-34615627D01*
X-1080788Y-30792259D02*
X2742579Y-34615627D01*
X-220166Y-21395011D02*
X-1080788Y-22255633D01*
X-1080788Y-22255633D02*
X-1080788Y-30792259D01*
X-220166Y-9003961D02*
X-220166Y-21395011D01*
%TO.N,RESP_MODP*%
X43699482Y4197848D02*
X43979990Y4478355D01*
X43462150Y382139D02*
X43699482Y872796D01*
X41346311Y-1733700D02*
X43462150Y382139D01*
X41049047Y-1733700D02*
X41346311Y-1733700D01*
X43699482Y872796D02*
X43699482Y4197848D01*
%TO.N,ECG_P*%
X5319445Y-24149524D02*
X5254144Y-24214825D01*
X15750705Y-19731186D02*
X14568829Y-20913061D01*
X13712959Y-20913061D02*
X13536230Y-20736333D01*
X4100000Y-32346472D02*
X4100000Y-32460912D01*
X18023528Y-20206609D02*
X17548105Y-19731186D01*
X5254144Y-24545968D02*
X6000841Y-25292665D01*
X14568829Y-20913061D02*
X13712959Y-20913061D01*
X5254144Y-24214825D02*
X5254144Y-24545968D01*
X17548105Y-19731186D02*
X15750705Y-19731186D01*
X11760330Y-22129381D02*
X11760330Y-22517149D01*
X4100000Y-32460912D02*
X4100000Y-33075000D01*
X13536230Y-20736333D02*
X13153378Y-20736333D01*
X6000841Y-30445631D02*
X4100000Y-32346472D01*
X13153378Y-20736333D02*
X11760330Y-22129381D01*
X11760330Y-22517149D02*
X10127954Y-24149524D01*
X10127954Y-24149524D02*
X5319445Y-24149524D01*
X6000841Y-25292665D02*
X6000841Y-30445631D01*
%TO.N,EDA_CE_PAD*%
X12300000Y-60548444D02*
X12300000Y-61756127D01*
X12300000Y-62048900D02*
X12300000Y-62900000D01*
X12300000Y-61756127D02*
X12300000Y-62048900D01*
X10269159Y-58517603D02*
X12300000Y-60548444D01*
%TO.N,I2C_SCL_1V8*%
X39437662Y-33517788D02*
X39437662Y-32854546D01*
X34003549Y-23922057D02*
X36184812Y-21740795D01*
X24077751Y-59711988D02*
X21132522Y-56766758D01*
X21132522Y-56766758D02*
X21132522Y-55551022D01*
X41227378Y-41420612D02*
X41227378Y-35307504D01*
X34003549Y-27420434D02*
X34003549Y-23922057D01*
X9800000Y-52642773D02*
X9181915Y-53260858D01*
X20681500Y-55100000D02*
X20638000Y-55100000D01*
X9181915Y-53260858D02*
X9181915Y-59462816D01*
X9181915Y-59462816D02*
X8119731Y-60525000D01*
X35557679Y-20843931D02*
X35372668Y-21028942D01*
X29517122Y-58862203D02*
X29517122Y-59372559D01*
X36184812Y-21096870D02*
X35931873Y-20843931D01*
X39437662Y-32854546D02*
X34003549Y-27420434D01*
X36184812Y-21740795D02*
X36184812Y-21096870D01*
X26642870Y-62246811D02*
X23063453Y-62246811D01*
X27390175Y-59711988D02*
X24077751Y-59711988D01*
X41227378Y-35307504D02*
X39437662Y-33517788D01*
X35931873Y-20843931D02*
X35557679Y-20843931D01*
X9800000Y-52350000D02*
X9800000Y-52642773D01*
X28878541Y-58223622D02*
X29517122Y-58862203D01*
X9800000Y-51950000D02*
X9800000Y-52350000D01*
X29517122Y-59372559D02*
X26642870Y-62246811D01*
X28878541Y-58223622D02*
X27390175Y-59711988D01*
X21132522Y-55551022D02*
X20681500Y-55100000D01*
%TO.N,SWEAT_CE*%
X4003606Y-49750000D02*
X3800000Y-49750000D01*
X14983285Y-31820445D02*
X14686046Y-32117684D01*
X3936730Y-48295445D02*
X4097642Y-48456356D01*
X12456247Y-35406770D02*
X11478860Y-36384157D01*
X16194185Y-30141057D02*
X15858439Y-30141057D01*
D39*
X28135910Y-40980775D02*
X27035910Y-41030775D01*
D38*
X14686046Y-32470930D02*
X12456247Y-34700729D01*
X9598546Y-38929039D02*
X8177502Y-40350083D01*
X12456247Y-34700729D02*
X12456247Y-35406770D01*
X8177502Y-45070808D02*
X7904164Y-45344147D01*
X7904164Y-45344147D02*
X6021900Y-45344147D01*
X4097642Y-49655965D02*
X4003606Y-49750000D01*
X3800000Y-49750000D02*
X3150000Y-49750000D01*
D39*
X29185910Y-41180775D02*
X28135910Y-40980775D01*
D38*
X33326340Y-56587464D02*
X33326340Y-57537500D01*
X9895069Y-38929039D02*
X9598546Y-38929039D01*
X5733692Y-45055938D02*
X4928514Y-45055938D01*
X16652004Y-30598875D02*
X16194185Y-30141057D01*
X18443891Y-30598875D02*
X16652004Y-30598875D01*
X11478860Y-36384157D02*
X11478860Y-37345248D01*
X4097642Y-48456356D02*
X4097642Y-49655965D01*
X4928514Y-45055938D02*
X3936730Y-46047722D01*
X6021900Y-45344147D02*
X5733692Y-45055938D01*
X14686046Y-32117684D02*
X14686046Y-32470930D01*
X33326340Y-57537500D02*
X34650000Y-57537500D01*
X11478860Y-37345248D02*
X9895069Y-38929039D01*
X14983285Y-31016210D02*
X14983285Y-31820445D01*
X3936730Y-46047722D02*
X3936730Y-48295445D01*
X8177502Y-40350083D02*
X8177502Y-45070808D01*
X15858439Y-30141057D02*
X14983285Y-31016210D01*
%TO.N,SWEAT_RE*%
X4304207Y-47325295D02*
X4304207Y-50038566D01*
X34300000Y-38330639D02*
X34300000Y-38623412D01*
X25885300Y-30471573D02*
X25289324Y-31067548D01*
X34300000Y-38623412D02*
X34300000Y-39237500D01*
X18629032Y-33960447D02*
X15306995Y-33960447D01*
X18872106Y-31067548D02*
X18539853Y-31399802D01*
X27103400Y-30471573D02*
X25885300Y-30471573D01*
X25289324Y-31067548D02*
X18872106Y-31067548D01*
X32748188Y-34484502D02*
X32540074Y-34692615D01*
X32540074Y-36570713D02*
X34300000Y-38330639D01*
X18539853Y-31399802D02*
X18539853Y-31766669D01*
X31475145Y-28761863D02*
X33673959Y-30960677D01*
X32073931Y-27034623D02*
X32073931Y-28163076D01*
X31475145Y-28761863D02*
X28813111Y-28761863D01*
X4092773Y-50250000D02*
X3800000Y-50250000D01*
X33673959Y-33789213D02*
X32978671Y-34484502D01*
X18539853Y-31766669D02*
X18932770Y-32159587D01*
X28813111Y-28761863D02*
X27103400Y-30471573D01*
X33673959Y-30960677D02*
X33673959Y-33789213D01*
X32623401Y-39237500D02*
X34300000Y-39237500D01*
X32330628Y-39237500D02*
X32623401Y-39237500D01*
X18932770Y-32159587D02*
X18932770Y-33656708D01*
X3800000Y-50250000D02*
X3150000Y-50250000D01*
X24104404Y-38340228D02*
X31433357Y-38340228D01*
X32978671Y-34484502D02*
X32748188Y-34484502D01*
X4304207Y-50038566D02*
X4092773Y-50250000D01*
X15306995Y-33960447D02*
X14858637Y-34408805D01*
X31433357Y-38340228D02*
X32330628Y-39237500D01*
X32540074Y-34692615D02*
X32540074Y-36570713D01*
X18932770Y-33656708D02*
X18629032Y-33960447D01*
X32073931Y-28163076D02*
X31475145Y-28761863D01*
%TO.N,CE0*%
X32808072Y-10387462D02*
X35110732Y-12690122D01*
X22146426Y-10387462D02*
X32808072Y-10387462D01*
X35110732Y-12690122D02*
X36325900Y-12690122D01*
X20516018Y-8757054D02*
X22146426Y-10387462D01*
%TO.N,RE0*%
X24822298Y-9284277D02*
X27474656Y-9284277D01*
X24038509Y-9763459D02*
X24343115Y-9763459D01*
X37171685Y-12967301D02*
X37171685Y-12767101D01*
X23402900Y-6790668D02*
X23402900Y-9127850D01*
D39*
X35835910Y-11580775D02*
X35685910Y-11230775D01*
X37035910Y-12830775D02*
X35835910Y-11580775D01*
D38*
X28365064Y-10174685D02*
X33496796Y-10174685D01*
X34564091Y-11241981D02*
X35652059Y-11241981D01*
X33496796Y-10174685D02*
X34564091Y-11241981D01*
X24343115Y-9763459D02*
X24822298Y-9284277D01*
X27474656Y-9284277D02*
X28365064Y-10174685D01*
X23402900Y-9127850D02*
X24038509Y-9763459D01*
%TO.N,SWEAT_WE*%
D39*
X38450000Y-19350000D02*
X38400000Y-19400000D01*
X37050000Y-22400000D02*
X37000000Y-22450000D01*
X36550000Y-23500000D02*
X36500000Y-23550000D01*
X38550000Y-19100000D02*
X38500000Y-19150000D01*
X37150000Y-22200000D02*
X37100000Y-22250000D01*
D38*
X29944665Y-41356642D02*
X29944665Y-39934307D01*
D39*
X37100000Y-22250000D02*
X37100000Y-22300000D01*
X37250000Y-21950000D02*
X37200000Y-22000000D01*
D38*
X29944665Y-39934307D02*
X29312528Y-39302170D01*
D39*
X38350000Y-19500000D02*
X38350000Y-19550000D01*
X37550000Y-21250000D02*
X37550000Y-21300000D01*
D38*
X1725386Y-49822151D02*
X1725386Y-50268159D01*
D39*
X37700000Y-20900000D02*
X37700000Y-21000000D01*
D38*
X20013899Y-39495317D02*
X19858460Y-39339879D01*
D39*
X37200000Y-22100000D02*
X37150000Y-22150000D01*
D38*
X8681354Y-38074712D02*
X6136060Y-40620006D01*
D39*
X38050000Y-20200000D02*
X38000000Y-20250000D01*
D38*
X6136060Y-42444247D02*
X1805051Y-46775256D01*
D39*
X36450000Y-23750000D02*
X36400000Y-23800000D01*
X37950000Y-20450000D02*
X37900000Y-20500000D01*
X37850000Y-20600000D02*
X37850000Y-20650000D01*
X36750000Y-23050000D02*
X36700000Y-23100000D01*
X36800000Y-22900000D02*
X36800000Y-22950000D01*
X38100000Y-20100000D02*
X38050000Y-20150000D01*
X38250000Y-19750000D02*
X38200000Y-19800000D01*
X37750000Y-20800000D02*
X37750000Y-20850000D01*
X38650000Y-18900000D02*
X38600000Y-18950000D01*
X37500000Y-21350000D02*
X37500000Y-21650000D01*
X38300000Y-19650000D02*
X38250000Y-19700000D01*
D38*
X1725386Y-50268159D02*
X2207227Y-50750000D01*
D39*
X38600000Y-17700000D02*
X38650000Y-17750000D01*
D38*
X22220903Y-38865814D02*
X21591400Y-39495317D01*
D39*
X37250000Y-21900000D02*
X37250000Y-21950000D01*
D38*
X6136060Y-40620006D02*
X6136060Y-42444247D01*
D39*
X36950000Y-22650000D02*
X36900000Y-22700000D01*
X37700000Y-21000000D02*
X37650000Y-21050000D01*
X37750000Y-20850000D02*
X37700000Y-20900000D01*
X36400000Y-23850000D02*
X36350000Y-23900000D01*
X36950000Y-22550000D02*
X36950000Y-22650000D01*
X38200000Y-19800000D02*
X38200000Y-19900000D01*
X36750000Y-23000000D02*
X36750000Y-23050000D01*
X38550000Y-19050000D02*
X38550000Y-19100000D01*
X38150000Y-20000000D02*
X38100000Y-20050000D01*
D38*
X10246373Y-38074712D02*
X8681354Y-38074712D01*
D39*
X38200000Y-19900000D02*
X38150000Y-19950000D01*
D38*
X34300000Y-47130639D02*
X34300000Y-46329551D01*
D39*
X38000000Y-20250000D02*
X38000000Y-20300000D01*
X37950000Y-20350000D02*
X37950000Y-20450000D01*
X38450000Y-19250000D02*
X38450000Y-19350000D01*
X36850000Y-22800000D02*
X36850000Y-22850000D01*
X38500000Y-19150000D02*
X38500000Y-19200000D01*
X38000000Y-20300000D02*
X37950000Y-20350000D01*
X38050000Y-20150000D02*
X38050000Y-20200000D01*
X29600000Y-39450000D02*
X29550000Y-39500000D01*
X37600000Y-21150000D02*
X37600000Y-21200000D01*
X36400000Y-23800000D02*
X36400000Y-23850000D01*
D38*
X34300000Y-46329551D02*
X34217279Y-46246830D01*
X1805051Y-49742485D02*
X1725386Y-49822151D01*
D39*
X38250000Y-19700000D02*
X38250000Y-19750000D01*
X37000000Y-22500000D02*
X36950000Y-22550000D01*
X37850000Y-20650000D02*
X37800000Y-20700000D01*
X38150000Y-19950000D02*
X38150000Y-20000000D01*
X38400000Y-19400000D02*
X38400000Y-19450000D01*
X38350000Y-19550000D02*
X38300000Y-19600000D01*
X36650000Y-23250000D02*
X36650000Y-23300000D01*
D38*
X29312528Y-39302170D02*
X27754937Y-39302170D01*
D39*
X39235910Y-17630775D02*
X38635910Y-17630775D01*
X37150000Y-22150000D02*
X37150000Y-22200000D01*
D38*
X2500000Y-50750000D02*
X3150000Y-50750000D01*
D39*
X37500000Y-21650000D02*
X37250000Y-21900000D01*
D38*
X34300000Y-47423412D02*
X34300000Y-47130639D01*
D39*
X37200000Y-22000000D02*
X37200000Y-22100000D01*
X36450000Y-23650000D02*
X36450000Y-23750000D01*
X29650000Y-39450000D02*
X29600000Y-39450000D01*
D38*
X2207227Y-50750000D02*
X2500000Y-50750000D01*
D39*
X38600000Y-19000000D02*
X38550000Y-19050000D01*
X36350000Y-23950000D02*
X35800000Y-24500000D01*
D38*
X27754937Y-39302170D02*
X27318580Y-38865814D01*
D39*
X36900000Y-22700000D02*
X36900000Y-22750000D01*
X37800000Y-20750000D02*
X37750000Y-20800000D01*
D38*
X1805051Y-46775256D02*
X1805051Y-49742485D01*
D39*
X37100000Y-22300000D02*
X37050000Y-22350000D01*
X36350000Y-23900000D02*
X36350000Y-23950000D01*
X38600000Y-17650000D02*
X38600000Y-17700000D01*
X36700000Y-23100000D02*
X36700000Y-23200000D01*
X38500000Y-19200000D02*
X38450000Y-19250000D01*
X36500000Y-23550000D02*
X36500000Y-23600000D01*
X38600000Y-18950000D02*
X38600000Y-19000000D01*
X35750000Y-32400000D02*
X35750000Y-33350000D01*
X37050000Y-22350000D02*
X37050000Y-22400000D01*
X38100000Y-20050000D02*
X38100000Y-20100000D01*
X36600000Y-23400000D02*
X36550000Y-23450000D01*
X35800000Y-24500000D02*
X35800000Y-28500000D01*
X37550000Y-21300000D02*
X37500000Y-21350000D01*
X37800000Y-20700000D02*
X37800000Y-20750000D01*
X36800000Y-22950000D02*
X36750000Y-23000000D01*
X36550000Y-23450000D02*
X36550000Y-23500000D01*
X36600000Y-23350000D02*
X36600000Y-23400000D01*
X38300000Y-19600000D02*
X38300000Y-19650000D01*
D38*
X34300000Y-48037500D02*
X34300000Y-47423412D01*
D39*
X36650000Y-23300000D02*
X36600000Y-23350000D01*
X37900000Y-20500000D02*
X37900000Y-20550000D01*
X36850000Y-22850000D02*
X36800000Y-22900000D01*
X36900000Y-22750000D02*
X36850000Y-22800000D01*
X36700000Y-23200000D02*
X36650000Y-23250000D01*
D38*
X21591400Y-39495317D02*
X20013899Y-39495317D01*
D39*
X35800000Y-28500000D02*
X36750000Y-29450000D01*
X36500000Y-23600000D02*
X36450000Y-23650000D01*
X38400000Y-19450000D02*
X38350000Y-19500000D01*
X37000000Y-22450000D02*
X37000000Y-22500000D01*
D38*
X19858460Y-39339879D02*
X16602484Y-39339879D01*
X27318580Y-38865814D02*
X22220903Y-38865814D01*
D39*
X37900000Y-20550000D02*
X37850000Y-20600000D01*
X37600000Y-21200000D02*
X37550000Y-21250000D01*
X38650000Y-17750000D02*
X38650000Y-18900000D01*
X37650000Y-21050000D02*
X37650000Y-21100000D01*
X37650000Y-21100000D02*
X37600000Y-21150000D01*
%TO.N,SPI_MOSI*%
D38*
X38604572Y-1561447D02*
X38604572Y-111918D01*
X32516759Y-8064430D02*
X33077758Y-8064430D01*
X25496516Y-8099436D02*
X24213768Y-9382184D01*
X24922487Y-3652025D02*
X20152655Y-3652025D01*
X33077758Y-8064430D02*
X34479110Y-6663078D01*
X34479110Y-6663078D02*
X34479110Y-5686910D01*
X28402496Y-1788310D02*
X26786203Y-1788310D01*
X34479110Y-5686910D02*
X38604572Y-1561447D01*
X20152655Y-3652025D02*
X19569841Y-3069212D01*
X27420773Y-8099436D02*
X25496516Y-8099436D01*
X26786203Y-1788310D02*
X24922487Y-3652025D01*
X19569841Y-3069212D02*
X13427463Y-3069212D01*
X29986269Y-3372082D02*
X28402496Y-1788310D01*
X29986269Y-5533939D02*
X32516759Y-8064430D01*
X29986269Y-5533939D02*
X29986269Y-3372082D01*
X29986269Y-5533939D02*
X27420773Y-8099436D01*
%TO.N,MISO_AD*%
X43223659Y-11147343D02*
X43082096Y-11005780D01*
D39*
X35935910Y-9530775D02*
X39235910Y-9530775D01*
D38*
X34465142Y-10446892D02*
X34606705Y-10305329D01*
%TO.N,SPI_SCK*%
X6378663Y-6799833D02*
X6378663Y-4584549D01*
X6880559Y-7301729D02*
X6378663Y-6799833D01*
X6658166Y-4305047D02*
X7380426Y-4305047D01*
D39*
X27235910Y-51880775D02*
X27435910Y-52130775D01*
X27435910Y-52130775D02*
X28685910Y-53030775D01*
D38*
X6378663Y-4584549D02*
X6658166Y-4305047D01*
X7380426Y-4305047D02*
X9063486Y-2621987D01*
X22338939Y-1754357D02*
X24525316Y432020D01*
X12674788Y-2621987D02*
X13542418Y-1754357D01*
X24525316Y432020D02*
X28945970Y432020D01*
X13542418Y-1754357D02*
X22338939Y-1754357D01*
X9063486Y-2621987D02*
X12674788Y-2621987D01*
D39*
X28685910Y-53030775D02*
X29335910Y-53380775D01*
%TO.N,IOVDD*%
D38*
X40678366Y-8057463D02*
X42983216Y-5752614D01*
X42983216Y-5752614D02*
X42983216Y-1747683D01*
X43768900Y459835D02*
X44554583Y1245519D01*
X45038025Y8242074D02*
X44510537Y8769562D01*
X44554583Y2667354D02*
X45038025Y3150795D01*
X42983216Y-1747683D02*
X43768900Y-962000D01*
X45038025Y3150795D02*
X45038025Y8242074D01*
X43768900Y-962000D02*
X43768900Y459835D01*
X44554583Y1245519D02*
X44554583Y2667354D01*
%TO.N,AFE4900_RESETZ*%
X15288248Y-61084526D02*
X14281903Y-62090872D01*
X14281903Y-62090872D02*
X14281903Y-62140344D01*
X20331619Y-59899708D02*
X18945899Y-58513988D01*
X15715204Y-61084526D02*
X15288248Y-61084526D01*
X16466264Y-44083122D02*
X16466264Y-45250674D01*
X18550983Y-57511436D02*
X18233227Y-57511436D01*
X16974805Y-43574580D02*
X16466264Y-44083122D01*
X17888080Y-57166290D02*
X18233227Y-57511436D01*
X16466264Y-45250674D02*
X15487698Y-46229240D01*
D39*
X29200000Y-51300000D02*
X30300000Y-51600000D01*
D38*
X17611655Y-59188075D02*
X15715204Y-61084526D01*
X16420955Y-52816287D02*
X17888080Y-54283412D01*
D39*
X30300000Y-51600000D02*
X30600000Y-51900000D01*
D38*
X18233227Y-57511436D02*
X17611655Y-58133008D01*
X21630205Y-59899708D02*
X20331619Y-59899708D01*
X15487698Y-49003165D02*
X14841800Y-49649062D01*
X15487698Y-46229240D02*
X15487698Y-49003165D01*
X16093077Y-52816287D02*
X16420955Y-52816287D01*
X18945899Y-57906353D02*
X18550983Y-57511436D01*
X18945899Y-58513988D02*
X18945899Y-57906353D01*
X14841800Y-51565010D02*
X16093077Y-52816287D01*
X14841800Y-49649062D02*
X14841800Y-51565010D01*
D39*
X28100000Y-51350000D02*
X29200000Y-51300000D01*
D38*
X17611655Y-58133008D02*
X17611655Y-59188075D01*
X17888080Y-54283412D02*
X17888080Y-57166290D01*
%TO.N,VDD_CP2102*%
D40*
X19439331Y-13408481D02*
X26251578Y-13408481D01*
X12107805Y-12230825D02*
X13082315Y-12230825D01*
X9211507Y-15127123D02*
X12107805Y-12230825D01*
X18261674Y-12230825D02*
X19439331Y-13408481D01*
X9211507Y-15240624D02*
X9211507Y-15127123D01*
X13082315Y-12230825D02*
X18261674Y-12230825D01*
%TO.N,CP_RX*%
D39*
X11400000Y-12450000D02*
X11400000Y-11600000D01*
X13450000Y-9550000D02*
X13450000Y-9350000D01*
X11400000Y-11600000D02*
X13450000Y-9550000D01*
%TO.N,CP_TX*%
X17500000Y-8600000D02*
X17550000Y-8650000D01*
X14950000Y-8250000D02*
X17100000Y-8250000D01*
X17100000Y-8250000D02*
X17450000Y-8600000D01*
X18100000Y-8700000D02*
X18150000Y-8700000D01*
X18250000Y-8750000D02*
X18300000Y-8800000D01*
X18050000Y-8650000D02*
X18100000Y-8700000D01*
X18300000Y-8800000D02*
X18600000Y-8800000D01*
X18200000Y-8750000D02*
X18250000Y-8750000D01*
X17550000Y-8650000D02*
X18050000Y-8650000D01*
X17450000Y-8600000D02*
X17500000Y-8600000D01*
X18150000Y-8700000D02*
X18200000Y-8750000D01*
%TO.N,CP_DTR*%
D38*
X-448152Y-23463899D02*
X2219587Y-23463899D01*
X8537211Y-14388899D02*
X1260661Y-21665449D01*
X-620850Y-23291201D02*
X-448152Y-23463899D01*
X6606255Y-12888648D02*
X6906808Y-12588095D01*
X1260661Y-21665449D02*
X1260661Y-22406729D01*
X-620850Y-22937714D02*
X-620850Y-23291201D01*
X7519705Y-12588095D02*
X8537211Y-13605601D01*
X10898417Y-21059583D02*
X12473178Y-19484822D01*
X5537658Y-12888648D02*
X6606255Y-12888648D01*
X2219587Y-23463899D02*
X4623902Y-21059583D01*
X8537211Y-13605601D02*
X8537211Y-14388899D01*
X-317462Y-22634327D02*
X-620850Y-22937714D01*
X1260661Y-22406729D02*
X1033062Y-22634327D01*
X6906808Y-12588095D02*
X7519705Y-12588095D01*
X4623902Y-21059583D02*
X10898417Y-21059583D01*
X1033062Y-22634327D02*
X-317462Y-22634327D01*
X18655701Y-19484822D02*
X18777491Y-19606612D01*
X12473178Y-19484822D02*
X18655701Y-19484822D01*
%TO.N,TX_5V*%
D40*
X13265463Y-56465463D02*
X13953383Y-56465463D01*
D39*
X24200000Y-54400000D02*
X23400000Y-55450000D01*
D40*
X14000000Y-57250000D02*
X14000000Y-57750574D01*
X11600000Y-54750000D02*
X11600000Y-54800000D01*
X15200000Y-57250000D02*
X14749426Y-57250000D01*
X15200000Y-56446800D02*
X15200000Y-56749426D01*
D39*
X26350000Y-51900000D02*
X25450000Y-52800000D01*
D40*
X16400000Y-54750000D02*
X16400000Y-55250574D01*
X13953383Y-56465463D02*
X14000000Y-56512080D01*
X15858124Y-55620773D02*
X15200000Y-56278897D01*
X12264562Y-55464563D02*
X13265463Y-56465463D01*
D39*
X25050000Y-53600000D02*
X24200000Y-54400000D01*
D40*
X16293259Y-55620773D02*
X15858124Y-55620773D01*
D39*
X25450000Y-52800000D02*
X25050000Y-53600000D01*
D40*
X15200000Y-56749426D02*
X15200000Y-57250000D01*
X14000000Y-56749426D02*
X14000000Y-57250000D01*
X15200000Y-56278897D02*
X15200000Y-56446800D01*
X16400000Y-55514032D02*
X16293259Y-55620773D01*
X14000000Y-57750574D02*
X14000000Y-58053200D01*
X14000000Y-58053200D02*
X14000000Y-58071400D01*
X14000000Y-56512080D02*
X14000000Y-56749426D01*
X11600000Y-54800000D02*
X12264562Y-55464563D01*
X14446801Y-57250000D02*
X14000000Y-57250000D01*
X16400000Y-55250574D02*
X16400000Y-55514032D01*
D39*
X27000000Y-47000000D02*
X27500000Y-47250000D01*
D40*
X14749426Y-57250000D02*
X14446801Y-57250000D01*
%TO.N,STATUS_LED*%
D38*
X7417656Y-16539724D02*
X7417656Y-16264332D01*
X10426099Y-13255890D02*
X10426099Y-7569821D01*
X856969Y-23100411D02*
X7417656Y-16539724D01*
X7417656Y-16264332D02*
X10426099Y-13255890D01*
X-205472Y-23100411D02*
X856969Y-23100411D01*
%TO.N,IN1N*%
X41708234Y-19029798D02*
X41708234Y-21161312D01*
X39139701Y-23729845D02*
X39139701Y-27147445D01*
X43266422Y-17471610D02*
X41708234Y-19029798D01*
X41708234Y-21161312D02*
X39139701Y-23729845D01*
%TO.N,PGA2P*%
X38755513Y7183857D02*
X37214145Y8725224D01*
X38755513Y4496765D02*
X38755513Y7183857D01*
%TO.N,ADS1292_PWDN*%
X29949906Y-1442513D02*
X32231457Y-3724063D01*
X32231457Y-3724063D02*
X32231457Y-5637961D01*
%TO.N,ADS1292_DRDY*%
X134707Y-21768772D02*
X833435Y-21768772D01*
X1297370Y-48702483D02*
X1297370Y-36121442D01*
X1297370Y-36121442D02*
X2426252Y-34992560D01*
X7377572Y996043D02*
X7282424Y900895D01*
X21623894Y1000602D02*
X22999299Y2376007D01*
X7282424Y-202865D02*
X8890008Y-202865D01*
X7282424Y900895D02*
X7282424Y-202865D01*
X894541Y-21829878D02*
X894541Y-22271713D01*
X3810583Y-34992560D02*
X3979772Y-34823371D01*
X3979772Y-34823371D02*
X3979772Y-34463538D01*
X833435Y-21768772D02*
X894541Y-21829878D01*
X32535482Y-495326D02*
X38179663Y-495326D01*
X3979772Y-34463538D02*
X3738529Y-34222295D01*
X7282424Y-202865D02*
X2344615Y-5140674D01*
X24737801Y1658174D02*
X30381982Y1658174D01*
X24019967Y2376007D02*
X24737801Y1658174D01*
X8890008Y-202865D02*
X10093475Y1000602D01*
X22999299Y2376007D02*
X24019967Y2376007D01*
X2344615Y-20257593D02*
X833435Y-21768772D01*
X117103Y-52732605D02*
X117103Y-49882750D01*
X3738529Y-34222295D02*
X2722638Y-34222295D01*
X10093475Y1000602D02*
X21623894Y1000602D01*
X2344615Y-5140674D02*
X2344615Y-20257593D01*
X117103Y-49882750D02*
X1297370Y-48702483D01*
X2426252Y-34992560D02*
X3810583Y-34992560D01*
X-829839Y-22733318D02*
X134707Y-21768772D01*
X2722638Y-34222295D02*
X-829839Y-30669819D01*
X30381982Y1658174D02*
X32535482Y-495326D01*
X-829839Y-30669819D02*
X-829839Y-22733318D01*
%TO.N,ADS_GPIO1*%
X43328470Y932794D02*
X42831794Y932794D01*
X40008696Y-2002343D02*
X39584215Y-2002343D01*
X41538765Y-360235D02*
X41538765Y-472273D01*
X42831794Y932794D02*
X41538765Y-360235D01*
X41538765Y-472273D02*
X40008696Y-2002343D01*
%TO.N,FP_SURGE*%
X4100000Y-36451588D02*
X4100000Y-35837500D01*
X4100000Y-36744361D02*
X4100000Y-36451588D01*
X5935671Y-38580032D02*
X4100000Y-36744361D01*
X5935671Y-38676912D02*
X5935671Y-38580032D01*
%TO.N,FP_ISO*%
X14101445Y-30591349D02*
X14101445Y-31152428D01*
X14987183Y-29705610D02*
X14101445Y-30591349D01*
X14101445Y-31152428D02*
X12595404Y-32658469D01*
X17438953Y-24130644D02*
X14987183Y-26582413D01*
X12595404Y-32658469D02*
X9463846Y-32658469D01*
X9463846Y-32658469D02*
X7528329Y-34593985D01*
X14987183Y-26582413D02*
X14987183Y-29705610D01*
%TO.N,Q3_B1*%
X18606949Y-14631234D02*
X21531914Y-17556199D01*
X10268512Y-14631234D02*
X18606949Y-14631234D01*
%TO.N,AFE_P_AC*%
X25291991Y-33075000D02*
X25641374Y-32725617D01*
X37282780Y-19443677D02*
X37282780Y-21507130D01*
X27577763Y-32725617D02*
X28043439Y-32259941D01*
X31512476Y-32259941D02*
X31750037Y-32022380D01*
X25641374Y-32725617D02*
X27577763Y-32725617D01*
X34418415Y-24371495D02*
X34418415Y-26434949D01*
X37282780Y-21507130D02*
X34418415Y-24371495D01*
X28043439Y-32259941D02*
X31512476Y-32259941D01*
X25126599Y-33075000D02*
X25291991Y-33075000D01*
X38237569Y-18488889D02*
X37282780Y-19443677D01*
X23450000Y-33075000D02*
X25126599Y-33075000D01*
X32438518Y-32396833D02*
X32477280Y-32396833D01*
X31750037Y-32022380D02*
X32064065Y-32022380D01*
X32064065Y-32022380D02*
X32438518Y-32396833D01*
%TO.N,AFE4900_ADC_RDY*%
D39*
X26850000Y-51900000D02*
X26950000Y-54050000D01*
X26950000Y-54050000D02*
X28800000Y-55100000D01*
X28800000Y-55100000D02*
X29850000Y-55100000D01*
%TO.N,IR_K*%
D38*
X5448478Y-45882224D02*
X5118053Y-45551800D01*
X13515000Y-48775000D02*
X13012042Y-48272042D01*
X4502557Y-45801931D02*
X4502557Y-46936189D01*
X13515000Y-48800000D02*
X13515000Y-48775000D01*
X5118053Y-45551800D02*
X4752688Y-45551800D01*
X4679164Y-50145480D02*
X4222622Y-50602022D01*
X7989095Y-45882224D02*
X5448478Y-45882224D01*
X12570512Y-47830512D02*
X12570512Y-47488098D01*
X8136513Y-46029642D02*
X7989095Y-45882224D01*
X4752688Y-45551800D02*
X4502557Y-45801931D01*
X4502557Y-46936189D02*
X4679164Y-47112796D01*
X13012042Y-48272042D02*
X12570512Y-47830512D01*
X4679164Y-47112796D02*
X4679164Y-50145480D01*
%TO.N,RLD_CLAMP*%
X17000000Y-32257306D02*
X16126839Y-32257306D01*
X26012488Y-24438905D02*
X25631284Y-24820109D01*
X25631284Y-27958929D02*
X23329759Y-30260454D01*
X17000000Y-32460912D02*
X17000000Y-32257306D01*
X17000000Y-33075000D02*
X17000000Y-32460912D01*
X29194281Y-23628389D02*
X28383765Y-24438905D01*
X28383765Y-24438905D02*
X26012488Y-24438905D01*
X18225618Y-31031688D02*
X17000000Y-32257306D01*
X23329759Y-30260454D02*
X19374718Y-30260454D01*
X19374718Y-30260454D02*
X18603484Y-31031688D01*
X15931381Y-32061848D02*
X15931381Y-31108396D01*
X16126839Y-32257306D02*
X15931381Y-32061848D01*
X25631284Y-24820109D02*
X25631284Y-27958929D01*
X18603484Y-31031688D02*
X18225618Y-31031688D01*
%TO.N,TMP117_ALERT*%
D39*
X2250000Y-43600000D02*
X2250000Y-41200000D01*
X2250000Y-41200000D02*
X4200000Y-39900000D01*
X4200000Y-39900000D02*
X5200000Y-39900000D01*
X19150000Y-49600000D02*
X19150000Y-49250000D01*
%TO.N,USB_DP_S3*%
D42*
X4579098Y-8072942D02*
X4748534Y-8163045D01*
X5658004Y-9438406D02*
X5877293Y-9769996D01*
X6304513Y-12190352D02*
X6331629Y-12228066D01*
X4789362Y-8178256D02*
X4823026Y-8209576D01*
X4748534Y-8163045D02*
X4789362Y-8178256D01*
X5896844Y-11474092D02*
X5939406Y-11682534D01*
X5438714Y-9106817D02*
X5658004Y-9438406D01*
X5091290Y-8581474D02*
X5172754Y-8704656D01*
X5088555Y-8577517D02*
X5091290Y-8581474D01*
X6349803Y-12266455D02*
X6366352Y-12328430D01*
X5877293Y-9769996D02*
X5887873Y-9789903D01*
X5896844Y-9835000D02*
X5896844Y-11474092D01*
X4823026Y-8209576D02*
X5088555Y-8577517D01*
X6331629Y-12228066D02*
X6349803Y-12266455D01*
X5887873Y-9789903D02*
X5896844Y-9835000D01*
X6366352Y-12328430D02*
X6507449Y-12458502D01*
X5939406Y-11682534D02*
X5947746Y-11694133D01*
X5172754Y-8704656D02*
X5438714Y-9106817D01*
X5947746Y-11694133D02*
X6304513Y-12190352D01*
%TO.N,SPARE_IN*%
D38*
X18093616Y792646D02*
X29136777Y792646D01*
X38684673Y-13692314D02*
X36919646Y-13692314D01*
X17895031Y594061D02*
X18093616Y792646D01*
X36791780Y-13820180D02*
X33748186Y-13820180D01*
X43677285Y-17300666D02*
X43458127Y-17081507D01*
X40493252Y-15500892D02*
X38684673Y-13692314D01*
X42817832Y-17081507D02*
X41237216Y-15500892D01*
X42580746Y-20109576D02*
X43677285Y-19013037D01*
X33748186Y-13820180D02*
X33209713Y-13281707D01*
X41237216Y-15500892D02*
X40493252Y-15500892D01*
X36919646Y-13692314D02*
X36791780Y-13820180D01*
X32923872Y-2994449D02*
X32923872Y-7676997D01*
X43677285Y-19013037D02*
X43677285Y-17300666D01*
X29136777Y792646D02*
X32923872Y-2994449D01*
X43458127Y-17081507D02*
X42817832Y-17081507D01*
%TO.N,J13_INP*%
X30700000Y-58693904D02*
X30700000Y-61756127D01*
X38333404Y-49253216D02*
X37258202Y-50328418D01*
X30700000Y-62048900D02*
X30700000Y-62900000D01*
X33204592Y-56189312D02*
X30700000Y-58693904D01*
X37258202Y-53594798D02*
X34663688Y-56189312D01*
X34663688Y-56189312D02*
X33204592Y-56189312D01*
X37258202Y-50328418D02*
X37258202Y-53594798D01*
X30700000Y-61756127D02*
X30700000Y-62048900D01*
%TO.N,RTC_VBK*%
X23726168Y-23900567D02*
X25977071Y-23900567D01*
X20815352Y-29608056D02*
X21359548Y-29063860D01*
X27575066Y-22302572D02*
X29264842Y-22302572D01*
X25977071Y-23900567D02*
X27575066Y-22302572D01*
X17292252Y-29608056D02*
X20815352Y-29608056D01*
X21359548Y-26267187D02*
X23726168Y-23900567D01*
X21359548Y-29063860D02*
X21359548Y-26267187D01*
X17014270Y-29886038D02*
X17292252Y-29608056D01*
X29264842Y-22302572D02*
X29531175Y-22036240D01*
%TO.N,FN_SURGE*%
X10550000Y-34637500D02*
X8873401Y-34637500D01*
X6860935Y-34379216D02*
X7172707Y-34067444D01*
X7448681Y-33883907D02*
X7541118Y-33883907D01*
X18199152Y-18500230D02*
X16605837Y-18500230D01*
X7303473Y-35227778D02*
X6860935Y-34785240D01*
X19161569Y-19462647D02*
X18199152Y-18500230D01*
X14719738Y-29290307D02*
X14719738Y-24081340D01*
X8337001Y-31555897D02*
X10330388Y-29562510D01*
X7265144Y-34067444D02*
X7448681Y-33883907D01*
X8337001Y-33088025D02*
X8337001Y-31555897D01*
X8873401Y-34637500D02*
X8580628Y-34637500D01*
X19161569Y-20309910D02*
X19161569Y-19462647D01*
X6860935Y-34785240D02*
X6860935Y-34379216D01*
X7172707Y-34067444D02*
X7265144Y-34067444D01*
X15858857Y-22942222D02*
X16529257Y-22942222D01*
X8580628Y-34637500D02*
X7990350Y-35227778D01*
X16529257Y-22942222D02*
X19161569Y-20309910D01*
X14447536Y-29562510D02*
X14719738Y-29290307D01*
X7541118Y-33883907D02*
X8337001Y-33088025D01*
X7990350Y-35227778D02*
X7303473Y-35227778D01*
X10330388Y-29562510D02*
X14447536Y-29562510D01*
X14719738Y-24081340D02*
X15858857Y-22942222D01*
%TO.N,FN_ISO*%
X19262832Y-17554290D02*
X19262832Y-16995546D01*
X30351752Y-19227412D02*
X30351752Y-20650288D01*
X28276650Y-18741508D02*
X28484314Y-18533844D01*
X20803712Y-21333727D02*
X20803712Y-19095171D01*
X20803712Y-19095171D02*
X21157376Y-18741508D01*
X29658184Y-18533844D02*
X30351752Y-19227412D01*
X19048388Y-23089051D02*
X20803712Y-21333727D01*
X21157376Y-18741508D02*
X28276650Y-18741508D01*
X28484314Y-18533844D02*
X29658184Y-18533844D01*
X20803712Y-19095171D02*
X19262832Y-17554290D01*
%TO.N,AFE_P_SER*%
X39250837Y-48520288D02*
X40275000Y-47496125D01*
X34870657Y-28690487D02*
X34319800Y-28690487D01*
X40275000Y-40404798D02*
X38123335Y-38253134D01*
X38123335Y-38253134D02*
X38123335Y-31943166D01*
X38123335Y-31943166D02*
X34870657Y-28690487D01*
X40275000Y-47496125D02*
X40275000Y-40404798D01*
X39250837Y-59145775D02*
X39250837Y-48520288D01*
X42696010Y-62590948D02*
X39250837Y-59145775D01*
%TO.N,MX_ECG_INM*%
X16553679Y-47660374D02*
X16553679Y-49327886D01*
X19876400Y-58320266D02*
X20846012Y-59289877D01*
X19047820Y-41747101D02*
X19047820Y-42289595D01*
X15895846Y-49985719D02*
X15895846Y-52246456D01*
X19047820Y-42289595D02*
X18341275Y-42996139D01*
X19442876Y-58000857D02*
X19876400Y-58320266D01*
X16028102Y-47134798D02*
X16553679Y-47660374D01*
X16553679Y-49327886D02*
X15895846Y-49985719D01*
X16221605Y-52572216D02*
X16515217Y-52572216D01*
X23844415Y-59917584D02*
X28405134Y-59917584D01*
X16028102Y-46294530D02*
X16028102Y-47134798D01*
X16515217Y-52572216D02*
X18140542Y-54197540D01*
X28405134Y-59917584D02*
X29125039Y-59197679D01*
X23216709Y-59289877D02*
X23844415Y-59917584D01*
X18341275Y-44258665D02*
X17190566Y-45409374D01*
X18140542Y-56698522D02*
X19442876Y-58000857D01*
X18140542Y-54197540D02*
X18140542Y-56698522D01*
X16913258Y-45409374D02*
X16028102Y-46294530D01*
X17190566Y-45409374D02*
X16913258Y-45409374D01*
X15895846Y-52246456D02*
X16221605Y-52572216D01*
X18341275Y-42996139D02*
X18341275Y-44258665D01*
X20846012Y-59289877D02*
X23216709Y-59289877D01*
%TO.N,SN_SURGE*%
X23450000Y-35837500D02*
X22716491Y-35837500D01*
X22716491Y-35837500D02*
X22716491Y-34650177D01*
%TO.N,NIR_AN*%
X16385000Y-50479063D02*
X16385000Y-50800000D01*
X19722423Y-41837959D02*
X19722423Y-43997401D01*
X19071399Y-44648425D02*
X18296512Y-44648425D01*
X16385000Y-50186290D02*
X16385000Y-50479063D01*
X16783475Y-49787815D02*
X16385000Y-50186290D01*
X16783475Y-46006484D02*
X16783475Y-49787815D01*
X19722423Y-43997401D02*
X19071399Y-44648425D01*
X17379348Y-45565589D02*
X16918649Y-45871311D01*
X18296512Y-44648425D02*
X17379348Y-45565589D01*
X15626540Y-39082017D02*
X16379224Y-39834701D01*
X16918649Y-45871311D02*
X16783475Y-46006484D01*
X16379224Y-39834701D02*
X17719166Y-39834701D01*
X17719166Y-39834701D02*
X19722423Y-41837959D01*
%TO.N,TX5_EN*%
X25108314Y-39905663D02*
X19414455Y-39905663D01*
X19414455Y-39905663D02*
X19278868Y-39770075D01*
X25545493Y-39468484D02*
X25108314Y-39905663D01*
X29336834Y-39850380D02*
X27726028Y-39850380D01*
X27726028Y-39850380D02*
X27344132Y-39468484D01*
X27344132Y-39468484D02*
X25545493Y-39468484D01*
%TO.N,NIR_K*%
D39*
X28300000Y-58200000D02*
X26250000Y-56100000D01*
D38*
X15709838Y-49396683D02*
X15659247Y-49447274D01*
X15709838Y-48333472D02*
X15709838Y-49396683D01*
X15415000Y-50479063D02*
X15415000Y-50800000D01*
X15415000Y-50199028D02*
X15415000Y-50479063D01*
X15659247Y-49447274D02*
X15659247Y-49954781D01*
X15659247Y-49954781D02*
X15415000Y-50199028D01*
X16118086Y-47925224D02*
X15709838Y-48333472D01*
D39*
X26250000Y-56100000D02*
X26250000Y-55850000D01*
%TO.N,CE_ISO*%
D38*
X5190315Y-23332145D02*
X790394Y-27732066D01*
X10441545Y-23332145D02*
X5190315Y-23332145D01*
%TO.N,SP_SURGE*%
X25991678Y-31217281D02*
X27633482Y-31217281D01*
X17000000Y-34930639D02*
X17282659Y-34647980D01*
X27633482Y-31217281D02*
X28707873Y-30142890D01*
X17282659Y-34647980D02*
X18516171Y-34647980D01*
X18516171Y-34647980D02*
X18774039Y-34905848D01*
X17000000Y-35837500D02*
X17000000Y-35223412D01*
X28707873Y-30142890D02*
X30349677Y-30142890D01*
X21338631Y-32291673D02*
X24917287Y-32291673D01*
X24917287Y-32291673D02*
X25991678Y-31217281D01*
X20082645Y-33906017D02*
X20082645Y-33547659D01*
X19082813Y-34905848D02*
X20082645Y-33906017D01*
X18774039Y-34905848D02*
X19082813Y-34905848D01*
X17000000Y-35223412D02*
X17000000Y-34930639D01*
X20082645Y-33547659D02*
X21338631Y-32291673D01*
%TO.N,MX_VREF*%
D39*
X25200000Y-47300000D02*
X25000000Y-47000000D01*
X25000000Y-47000000D02*
X25000000Y-46650000D01*
%TO.N,BIOZ_FP_PAD*%
D38*
X4100000Y-42376588D02*
X4100000Y-41762500D01*
X1582730Y-49490131D02*
X1582730Y-45186631D01*
X1582730Y-45186631D02*
X4100000Y-42669361D01*
X1703944Y-60726386D02*
X1703944Y-55685228D01*
X4784682Y-63807125D02*
X1703944Y-60726386D01*
X677031Y-54658315D02*
X677031Y-50395830D01*
X4100000Y-42669361D02*
X4100000Y-42376588D01*
X1703944Y-55685228D02*
X677031Y-54658315D01*
X677031Y-50395830D02*
X1582730Y-49490131D01*
%TO.N,BIOZ_FN_PAD*%
X8427832Y-43413196D02*
X10550000Y-41291028D01*
X5596857Y-45461536D02*
X5731878Y-45596558D01*
X10550000Y-41291028D02*
X10550000Y-41176588D01*
X8427832Y-45181523D02*
X8427832Y-43413196D01*
X8012797Y-45596558D02*
X8427832Y-45181523D01*
X10550000Y-41176588D02*
X10550000Y-40562500D01*
X5731878Y-45596558D02*
X8012797Y-45596558D01*
%TO.N,BIOZ_SP_PAD*%
X17360743Y-58919259D02*
X17360743Y-54173218D01*
X15747854Y-60532148D02*
X17360743Y-58919259D01*
X16692334Y-53793601D02*
X14549845Y-51651112D01*
X17000000Y-42376588D02*
X17000000Y-41762500D01*
X15229514Y-47006941D02*
X14600190Y-46377617D01*
X14600190Y-45069171D02*
X17000000Y-42669361D01*
X16981126Y-53793601D02*
X16692334Y-53793601D01*
X14549845Y-49572788D02*
X15229514Y-48893119D01*
X17360743Y-54173218D02*
X16981126Y-53793601D01*
X14549845Y-51651112D02*
X14549845Y-49572788D01*
X14600190Y-46377617D02*
X14600190Y-45069171D01*
X15229514Y-48893119D02*
X15229514Y-47006941D01*
X17000000Y-42669361D02*
X17000000Y-42376588D01*
%TO.N,BIOZ_SN_PAD*%
D39*
X32250000Y-49000000D02*
X33800000Y-50200000D01*
D38*
X26104519Y-41762500D02*
X25419372Y-41762500D01*
D39*
X29950000Y-48200000D02*
X32250000Y-49000000D01*
D38*
X25419372Y-41762500D02*
X25126599Y-41762500D01*
X25126599Y-41762500D02*
X23450000Y-41762500D01*
X26579389Y-42237369D02*
X26104519Y-41762500D01*
%TO.N,IR_AN*%
X14485000Y-48800000D02*
X14485000Y-48479063D01*
X14485000Y-48479063D02*
X14485000Y-48186290D01*
X14485000Y-48186290D02*
X14485000Y-47177950D01*
X14485000Y-47177950D02*
X12468467Y-45161417D01*
%TO.N,LED_AN*%
X3150000Y-52250000D02*
X3800000Y-52250000D01*
X3800000Y-52250000D02*
X4041821Y-52250000D01*
X2500000Y-52250000D02*
X2360084Y-52250000D01*
X4041821Y-52250000D02*
X5599139Y-50692682D01*
X46800000Y-44800000D02*
X46800000Y-45376097D01*
X2147205Y-52462879D02*
X2147205Y-52898337D01*
X5599139Y-50692682D02*
X7340462Y-50692682D01*
X46013526Y-45718783D02*
X44446203Y-47286107D01*
X44446203Y-47286107D02*
X44446203Y-48358659D01*
X3150000Y-52250000D02*
X2500000Y-52250000D01*
X46800000Y-45376097D02*
X46800000Y-45668870D01*
X46800000Y-45668870D02*
X46750087Y-45718783D01*
X2360084Y-52250000D02*
X2147205Y-52462879D01*
X46750087Y-45718783D02*
X46013526Y-45718783D01*
%TO.N,SE_ISO*%
X21207877Y-22075306D02*
X22804404Y-22075306D01*
X16716699Y-23720261D02*
X19562921Y-23720261D01*
X15482798Y-24393469D02*
X16247441Y-23628826D01*
X23644035Y-21235674D02*
X26995689Y-21235674D01*
X16247441Y-23628826D02*
X16625264Y-23628826D01*
X26995689Y-21235674D02*
X29010529Y-19220834D01*
X16625264Y-23628826D02*
X16716699Y-23720261D01*
X19562921Y-23720261D02*
X21207877Y-22075306D01*
X22804404Y-22075306D02*
X23644035Y-21235674D01*
X15370155Y-24393469D02*
X15482798Y-24393469D01*
%TO.N,J13_INM*%
X29498278Y-62900000D02*
X29691932Y-63093654D01*
X28500000Y-62900000D02*
X29076097Y-62900000D01*
X29076097Y-62900000D02*
X29356132Y-62900000D01*
X29356132Y-62900000D02*
X29498278Y-62900000D01*
%TO.N,AFE_N_AC*%
X29900000Y-33955779D02*
X29816628Y-34039151D01*
X29900000Y-33892694D02*
X29900000Y-33955779D01*
X29900000Y-33075000D02*
X29900000Y-33689088D01*
X29900000Y-33689088D02*
X29900000Y-33892694D01*
%TO.N,EDA_RE_PAD*%
X13606396Y-47632603D02*
X13777439Y-47632603D01*
X10047230Y-53901610D02*
X9792046Y-54156794D01*
X13777439Y-47632603D02*
X14000000Y-47855164D01*
X10100000Y-61756127D02*
X10100000Y-62048900D01*
X10100000Y-62048900D02*
X10100000Y-62900000D01*
X14000000Y-47855164D02*
X14000000Y-50057704D01*
X13583035Y-50474669D02*
X13583035Y-52348077D01*
X9792046Y-54156794D02*
X9792046Y-60825871D01*
X9792046Y-60825871D02*
X10016175Y-61050000D01*
X13583035Y-52348077D02*
X13166069Y-52765042D01*
X12086699Y-46112906D02*
X13606396Y-47632603D01*
X10175000Y-61050000D02*
X10100000Y-61125000D01*
X12331137Y-44700939D02*
X12086699Y-44945377D01*
X10100000Y-61125000D02*
X10100000Y-61756127D01*
X12966205Y-53901610D02*
X10047230Y-53901610D01*
X12207353Y-43123533D02*
X12331137Y-43247317D01*
X12331137Y-43247317D02*
X12331137Y-44700939D01*
X12086699Y-44945377D02*
X12086699Y-46112906D01*
D43*
X10016000Y-61050000D02*
X10175000Y-61050000D01*
D38*
X14000000Y-50057704D02*
X13583035Y-50474669D01*
X13166069Y-53701746D02*
X12966205Y-53901610D01*
X13166069Y-52765042D02*
X13166069Y-53701746D01*
%TO.N,SE_SURGE*%
X16100106Y-29145031D02*
X14333422Y-30911715D01*
X16831281Y-28762000D02*
X16015386Y-28762000D01*
X19508423Y-24392700D02*
X19344125Y-24556999D01*
X24458415Y-22722607D02*
X22818466Y-22722607D01*
X18280053Y-28762000D02*
X17000000Y-28762000D01*
X16100106Y-28762000D02*
X16100106Y-29145031D01*
X19344125Y-27739928D02*
X18322052Y-28762000D01*
X19344125Y-24556999D02*
X19344125Y-27739928D01*
X25638539Y-21542483D02*
X24458415Y-22722607D01*
X14333422Y-30911715D02*
X14333422Y-31473818D01*
D43*
X16831000Y-28762000D02*
X17000000Y-28762000D01*
D38*
X29415733Y-18891172D02*
X29415733Y-19350213D01*
X27223463Y-21542483D02*
X25638539Y-21542483D01*
X29415733Y-19350213D02*
X27223463Y-21542483D01*
X22818466Y-22722607D02*
X21148373Y-24392700D01*
X21148373Y-24392700D02*
X19508423Y-24392700D01*
%TO.N,EDA_SE_PAD*%
X6325694Y-35703736D02*
X6804459Y-36182500D01*
X7732824Y-61588951D02*
X7900000Y-61756127D01*
X7900000Y-62048900D02*
X7900000Y-62900000D01*
X6804459Y-36182500D02*
X6804459Y-38330750D01*
X8086663Y-59472707D02*
X7732824Y-59826546D01*
X7528479Y-33014847D02*
X7207339Y-33335987D01*
X10421244Y-28284963D02*
X7528479Y-31177728D01*
X7900000Y-61756127D02*
X7900000Y-62048900D01*
X6732786Y-33335987D02*
X6325694Y-33743079D01*
X6804459Y-38330750D02*
X5880004Y-39255205D01*
X6325694Y-33743079D02*
X6325694Y-35703736D01*
X5880004Y-39255205D02*
X2954020Y-39255205D01*
X7732824Y-59826546D02*
X7732824Y-61588951D01*
X10421244Y-27046759D02*
X10421244Y-28284963D01*
X7528479Y-31177728D02*
X7528479Y-33014847D01*
X7207339Y-33335987D02*
X6732786Y-33335987D01*
%TO.N,ECG2_PAD*%
X9487489Y-25931200D02*
X8666379Y-26752310D01*
X5958725Y-33767366D02*
X5342539Y-34383552D01*
X18398674Y-57955359D02*
X18398674Y-59854800D01*
X10550000Y-25931200D02*
X9487489Y-25931200D01*
X5342539Y-34383552D02*
X4481734Y-34383552D01*
X20300000Y-61756127D02*
X20300000Y-62048900D01*
X18398674Y-59854800D02*
X20300000Y-61756127D01*
X20300000Y-62048900D02*
X20300000Y-62900000D01*
X8666379Y-26752310D02*
X8666379Y-29390999D01*
X8666379Y-29390999D02*
X5958725Y-32098654D01*
X5958725Y-32098654D02*
X5958725Y-33767366D01*
%TO.N,J11_WE*%
X34300000Y-53348412D02*
X34300000Y-53962500D01*
X38511240Y-48847209D02*
X38094866Y-48847209D01*
X42483765Y-62979919D02*
X37965497Y-58461651D01*
X45656127Y-59700000D02*
X45208125Y-60148002D01*
X45208125Y-60585639D02*
X42813845Y-62979919D01*
X38094866Y-48847209D02*
X36147616Y-50794459D01*
X45208125Y-60148002D02*
X45208125Y-60585639D01*
X37965497Y-58461651D02*
X37965497Y-52886975D01*
X38701065Y-49037033D02*
X38511240Y-48847209D01*
X38701065Y-52151407D02*
X38701065Y-49037033D01*
X37965497Y-52886975D02*
X38701065Y-52151407D01*
X42813845Y-62979919D02*
X42483765Y-62979919D01*
X45948900Y-59700000D02*
X45656127Y-59700000D01*
X36147616Y-51208023D02*
X34300000Y-53055639D01*
X46800000Y-59700000D02*
X45948900Y-59700000D01*
X36147616Y-50794459D02*
X36147616Y-51208023D01*
X34300000Y-53055639D02*
X34300000Y-53348412D01*
%TO.N,J11_RE*%
X36269372Y-45162500D02*
X35976599Y-45162500D01*
D43*
X36975000Y-45270000D02*
X36975000Y-45468000D01*
D38*
X35976599Y-45162500D02*
X34300000Y-45162500D01*
X36975000Y-45467579D02*
X36669921Y-45162500D01*
X39655200Y-46446615D02*
X38478686Y-45270101D01*
X46800000Y-57500000D02*
X45948900Y-57500000D01*
X45219951Y-57063824D02*
X45219951Y-56583326D01*
X45948900Y-57500000D02*
X45656127Y-57500000D01*
X45219951Y-56583326D02*
X40792587Y-52155961D01*
X45656127Y-57500000D02*
X45219951Y-57063824D01*
X36669921Y-45162500D02*
X36269372Y-45162500D01*
X38478686Y-45270101D02*
X36975000Y-45270101D01*
%TO.N,J11_CE*%
X46800000Y-55876097D02*
X46800000Y-56168870D01*
X38390616Y-62793693D02*
X37721809Y-63462500D01*
X37721809Y-63462500D02*
X36619372Y-63462500D01*
X46800000Y-56168870D02*
X46800000Y-56288520D01*
X46800000Y-56288520D02*
X46679795Y-56408725D01*
X36326599Y-63462500D02*
X34650000Y-63462500D01*
X36619372Y-63462500D02*
X36326599Y-63462500D01*
X46800000Y-55300000D02*
X46800000Y-55876097D01*
%TO.N,PD_INP*%
D39*
X11200000Y-55900000D02*
X10800000Y-56800000D01*
X27950000Y-48900000D02*
X28100000Y-48350000D01*
X27650000Y-49700000D02*
X27950000Y-48900000D01*
%TO.N,PD_INM*%
X12450000Y-56200000D02*
X12000000Y-56800000D01*
%TO.N,PD2_INP*%
X11450000Y-58100000D02*
X12200000Y-57850000D01*
X15200000Y-59000000D02*
X12700000Y-58650000D01*
X12200000Y-57850000D02*
X12400000Y-57700000D01*
X11300000Y-58450000D02*
X11450000Y-58100000D01*
X11700000Y-58800000D02*
X11450000Y-58750000D01*
X11450000Y-58750000D02*
X11300000Y-58450000D01*
X12700000Y-58650000D02*
X11700000Y-58800000D01*
%TO.N,TX1*%
X15950000Y-58000000D02*
X16050000Y-57750000D01*
%TO.N,TX3*%
X15600000Y-54000000D02*
X15600000Y-54300000D01*
%TO.N,TX4*%
D38*
X14000000Y-54249426D02*
X14000000Y-54071295D01*
D39*
X25650000Y-51200000D02*
X25650000Y-51550000D01*
D38*
X14000000Y-54750000D02*
X14000000Y-54249426D01*
D39*
X26300000Y-50650000D02*
X25650000Y-51200000D01*
D38*
X14359853Y-53711443D02*
X14602430Y-53711443D01*
X14000000Y-54071295D02*
X14359853Y-53711443D01*
%TO.N,TX2*%
D39*
X10950000Y-55450000D02*
X10750000Y-55250000D01*
%TO.N,AFE_P_PAD*%
D38*
X17824442Y-61459825D02*
X17196301Y-61459825D01*
X23450000Y-29010657D02*
X23758732Y-29319389D01*
D39*
X28550000Y-56900000D02*
X29350000Y-57100000D01*
D38*
X16900000Y-61756127D02*
X16900000Y-62048900D01*
X23450000Y-27764088D02*
X23450000Y-28056861D01*
D39*
X27300000Y-55800000D02*
X28550000Y-56900000D01*
X29350000Y-57100000D02*
X30600000Y-56600000D01*
D38*
X16900000Y-62048900D02*
X16900000Y-62900000D01*
D39*
X32750000Y-53050000D02*
X34700000Y-51900000D01*
X31800000Y-54500000D02*
X32750000Y-53050000D01*
X31050000Y-55950000D02*
X31800000Y-54500000D01*
D38*
X17196301Y-61459825D02*
X16900000Y-61756127D01*
X23450000Y-27150000D02*
X23450000Y-27764088D01*
D39*
X30600000Y-56600000D02*
X31050000Y-55950000D01*
D38*
X23450000Y-28056861D02*
X23450000Y-29010657D01*
%TO.N,LDR*%
X21230588Y-57829361D02*
X20638000Y-57236773D01*
X20638000Y-56944000D02*
X20638000Y-56700000D01*
X24750000Y-56300000D02*
X23598612Y-56300000D01*
X22942996Y-56841177D02*
X22939030Y-56841177D01*
X20638000Y-57236773D02*
X20638000Y-56944000D01*
X23484173Y-56300000D02*
X22942996Y-56841177D01*
X21230588Y-57938591D02*
X21230588Y-57829361D01*
X21452240Y-58160243D02*
X21230588Y-57938591D01*
X23598612Y-56300000D02*
X23484173Y-56300000D01*
%TO.N,LED1_K*%
X46800000Y-51976097D02*
X46800000Y-52205180D01*
X46800000Y-52205180D02*
X46285854Y-52719326D01*
X3914440Y-53750000D02*
X3800000Y-53750000D01*
X46800000Y-51400000D02*
X46800000Y-51976097D01*
X5356176Y-52606450D02*
X4212627Y-53750000D01*
X3800000Y-53750000D02*
X3150000Y-53750000D01*
X4212627Y-53750000D02*
X3914440Y-53750000D01*
X46285854Y-52719326D02*
X46285854Y-52728229D01*
%TO.N,LED2_K*%
X43244097Y-49200000D02*
X39693862Y-52750234D01*
D39*
X27000000Y-47800000D02*
X29350000Y-48200000D01*
D38*
X45948900Y-49200000D02*
X45681603Y-49200000D01*
D39*
X30850000Y-49700000D02*
X31200000Y-49750000D01*
X30700000Y-49300000D02*
X30850000Y-49700000D01*
D38*
X4651403Y-52745540D02*
X4597233Y-52745540D01*
X45681603Y-49200000D02*
X43244097Y-49200000D01*
X4744740Y-52652203D02*
X4651403Y-52745540D01*
X46800000Y-49200000D02*
X45948900Y-49200000D01*
D39*
X31200000Y-49750000D02*
X32300000Y-50200000D01*
X29850000Y-48600000D02*
X30700000Y-49300000D01*
D38*
X39693862Y-52750234D02*
X39693862Y-58842686D01*
D39*
X29350000Y-48200000D02*
X29850000Y-48600000D01*
D38*
X4092773Y-53250000D02*
X3800000Y-53250000D01*
X4597233Y-52745540D02*
X4092773Y-53250000D01*
X3800000Y-53250000D02*
X3150000Y-53250000D01*
%TO.N,LED3_K*%
X4781441Y-52061332D02*
X4092773Y-52750000D01*
X45948900Y-47000000D02*
X45656127Y-47000000D01*
X46800000Y-47000000D02*
X45948900Y-47000000D01*
X3800000Y-52750000D02*
X3150000Y-52750000D01*
X45143659Y-47512468D02*
X45117449Y-47512468D01*
X4092773Y-52750000D02*
X3800000Y-52750000D01*
X5075056Y-52061332D02*
X4781441Y-52061332D01*
X45656127Y-47000000D02*
X45143659Y-47512468D01*
%TO.N,PD_K*%
X2500000Y-51750000D02*
X3150000Y-51750000D01*
X16046525Y-53713518D02*
X16356530Y-54023524D01*
X5348942Y-56236107D02*
X2591930Y-56236107D01*
D39*
X25200000Y-48100000D02*
X24650000Y-47550000D01*
D38*
X16356530Y-54023524D02*
X16870477Y-54023524D01*
X46742485Y-43526386D02*
X45893730Y-43526386D01*
X17058775Y-57761594D02*
X16383075Y-58437293D01*
X16870477Y-54023524D02*
X17058775Y-54211822D01*
X16383075Y-58437293D02*
X11699361Y-58437293D01*
X1764781Y-52358041D02*
X2372822Y-51750000D01*
X33058285Y-42107134D02*
X32670156Y-42495263D01*
X46800000Y-43468870D02*
X46742485Y-43526386D01*
X2372822Y-51750000D02*
X2500000Y-51750000D01*
X2591930Y-56236107D02*
X2224084Y-55868261D01*
X1764781Y-54648056D02*
X1764781Y-52358041D01*
X2224084Y-55868261D02*
X2224084Y-55107359D01*
X46800000Y-43176097D02*
X46800000Y-43468870D01*
X6298044Y-55287005D02*
X5348942Y-56236107D01*
X45893730Y-43526386D02*
X42751807Y-46668309D01*
D39*
X30600000Y-42500000D02*
X30400000Y-42500000D01*
D38*
X32670156Y-42495263D02*
X30622207Y-42495263D01*
X42751807Y-46668309D02*
X42751807Y-47596820D01*
X17058775Y-54211822D02*
X17058775Y-57761594D01*
X2224084Y-55107359D02*
X1764781Y-54648056D01*
X46800000Y-42600000D02*
X46800000Y-43176097D01*
%TO.N,PD_A*%
X8596450Y-56630540D02*
X2652332Y-56630540D01*
X2500000Y-51250000D02*
X3150000Y-51250000D01*
X2012574Y-55990782D02*
X2012574Y-55558330D01*
X1538676Y-55084432D02*
X1538676Y-52020456D01*
X2652332Y-56630540D02*
X2012574Y-55990782D01*
X46800000Y-39485760D02*
X47042256Y-39243504D01*
X46800000Y-39671249D02*
X46800000Y-39485760D01*
X1538676Y-52020456D02*
X2309132Y-51250000D01*
X2309132Y-51250000D02*
X2500000Y-51250000D01*
X46800000Y-40400000D02*
X46800000Y-39823903D01*
X46800000Y-39823903D02*
X46800000Y-39671249D01*
X2012574Y-55558330D02*
X1538676Y-55084432D01*
%TO.N,AFE_N_PAD*%
D39*
X27150000Y-36450000D02*
X27100000Y-36000000D01*
X22100000Y-30700000D02*
X25200000Y-30650000D01*
X15750000Y-62150000D02*
X17150000Y-60750000D01*
X27800000Y-29400000D02*
X28450000Y-27750000D01*
X27250000Y-30000000D02*
X27800000Y-29400000D01*
X25200000Y-30650000D02*
X26250000Y-30000000D01*
X28450000Y-37850000D02*
X27150000Y-36450000D01*
X26250000Y-30000000D02*
X27250000Y-30000000D01*
%TO.N,RLD_PAD*%
D38*
X30379331Y-58821150D02*
X30379331Y-57533878D01*
X26714450Y-62486032D02*
X30379331Y-58821150D01*
X19530978Y-63878624D02*
X19626353Y-63974000D01*
X24925919Y-21746561D02*
X24286126Y-22386354D01*
X19176097Y-62900000D02*
X19468870Y-62900000D01*
D43*
X23575000Y-62938000D02*
X23575000Y-63176000D01*
D38*
X22777056Y-63974000D02*
X23575000Y-63176056D01*
X17000000Y-26535912D02*
X17000000Y-27150000D01*
X18564912Y-24678227D02*
X17000000Y-26243139D01*
X18930242Y-24678227D02*
X18564912Y-24678227D01*
X24286126Y-22386354D02*
X21222115Y-22386354D01*
X21222115Y-22386354D02*
X18930242Y-24678227D01*
X17000000Y-26243139D02*
X17000000Y-26535912D01*
X18600000Y-62900000D02*
X19176097Y-62900000D01*
X23575000Y-62938000D02*
X24026968Y-62486032D01*
X19530978Y-62962107D02*
X19530978Y-63878624D01*
X19468870Y-62900000D02*
X19530978Y-62962107D01*
X30379331Y-57533878D02*
X32939840Y-54973369D01*
X24026968Y-62486032D02*
X26714450Y-62486032D01*
X19626353Y-63974000D02*
X22777056Y-63974000D01*
%TO.N,unconnected-(J12-PadMP)*%
D39*
X650000Y-56500000D02*
X650000Y-56800000D01*
X650000Y-48250000D02*
X650000Y-48550000D01*
%TO.N,ECG1_PAD*%
D38*
X4100000Y-27764088D02*
X4100000Y-28056861D01*
X4100000Y-31648950D02*
X4086962Y-31661989D01*
X22000000Y-62048900D02*
X22000000Y-62900000D01*
X20479658Y-59515565D02*
X21768250Y-59515565D01*
X22000000Y-59747316D02*
X22000000Y-61756127D01*
X19339868Y-58375776D02*
X20479658Y-59515565D01*
X22000000Y-61756127D02*
X22000000Y-62048900D01*
X21768250Y-59515565D02*
X22000000Y-59747316D01*
X4100000Y-28056861D02*
X4100000Y-31648950D01*
X4100000Y-27150000D02*
X4100000Y-27764088D01*
%TD*%
M02*
