%TF.GenerationSoftware,KiCad,Pcbnew,10.0.4*%
%TF.CreationDate,2026-10-09T22:51:56+01:00*%
%TF.ProjectId,vitalq_v2,76697461-6c71-45f7-9632-2e6b69636164,rev?*%
%TF.SameCoordinates,Original*%
%TF.FileFunction,Copper,L4,Inr*%
%TF.FilePolarity,Positive*%
%FSLAX46Y46*%
G04 Gerber Fmt 4.6, Leading zero omitted, Abs format (unit mm)*
G04 Created by KiCad (PCBNEW 10.0.4) date 2026-10-09 22:51:56*
%MOMM*%
%LPD*%
G01*
G04 APERTURE LIST*
%TA.AperFunction,ComponentPad*%
%ADD10O,1.000000X2.100000*%
%TD*%
%TA.AperFunction,ComponentPad*%
%ADD11O,1.000000X1.600000*%
%TD*%
%TA.AperFunction,ViaPad*%
%ADD12C,0.400400*%
%TD*%
%TA.AperFunction,ViaPad*%
%ADD13C,0.250000*%
%TD*%
%TA.AperFunction,ViaPad*%
%ADD14C,0.400000*%
%TD*%
%TA.AperFunction,ViaPad*%
%ADD15C,0.300000*%
%TD*%
%TA.AperFunction,Conductor*%
%ADD16C,0.101600*%
%TD*%
G04 APERTURE END LIST*
D10*
%TO.N,GND*%
%TO.C,J1*%
X30320000Y4670000D03*
D11*
X30320000Y8850000D03*
D10*
X21680000Y4670000D03*
D11*
X21680000Y8850000D03*
%TD*%
D12*
%TO.N,SP_ISO*%
X34458621Y-18656538D03*
X32271818Y-22228193D03*
%TO.N,GND*%
X25498161Y-148463D03*
X38486186Y-43814520D03*
X44506156Y-26929648D03*
X8046760Y6462838D03*
X227785Y-56177272D03*
X37219361Y6733476D03*
X34428759Y-49334568D03*
X24314550Y-23096579D03*
X20220226Y-31735259D03*
X28585093Y-47298914D03*
X39979241Y-5439002D03*
X41514212Y6837782D03*
X43804224Y-27864788D03*
X27408518Y-12009956D03*
X19258703Y-7239151D03*
X32783052Y-8901799D03*
X44626414Y-21530806D03*
D13*
X28000000Y-51000000D03*
D12*
X23975633Y-37432352D03*
X11487537Y-2170890D03*
X-915447Y-45309972D03*
D13*
X36985910Y-10680775D03*
D12*
X43449775Y-21866896D03*
X11768645Y-3683909D03*
X27511861Y-36314923D03*
X11474444Y3736769D03*
X18807940Y-21909891D03*
X38797761Y8595044D03*
X46727889Y-30420484D03*
X7714558Y-46461077D03*
X15496950Y1667563D03*
X30213371Y-6992750D03*
X22202683Y-21082814D03*
X28646007Y-31461123D03*
X9033728Y-16396644D03*
X19451354Y-40422007D03*
X36807214Y-50689703D03*
X16467389Y-34797077D03*
X34612866Y-50210510D03*
X15131913Y-43882070D03*
X14477846Y-18767265D03*
X40357661Y-15838516D03*
D13*
X26400000Y-51000000D03*
D12*
X7260866Y-21521934D03*
X18398446Y-39860258D03*
X20018837Y-56187787D03*
X20582507Y-11799132D03*
X15136127Y5730418D03*
X37689955Y2926442D03*
X1075407Y-52975382D03*
X46242152Y-298547D03*
X47219792Y-24058646D03*
X10105507Y-36680839D03*
X8420435Y5749293D03*
X36767498Y-16411247D03*
X2145524Y-49885261D03*
X6225550Y-48695629D03*
X35688330Y-16585150D03*
X36960795Y-5199075D03*
X12878135Y5394303D03*
D14*
X15400000Y-39900000D03*
D12*
X31730968Y-12039512D03*
X30755114Y-41954041D03*
X13394352Y3832649D03*
X27546608Y-8697430D03*
X20571337Y-34625529D03*
X45316352Y2204338D03*
X10578283Y-22550501D03*
X17594183Y5843303D03*
X12411827Y3897469D03*
X3135440Y6389079D03*
X22676898Y2628899D03*
X6473928Y-20057492D03*
X31144782Y-30219628D03*
X6829248Y-62871193D03*
X32706157Y-51019885D03*
D13*
X26800000Y-50200000D03*
D12*
X43541340Y-10465996D03*
X46819229Y-6308177D03*
X20784303Y7759964D03*
X17175192Y-23350442D03*
X26693514Y-32334782D03*
X2128426Y-63038885D03*
X43220141Y-12293832D03*
X44497237Y-39745454D03*
X25848029Y-17362098D03*
D13*
X37785910Y-11480775D03*
D12*
X8243967Y158890D03*
X19991852Y-49187915D03*
X43224429Y-9462112D03*
X2091877Y-38714290D03*
X38946327Y-33420378D03*
X43563878Y-3936893D03*
X-356509Y-38111007D03*
X23464246Y-14148831D03*
X15869281Y6185023D03*
X38111438Y-28136055D03*
X18734701Y-56179950D03*
X25697164Y-37621466D03*
X12134415Y-23199737D03*
X11776441Y-11790943D03*
X8067012Y4031837D03*
X13787428Y6075675D03*
X37447369Y-39016867D03*
X43005542Y-48544333D03*
X12916093Y-34916278D03*
X9391413Y5851644D03*
X36146668Y-38117601D03*
X38241338Y-4001608D03*
X34295204Y-15565407D03*
X21268341Y-23277379D03*
X44792632Y-14242863D03*
X32474756Y2645187D03*
X12645766Y6210911D03*
X25798257Y-52987001D03*
X29556585Y-37732153D03*
X42398023Y-13944372D03*
X29159109Y-4489682D03*
X23649952Y-39496131D03*
X14860649Y-23422209D03*
X15229139Y-21647134D03*
X4666499Y-5112688D03*
D14*
X31400000Y-54500000D03*
D12*
X7793067Y-54429215D03*
X34178831Y-37072568D03*
X46655075Y4971419D03*
X42920895Y-16419101D03*
X17617394Y3418421D03*
X86948Y-612436D03*
X31280846Y-10891093D03*
D14*
X2750000Y-39900000D03*
D12*
X8767787Y6358871D03*
X3703694Y-43688995D03*
X15528989Y419306D03*
X14130277Y-50694016D03*
X39248677Y-37686866D03*
X2202951Y-4598419D03*
X8700297Y-49580891D03*
X22360861Y-55803390D03*
X38318302Y-5116621D03*
X38535262Y-15830148D03*
X19587687Y-23079605D03*
X10476956Y-52884714D03*
X36504234Y360164D03*
X18798120Y-37723055D03*
X18295391Y-53788853D03*
X41011283Y7473130D03*
X31891338Y-32408761D03*
X30177718Y-8059071D03*
X44022546Y-24408730D03*
X46486773Y-19890603D03*
X7137960Y6454237D03*
X9277370Y1543183D03*
X15649828Y-36831100D03*
X6314583Y6569100D03*
X23876752Y2005566D03*
X16028320Y-56146075D03*
X30155067Y-49313058D03*
X41233582Y-5336052D03*
X8102341Y-21917310D03*
X12341612Y-38305497D03*
X38554925Y-41509664D03*
X38548440Y-20043195D03*
X34715389Y2679892D03*
X20134623Y5777893D03*
X28666094Y-56499180D03*
X36181248Y4802845D03*
X45388692Y-18869753D03*
X13336595Y-20365927D03*
X6015291Y-21882248D03*
X2136551Y-53562628D03*
X11748369Y6030043D03*
X40330558Y-51408237D03*
X19792427Y-51685242D03*
X32959691Y-33584371D03*
X24153500Y-57372180D03*
X39068897Y-28283371D03*
X32906020Y-34894538D03*
X42472053Y-41639460D03*
X44678512Y4191978D03*
X16852576Y6199165D03*
D14*
X6785910Y-59530775D03*
D12*
X35024141Y-36452968D03*
X45652971Y-15219271D03*
X22543499Y-39232053D03*
X42737541Y287872D03*
X16275437Y5422771D03*
X10153307Y5944225D03*
X43635498Y-32856769D03*
X24732380Y-44569722D03*
X41776273Y7992352D03*
X42003737Y-38548008D03*
X24525941Y-48699183D03*
%TO.N,RLDOUT*%
X44046214Y-6169053D03*
X43307818Y2925966D03*
%TO.N,RLDINV*%
X44773761Y888547D03*
X43341860Y-14241161D03*
D14*
%TO.N,+3V3_ANA*%
X37785910Y-7780775D03*
D12*
X30751796Y-15556583D03*
D13*
X38185910Y-10280775D03*
D14*
X26785910Y-49080775D03*
X25685910Y-49830775D03*
X29385910Y-49480775D03*
X25985910Y-36830775D03*
X21985910Y-45130775D03*
X31235910Y-50330775D03*
D13*
X26800000Y-50600000D03*
D12*
X37302708Y-14162266D03*
D14*
%TO.N,CS_AFE4900*%
X21800000Y-23200000D03*
X22000000Y-29000000D03*
D12*
X30308652Y-16738718D03*
D14*
X21600000Y-25300000D03*
D12*
X9640057Y-7699795D03*
D13*
X27200000Y-51400000D03*
D12*
%TO.N,+3V3*%
X23456725Y-34753891D03*
X18080840Y-36908494D03*
X33305748Y-32254496D03*
X39186522Y-43373915D03*
X34692814Y-33654956D03*
X4348173Y-54997439D03*
X35740252Y-30181157D03*
X11546945Y-53531272D03*
X4939099Y-45963425D03*
X33127888Y-29271342D03*
X35716370Y-34631931D03*
D14*
X10750000Y-42400000D03*
X9600000Y-38550000D03*
D12*
X27041761Y-37979510D03*
X22092208Y-38451427D03*
X30673208Y-29281688D03*
X11070022Y-35733394D03*
X13340448Y-46857661D03*
X30743954Y-42874208D03*
X32153967Y-31677670D03*
X16172907Y-49203069D03*
D14*
X18950000Y-43600000D03*
D12*
X23430939Y-37985384D03*
X26503433Y-33118094D03*
X30933887Y-31894073D03*
X35983598Y-40877647D03*
X31166272Y-36948030D03*
X47340642Y-21857265D03*
X27040518Y-39856029D03*
X30738086Y-41131246D03*
D14*
X21250000Y-50400000D03*
D12*
X11232612Y-42591689D03*
X5713924Y-48591116D03*
X27425883Y-34553743D03*
X10055351Y-46303206D03*
X27562874Y-48920408D03*
X15251944Y-49772776D03*
X12638133Y-35919541D03*
X10290220Y-44181235D03*
X20751444Y-33450276D03*
D14*
X36350000Y-43300000D03*
X29150000Y-25300000D03*
D12*
X21819605Y-56424687D03*
X11255321Y-53089462D03*
X25423641Y-59060540D03*
X30638876Y-34316831D03*
X24353751Y-62863767D03*
X21345764Y-53692109D03*
D14*
X22100000Y-39500000D03*
D12*
X18330105Y-38650623D03*
X20143900Y-39071428D03*
X32177024Y-35521120D03*
X18988856Y-35556780D03*
D14*
X31250851Y-59690000D03*
D12*
X16414574Y-46449606D03*
X32175998Y-33878491D03*
X35755337Y-35869102D03*
X11045985Y-46265432D03*
X24588913Y-54531712D03*
X14277500Y-33732158D03*
X10764460Y-37389646D03*
X19308080Y-43836148D03*
%TO.N,ESP_EN*%
X23915951Y-18293603D03*
D14*
X26700000Y-61050000D03*
D12*
X44118515Y-34861722D03*
D14*
X35000000Y-49850000D03*
X27100000Y-54550000D03*
X29350000Y-42500000D03*
D12*
X18126288Y-40839377D03*
X25541961Y-37130011D03*
X39612108Y-45480735D03*
D14*
X13350000Y-7750000D03*
D12*
X16316482Y-11061920D03*
D14*
X31800000Y-59700000D03*
D12*
X41215099Y-45269602D03*
X21016475Y-18120740D03*
D14*
X31800000Y-47000000D03*
D12*
%TO.N,ECG_N*%
X46574720Y3792062D03*
X10942826Y-29954934D03*
X41831587Y-3084931D03*
X38834493Y-3259994D03*
X40224282Y6360851D03*
X30563675Y-22443946D03*
%TO.N,FSR_ADC*%
X-279609Y-33481153D03*
X7430121Y3226603D03*
%TO.N,+1V8*%
X18747253Y-55107501D03*
D14*
X30650000Y-55900000D03*
D12*
X27237902Y-56598444D03*
D14*
X27100000Y-59350000D03*
X26300000Y-48900000D03*
X35950000Y-55800000D03*
D12*
%TO.N,CS_FLASH*%
X9435427Y-7139489D03*
X14856504Y-47197181D03*
D14*
X24400000Y-46150000D03*
X27400000Y-42350000D03*
X12100000Y-37200000D03*
D12*
X6366149Y-37993124D03*
%TO.N,EDA_DE_PAD*%
X18922331Y-31527237D03*
%TO.N,DE_SURGE*%
X1769137Y-12452426D03*
X16982964Y-20174402D03*
%TO.N,TS*%
X23599358Y-3233427D03*
X24057763Y-2831204D03*
X29520988Y-7144931D03*
X26608942Y-2846966D03*
D13*
%TO.N,CS_AD5940*%
X36585910Y-10280775D03*
D14*
X23685910Y-9930775D03*
D12*
X34603022Y-31714798D03*
X8833405Y-7284266D03*
X43601913Y-55683912D03*
D14*
X21085910Y-8180775D03*
X34585910Y-9380775D03*
D12*
%TO.N,USB_DM*%
X6928240Y-13265051D03*
X3980712Y-13643267D03*
D14*
X9600000Y-12050000D03*
D12*
%TO.N,USB_DM_S3*%
X6002976Y-12407149D03*
X4177304Y-7763602D03*
%TO.N,I2C_SCL*%
X42623545Y-20938066D03*
X32843526Y-34112756D03*
D14*
X19400000Y-44850000D03*
D12*
X21594784Y-34703660D03*
X32652727Y-31533620D03*
X34500149Y-36117846D03*
X5649712Y-46270263D03*
X40342749Y-24875064D03*
X14537078Y-39598367D03*
X15436141Y-37620015D03*
X6778785Y-4732903D03*
X8907517Y-46646710D03*
X16298487Y-52046697D03*
D14*
X18900000Y-52050000D03*
D12*
X13546457Y-47993087D03*
D14*
X19550000Y-48900000D03*
D12*
%TO.N,I2C_SDA*%
X32094502Y-30223817D03*
X7958962Y-49308570D03*
X9348496Y-43850029D03*
X8451997Y-53279839D03*
X4207864Y-4784407D03*
X16067666Y-30565676D03*
X14362820Y-52335761D03*
D14*
X18950000Y-44250000D03*
D12*
X36160732Y-24710438D03*
D14*
X19100000Y-52600000D03*
D12*
X3915719Y-18307545D03*
X12566695Y-52818997D03*
X12622148Y-37772493D03*
X18990726Y-34447000D03*
D14*
X21150000Y-49250000D03*
D12*
X43685918Y-23867205D03*
%TO.N,CS_MAX86178*%
X13820136Y-8416749D03*
X28341222Y-41386889D03*
X39064830Y-40505130D03*
%TO.N,MX_SDO_1V8*%
X36703919Y-41512528D03*
%TO.N,I2C_SDA_1V8*%
X13699253Y-53603406D03*
X19490774Y-53717769D03*
X29264326Y-56701149D03*
X19636226Y-57660803D03*
X32838265Y-23468623D03*
X12790162Y-53517367D03*
X21312472Y-58932609D03*
X35810046Y-21276416D03*
%TO.N,NIR730_GATE*%
X39628248Y-51754331D03*
X43582143Y-41673607D03*
X45147899Y-34594072D03*
X40868289Y-9275113D03*
%TO.N,SPI_MISO*%
X41537972Y-47053877D03*
X29073222Y-1758943D03*
X44913302Y-17435097D03*
X15532730Y-878597D03*
X44443212Y-10717052D03*
X43402188Y-45002123D03*
%TO.N,VBUS*%
X6774091Y-33838252D03*
X27500982Y5896325D03*
X24359197Y4902121D03*
X18808308Y-20152165D03*
X13336341Y-21101172D03*
%TO.N,CHG_ISET*%
X26174789Y-14165268D03*
X25694662Y-16612562D03*
%TO.N,CHG_STAT*%
X25035621Y-30273361D03*
X22096849Y-34089902D03*
X30760171Y-21948782D03*
X16013440Y-44496855D03*
%TO.N,CHG_PG*%
X30508554Y-21397968D03*
X12380739Y-3640199D03*
X26290423Y-6152188D03*
X31904733Y-26475733D03*
%TO.N,CHG_VSET*%
X40322245Y8459809D03*
X29101056Y-9524828D03*
%TO.N,VBAT*%
X26295775Y-7269375D03*
D13*
%TO.N,VBIAS0*%
X36585910Y-11480775D03*
D14*
X34285910Y-9830775D03*
D12*
%TO.N,MISO_ADS*%
X34607933Y-2424107D03*
X40476528Y-549378D03*
D14*
%TO.N,AFE_INP*%
X29250000Y-48900000D03*
D12*
X22338813Y-58800910D03*
D14*
%TO.N,MAX86178_INT*%
X27500000Y-37700000D03*
D13*
X26500000Y-47350000D03*
D14*
X29900000Y-31300000D03*
D12*
X18452382Y-3492482D03*
X31793482Y-21559519D03*
%TO.N,USB_DP*%
X4317738Y-14022139D03*
X7382157Y-13039022D03*
D14*
%TO.N,ESP_TX*%
X27950000Y-34600000D03*
D12*
X24948888Y-9720250D03*
D14*
X23450000Y-45500000D03*
X18400000Y-45650000D03*
X14200000Y-51850000D03*
X15200000Y-53650000D03*
D12*
X15240092Y-7868544D03*
D14*
X22800000Y-38500000D03*
D12*
%TO.N,ESP_RX*%
X17666900Y-8250277D03*
X12984327Y-59051911D03*
D14*
X6650000Y-57500000D03*
X22200000Y-43600000D03*
X24900000Y-50200000D03*
D12*
X16076490Y-4631772D03*
D14*
X21150000Y-38900000D03*
D12*
X16930444Y-10618121D03*
D14*
X24000000Y-45500000D03*
D12*
%TO.N,ESP_IO0*%
X-220166Y-9003961D03*
X14997592Y-46155671D03*
X17970985Y-58524113D03*
X3603379Y-34615627D03*
%TO.N,RESP_MODP*%
X43979990Y4478355D03*
X41049047Y-1733700D03*
%TO.N,ECG_P*%
X14387384Y-7512818D03*
X18023528Y-20206609D03*
X15601198Y-11422219D03*
X5319445Y-24149524D03*
%TO.N,CS_ADS1292*%
X37032570Y260020D03*
X7062489Y-32850314D03*
X39449729Y-501493D03*
X12813888Y-3196275D03*
%TO.N,EDA_CE_PAD*%
X3137483Y-28195003D03*
X10269159Y-58517603D03*
%TO.N,CHG_DIS*%
X15323226Y-45007550D03*
X20236261Y-12511200D03*
X16391764Y-24035814D03*
X21588061Y-15530678D03*
%TO.N,I2C_SCL_1V8*%
X35372668Y-21028942D03*
D14*
X28800000Y-58350000D03*
D12*
X23063453Y-62246811D03*
X41227378Y-41420612D03*
X38333780Y-55700094D03*
D14*
X33700000Y-58500000D03*
D12*
X8119731Y-60525000D03*
%TO.N,SWEAT_CE*%
X41148042Y-12352923D03*
D14*
X43185910Y-40030775D03*
D12*
X18443891Y-30598875D03*
X25832644Y-39839788D03*
D14*
X29185910Y-41180775D03*
X27035910Y-41030775D03*
D12*
X33326340Y-56587464D03*
X21401272Y-33066932D03*
%TO.N,SWEAT_RE*%
X40195466Y-13719676D03*
X32073931Y-27034623D03*
X4304207Y-47325295D03*
X14858637Y-34408805D03*
X24104404Y-38340228D03*
%TO.N,BIOZ_SN*%
X34286680Y-17949497D03*
X39374114Y-13211987D03*
%TO.N,SE0*%
X36160431Y-13420008D03*
X33895291Y-18413925D03*
%TO.N,CE0*%
X36325900Y-12690122D03*
X20516018Y-8757054D03*
%TO.N,RE0*%
X23402900Y-6790668D03*
X37171685Y-12967301D03*
%TO.N,RCAL1*%
X39584187Y-11688452D03*
X38539385Y-17174769D03*
D14*
%TO.N,BIOZ_FP*%
X24285910Y-24830775D03*
D13*
X38185910Y-11880775D03*
D14*
X35785910Y-16030775D03*
%TO.N,AIN4_LPF0*%
X38735910Y-15130775D03*
D13*
X37785910Y-11880775D03*
%TO.N,BIOZ_SP*%
X37385910Y-11880775D03*
D14*
X35585910Y-18330775D03*
X37335910Y-15230775D03*
%TO.N,DE0*%
X-614090Y-14580775D03*
D13*
X36985910Y-11880775D03*
D14*
%TO.N,VZERO0*%
X34385910Y-14530775D03*
D13*
X36585910Y-11880775D03*
D12*
%TO.N,RC0_1*%
X34839216Y-11620229D03*
X33269804Y-17375610D03*
%TO.N,RCAL0*%
X39911918Y-11184025D03*
X38258299Y-17899884D03*
%TO.N,SWEAT_WE*%
X10246373Y-38074712D03*
D15*
X35750000Y-33350000D03*
D12*
X34217279Y-46246830D03*
X16602484Y-39339879D03*
D13*
X37385910Y-11480775D03*
D15*
X29650000Y-39450000D03*
X35750000Y-32400000D03*
X36750000Y-29450000D03*
D12*
X29944665Y-41356642D03*
D14*
X39235910Y-17630775D03*
D12*
%TO.N,RC0_0*%
X32435502Y-17401455D03*
X35475462Y-11661237D03*
D14*
%TO.N,BIOZ_FN*%
X32635910Y-19230775D03*
D13*
X38585910Y-11080775D03*
D14*
%TO.N,VREF_2V5*%
X34285910Y-13080775D03*
D13*
X36585910Y-11080775D03*
D12*
%TO.N,SPI_MOSI*%
X13427463Y-3069212D03*
X29004169Y-38934733D03*
D14*
X31135910Y-49380775D03*
D13*
X36585910Y-10680775D03*
D14*
X29685910Y-50830775D03*
D13*
X27600000Y-51800000D03*
D12*
X24213768Y-9382184D03*
X28402496Y-1788310D03*
D14*
X34285910Y-6830775D03*
D12*
X38604572Y-111918D03*
D13*
X25700000Y-46950000D03*
D14*
X30885910Y-46480775D03*
%TO.N,MISO_AD*%
X39235910Y-9530775D03*
D12*
X34465142Y-10446892D03*
D14*
X35935910Y-9530775D03*
D12*
X43223659Y-11147343D03*
%TO.N,AD5940_RESET*%
X46157756Y-12981070D03*
X40815470Y-8666204D03*
D14*
%TO.N,AD5940_GPIO0*%
X8185910Y-7180775D03*
D13*
X37385910Y-10280775D03*
D14*
%TO.N,SPI_SCK*%
X29535910Y-46880775D03*
X29335910Y-53380775D03*
D12*
X28945970Y432020D03*
X34942521Y-10603821D03*
X39966720Y-1095592D03*
D13*
X26500000Y-46950000D03*
D12*
X6880559Y-7301729D03*
D14*
X27985910Y-40230775D03*
D12*
X31390842Y-17886778D03*
%TO.N,IOVDD*%
X44510537Y8769562D03*
D14*
X44000900Y9210447D03*
X38455600Y-8483600D03*
D12*
X40678366Y-8057463D03*
%TO.N,RLDREF*%
X45694336Y-738021D03*
X44463030Y3667196D03*
%TO.N,USB_CC2*%
X24425586Y2689948D03*
X31662923Y3639076D03*
%TO.N,GAUGE_ALRT*%
X41708766Y-22325211D03*
X7112990Y-3741486D03*
X28742719Y-21920014D03*
%TO.N,AFE4900_RESETZ*%
X21630205Y-59899708D03*
D14*
X30600000Y-51900000D03*
D12*
X14281903Y-62140344D03*
X16974805Y-43574580D03*
%TO.N,VDD_CP2102*%
X13082315Y-12230825D03*
X26251578Y-13408481D03*
X9211507Y-15240624D03*
%TO.N,CP_VBUS*%
X14659779Y-20195529D03*
X25886758Y-20573584D03*
X25110720Y-19104012D03*
X17308102Y-20894534D03*
%TO.N,CP_RST*%
X11334521Y-20059832D03*
X265148Y-19473762D03*
%TO.N,CP_RTS*%
X13933166Y-13411910D03*
X10844624Y-9984736D03*
D15*
%TO.N,CP_RX*%
X12400000Y-13900000D03*
X11400000Y-12450000D03*
X22850000Y-9200000D03*
X13450000Y-9350000D03*
%TO.N,CP_TX*%
X18600000Y-8800000D03*
X11900000Y-13900000D03*
X11700000Y-10400000D03*
X14950000Y-8250000D03*
D12*
%TO.N,CP_DTR*%
X18777491Y-19606612D03*
X8537211Y-14388899D03*
X5537658Y-12888648D03*
D14*
%TO.N,TX_5V*%
X31400000Y-51900000D03*
X27500000Y-47250000D03*
X23400000Y-55450000D03*
D12*
X14000000Y-58071400D03*
D14*
X29600000Y-56000000D03*
D12*
%TO.N,STATUS_LED*%
X-205472Y-23100411D03*
X10426099Y-7569821D03*
%TO.N,RTC_INT*%
X14254939Y-34940596D03*
X1226916Y-16156619D03*
X11893785Y-44603873D03*
%TO.N,PGA1N*%
X38407780Y4036663D03*
X42516426Y4255473D03*
%TO.N,PGA1P*%
X37869062Y4291111D03*
X41633617Y4910522D03*
%TO.N,IN1N*%
X43506593Y5392269D03*
X39139701Y-27147445D03*
X43266422Y-17471610D03*
X45161908Y-11511511D03*
%TO.N,IN1P*%
X46099606Y-2555156D03*
X34348129Y5765564D03*
X43650139Y6150014D03*
X22427945Y-594605D03*
%TO.N,PGA2P*%
X37214145Y8725224D03*
X38755513Y4496765D03*
%TO.N,ADS1292_PWDN*%
X32231457Y-5637961D03*
X29949906Y-1442513D03*
X37706443Y1458833D03*
%TO.N,ADS1292_DRDY*%
X38179663Y-495326D03*
X894541Y-22271713D03*
X7377572Y996043D03*
X117103Y-52732605D03*
%TO.N,ADS_GPIO1*%
X43328470Y932794D03*
X39584215Y-2002343D03*
%TO.N,RESP_MODN*%
X44348173Y6740943D03*
X47024829Y4188955D03*
%TO.N,VBAT_SYS*%
X39404783Y-30338637D03*
X40134331Y-37363767D03*
X38921887Y-34660196D03*
X39234256Y-31469103D03*
X39576289Y-38785948D03*
X40614327Y-31698809D03*
X39362496Y-36304837D03*
%TO.N,TX_SW*%
X40246569Y-33350879D03*
X40141603Y-39031154D03*
%TO.N,RE_SURGE*%
X16471035Y-31902549D03*
X13876281Y-20545388D03*
X13996138Y-23223350D03*
X15953371Y-24435682D03*
%TO.N,FP_SURGE*%
X5935671Y-38676912D03*
%TO.N,FP_ISO*%
X17438953Y-24130644D03*
X7528329Y-34593985D03*
%TO.N,Q3_B1*%
X21531914Y-17556199D03*
X10268512Y-14631234D03*
%TO.N,AFE_P_AC*%
X32477280Y-32396833D03*
X34254433Y-32682459D03*
X34418415Y-26434949D03*
X38237569Y-18488889D03*
%TO.N,AFE4900_ADC_RDY*%
X28899765Y-22778691D03*
X15751040Y-5323077D03*
D14*
X29850000Y-42650000D03*
X29850000Y-55100000D03*
D12*
%TO.N,IR_GATE*%
X-293340Y-55204502D03*
X-461556Y-52909935D03*
%TO.N,IR_K*%
X4222622Y-50602022D03*
X8136513Y-46029642D03*
X12570512Y-47488098D03*
%TO.N,IN1N_AC*%
X40097227Y-21490642D03*
X40602371Y-5228121D03*
%TO.N,RLD_CLAMP*%
X29194281Y-23628389D03*
X40540757Y-22901994D03*
X15931381Y-31108396D03*
%TO.N,EXP_INT*%
X10162031Y-33626883D03*
X15880541Y-38249404D03*
X17058052Y-45020728D03*
X-1214197Y-16044185D03*
D14*
%TO.N,TMP117_ALERT*%
X18800000Y-53700000D03*
X5200000Y-39900000D03*
X14500000Y-53150000D03*
X19150000Y-49250000D03*
D12*
X7831972Y-4414809D03*
D14*
X2250000Y-43600000D03*
D12*
X14109592Y-32237236D03*
%TO.N,USB_DP_S3*%
X6507449Y-12458502D03*
X4579098Y-8072942D03*
%TO.N,MIC_CLK*%
X28477442Y-21130806D03*
X20448992Y-5145717D03*
%TO.N,MIC_DAT*%
X18665058Y-5425778D03*
X29280402Y-21490120D03*
%TO.N,SPARE_IN*%
X33209713Y-13281707D03*
X42580746Y-20109576D03*
X17895031Y594061D03*
X32923872Y-7676997D03*
D14*
%TO.N,MISO_FL*%
X32400000Y-51500000D03*
X29650000Y-47400000D03*
D12*
%TO.N,J13_INP*%
X38333404Y-49253216D03*
%TO.N,RTC_VBK*%
X17014270Y-29886038D03*
X29531175Y-22036240D03*
X11744255Y-38375012D03*
X43029458Y-33633708D03*
%TO.N,FN_SURGE*%
X16605837Y-18500230D03*
%TO.N,FN_ISO*%
X19048388Y-23089051D03*
X30351752Y-20650288D03*
X19262832Y-16995546D03*
%TO.N,AFE_P_SER*%
X42696010Y-62590948D03*
X34319800Y-28690487D03*
%TO.N,SN_ISO*%
X25825557Y-23373740D03*
X25343204Y-22429113D03*
%TO.N,MX_ECG_INM*%
X29125039Y-59197679D03*
X19047820Y-41747101D03*
%TO.N,SN_SURGE*%
X19597614Y-13043416D03*
X22716491Y-34650177D03*
%TO.N,NIR_AN*%
X15626540Y-39082017D03*
%TO.N,TX5_EN*%
X39289350Y-41014801D03*
X29336834Y-39850380D03*
X19278868Y-39770075D03*
%TO.N,NIR_K*%
X16118086Y-47925224D03*
D14*
X36450000Y-52100000D03*
X32250000Y-56600000D03*
X20500000Y-53500000D03*
X26250000Y-55850000D03*
X28300000Y-58200000D03*
D12*
%TO.N,Q3_B2*%
X6935557Y-10924362D03*
X7956088Y-8954478D03*
D14*
%TO.N,AFE_INM*%
X31350000Y-58550000D03*
D13*
X28000000Y-49800000D03*
D14*
X41600000Y-56200000D03*
D12*
%TO.N,CE_ISO*%
X10441545Y-23332145D03*
X15823857Y-23482208D03*
X15040392Y-11183811D03*
X790394Y-27732066D03*
D13*
%TO.N,AFE_BG*%
X27600000Y-51000000D03*
D14*
X28750000Y-49450000D03*
D12*
%TO.N,SP_SURGE*%
X33456490Y-28197239D03*
X33481826Y-30155044D03*
X30349677Y-30142890D03*
D14*
%TO.N,MX_VREF*%
X31950000Y-49300000D03*
X29350000Y-46150000D03*
X25000000Y-46650000D03*
D12*
%TO.N,BIOZ_FP_PAD*%
X4784682Y-63807125D03*
%TO.N,BIOZ_FN_PAD*%
X11844503Y-60734762D03*
X5596857Y-45461536D03*
%TO.N,BIOZ_SP_PAD*%
X15747854Y-60532148D03*
%TO.N,BIOZ_SN_PAD*%
X20262914Y-60511743D03*
D14*
X25650000Y-57350000D03*
X29950000Y-48200000D03*
X33800000Y-50200000D03*
D12*
X26579389Y-42237369D03*
D14*
X31750000Y-56700000D03*
D12*
%TO.N,IR_AN*%
X12468467Y-45161417D03*
%TO.N,LED_AN*%
X2147205Y-52898337D03*
X44446203Y-48358659D03*
X7340462Y-50692682D03*
X29726278Y-57388174D03*
X14223058Y-59389736D03*
%TO.N,SE_ISO*%
X29010529Y-19220834D03*
X15370155Y-24393469D03*
%TO.N,J13_INM*%
X29691932Y-63093654D03*
%TO.N,AFE_N_AC*%
X43432076Y-56205046D03*
X29816628Y-34039151D03*
X41292244Y-48369991D03*
D14*
%TO.N,AFE_CLK*%
X16100000Y-58800000D03*
D13*
X28000000Y-51800000D03*
D12*
%TO.N,EDA_RE_PAD*%
X17611288Y-28256295D03*
X12207353Y-43123533D03*
%TO.N,SE_SURGE*%
X14333422Y-31473818D03*
X29415733Y-18891172D03*
%TO.N,EDA_SE_PAD*%
X2954020Y-39255205D03*
X8086663Y-59472707D03*
X10421244Y-27046759D03*
%TO.N,ECG2_PAD*%
X18398674Y-57955359D03*
X4481734Y-34383552D03*
%TO.N,J11_RE*%
X40792587Y-52155961D03*
X39655200Y-46446615D03*
%TO.N,J11_CE*%
X38390616Y-62793693D03*
X46679795Y-56408725D03*
D14*
%TO.N,PD_INP*%
X21400000Y-45350000D03*
X28100000Y-48350000D03*
X11200000Y-55900000D03*
%TO.N,PD_INM*%
X25300000Y-49500000D03*
X25200000Y-51850000D03*
D13*
X27200000Y-49800000D03*
D14*
X12450000Y-56200000D03*
D13*
%TO.N,PD2_INP*%
X27600000Y-50200000D03*
D14*
X15200000Y-59000000D03*
%TO.N,TX1*%
X15950000Y-58000000D03*
D13*
X26800000Y-51000000D03*
D14*
X21500000Y-55650000D03*
D13*
%TO.N,TX3*%
X26800000Y-51400000D03*
D14*
X24850000Y-53200000D03*
X15600000Y-54000000D03*
D12*
%TO.N,TX4*%
X14602430Y-53711443D03*
D14*
X25650000Y-51550000D03*
D13*
%TO.N,TX2*%
X26400000Y-51400000D03*
D14*
X10950000Y-55450000D03*
X22800000Y-55450000D03*
X25400000Y-54500000D03*
D12*
%TO.N,AFE_P_PAD*%
X23758732Y-29319389D03*
X17824442Y-61459825D03*
D14*
X27000000Y-41950000D03*
X34700000Y-51900000D03*
X27300000Y-55800000D03*
D12*
%TO.N,LDR*%
X22939030Y-56841177D03*
X21452240Y-58160243D03*
D14*
%TO.N,LED1_K*%
X30300000Y-60350000D03*
D12*
X5356176Y-52606450D03*
D13*
X26900000Y-48150000D03*
D14*
X30300000Y-56300000D03*
D12*
X46285854Y-52728229D03*
D14*
%TO.N,LED2_K*%
X39650000Y-52750000D03*
X32300000Y-50200000D03*
D12*
X4744740Y-52652203D03*
X39693862Y-58842686D03*
%TO.N,LED3_K*%
X5075056Y-52061332D03*
D13*
X26900000Y-47350000D03*
D14*
X29650000Y-58200000D03*
X30650000Y-55350000D03*
D12*
X45117449Y-47512468D03*
%TO.N,PD_K*%
X11699361Y-58437293D03*
X33058285Y-42107134D03*
D14*
X17500000Y-43600000D03*
X24650000Y-47550000D03*
X30400000Y-42500000D03*
D12*
X42751807Y-47596820D03*
X16046525Y-53713518D03*
X6298044Y-55287005D03*
%TO.N,PD_A*%
X8596450Y-56630540D03*
X47042256Y-39243504D03*
D14*
%TO.N,AFE_N_PAD*%
X28900000Y-56000000D03*
X27100000Y-36000000D03*
X24900000Y-58900000D03*
X22100000Y-30700000D03*
X17150000Y-60750000D03*
X28450000Y-37850000D03*
D12*
%TO.N,RLD_PAD*%
X32939840Y-54973369D03*
X24925919Y-21746561D03*
D14*
%TO.N,unconnected-(J12-PadMP)*%
X650000Y-56500000D03*
X650000Y-48550000D03*
D12*
%TO.N,ECG1_PAD*%
X19339868Y-58375776D03*
X4086962Y-31661989D03*
X19974382Y-53581073D03*
X14816146Y-52719541D03*
%TD*%
%TO.N,+3V3_ANA*%
D16*
X25685910Y-49830775D02*
X25735910Y-47480775D01*
X28885910Y-49080775D02*
X27585910Y-48530775D01*
X26185910Y-43180775D02*
X26235910Y-39530775D01*
X38135910Y-10180775D02*
X38135910Y-9530775D01*
X26035910Y-47080775D02*
X26185910Y-43180775D01*
X26785910Y-49080775D02*
X26785910Y-48580775D01*
X26235910Y-39530775D02*
X25985910Y-36830775D01*
X25735910Y-47480775D02*
X26035910Y-47080775D01*
X21985910Y-45130775D02*
X26085910Y-45130775D01*
X27585910Y-48530775D02*
X25735910Y-48530775D01*
X29385910Y-49480775D02*
X28885910Y-49080775D01*
X37785910Y-7780775D02*
X38135910Y-9480775D01*
%TO.N,CS_AFE4900*%
X30050000Y-49800000D02*
X29750000Y-49350000D01*
X28900000Y-53050000D02*
X29400000Y-53000000D01*
X26300000Y-36550000D02*
X21700000Y-30800000D01*
X21700000Y-30800000D02*
X22000000Y-29000000D01*
X29800000Y-52550000D02*
X30100000Y-51450000D01*
X29750000Y-49350000D02*
X27200000Y-39000000D01*
X27200000Y-39000000D02*
X26650000Y-38050000D01*
X27250000Y-51500000D02*
X27300000Y-52550000D01*
X29400000Y-53000000D02*
X29800000Y-52550000D01*
X27300000Y-52550000D02*
X28900000Y-53050000D01*
X21600000Y-25300000D02*
X21800000Y-23200000D01*
X30100000Y-51450000D02*
X30050000Y-49800000D01*
X26650000Y-38050000D02*
X26300000Y-36550000D01*
%TO.N,ESP_EN*%
X13350000Y-7750000D02*
X14200000Y-8200000D01*
X31650000Y-59850000D02*
X31800000Y-59700000D01*
X30400000Y-60750000D02*
X31650000Y-59850000D01*
X27900000Y-60750000D02*
X30400000Y-60750000D01*
X14200000Y-8200000D02*
X16200000Y-10900000D01*
X26700000Y-61050000D02*
X27900000Y-60750000D01*
%TO.N,+1V8*%
X30650000Y-55900000D02*
X35950000Y-55800000D01*
X26300000Y-48900000D02*
X26050000Y-51150000D01*
X27000000Y-56100000D02*
X27250000Y-56400000D01*
X26200000Y-53800000D02*
X27000000Y-56100000D01*
X26050000Y-51150000D02*
X26200000Y-53800000D01*
%TO.N,CS_AD5940*%
X34585910Y-9380775D02*
X28585910Y-9930775D01*
X28585910Y-9930775D02*
X24835910Y-10080775D01*
X22785910Y-9580775D02*
X23535910Y-9830775D01*
X21085910Y-8180775D02*
X22785910Y-9580775D01*
X24835910Y-10080775D02*
X23685910Y-9930775D01*
%TO.N,USB_DM*%
X7950000Y-13350000D02*
X9600000Y-12050000D01*
X7100000Y-13350000D02*
X7350000Y-13400000D01*
X7350000Y-13400000D02*
X7950000Y-13350000D01*
%TO.N,I2C_SCL*%
X19550000Y-48900000D02*
X19300000Y-51000000D01*
X19400000Y-44850000D02*
X18100000Y-45050000D01*
X18100000Y-45050000D02*
X16600000Y-45850000D01*
X14450000Y-47000000D02*
X13650000Y-47850000D01*
X16600000Y-45850000D02*
X14450000Y-47000000D01*
X19300000Y-51000000D02*
X19000000Y-51900000D01*
%TO.N,I2C_SDA*%
X19300000Y-51750000D02*
X19250000Y-52250000D01*
X16800000Y-44700000D02*
X15350000Y-45400000D01*
X18950000Y-44250000D02*
X16800000Y-44700000D01*
X11650000Y-43800000D02*
X9500000Y-43800000D01*
X13050000Y-45250000D02*
X11650000Y-43800000D01*
X19250000Y-52250000D02*
X19100000Y-52600000D01*
X21150000Y-49250000D02*
X19300000Y-51750000D01*
X15350000Y-45400000D02*
X13050000Y-45250000D01*
%TO.N,MAX86178_INT*%
X27900000Y-36350000D02*
X29900000Y-31300000D01*
X27500000Y-37700000D02*
X27900000Y-36400000D01*
%TO.N,ESP_TX*%
X14300000Y-51850000D02*
X14200000Y-51850000D01*
X15200000Y-52500000D02*
X14300000Y-51850000D01*
X21500000Y-45750000D02*
X23450000Y-45500000D01*
X18400000Y-45650000D02*
X21500000Y-45750000D01*
X15200000Y-53650000D02*
X15200000Y-52500000D01*
%TO.N,ESP_RX*%
X6650000Y-57500000D02*
X5900000Y-55250000D01*
X6700000Y-38400000D02*
X9800000Y-38150000D01*
X24900000Y-48400000D02*
X24250000Y-47650000D01*
X2800000Y-38900000D02*
X6000000Y-38300000D01*
X24900000Y-50200000D02*
X24900000Y-48400000D01*
X6000000Y-38300000D02*
X6700000Y-38400000D01*
X24250000Y-47650000D02*
X24000000Y-45850000D01*
X5450000Y-48900000D02*
X5350000Y-48650000D01*
X20200000Y-38700000D02*
X21150000Y-38900000D01*
X11800000Y-38750000D02*
X17800000Y-38700000D01*
X5900000Y-55250000D02*
X5450000Y-48900000D01*
X1350000Y-43400000D02*
X1350000Y-40050000D01*
X24000000Y-45850000D02*
X24000000Y-45500000D01*
X17800000Y-38700000D02*
X18250000Y-39050000D01*
X1350000Y-40050000D02*
X2800000Y-38900000D01*
X5350000Y-48650000D02*
X4200000Y-46300000D01*
X9800000Y-38150000D02*
X10100000Y-38450000D01*
X10100000Y-38450000D02*
X11800000Y-38750000D01*
X4200000Y-46300000D02*
X1350000Y-43400000D01*
X18250000Y-39050000D02*
X20200000Y-38700000D01*
%TO.N,I2C_SCL_1V8*%
X29450000Y-58800000D02*
X31450000Y-58950000D01*
X31450000Y-58950000D02*
X33700000Y-58500000D01*
X28800000Y-58350000D02*
X29450000Y-58800000D01*
%TO.N,BIOZ_FP*%
X35785910Y-16030775D02*
X34685910Y-16980775D01*
X24635910Y-24830775D02*
X24285910Y-24830775D01*
X27985910Y-22080775D02*
X24635910Y-24830775D01*
X29985910Y-20430775D02*
X27985910Y-22080775D01*
X31685910Y-19580775D02*
X29985910Y-20430775D01*
X34685910Y-16980775D02*
X31685910Y-19580775D01*
%TO.N,AIN4_LPF0*%
X37735910Y-12730775D02*
X38735910Y-15130775D01*
X37735910Y-11980775D02*
X37735910Y-12680775D01*
%TO.N,BIOZ_SP*%
X37085910Y-16680775D02*
X35585910Y-18330775D01*
X37335910Y-15230775D02*
X37085910Y-16680775D01*
%TO.N,DE0*%
X36885910Y-12680775D02*
X36435910Y-13730775D01*
X34435910Y-14930775D02*
X9585910Y-15030775D01*
X36935910Y-11980775D02*
X36935910Y-12680775D01*
X36185910Y-13780775D02*
X34435910Y-14930775D01*
X9585910Y-15030775D02*
X9285910Y-14880775D01*
X36435910Y-13730775D02*
X36185910Y-13780775D01*
X9285910Y-14880775D02*
X-614090Y-14580775D01*
%TO.N,VZERO0*%
X35835910Y-11880775D02*
X34385910Y-14530775D01*
X36485910Y-11830775D02*
X35835910Y-11830775D01*
%TO.N,SWEAT_WE*%
X40285910Y-11130775D02*
X40235910Y-11430775D01*
X38535910Y-10730775D02*
X40135910Y-10830775D01*
X37635910Y-11130775D02*
X38535910Y-10730775D01*
X39235910Y-17130775D02*
X39235910Y-17630775D01*
X40135910Y-10830775D02*
X40285910Y-11130775D01*
X40235910Y-11430775D02*
X39235910Y-17130775D01*
X37435910Y-11380775D02*
X37635910Y-11130775D01*
%TO.N,BIOZ_FN*%
X34435910Y-19030775D02*
X32635910Y-19230775D01*
X38685910Y-11030775D02*
X38985910Y-11080775D01*
X39135910Y-15230775D02*
X38785910Y-16180775D01*
X39035910Y-14880775D02*
X39135910Y-15230775D01*
X38985910Y-11080775D02*
X39035910Y-14880775D01*
X38785910Y-16180775D02*
X35685910Y-18730775D01*
X35685910Y-18730775D02*
X34435910Y-19030775D01*
%TO.N,VREF_2V5*%
X34285910Y-12080775D02*
X34285910Y-13080775D01*
X34585910Y-11280775D02*
X34285910Y-12080775D01*
X36485910Y-11030775D02*
X35835910Y-11030775D01*
X35785910Y-11030775D02*
X34585910Y-11280775D01*
%TO.N,SPI_MOSI*%
X30385910Y-41380775D02*
X30135910Y-40980775D01*
X31135910Y-41780775D02*
X30785910Y-41530775D01*
X28935910Y-39180775D02*
X28985910Y-39130775D01*
X35835910Y-10580775D02*
X34285910Y-6830775D01*
X30785910Y-41530775D02*
X30385910Y-41380775D01*
X30135910Y-40980775D02*
X28985910Y-40030775D01*
X27635910Y-51680775D02*
X27935910Y-51380775D01*
X30885910Y-46480775D02*
X31085910Y-46480775D01*
X28335910Y-51230775D02*
X29685910Y-50830775D01*
X36485910Y-10630775D02*
X35835910Y-10630775D01*
X27935910Y-51380775D02*
X28335910Y-51230775D01*
X28985910Y-40030775D02*
X28935910Y-39180775D01*
X31135910Y-49380775D02*
X31135910Y-41780775D01*
%TO.N,MISO_AD*%
X39235910Y-9530775D02*
X43035910Y-11080775D01*
%TO.N,AD5940_GPIO0*%
X8585910Y-6780775D02*
X8185910Y-7180775D01*
X34485910Y-6480775D02*
X32235910Y-6430775D01*
X23385910Y-6430775D02*
X8585910Y-6780775D01*
X32235910Y-6430775D02*
X24435910Y-6530775D01*
X37335910Y-10180775D02*
X37335910Y-9530775D01*
X24435910Y-6530775D02*
X23385910Y-6430775D01*
X37335910Y-9480775D02*
X34485910Y-6480775D01*
%TO.N,SPI_SCK*%
X29335910Y-53380775D02*
X30035910Y-52630775D01*
X30335910Y-51380775D02*
X30535910Y-49030775D01*
X29535910Y-46880775D02*
X29935910Y-46730775D01*
X30535910Y-49030775D02*
X28635910Y-41080775D01*
X30035910Y-52630775D02*
X30335910Y-51380775D01*
X28635910Y-41080775D02*
X27985910Y-40230775D01*
%TO.N,AFE4900_RESETZ*%
X30600000Y-51900000D02*
X30150000Y-52900000D01*
X24950000Y-59450000D02*
X21800000Y-59800000D01*
X29800000Y-54650000D02*
X27600000Y-56750000D01*
X30150000Y-52900000D02*
X29800000Y-54650000D01*
X27600000Y-56750000D02*
X25650000Y-59400000D01*
X25650000Y-59400000D02*
X24950000Y-59450000D01*
%TO.N,AFE4900_ADC_RDY*%
X30200000Y-43000000D02*
X29850000Y-42650000D01*
X31000000Y-51850000D02*
X30200000Y-43000000D01*
X29850000Y-55100000D02*
X30100000Y-54450000D01*
X30100000Y-54450000D02*
X31000000Y-51850000D01*
%TO.N,TMP117_ALERT*%
X14250000Y-51450000D02*
X13900000Y-51550000D01*
X16850000Y-53250000D02*
X14250000Y-51450000D01*
X13900000Y-51550000D02*
X13800000Y-52000000D01*
X14200000Y-52850000D02*
X14500000Y-53150000D01*
X18800000Y-53700000D02*
X18250000Y-53300000D01*
X18250000Y-53300000D02*
X16850000Y-53250000D01*
X13800000Y-52000000D02*
X14200000Y-52850000D01*
%TO.N,NIR_K*%
X20500000Y-53500000D02*
X19900000Y-53100000D01*
X16550000Y-49050000D02*
X16200000Y-48100000D01*
X32650000Y-56200000D02*
X32250000Y-56600000D01*
X16650000Y-51850000D02*
X16550000Y-49050000D01*
X37050000Y-52300000D02*
X37050000Y-55650000D01*
X37050000Y-55650000D02*
X35950000Y-56200000D01*
X16700000Y-52600000D02*
X16650000Y-51850000D01*
X36450000Y-52100000D02*
X37050000Y-52300000D01*
X35950000Y-56200000D02*
X32650000Y-56200000D01*
X17000000Y-53050000D02*
X16700000Y-52600000D01*
X19900000Y-53100000D02*
X17000000Y-53050000D01*
%TO.N,AFE_INM*%
X31700000Y-58600000D02*
X31349062Y-58592201D01*
X31700000Y-58600000D02*
X37050000Y-56250000D01*
X37050000Y-56250000D02*
X41600000Y-56200000D01*
%TO.N,AFE_BG*%
X28750000Y-50500000D02*
X28750000Y-49450000D01*
X27700000Y-50700000D02*
X28750000Y-50500000D01*
X27650000Y-50900000D02*
X27700000Y-50700000D01*
%TO.N,PD_INP*%
X21400000Y-45350000D02*
X18600000Y-45200000D01*
X16850000Y-45950000D02*
X16750000Y-46700000D01*
X16750000Y-46700000D02*
X14050000Y-49650000D01*
X18550000Y-45200000D02*
X18300000Y-45250000D01*
X10700000Y-55800000D02*
X11200000Y-55900000D01*
X11200000Y-55050000D02*
X10750000Y-55100000D01*
X13150000Y-53700000D02*
X11200000Y-55050000D01*
X13150000Y-52900000D02*
X13150000Y-53700000D01*
X10750000Y-55100000D02*
X10550000Y-55400000D01*
X14050000Y-49650000D02*
X13150000Y-52900000D01*
X10550000Y-55400000D02*
X10700000Y-55800000D01*
X18300000Y-45250000D02*
X16850000Y-45950000D01*
%TO.N,PD_INM*%
X19800000Y-55800000D02*
X14300000Y-55750000D01*
X25200000Y-51850000D02*
X25250000Y-53300000D01*
X25250000Y-53300000D02*
X24900000Y-54800000D01*
X23000000Y-56150000D02*
X22200000Y-56200000D01*
X21850000Y-56050000D02*
X19800000Y-55800000D01*
X22200000Y-56200000D02*
X21850000Y-56050000D01*
X24900000Y-54800000D02*
X23050000Y-56150000D01*
X14300000Y-55750000D02*
X12450000Y-56200000D01*
%TO.N,TX3*%
X23050000Y-54900000D02*
X17250000Y-54700000D01*
X24550000Y-53850000D02*
X23050000Y-54900000D01*
X24850000Y-53200000D02*
X24550000Y-53850000D01*
X17250000Y-54700000D02*
X15600000Y-54000000D01*
%TO.N,TX2*%
X16400000Y-55500000D02*
X10950000Y-55450000D01*
X18350000Y-55500000D02*
X16450000Y-55500000D01*
X22800000Y-55450000D02*
X21150000Y-55250000D01*
X21150000Y-55250000D02*
X18350000Y-55500000D01*
%TO.N,LED2_K*%
X32300000Y-50200000D02*
X33900000Y-50600000D01*
X33900000Y-50600000D02*
X39650000Y-52750000D01*
%TO.N,LED3_K*%
X29650000Y-58200000D02*
X29034707Y-57513711D01*
X30650000Y-55350000D02*
X29650000Y-56500000D01*
X29650000Y-56500000D02*
X29600000Y-56950000D01*
X29600000Y-56950000D02*
X29050000Y-57500000D01*
%TO.N,AFE_N_PAD*%
X31350000Y-41650000D02*
X31000000Y-40800000D01*
X30250000Y-54950000D02*
X31600000Y-52250000D01*
X31000000Y-40800000D02*
X29700000Y-38950000D01*
X31400000Y-46800000D02*
X31350000Y-41650000D01*
X29700000Y-38950000D02*
X28600000Y-37950000D01*
X29750000Y-55500000D02*
X30150000Y-55400000D01*
X31800000Y-51950000D02*
X31400000Y-46800000D01*
X31600000Y-52250000D02*
X31800000Y-51950000D01*
X29050000Y-55900000D02*
X29750000Y-55500000D01*
X27100000Y-36000000D02*
X22100000Y-30700000D01*
X28500000Y-37900000D02*
X28450000Y-37850000D01*
X23950000Y-58900000D02*
X24900000Y-58900000D01*
X17150000Y-60750000D02*
X23950000Y-58900000D01*
X30150000Y-55400000D02*
X30250000Y-54950000D01*
%TO.N,unconnected-(J12-PadMP)*%
X650000Y-48550000D02*
X650000Y-56500000D01*
%TD*%
M02*
