%TF.GenerationSoftware,KiCad,Pcbnew,10.0.4*%
%TF.CreationDate,2026-10-09T22:51:58+01:00*%
%TF.ProjectId,vitalq_v2,76697461-6c71-45f7-9632-2e6b69636164,rev?*%
%TF.SameCoordinates,Original*%
%TF.FileFunction,Drillmap*%
%TF.FilePolarity,Positive*%
%FSLAX45Y45*%
G04 Gerber Fmt 4.5, Leading zero omitted, Abs format (unit mm)*
G04 Created by KiCad (PCBNEW 10.0.4) date 2026-10-09 22:51:58*
%MOMM*%
%LPD*%
G01*
G04 APERTURE LIST*
%ADD10C,0.100000*%
%ADD11C,0.200000*%
G04 APERTURE END LIST*
D10*
X-200000Y1050000D02*
X4800000Y1050000D01*
X-200000Y-6450000D02*
X-200000Y1050000D01*
X682500Y-2480000D02*
X782500Y-2480000D01*
X682500Y-2920000D02*
X682500Y-2480000D01*
X682500Y-4050000D02*
X782500Y-4050000D01*
X682500Y-4490000D02*
X682500Y-4050000D01*
X730000Y-5155000D02*
X830000Y-5155000D01*
X730000Y-5260000D02*
X730000Y-5155000D01*
X782500Y-2480000D02*
X782500Y-2920000D01*
X782500Y-2920000D02*
X682500Y-2920000D01*
X782500Y-4050000D02*
X782500Y-4490000D01*
X782500Y-4490000D02*
X682500Y-4490000D01*
X830000Y-5155000D02*
X830000Y-5260000D01*
X830000Y-5260000D02*
X730000Y-5260000D01*
X930000Y-4760000D02*
X1150000Y-4760000D01*
X930000Y-4860000D02*
X930000Y-4760000D01*
X1150000Y-4760000D02*
X1150000Y-4860000D01*
X1150000Y-4860000D02*
X930000Y-4860000D01*
X1190000Y-4950000D02*
X1290000Y-4950000D01*
X1190000Y-5230000D02*
X1190000Y-4950000D01*
X1290000Y-4950000D02*
X1290000Y-5230000D01*
X1290000Y-5230000D02*
X1190000Y-5230000D01*
X1327500Y-2480000D02*
X1427500Y-2480000D01*
X1327500Y-2920000D02*
X1327500Y-2480000D01*
X1327500Y-4050000D02*
X1427500Y-4050000D01*
X1327500Y-4490000D02*
X1327500Y-4050000D01*
X1427500Y-2480000D02*
X1427500Y-2920000D01*
X1427500Y-2920000D02*
X1327500Y-2920000D01*
X1427500Y-4050000D02*
X1427500Y-4490000D01*
X1427500Y-4490000D02*
X1327500Y-4490000D01*
X1720000Y-4619000D02*
X2310000Y-4619000D01*
X1720000Y-5270000D02*
X1720000Y-4619000D01*
X1830000Y-5170000D02*
X1830000Y-5270000D01*
X1830000Y-5270000D02*
X1720000Y-5270000D01*
X1853000Y-4790000D02*
X1853000Y-5170000D01*
X1853000Y-5170000D02*
X1830000Y-5170000D01*
X1972500Y-2480000D02*
X2072500Y-2480000D01*
X1972500Y-2920000D02*
X1972500Y-2480000D01*
X2010000Y-4050000D02*
X2110000Y-4050000D01*
X2010000Y-4490000D02*
X2010000Y-4050000D01*
X2070000Y-5170000D02*
X2187000Y-5170000D01*
X2070000Y-5270000D02*
X2070000Y-5170000D01*
X2072500Y-2480000D02*
X2072500Y-2920000D01*
X2072500Y-2920000D02*
X1972500Y-2920000D01*
X2110000Y-4050000D02*
X2110000Y-4490000D01*
X2110000Y-4490000D02*
X2010000Y-4490000D01*
X2187000Y-4790000D02*
X1853000Y-4790000D01*
X2187000Y-5170000D02*
X2187000Y-4790000D01*
X2200000Y-5350000D02*
X2300000Y-5350000D01*
X2200000Y-5450000D02*
X2200000Y-5350000D01*
X2300000Y-5350000D02*
X2300000Y-5450000D01*
X2300000Y-5450000D02*
X2200000Y-5450000D01*
X2310000Y-4619000D02*
X2310000Y-5270000D01*
X2310000Y-5270000D02*
X2070000Y-5270000D01*
X2617500Y-2480000D02*
X2717500Y-2480000D01*
X2617500Y-2920000D02*
X2617500Y-2480000D01*
X2717500Y-2480000D02*
X2717500Y-2920000D01*
X2717500Y-2920000D02*
X2617500Y-2920000D01*
X4800000Y1050000D02*
X4800000Y-6450000D01*
X4800000Y-6450000D02*
X-200000Y-6450000D01*
D11*
D10*
X1132500Y-1237500D02*
X1147500Y-1252500D01*
X1147500Y-1237500D02*
X1132500Y-1252500D01*
X1162500Y-1032500D02*
X1177500Y-1047500D01*
X1177500Y-1032500D02*
X1162500Y-1047500D01*
X1182500Y-1382500D02*
X1197500Y-1397500D01*
X1197500Y-1382500D02*
X1182500Y-1397500D01*
X1232500Y-1382500D02*
X1247500Y-1397500D01*
X1247500Y-1382500D02*
X1232500Y-1397500D01*
X1337500Y-927500D02*
X1352500Y-942500D01*
X1352500Y-927500D02*
X1337500Y-942500D01*
X1487500Y-817500D02*
X1502500Y-832500D01*
X1502500Y-817500D02*
X1487500Y-832500D01*
X1852500Y-872500D02*
X1867500Y-887500D01*
X1867500Y-872500D02*
X1852500Y-887500D01*
X2277500Y-912500D02*
X2292500Y-927500D01*
X2292500Y-912500D02*
X2277500Y-927500D01*
X2562500Y-4687500D02*
X2577500Y-4702500D01*
X2577500Y-4687500D02*
X2562500Y-4702500D01*
X2632500Y-5092500D02*
X2647500Y-5107500D01*
X2647500Y-5092500D02*
X2632500Y-5107500D01*
X2632500Y-5132500D02*
X2647500Y-5147500D01*
X2647500Y-5132500D02*
X2632500Y-5147500D01*
X2642500Y-4687500D02*
X2657500Y-4702500D01*
X2657500Y-4687500D02*
X2642500Y-4702500D01*
X2642500Y-4727500D02*
X2657500Y-4742500D01*
X2657500Y-4727500D02*
X2642500Y-4742500D01*
X2672500Y-5012500D02*
X2687500Y-5027500D01*
X2687500Y-5012500D02*
X2672500Y-5027500D01*
X2672500Y-5052500D02*
X2687500Y-5067500D01*
X2687500Y-5052500D02*
X2672500Y-5067500D01*
X2672500Y-5092500D02*
X2687500Y-5107500D01*
X2687500Y-5092500D02*
X2672500Y-5107500D01*
X2672500Y-5132500D02*
X2687500Y-5147500D01*
X2687500Y-5132500D02*
X2672500Y-5147500D01*
X2682500Y-4727500D02*
X2697500Y-4742500D01*
X2697500Y-4727500D02*
X2682500Y-4742500D01*
X2682500Y-4807500D02*
X2697500Y-4822500D01*
X2697500Y-4807500D02*
X2682500Y-4822500D01*
X2712500Y-4972500D02*
X2727500Y-4987500D01*
X2727500Y-4972500D02*
X2712500Y-4987500D01*
X2712500Y-5132500D02*
X2727500Y-5147500D01*
X2727500Y-5132500D02*
X2712500Y-5147500D01*
X2752500Y-5012500D02*
X2767500Y-5027500D01*
X2767500Y-5012500D02*
X2752500Y-5027500D01*
X2752500Y-5092500D02*
X2767500Y-5107500D01*
X2767500Y-5092500D02*
X2752500Y-5107500D01*
X2752500Y-5172500D02*
X2767500Y-5187500D01*
X2767500Y-5172500D02*
X2752500Y-5187500D01*
X2792500Y-4972500D02*
X2807500Y-4987500D01*
X2807500Y-4972500D02*
X2792500Y-4987500D01*
X2792500Y-5092500D02*
X2807500Y-5107500D01*
X2807500Y-5092500D02*
X2792500Y-5107500D01*
X2792500Y-5172500D02*
X2807500Y-5187500D01*
X2807500Y-5172500D02*
X2792500Y-5187500D01*
X2957500Y-3937500D02*
X2972500Y-3952500D01*
X2972500Y-3937500D02*
X2957500Y-3952500D01*
X3567500Y-3232500D02*
X3582500Y-3247500D01*
X3582500Y-3232500D02*
X3567500Y-3247500D01*
X3567500Y-3327500D02*
X3582500Y-3342500D01*
X3582500Y-3327500D02*
X3567500Y-3342500D01*
X3651091Y-1020577D02*
X3666091Y-1035577D01*
X3666091Y-1020577D02*
X3651091Y-1035577D01*
X3651091Y-1060578D02*
X3666091Y-1075578D01*
X3666091Y-1060578D02*
X3651091Y-1075578D01*
X3651091Y-1100578D02*
X3666091Y-1115578D01*
X3666091Y-1100578D02*
X3651091Y-1115578D01*
X3651091Y-1140578D02*
X3666091Y-1155578D01*
X3666091Y-1140578D02*
X3651091Y-1155578D01*
X3651091Y-1180578D02*
X3666091Y-1195578D01*
X3666091Y-1180578D02*
X3651091Y-1195578D01*
X3667500Y-2937500D02*
X3682500Y-2952500D01*
X3682500Y-2937500D02*
X3667500Y-2952500D01*
X3691091Y-1060578D02*
X3706091Y-1075578D01*
X3706091Y-1060578D02*
X3691091Y-1075578D01*
X3691091Y-1180578D02*
X3706091Y-1195578D01*
X3706091Y-1180578D02*
X3691091Y-1195578D01*
X3731091Y-1020577D02*
X3746091Y-1035577D01*
X3746091Y-1020577D02*
X3731091Y-1035577D01*
X3731091Y-1140578D02*
X3746091Y-1155578D01*
X3746091Y-1140578D02*
X3731091Y-1155578D01*
X3731091Y-1180578D02*
X3746091Y-1195578D01*
X3746091Y-1180578D02*
X3731091Y-1195578D01*
X3771091Y-1140578D02*
X3786091Y-1155578D01*
X3786091Y-1140578D02*
X3771091Y-1155578D01*
X3771091Y-1180578D02*
X3786091Y-1195578D01*
X3786091Y-1180578D02*
X3771091Y-1195578D01*
X3811091Y-1020577D02*
X3826091Y-1035577D01*
X3826091Y-1020577D02*
X3811091Y-1035577D01*
X3811091Y-1180578D02*
X3826091Y-1195578D01*
X3826091Y-1180578D02*
X3811091Y-1195578D01*
X3851091Y-1100578D02*
X3866091Y-1115578D01*
X3866091Y-1100578D02*
X3851091Y-1115578D01*
X-51409Y-1458077D02*
G75*
G02*
X-71409Y-1458077I-10000J0D01*
G01*
X-71409Y-1458077D02*
G75*
G02*
X-51409Y-1458077I10000J0D01*
G01*
X75000Y-4855000D02*
G75*
G02*
X55000Y-4855000I-10000J0D01*
G01*
X55000Y-4855000D02*
G75*
G02*
X75000Y-4855000I10000J0D01*
G01*
X75000Y-5650000D02*
G75*
G02*
X55000Y-5650000I-10000J0D01*
G01*
X55000Y-5650000D02*
G75*
G02*
X75000Y-5650000I10000J0D01*
G01*
X235000Y-4360000D02*
G75*
G02*
X215000Y-4360000I-10000J0D01*
G01*
X215000Y-4360000D02*
G75*
G02*
X235000Y-4360000I10000J0D01*
G01*
X285000Y-3990000D02*
G75*
G02*
X265000Y-3990000I-10000J0D01*
G01*
X265000Y-3990000D02*
G75*
G02*
X285000Y-3990000I10000J0D01*
G01*
X530000Y-3990000D02*
G75*
G02*
X510000Y-3990000I-10000J0D01*
G01*
X510000Y-3990000D02*
G75*
G02*
X530000Y-3990000I10000J0D01*
G01*
X675000Y-5750000D02*
G75*
G02*
X655000Y-5750000I-10000J0D01*
G01*
X655000Y-5750000D02*
G75*
G02*
X675000Y-5750000I10000J0D01*
G01*
X688591Y-5953077D02*
G75*
G02*
X668591Y-5953077I-10000J0D01*
G01*
X668591Y-5953077D02*
G75*
G02*
X688591Y-5953077I10000J0D01*
G01*
X828591Y-718077D02*
G75*
G02*
X808591Y-718077I-10000J0D01*
G01*
X808591Y-718077D02*
G75*
G02*
X828591Y-718077I10000J0D01*
G01*
X970000Y-1205000D02*
G75*
G02*
X950000Y-1205000I-10000J0D01*
G01*
X950000Y-1205000D02*
G75*
G02*
X970000Y-1205000I10000J0D01*
G01*
X970000Y-3855000D02*
G75*
G02*
X950000Y-3855000I-10000J0D01*
G01*
X950000Y-3855000D02*
G75*
G02*
X970000Y-3855000I10000J0D01*
G01*
X1085000Y-4240000D02*
G75*
G02*
X1065000Y-4240000I-10000J0D01*
G01*
X1065000Y-4240000D02*
G75*
G02*
X1085000Y-4240000I10000J0D01*
G01*
X1105000Y-5545000D02*
G75*
G02*
X1085000Y-5545000I-10000J0D01*
G01*
X1085000Y-5545000D02*
G75*
G02*
X1105000Y-5545000I10000J0D01*
G01*
X1130000Y-5590000D02*
G75*
G02*
X1110000Y-5590000I-10000J0D01*
G01*
X1110000Y-5590000D02*
G75*
G02*
X1130000Y-5590000I10000J0D01*
G01*
X1220000Y-3720000D02*
G75*
G02*
X1200000Y-3720000I-10000J0D01*
G01*
X1200000Y-3720000D02*
G75*
G02*
X1220000Y-3720000I10000J0D01*
G01*
X1255000Y-5620000D02*
G75*
G02*
X1235000Y-5620000I-10000J0D01*
G01*
X1235000Y-5620000D02*
G75*
G02*
X1255000Y-5620000I10000J0D01*
G01*
X1345000Y-775000D02*
G75*
G02*
X1325000Y-775000I-10000J0D01*
G01*
X1325000Y-775000D02*
G75*
G02*
X1345000Y-775000I10000J0D01*
G01*
X1430000Y-5185000D02*
G75*
G02*
X1410000Y-5185000I-10000J0D01*
G01*
X1410000Y-5185000D02*
G75*
G02*
X1430000Y-5185000I10000J0D01*
G01*
X1460000Y-5315000D02*
G75*
G02*
X1440000Y-5315000I-10000J0D01*
G01*
X1440000Y-5315000D02*
G75*
G02*
X1460000Y-5315000I10000J0D01*
G01*
X1530000Y-5365000D02*
G75*
G02*
X1510000Y-5365000I-10000J0D01*
G01*
X1510000Y-5365000D02*
G75*
G02*
X1530000Y-5365000I10000J0D01*
G01*
X1530000Y-5900000D02*
G75*
G02*
X1510000Y-5900000I-10000J0D01*
G01*
X1510000Y-5900000D02*
G75*
G02*
X1530000Y-5900000I10000J0D01*
G01*
X1550000Y-3990000D02*
G75*
G02*
X1530000Y-3990000I-10000J0D01*
G01*
X1530000Y-3990000D02*
G75*
G02*
X1550000Y-3990000I10000J0D01*
G01*
X1570000Y-5400000D02*
G75*
G02*
X1550000Y-5400000I-10000J0D01*
G01*
X1550000Y-5400000D02*
G75*
G02*
X1570000Y-5400000I10000J0D01*
G01*
X1605000Y-5800000D02*
G75*
G02*
X1585000Y-5800000I-10000J0D01*
G01*
X1585000Y-5800000D02*
G75*
G02*
X1605000Y-5800000I10000J0D01*
G01*
X1620000Y-5880000D02*
G75*
G02*
X1600000Y-5880000I-10000J0D01*
G01*
X1600000Y-5880000D02*
G75*
G02*
X1620000Y-5880000I10000J0D01*
G01*
X1725000Y-6075000D02*
G75*
G02*
X1705000Y-6075000I-10000J0D01*
G01*
X1705000Y-6075000D02*
G75*
G02*
X1725000Y-6075000I10000J0D01*
G01*
X1760000Y-4360000D02*
G75*
G02*
X1740000Y-4360000I-10000J0D01*
G01*
X1740000Y-4360000D02*
G75*
G02*
X1760000Y-4360000I10000J0D01*
G01*
X1850000Y-4565000D02*
G75*
G02*
X1830000Y-4565000I-10000J0D01*
G01*
X1830000Y-4565000D02*
G75*
G02*
X1850000Y-4565000I10000J0D01*
G01*
X1890000Y-5370000D02*
G75*
G02*
X1870000Y-5370000I-10000J0D01*
G01*
X1870000Y-5370000D02*
G75*
G02*
X1890000Y-5370000I10000J0D01*
G01*
X1900000Y-5205000D02*
G75*
G02*
X1880000Y-5205000I-10000J0D01*
G01*
X1880000Y-5205000D02*
G75*
G02*
X1900000Y-5205000I10000J0D01*
G01*
X1905000Y-4360000D02*
G75*
G02*
X1885000Y-4360000I-10000J0D01*
G01*
X1885000Y-4360000D02*
G75*
G02*
X1905000Y-4360000I10000J0D01*
G01*
X1905000Y-4425000D02*
G75*
G02*
X1885000Y-4425000I-10000J0D01*
G01*
X1885000Y-4425000D02*
G75*
G02*
X1905000Y-4425000I10000J0D01*
G01*
X1920000Y-5260000D02*
G75*
G02*
X1900000Y-5260000I-10000J0D01*
G01*
X1900000Y-5260000D02*
G75*
G02*
X1920000Y-5260000I10000J0D01*
G01*
X1925000Y-4925000D02*
G75*
G02*
X1905000Y-4925000I-10000J0D01*
G01*
X1905000Y-4925000D02*
G75*
G02*
X1925000Y-4925000I10000J0D01*
G01*
X1950000Y-4485000D02*
G75*
G02*
X1930000Y-4485000I-10000J0D01*
G01*
X1930000Y-4485000D02*
G75*
G02*
X1950000Y-4485000I10000J0D01*
G01*
X1965000Y-4890000D02*
G75*
G02*
X1945000Y-4890000I-10000J0D01*
G01*
X1945000Y-4890000D02*
G75*
G02*
X1965000Y-4890000I10000J0D01*
G01*
X2060000Y-5350000D02*
G75*
G02*
X2040000Y-5350000I-10000J0D01*
G01*
X2040000Y-5350000D02*
G75*
G02*
X2060000Y-5350000I10000J0D01*
G01*
X2118591Y-818077D02*
G75*
G02*
X2098591Y-818077I-10000J0D01*
G01*
X2098591Y-818077D02*
G75*
G02*
X2118591Y-818077I10000J0D01*
G01*
X2125000Y-3890000D02*
G75*
G02*
X2105000Y-3890000I-10000J0D01*
G01*
X2105000Y-3890000D02*
G75*
G02*
X2125000Y-3890000I10000J0D01*
G01*
X2125000Y-4925000D02*
G75*
G02*
X2105000Y-4925000I-10000J0D01*
G01*
X2105000Y-4925000D02*
G75*
G02*
X2125000Y-4925000I10000J0D01*
G01*
X2135000Y-5040000D02*
G75*
G02*
X2115000Y-5040000I-10000J0D01*
G01*
X2115000Y-5040000D02*
G75*
G02*
X2135000Y-5040000I10000J0D01*
G01*
X2150000Y-4535000D02*
G75*
G02*
X2130000Y-4535000I-10000J0D01*
G01*
X2130000Y-4535000D02*
G75*
G02*
X2150000Y-4535000I10000J0D01*
G01*
X2160000Y-5565000D02*
G75*
G02*
X2140000Y-5565000I-10000J0D01*
G01*
X2140000Y-5565000D02*
G75*
G02*
X2160000Y-5565000I10000J0D01*
G01*
X2170000Y-2530000D02*
G75*
G02*
X2150000Y-2530000I-10000J0D01*
G01*
X2150000Y-2530000D02*
G75*
G02*
X2170000Y-2530000I10000J0D01*
G01*
X2190000Y-2320000D02*
G75*
G02*
X2170000Y-2320000I-10000J0D01*
G01*
X2170000Y-2320000D02*
G75*
G02*
X2190000Y-2320000I10000J0D01*
G01*
X2208591Y-4513078D02*
G75*
G02*
X2188591Y-4513078I-10000J0D01*
G01*
X2188591Y-4513078D02*
G75*
G02*
X2208591Y-4513078I10000J0D01*
G01*
X2210000Y-2900000D02*
G75*
G02*
X2190000Y-2900000I-10000J0D01*
G01*
X2190000Y-2900000D02*
G75*
G02*
X2210000Y-2900000I10000J0D01*
G01*
X2220000Y-3070000D02*
G75*
G02*
X2200000Y-3070000I-10000J0D01*
G01*
X2200000Y-3070000D02*
G75*
G02*
X2220000Y-3070000I10000J0D01*
G01*
X2220000Y-3950000D02*
G75*
G02*
X2200000Y-3950000I-10000J0D01*
G01*
X2200000Y-3950000D02*
G75*
G02*
X2220000Y-3950000I10000J0D01*
G01*
X2230000Y-4360000D02*
G75*
G02*
X2210000Y-4360000I-10000J0D01*
G01*
X2210000Y-4360000D02*
G75*
G02*
X2230000Y-4360000I10000J0D01*
G01*
X2290000Y-3850000D02*
G75*
G02*
X2270000Y-3850000I-10000J0D01*
G01*
X2270000Y-3850000D02*
G75*
G02*
X2290000Y-3850000I10000J0D01*
G01*
X2290000Y-5545000D02*
G75*
G02*
X2270000Y-5545000I-10000J0D01*
G01*
X2270000Y-5545000D02*
G75*
G02*
X2290000Y-5545000I10000J0D01*
G01*
X2350000Y-5545000D02*
G75*
G02*
X2330000Y-5545000I-10000J0D01*
G01*
X2330000Y-5545000D02*
G75*
G02*
X2350000Y-5545000I10000J0D01*
G01*
X2355000Y-4550000D02*
G75*
G02*
X2335000Y-4550000I-10000J0D01*
G01*
X2335000Y-4550000D02*
G75*
G02*
X2355000Y-4550000I10000J0D01*
G01*
X2378591Y-993077D02*
G75*
G02*
X2358591Y-993077I-10000J0D01*
G01*
X2358591Y-993077D02*
G75*
G02*
X2378591Y-993077I10000J0D01*
G01*
X2410000Y-4550000D02*
G75*
G02*
X2390000Y-4550000I-10000J0D01*
G01*
X2390000Y-4550000D02*
G75*
G02*
X2410000Y-4550000I10000J0D01*
G01*
X2438591Y-2483078D02*
G75*
G02*
X2418591Y-2483078I-10000J0D01*
G01*
X2418591Y-2483078D02*
G75*
G02*
X2438591Y-2483078I10000J0D01*
G01*
X2450000Y-4615000D02*
G75*
G02*
X2430000Y-4615000I-10000J0D01*
G01*
X2430000Y-4615000D02*
G75*
G02*
X2450000Y-4615000I10000J0D01*
G01*
X2475000Y-4755000D02*
G75*
G02*
X2455000Y-4755000I-10000J0D01*
G01*
X2455000Y-4755000D02*
G75*
G02*
X2475000Y-4755000I10000J0D01*
G01*
X2495000Y-5320000D02*
G75*
G02*
X2475000Y-5320000I-10000J0D01*
G01*
X2475000Y-5320000D02*
G75*
G02*
X2495000Y-5320000I10000J0D01*
G01*
X2500000Y-5020000D02*
G75*
G02*
X2480000Y-5020000I-10000J0D01*
G01*
X2480000Y-5020000D02*
G75*
G02*
X2500000Y-5020000I10000J0D01*
G01*
X2500000Y-5890000D02*
G75*
G02*
X2480000Y-5890000I-10000J0D01*
G01*
X2480000Y-5890000D02*
G75*
G02*
X2500000Y-5890000I10000J0D01*
G01*
X2510000Y-4665000D02*
G75*
G02*
X2490000Y-4665000I-10000J0D01*
G01*
X2490000Y-4665000D02*
G75*
G02*
X2510000Y-4665000I10000J0D01*
G01*
X2530000Y-5185000D02*
G75*
G02*
X2510000Y-5185000I-10000J0D01*
G01*
X2510000Y-5185000D02*
G75*
G02*
X2530000Y-5185000I10000J0D01*
G01*
X2540000Y-4950000D02*
G75*
G02*
X2520000Y-4950000I-10000J0D01*
G01*
X2520000Y-4950000D02*
G75*
G02*
X2540000Y-4950000I10000J0D01*
G01*
X2550000Y-5450000D02*
G75*
G02*
X2530000Y-5450000I-10000J0D01*
G01*
X2530000Y-5450000D02*
G75*
G02*
X2550000Y-5450000I10000J0D01*
G01*
X2575000Y-5155000D02*
G75*
G02*
X2555000Y-5155000I-10000J0D01*
G01*
X2555000Y-5155000D02*
G75*
G02*
X2575000Y-5155000I10000J0D01*
G01*
X2575000Y-5735000D02*
G75*
G02*
X2555000Y-5735000I-10000J0D01*
G01*
X2555000Y-5735000D02*
G75*
G02*
X2575000Y-5735000I10000J0D01*
G01*
X2578591Y-4983078D02*
G75*
G02*
X2558591Y-4983078I-10000J0D01*
G01*
X2558591Y-4983078D02*
G75*
G02*
X2578591Y-4983078I10000J0D01*
G01*
X2608591Y-3683077D02*
G75*
G02*
X2588591Y-3683077I-10000J0D01*
G01*
X2588591Y-3683077D02*
G75*
G02*
X2608591Y-3683077I10000J0D01*
G01*
X2635000Y-5585000D02*
G75*
G02*
X2615000Y-5585000I-10000J0D01*
G01*
X2615000Y-5585000D02*
G75*
G02*
X2635000Y-5585000I10000J0D01*
G01*
X2640000Y-4890000D02*
G75*
G02*
X2620000Y-4890000I-10000J0D01*
G01*
X2620000Y-4890000D02*
G75*
G02*
X2640000Y-4890000I10000J0D01*
G01*
X2680000Y-6105000D02*
G75*
G02*
X2660000Y-6105000I-10000J0D01*
G01*
X2660000Y-6105000D02*
G75*
G02*
X2680000Y-6105000I10000J0D01*
G01*
X2688591Y-4908078D02*
G75*
G02*
X2668591Y-4908078I-10000J0D01*
G01*
X2668591Y-4908078D02*
G75*
G02*
X2688591Y-4908078I10000J0D01*
G01*
X2710000Y-4195000D02*
G75*
G02*
X2690000Y-4195000I-10000J0D01*
G01*
X2690000Y-4195000D02*
G75*
G02*
X2710000Y-4195000I10000J0D01*
G01*
X2713591Y-4103077D02*
G75*
G02*
X2693591Y-4103077I-10000J0D01*
G01*
X2693591Y-4103077D02*
G75*
G02*
X2713591Y-4103077I10000J0D01*
G01*
X2720000Y-3600000D02*
G75*
G02*
X2700000Y-3600000I-10000J0D01*
G01*
X2700000Y-3600000D02*
G75*
G02*
X2720000Y-3600000I10000J0D01*
G01*
X2720000Y-5455000D02*
G75*
G02*
X2700000Y-5455000I-10000J0D01*
G01*
X2700000Y-5455000D02*
G75*
G02*
X2720000Y-5455000I10000J0D01*
G01*
X2720000Y-5935000D02*
G75*
G02*
X2700000Y-5935000I-10000J0D01*
G01*
X2700000Y-5935000D02*
G75*
G02*
X2720000Y-5935000I10000J0D01*
G01*
X2740000Y-5580000D02*
G75*
G02*
X2720000Y-5580000I-10000J0D01*
G01*
X2720000Y-5580000D02*
G75*
G02*
X2740000Y-5580000I10000J0D01*
G01*
X2750000Y-4235000D02*
G75*
G02*
X2730000Y-4235000I-10000J0D01*
G01*
X2730000Y-4235000D02*
G75*
G02*
X2750000Y-4235000I10000J0D01*
G01*
X2760000Y-3770000D02*
G75*
G02*
X2740000Y-3770000I-10000J0D01*
G01*
X2740000Y-3770000D02*
G75*
G02*
X2760000Y-3770000I10000J0D01*
G01*
X2760000Y-4725000D02*
G75*
G02*
X2740000Y-4725000I-10000J0D01*
G01*
X2740000Y-4725000D02*
G75*
G02*
X2760000Y-4725000I10000J0D01*
G01*
X2805000Y-3460000D02*
G75*
G02*
X2785000Y-3460000I-10000J0D01*
G01*
X2785000Y-3460000D02*
G75*
G02*
X2805000Y-3460000I10000J0D01*
G01*
X2808591Y-4023077D02*
G75*
G02*
X2788591Y-4023077I-10000J0D01*
G01*
X2788591Y-4023077D02*
G75*
G02*
X2808591Y-4023077I10000J0D01*
G01*
X2820000Y-4835000D02*
G75*
G02*
X2800000Y-4835000I-10000J0D01*
G01*
X2800000Y-4835000D02*
G75*
G02*
X2820000Y-4835000I10000J0D01*
G01*
X2840000Y-5820000D02*
G75*
G02*
X2820000Y-5820000I-10000J0D01*
G01*
X2820000Y-5820000D02*
G75*
G02*
X2840000Y-5820000I10000J0D01*
G01*
X2855000Y-3785000D02*
G75*
G02*
X2835000Y-3785000I-10000J0D01*
G01*
X2835000Y-3785000D02*
G75*
G02*
X2855000Y-3785000I10000J0D01*
G01*
X2885000Y-4945000D02*
G75*
G02*
X2865000Y-4945000I-10000J0D01*
G01*
X2865000Y-4945000D02*
G75*
G02*
X2885000Y-4945000I10000J0D01*
G01*
X2890000Y-5835000D02*
G75*
G02*
X2870000Y-5835000I-10000J0D01*
G01*
X2870000Y-5835000D02*
G75*
G02*
X2890000Y-5835000I10000J0D01*
G01*
X2900000Y-5600000D02*
G75*
G02*
X2880000Y-5600000I-10000J0D01*
G01*
X2880000Y-5600000D02*
G75*
G02*
X2900000Y-5600000I10000J0D01*
G01*
X2925000Y-2530000D02*
G75*
G02*
X2905000Y-2530000I-10000J0D01*
G01*
X2905000Y-2530000D02*
G75*
G02*
X2925000Y-2530000I10000J0D01*
G01*
X2928591Y-4118077D02*
G75*
G02*
X2908591Y-4118077I-10000J0D01*
G01*
X2908591Y-4118077D02*
G75*
G02*
X2928591Y-4118077I10000J0D01*
G01*
X2935000Y-4890000D02*
G75*
G02*
X2915000Y-4890000I-10000J0D01*
G01*
X2915000Y-4890000D02*
G75*
G02*
X2935000Y-4890000I10000J0D01*
G01*
X2943591Y-5338078D02*
G75*
G02*
X2923591Y-5338078I-10000J0D01*
G01*
X2923591Y-5338078D02*
G75*
G02*
X2943591Y-5338078I10000J0D01*
G01*
X2945000Y-4250000D02*
G75*
G02*
X2925000Y-4250000I-10000J0D01*
G01*
X2925000Y-4250000D02*
G75*
G02*
X2945000Y-4250000I10000J0D01*
G01*
X2945000Y-4615000D02*
G75*
G02*
X2925000Y-4615000I-10000J0D01*
G01*
X2925000Y-4615000D02*
G75*
G02*
X2945000Y-4615000I10000J0D01*
G01*
X2948591Y-4948078D02*
G75*
G02*
X2928591Y-4948078I-10000J0D01*
G01*
X2928591Y-4948078D02*
G75*
G02*
X2948591Y-4948078I10000J0D01*
G01*
X2963591Y-4688078D02*
G75*
G02*
X2943591Y-4688078I-10000J0D01*
G01*
X2943591Y-4688078D02*
G75*
G02*
X2963591Y-4688078I10000J0D01*
G01*
X2970000Y-5600000D02*
G75*
G02*
X2950000Y-5600000I-10000J0D01*
G01*
X2950000Y-5600000D02*
G75*
G02*
X2970000Y-5600000I10000J0D01*
G01*
X2975000Y-4740000D02*
G75*
G02*
X2955000Y-4740000I-10000J0D01*
G01*
X2955000Y-4740000D02*
G75*
G02*
X2975000Y-4740000I10000J0D01*
G01*
X2975000Y-5820000D02*
G75*
G02*
X2955000Y-5820000I-10000J0D01*
G01*
X2955000Y-5820000D02*
G75*
G02*
X2975000Y-5820000I10000J0D01*
G01*
X2978591Y-5083078D02*
G75*
G02*
X2958591Y-5083078I-10000J0D01*
G01*
X2958591Y-5083078D02*
G75*
G02*
X2978591Y-5083078I10000J0D01*
G01*
X2995000Y-4265000D02*
G75*
G02*
X2975000Y-4265000I-10000J0D01*
G01*
X2975000Y-4265000D02*
G75*
G02*
X2995000Y-4265000I10000J0D01*
G01*
X2995000Y-5510000D02*
G75*
G02*
X2975000Y-5510000I-10000J0D01*
G01*
X2975000Y-5510000D02*
G75*
G02*
X2995000Y-5510000I10000J0D01*
G01*
X3000000Y-3130000D02*
G75*
G02*
X2980000Y-3130000I-10000J0D01*
G01*
X2980000Y-3130000D02*
G75*
G02*
X3000000Y-3130000I10000J0D01*
G01*
X3005000Y-4820000D02*
G75*
G02*
X2985000Y-4820000I-10000J0D01*
G01*
X2985000Y-4820000D02*
G75*
G02*
X3005000Y-4820000I10000J0D01*
G01*
X3040000Y-5630000D02*
G75*
G02*
X3020000Y-5630000I-10000J0D01*
G01*
X3020000Y-5630000D02*
G75*
G02*
X3040000Y-5630000I10000J0D01*
G01*
X3040000Y-6035000D02*
G75*
G02*
X3020000Y-6035000I-10000J0D01*
G01*
X3020000Y-6035000D02*
G75*
G02*
X3040000Y-6035000I10000J0D01*
G01*
X3050000Y-4250000D02*
G75*
G02*
X3030000Y-4250000I-10000J0D01*
G01*
X3030000Y-4250000D02*
G75*
G02*
X3050000Y-4250000I10000J0D01*
G01*
X3070000Y-5190000D02*
G75*
G02*
X3050000Y-5190000I-10000J0D01*
G01*
X3050000Y-5190000D02*
G75*
G02*
X3070000Y-5190000I10000J0D01*
G01*
X3075000Y-5535000D02*
G75*
G02*
X3055000Y-5535000I-10000J0D01*
G01*
X3055000Y-5535000D02*
G75*
G02*
X3075000Y-5535000I10000J0D01*
G01*
X3075000Y-5590000D02*
G75*
G02*
X3055000Y-5590000I-10000J0D01*
G01*
X3055000Y-5590000D02*
G75*
G02*
X3075000Y-5590000I10000J0D01*
G01*
X3098591Y-4648078D02*
G75*
G02*
X3078591Y-4648078I-10000J0D01*
G01*
X3078591Y-4648078D02*
G75*
G02*
X3098591Y-4648078I10000J0D01*
G01*
X3123591Y-4938078D02*
G75*
G02*
X3103591Y-4938078I-10000J0D01*
G01*
X3103591Y-4938078D02*
G75*
G02*
X3123591Y-4938078I10000J0D01*
G01*
X3133591Y-5033078D02*
G75*
G02*
X3113591Y-5033078I-10000J0D01*
G01*
X3113591Y-5033078D02*
G75*
G02*
X3133591Y-5033078I10000J0D01*
G01*
X3135085Y-5969000D02*
G75*
G02*
X3115085Y-5969000I-10000J0D01*
G01*
X3115085Y-5969000D02*
G75*
G02*
X3135085Y-5969000I10000J0D01*
G01*
X3145000Y-5855000D02*
G75*
G02*
X3125000Y-5855000I-10000J0D01*
G01*
X3125000Y-5855000D02*
G75*
G02*
X3145000Y-5855000I10000J0D01*
G01*
X3150000Y-5190000D02*
G75*
G02*
X3130000Y-5190000I-10000J0D01*
G01*
X3130000Y-5190000D02*
G75*
G02*
X3150000Y-5190000I10000J0D01*
G01*
X3150000Y-5450000D02*
G75*
G02*
X3130000Y-5450000I-10000J0D01*
G01*
X3130000Y-5450000D02*
G75*
G02*
X3150000Y-5450000I10000J0D01*
G01*
X3185000Y-5670000D02*
G75*
G02*
X3165000Y-5670000I-10000J0D01*
G01*
X3165000Y-5670000D02*
G75*
G02*
X3185000Y-5670000I10000J0D01*
G01*
X3190000Y-4700000D02*
G75*
G02*
X3170000Y-4700000I-10000J0D01*
G01*
X3170000Y-4700000D02*
G75*
G02*
X3190000Y-4700000I10000J0D01*
G01*
X3190000Y-5970000D02*
G75*
G02*
X3170000Y-5970000I-10000J0D01*
G01*
X3170000Y-5970000D02*
G75*
G02*
X3190000Y-5970000I10000J0D01*
G01*
X3205000Y-4930000D02*
G75*
G02*
X3185000Y-4930000I-10000J0D01*
G01*
X3185000Y-4930000D02*
G75*
G02*
X3205000Y-4930000I10000J0D01*
G01*
X3235000Y-5660000D02*
G75*
G02*
X3215000Y-5660000I-10000J0D01*
G01*
X3215000Y-5660000D02*
G75*
G02*
X3235000Y-5660000I10000J0D01*
G01*
X3240000Y-5020000D02*
G75*
G02*
X3220000Y-5020000I-10000J0D01*
G01*
X3220000Y-5020000D02*
G75*
G02*
X3240000Y-5020000I10000J0D01*
G01*
X3250000Y-5150000D02*
G75*
G02*
X3230000Y-5150000I-10000J0D01*
G01*
X3230000Y-5150000D02*
G75*
G02*
X3250000Y-5150000I10000J0D01*
G01*
X3273591Y-1923077D02*
G75*
G02*
X3253591Y-1923077I-10000J0D01*
G01*
X3253591Y-1923077D02*
G75*
G02*
X3273591Y-1923077I10000J0D01*
G01*
X3380000Y-5850000D02*
G75*
G02*
X3360000Y-5850000I-10000J0D01*
G01*
X3360000Y-5850000D02*
G75*
G02*
X3380000Y-5850000I10000J0D01*
G01*
X3390000Y-5020000D02*
G75*
G02*
X3370000Y-5020000I-10000J0D01*
G01*
X3370000Y-5020000D02*
G75*
G02*
X3390000Y-5020000I10000J0D01*
G01*
X3438591Y-683078D02*
G75*
G02*
X3418591Y-683078I-10000J0D01*
G01*
X3418591Y-683078D02*
G75*
G02*
X3438591Y-683078I10000J0D01*
G01*
X3438591Y-983077D02*
G75*
G02*
X3418591Y-983077I-10000J0D01*
G01*
X3418591Y-983077D02*
G75*
G02*
X3438591Y-983077I10000J0D01*
G01*
X3438591Y-1308078D02*
G75*
G02*
X3418591Y-1308078I-10000J0D01*
G01*
X3418591Y-1308078D02*
G75*
G02*
X3438591Y-1308078I10000J0D01*
G01*
X3448591Y-1453077D02*
G75*
G02*
X3428591Y-1453077I-10000J0D01*
G01*
X3428591Y-1453077D02*
G75*
G02*
X3448591Y-1453077I10000J0D01*
G01*
X3468591Y-938077D02*
G75*
G02*
X3448591Y-938077I-10000J0D01*
G01*
X3448591Y-938077D02*
G75*
G02*
X3468591Y-938077I10000J0D01*
G01*
X3480000Y-5190000D02*
G75*
G02*
X3460000Y-5190000I-10000J0D01*
G01*
X3460000Y-5190000D02*
G75*
G02*
X3480000Y-5190000I10000J0D01*
G01*
X3510000Y-4985000D02*
G75*
G02*
X3490000Y-4985000I-10000J0D01*
G01*
X3490000Y-4985000D02*
G75*
G02*
X3510000Y-4985000I10000J0D01*
G01*
X3568591Y-1833077D02*
G75*
G02*
X3548591Y-1833077I-10000J0D01*
G01*
X3548591Y-1833077D02*
G75*
G02*
X3568591Y-1833077I10000J0D01*
G01*
X3588591Y-1603077D02*
G75*
G02*
X3568591Y-1603077I-10000J0D01*
G01*
X3568591Y-1603077D02*
G75*
G02*
X3588591Y-1603077I10000J0D01*
G01*
X3603591Y-953077D02*
G75*
G02*
X3583591Y-953077I-10000J0D01*
G01*
X3583591Y-953077D02*
G75*
G02*
X3603591Y-953077I10000J0D01*
G01*
X3605000Y-5580000D02*
G75*
G02*
X3585000Y-5580000I-10000J0D01*
G01*
X3585000Y-5580000D02*
G75*
G02*
X3605000Y-5580000I10000J0D01*
G01*
X3645000Y-4330000D02*
G75*
G02*
X3625000Y-4330000I-10000J0D01*
G01*
X3625000Y-4330000D02*
G75*
G02*
X3645000Y-4330000I10000J0D01*
G01*
X3655000Y-5210000D02*
G75*
G02*
X3635000Y-5210000I-10000J0D01*
G01*
X3635000Y-5210000D02*
G75*
G02*
X3655000Y-5210000I10000J0D01*
G01*
X3743591Y-1523077D02*
G75*
G02*
X3723591Y-1523077I-10000J0D01*
G01*
X3723591Y-1523077D02*
G75*
G02*
X3743591Y-1523077I10000J0D01*
G01*
X3788591Y-778077D02*
G75*
G02*
X3768591Y-778077I-10000J0D01*
G01*
X3768591Y-778077D02*
G75*
G02*
X3788591Y-778077I10000J0D01*
G01*
X3855560Y-848360D02*
G75*
G02*
X3835560Y-848360I-10000J0D01*
G01*
X3835560Y-848360D02*
G75*
G02*
X3855560Y-848360I10000J0D01*
G01*
X3883591Y-1513077D02*
G75*
G02*
X3863591Y-1513077I-10000J0D01*
G01*
X3863591Y-1513077D02*
G75*
G02*
X3883591Y-1513077I10000J0D01*
G01*
X3933591Y-953077D02*
G75*
G02*
X3913591Y-953077I-10000J0D01*
G01*
X3913591Y-953077D02*
G75*
G02*
X3933591Y-953077I10000J0D01*
G01*
X3933591Y-1763077D02*
G75*
G02*
X3913591Y-1763077I-10000J0D01*
G01*
X3913591Y-1763077D02*
G75*
G02*
X3933591Y-1763077I10000J0D01*
G01*
X3975000Y-5275000D02*
G75*
G02*
X3955000Y-5275000I-10000J0D01*
G01*
X3955000Y-5275000D02*
G75*
G02*
X3975000Y-5275000I10000J0D01*
G01*
X4170000Y-5620000D02*
G75*
G02*
X4150000Y-5620000I-10000J0D01*
G01*
X4150000Y-5620000D02*
G75*
G02*
X4170000Y-5620000I10000J0D01*
G01*
X4328591Y-4003077D02*
G75*
G02*
X4308591Y-4003077I-10000J0D01*
G01*
X4308591Y-4003077D02*
G75*
G02*
X4328591Y-4003077I10000J0D01*
G01*
X4410090Y921045D02*
G75*
G02*
X4390090Y921045I-10000J0D01*
G01*
X4390090Y921045D02*
G75*
G02*
X4410090Y921045I10000J0D01*
G01*
X-121420Y-1594408D02*
X-121420Y-1614428D01*
X-131430Y-1604418D02*
X-111410Y-1604418D01*
X-91545Y-4520987D02*
X-91545Y-4541007D01*
X-101555Y-4530997D02*
X-81535Y-4530997D01*
X-46156Y-5280984D02*
X-46156Y-5301004D01*
X-56166Y-5290994D02*
X-36146Y-5290994D01*
X-35651Y-3801091D02*
X-35651Y-3821111D01*
X-45661Y-3811101D02*
X-25641Y-3811101D01*
X-29334Y-5510440D02*
X-29334Y-5530460D01*
X-39344Y-5520450D02*
X-19324Y-5520450D01*
X-27961Y-3338105D02*
X-27961Y-3358125D01*
X-37971Y-3348115D02*
X-17951Y-3348115D01*
X-22017Y-890386D02*
X-22017Y-910406D01*
X-32027Y-900396D02*
X-12007Y-900396D01*
X-20547Y-2300031D02*
X-20547Y-2320051D01*
X-30557Y-2310041D02*
X-10537Y-2310041D01*
X8695Y-51234D02*
X8695Y-71254D01*
X-1315Y-61244D02*
X18705Y-61244D01*
X11710Y-5263251D02*
X11710Y-5283271D01*
X1700Y-5273261D02*
X21720Y-5273261D01*
X22778Y-5607717D02*
X22778Y-5627737D01*
X12768Y-5617727D02*
X32789Y-5617727D01*
X26515Y-1937366D02*
X26515Y-1957386D01*
X16505Y-1947376D02*
X36525Y-1947376D01*
X79039Y-2763197D02*
X79039Y-2783217D01*
X69029Y-2773207D02*
X89049Y-2773207D01*
X89454Y-2217161D02*
X89454Y-2237181D01*
X79444Y-2227171D02*
X99464Y-2227171D01*
X107541Y-5287528D02*
X107541Y-5307548D01*
X97531Y-5297538D02*
X117551Y-5297538D01*
X122692Y-1605652D02*
X122692Y-1625672D01*
X112682Y-1615662D02*
X132702Y-1615662D01*
X176914Y-1235233D02*
X176914Y-1255253D01*
X166904Y-1245243D02*
X186924Y-1245243D01*
X209188Y-3861419D02*
X209188Y-3881439D01*
X199178Y-3871429D02*
X219198Y-3871429D01*
X212843Y-6293878D02*
X212843Y-6313898D01*
X202833Y-6303888D02*
X222853Y-6303888D01*
X213655Y-5346253D02*
X213655Y-5366273D01*
X203645Y-5356263D02*
X223665Y-5356263D01*
X214552Y-4978516D02*
X214552Y-4998536D01*
X204542Y-4988526D02*
X224562Y-4988526D01*
X214720Y-5279824D02*
X214720Y-5299844D01*
X204710Y-5289834D02*
X224730Y-5289834D01*
X220295Y-449832D02*
X220295Y-469852D01*
X210285Y-459842D02*
X230305Y-459842D01*
X295402Y-3915510D02*
X295402Y-3935530D01*
X285392Y-3925520D02*
X305412Y-3925520D01*
X313544Y648918D02*
X313544Y628898D01*
X303534Y638908D02*
X323554Y638908D01*
X313748Y-2809490D02*
X313748Y-2829510D01*
X303738Y-2819500D02*
X323758Y-2819500D01*
X360338Y-3451553D02*
X360338Y-3471573D01*
X350328Y-3461563D02*
X370348Y-3461563D01*
X370369Y-4358890D02*
X370369Y-4378910D01*
X360359Y-4368900D02*
X380379Y-4368900D01*
X391572Y-1820744D02*
X391572Y-1840764D01*
X381562Y-1830754D02*
X401582Y-1830754D01*
X398071Y-1354317D02*
X398071Y-1374337D01*
X388061Y-1364327D02*
X408081Y-1364327D01*
X408696Y-3156189D02*
X408696Y-3176209D01*
X398686Y-3166199D02*
X418706Y-3166199D01*
X417730Y-766350D02*
X417730Y-786370D01*
X407720Y-776360D02*
X427740Y-776360D01*
X420786Y-468431D02*
X420786Y-488451D01*
X410776Y-478441D02*
X430796Y-478441D01*
X422262Y-5050192D02*
X422262Y-5070212D01*
X412252Y-5060202D02*
X432272Y-5060202D01*
X430421Y-4722520D02*
X430421Y-4742540D01*
X420411Y-4732530D02*
X440431Y-4732530D01*
X431774Y-1392204D02*
X431774Y-1412224D01*
X421764Y-1402214D02*
X441784Y-1402214D01*
X434817Y-5489734D02*
X434817Y-5509754D01*
X424807Y-5499744D02*
X444827Y-5499744D01*
X448173Y-3428345D02*
X448173Y-3448365D01*
X438163Y-3438355D02*
X458183Y-3438355D01*
X457910Y-797284D02*
X457910Y-817304D01*
X447900Y-807294D02*
X467920Y-807294D01*
X466650Y-501259D02*
X466650Y-521279D01*
X456640Y-511269D02*
X476660Y-511269D01*
X474474Y-5255210D02*
X474474Y-5275230D01*
X464464Y-5265220D02*
X484484Y-5265220D01*
X478468Y-6370702D02*
X478468Y-6390722D01*
X468458Y-6380712D02*
X488478Y-6380712D01*
X493910Y-4586333D02*
X493910Y-4606353D01*
X483900Y-4596343D02*
X503920Y-4596343D01*
X507506Y-5196123D02*
X507506Y-5216143D01*
X497496Y-5206133D02*
X517516Y-5206133D01*
X531945Y-2404942D02*
X531945Y-2424962D01*
X521934Y-2414952D02*
X541955Y-2414952D01*
X535618Y-5250635D02*
X535618Y-5270655D01*
X525608Y-5260645D02*
X545628Y-5260645D01*
X553766Y-1278855D02*
X553766Y-1298875D01*
X543756Y-1288865D02*
X563776Y-1288865D01*
X559686Y-4536144D02*
X559686Y-4556164D01*
X549676Y-4546154D02*
X569696Y-4546154D01*
X564971Y-4617016D02*
X564971Y-4637036D01*
X554961Y-4627026D02*
X574981Y-4627026D01*
X571392Y-4849102D02*
X571392Y-4869122D01*
X561382Y-4859112D02*
X581402Y-4859112D01*
X593567Y-3857681D02*
X593567Y-3877701D01*
X583557Y-3867691D02*
X603577Y-3867691D01*
X600298Y-1230705D02*
X600298Y-1250725D01*
X590288Y-1240715D02*
X610308Y-1240715D01*
X601529Y-2178215D02*
X601529Y-2198235D01*
X591519Y-2188225D02*
X611539Y-2188225D01*
X622555Y-4859553D02*
X622555Y-4879573D01*
X612545Y-4869563D02*
X632565Y-4869563D01*
X629804Y-5518691D02*
X629804Y-5538711D01*
X619794Y-5528701D02*
X639814Y-5528701D01*
X631458Y666920D02*
X631458Y646900D01*
X621448Y656910D02*
X641468Y656910D01*
X636615Y-3789302D02*
X636615Y-3809322D01*
X626605Y-3799312D02*
X646625Y-3799312D01*
X647393Y-1995739D02*
X647393Y-2015759D01*
X637383Y-2005749D02*
X657403Y-2005749D01*
X650745Y-1235840D02*
X650745Y-1255860D01*
X640735Y-1245850D02*
X660755Y-1245850D01*
X677409Y-3373815D02*
X677409Y-3393835D01*
X667399Y-3383825D02*
X687419Y-3383825D01*
X677879Y-463280D02*
X677879Y-483300D01*
X667869Y-473290D02*
X687889Y-473290D01*
X682925Y-6277109D02*
X682925Y-6297129D01*
X672915Y-6287119D02*
X692935Y-6287119D01*
X688056Y-720163D02*
X688056Y-740183D01*
X678046Y-730173D02*
X698066Y-730173D01*
X692824Y-1316495D02*
X692824Y-1336515D01*
X682814Y-1326505D02*
X702834Y-1326505D01*
X693556Y-1082426D02*
X693556Y-1102446D01*
X683546Y-1092436D02*
X703566Y-1092436D01*
X706249Y-3275021D02*
X706249Y-3295041D01*
X696239Y-3285031D02*
X716259Y-3285031D01*
X711299Y-364139D02*
X711299Y-384159D01*
X701289Y-374149D02*
X721309Y-374149D01*
X713796Y655434D02*
X713796Y635414D01*
X703786Y645424D02*
X723806Y645424D01*
X726087Y-2142183D02*
X726087Y-2162203D01*
X716077Y-2152193D02*
X736097Y-2152193D01*
X734046Y-5059258D02*
X734046Y-5079278D01*
X724036Y-5069268D02*
X744056Y-5069268D01*
X737757Y109614D02*
X737757Y89594D01*
X727747Y99604D02*
X747767Y99604D01*
X738216Y-1293892D02*
X738216Y-1313912D01*
X728206Y-1303902D02*
X748226Y-1303902D01*
X743012Y332670D02*
X743012Y312650D01*
X733002Y322660D02*
X753022Y322660D01*
X752833Y-3449388D02*
X752833Y-3469408D01*
X742823Y-3459398D02*
X762843Y-3459398D01*
X771456Y-4636098D02*
X771456Y-4656118D01*
X761446Y-4646108D02*
X781466Y-4646108D01*
X779307Y-5432912D02*
X779307Y-5452932D01*
X769297Y-5442922D02*
X789317Y-5442922D01*
X783197Y-431471D02*
X783197Y-451491D01*
X773187Y-441481D02*
X793207Y-441481D01*
X795609Y-885438D02*
X795609Y-905458D01*
X785599Y-895448D02*
X805619Y-895448D01*
X795896Y-4920847D02*
X795896Y-4940867D01*
X785886Y-4930857D02*
X805906Y-4930857D01*
X804676Y656294D02*
X804676Y636274D01*
X794666Y646284D02*
X814686Y646284D01*
X806701Y413194D02*
X806701Y393174D01*
X796691Y403184D02*
X816711Y403184D01*
X808666Y-5937261D02*
X808666Y-5957281D01*
X798656Y-5947271D02*
X818676Y-5947271D01*
X810234Y-2181721D02*
X810234Y-2201741D01*
X800224Y-2191731D02*
X820244Y-2191731D01*
X811973Y-6042490D02*
X811973Y-6062510D01*
X801963Y-6052500D02*
X821983Y-6052500D01*
X813651Y-4592954D02*
X813651Y-4612974D01*
X803641Y-4602964D02*
X823661Y-4602964D01*
X824397Y25899D02*
X824397Y5879D01*
X814387Y15889D02*
X834407Y15889D01*
X842043Y584939D02*
X842043Y564919D01*
X832033Y574929D02*
X852053Y574929D01*
X845200Y-5317974D02*
X845200Y-5337994D01*
X835190Y-5327984D02*
X855210Y-5327984D01*
X853721Y-1428880D02*
X853721Y-1448900D01*
X843711Y-1438890D02*
X863731Y-1438890D01*
X859645Y-5653044D02*
X859645Y-5673064D01*
X849635Y-5663054D02*
X869655Y-5663054D01*
X870030Y-4948079D02*
X870030Y-4968099D01*
X860020Y-4958089D02*
X880040Y-4958089D01*
X876779Y645897D02*
X876779Y625877D01*
X866769Y635887D02*
X886789Y635887D01*
X883340Y-718417D02*
X883340Y-738437D01*
X873330Y-728427D02*
X893350Y-728427D01*
X890752Y-4654661D02*
X890752Y-4674681D01*
X880742Y-4664671D02*
X900762Y-4664671D01*
X903373Y-1629654D02*
X903373Y-1649674D01*
X893363Y-1639664D02*
X913383Y-1639664D01*
X921151Y-1514052D02*
X921151Y-1534072D01*
X911141Y-1524062D02*
X931161Y-1524062D01*
X927737Y164328D02*
X927737Y144308D01*
X917727Y154318D02*
X937747Y154318D01*
X934850Y-4374993D02*
X934850Y-4395013D01*
X924840Y-4385003D02*
X944860Y-4385003D01*
X939141Y595174D02*
X939141Y575154D01*
X929131Y585164D02*
X949151Y585164D01*
X943543Y-703939D02*
X943543Y-723959D01*
X933533Y-713949D02*
X953553Y-713949D01*
X964006Y-759969D02*
X964006Y-779989D01*
X953996Y-769979D02*
X974016Y-769979D01*
X1005535Y-4620311D02*
X1005535Y-4640331D01*
X995525Y-4630321D02*
X1015545Y-4630321D01*
X1010551Y-3658074D02*
X1010551Y-3678094D01*
X1000541Y-3668084D02*
X1020561Y-3668084D01*
X1015331Y604433D02*
X1015331Y584413D01*
X1005321Y594423D02*
X1025341Y594423D01*
X1016203Y-3352678D02*
X1016203Y-3372698D01*
X1006193Y-3362688D02*
X1026213Y-3362688D01*
X1024637Y-3797461D02*
X1024637Y-3817481D01*
X1014627Y-3807471D02*
X1034647Y-3807471D01*
X1026851Y-1453113D02*
X1026851Y-1473133D01*
X1016841Y-1463123D02*
X1036861Y-1463123D01*
X1026916Y-5841750D02*
X1026916Y-5861770D01*
X1016906Y-5851760D02*
X1036926Y-5851760D01*
X1029022Y-4408114D02*
X1029022Y-4428134D01*
X1019012Y-4418124D02*
X1039032Y-4418124D01*
X1042124Y-2694666D02*
X1042124Y-2714686D01*
X1032114Y-2704676D02*
X1052134Y-2704676D01*
X1042610Y-746972D02*
X1042610Y-766992D01*
X1032600Y-756982D02*
X1052620Y-756982D01*
X1044154Y-2323205D02*
X1044154Y-2343225D01*
X1034144Y-2333215D02*
X1054165Y-2333215D01*
X1047696Y-5278461D02*
X1047696Y-5298481D01*
X1037686Y-5288471D02*
X1057706Y-5288471D01*
X1057828Y-2245040D02*
X1057828Y-2265060D01*
X1047818Y-2255050D02*
X1067838Y-2255050D01*
X1076446Y-3728955D02*
X1076446Y-3748975D01*
X1066436Y-3738965D02*
X1086456Y-3738965D01*
X1084462Y-988464D02*
X1084462Y-1008484D01*
X1074452Y-998474D02*
X1094472Y-998474D01*
X1094283Y-2985483D02*
X1094283Y-3005503D01*
X1084273Y-2995493D02*
X1104293Y-2995493D01*
X1104599Y-4616533D02*
X1104599Y-4636553D01*
X1094589Y-4626543D02*
X1114609Y-4626543D01*
X1107002Y-3563329D02*
X1107002Y-3583349D01*
X1096992Y-3573339D02*
X1117012Y-3573339D01*
X1123261Y-4249159D02*
X1123261Y-4269179D01*
X1113251Y-4259169D02*
X1133271Y-4259169D01*
X1125532Y-5298936D02*
X1125532Y-5318956D01*
X1115522Y-5308946D02*
X1135542Y-5308946D01*
X1133452Y-1995973D02*
X1133452Y-2015993D01*
X1123442Y-2005983D02*
X1143462Y-2005983D01*
X1147444Y383687D02*
X1147444Y363667D01*
X1137434Y373677D02*
X1157454Y373677D01*
X1148754Y-207079D02*
X1148754Y-227099D01*
X1138744Y-217089D02*
X1158764Y-217089D01*
X1154695Y-5343117D02*
X1154695Y-5363137D01*
X1144685Y-5353127D02*
X1164705Y-5353127D01*
X1169936Y-5833719D02*
X1169936Y-5853739D01*
X1159926Y-5843729D02*
X1179946Y-5843729D01*
X1174426Y-3827491D02*
X1174426Y-3847511D01*
X1164416Y-3837501D02*
X1184436Y-3837501D01*
X1174837Y613014D02*
X1174837Y592994D01*
X1164827Y603004D02*
X1184847Y603004D01*
X1176865Y-358381D02*
X1176865Y-378401D01*
X1166855Y-368391D02*
X1186875Y-368391D01*
X1177644Y-1169084D02*
X1177644Y-1189104D01*
X1167634Y-1179094D02*
X1187654Y-1179094D01*
X1184450Y-6063466D02*
X1184450Y-6083486D01*
X1174440Y-6073476D02*
X1194460Y-6073476D01*
X1189379Y-4450377D02*
X1189379Y-4470397D01*
X1179369Y-4460387D02*
X1199389Y-4460387D01*
X1213442Y-2309964D02*
X1213442Y-2329984D01*
X1203432Y-2319974D02*
X1223452Y-2319974D01*
X1220735Y-4302343D02*
X1220735Y-4322363D01*
X1210725Y-4312353D02*
X1230745Y-4312353D01*
X1234161Y-3820540D02*
X1234161Y-3840560D01*
X1224151Y-3830550D02*
X1244171Y-3830550D01*
X1238074Y-354010D02*
X1238074Y-374030D01*
X1228064Y-364020D02*
X1248084Y-364020D01*
X1241183Y399757D02*
X1241183Y379737D01*
X1231173Y389747D02*
X1251193Y389747D01*
X1246847Y-4506132D02*
X1246847Y-4526152D01*
X1236837Y-4516142D02*
X1256857Y-4516142D01*
X1256670Y-5271890D02*
X1256670Y-5291910D01*
X1246660Y-5281900D02*
X1266680Y-5281900D01*
X1257051Y-4738800D02*
X1257051Y-4758820D01*
X1247041Y-4748810D02*
X1267061Y-4748810D01*
X1262215Y-3767239D02*
X1262215Y-3787259D01*
X1252205Y-3777249D02*
X1272225Y-3777249D01*
X1263813Y-3581944D02*
X1263813Y-3601964D01*
X1253803Y-3591954D02*
X1273823Y-3591954D01*
X1264577Y631101D02*
X1264577Y611081D01*
X1254567Y621091D02*
X1274587Y621091D01*
X1279016Y-5341727D02*
X1279016Y-5361747D01*
X1269006Y-5351737D02*
X1289026Y-5351737D01*
X1281389Y-309618D02*
X1281389Y-329638D01*
X1271379Y-319628D02*
X1291399Y-319628D01*
X1287814Y549440D02*
X1287814Y529420D01*
X1277804Y539430D02*
X1297824Y539430D01*
X1291609Y-3481618D02*
X1291609Y-3501638D01*
X1281599Y-3491628D02*
X1301619Y-3491628D01*
X1298433Y-5895181D02*
X1298433Y-5915201D01*
X1288423Y-5905191D02*
X1308443Y-5905191D01*
X1308232Y-1213073D02*
X1308232Y-1233093D01*
X1298222Y-1223083D02*
X1318242Y-1223083D01*
X1333634Y-2100107D02*
X1333634Y-2120127D01*
X1323624Y-2110117D02*
X1343644Y-2110117D01*
X1333660Y-2026583D02*
X1333660Y-2046603D01*
X1323650Y-2036593D02*
X1343670Y-2036593D01*
X1334045Y-4675756D02*
X1334045Y-4695776D01*
X1324035Y-4685766D02*
X1344055Y-4685766D01*
X1339435Y393275D02*
X1339435Y373255D01*
X1329425Y383265D02*
X1349445Y383265D01*
X1342746Y-296911D02*
X1342746Y-316931D01*
X1332736Y-306921D02*
X1352756Y-306921D01*
X1354646Y-4789299D02*
X1354646Y-4809319D01*
X1344636Y-4799309D02*
X1364656Y-4799309D01*
X1369925Y-5350331D02*
X1369925Y-5370351D01*
X1359915Y-5360341D02*
X1379935Y-5360341D01*
X1378743Y617578D02*
X1378743Y597558D01*
X1368733Y607568D02*
X1388753Y607568D01*
X1382014Y-831665D02*
X1382014Y-851685D01*
X1372004Y-841675D02*
X1392024Y-841675D01*
X1387628Y-2044529D02*
X1387628Y-2064549D01*
X1377618Y-2054539D02*
X1397638Y-2054539D01*
X1393317Y-1331181D02*
X1393317Y-1351201D01*
X1383307Y-1341191D02*
X1403327Y-1341191D01*
X1399614Y-2312325D02*
X1399614Y-2332345D01*
X1389604Y-2322335D02*
X1409624Y-2322335D01*
X1400000Y-5797130D02*
X1400000Y-5817150D01*
X1389990Y-5807140D02*
X1410010Y-5807140D01*
X1410959Y-3213714D02*
X1410959Y-3233734D01*
X1400949Y-3223724D02*
X1420969Y-3223724D01*
X1413028Y-5059392D02*
X1413028Y-5079412D01*
X1403018Y-5069402D02*
X1423038Y-5069402D01*
X1422306Y-5928964D02*
X1422306Y-5948984D01*
X1412296Y-5938974D02*
X1432316Y-5938974D01*
X1425494Y-3484050D02*
X1425494Y-3504070D01*
X1415484Y-3494060D02*
X1435504Y-3494060D01*
X1427750Y-3363206D02*
X1427750Y-3383226D01*
X1417740Y-3373216D02*
X1437760Y-3373216D01*
X1428190Y-6204024D02*
X1428190Y-6224044D01*
X1418180Y-6214034D02*
X1438200Y-6214034D01*
X1433342Y-3137372D02*
X1433342Y-3157392D01*
X1423332Y-3147382D02*
X1443352Y-3147382D01*
X1436282Y-5223566D02*
X1436282Y-5243586D01*
X1426272Y-5233576D02*
X1446292Y-5233576D01*
X1438738Y-741272D02*
X1438738Y-761292D01*
X1428728Y-751282D02*
X1448748Y-751282D01*
X1447785Y-1866716D02*
X1447785Y-1886736D01*
X1437775Y-1876726D02*
X1457795Y-1876726D01*
X1453708Y-3949827D02*
X1453708Y-3969847D01*
X1443698Y-3959837D02*
X1463718Y-3959837D01*
X1460243Y-5361134D02*
X1460243Y-5381154D01*
X1450233Y-5371144D02*
X1470253Y-5371144D01*
X1465978Y-2009543D02*
X1465978Y-2029563D01*
X1455968Y-2019553D02*
X1475988Y-2019553D01*
X1481615Y-5261944D02*
X1481615Y-5281964D01*
X1471605Y-5271954D02*
X1491625Y-5271954D01*
X1485650Y-4709708D02*
X1485650Y-4729728D01*
X1475640Y-4719718D02*
X1495660Y-4719718D01*
X1485864Y-3430870D02*
X1485864Y-3450890D01*
X1475854Y-3440880D02*
X1495874Y-3440880D01*
X1486065Y-2332211D02*
X1486065Y-2352231D01*
X1476055Y-2342221D02*
X1496075Y-2342221D01*
X1499759Y-4605557D02*
X1499759Y-4625577D01*
X1489749Y-4615567D02*
X1509769Y-4615567D01*
X1504039Y-1108371D02*
X1504039Y-1128391D01*
X1494029Y-1118381D02*
X1514049Y-1118381D01*
X1513191Y-4378197D02*
X1513191Y-4398217D01*
X1503181Y-4388207D02*
X1523201Y-4388207D01*
X1513613Y583052D02*
X1513613Y563032D01*
X1503603Y573042D02*
X1523623Y573042D01*
X1522914Y-2154703D02*
X1522914Y-2174723D01*
X1512904Y-2164713D02*
X1532924Y-2164713D01*
X1524009Y-776844D02*
X1524009Y-796864D01*
X1513999Y-786854D02*
X1534019Y-786854D01*
X1525194Y-4967268D02*
X1525194Y-4987288D01*
X1515184Y-4977278D02*
X1535204Y-4977278D01*
X1532323Y-4490745D02*
X1532323Y-4510765D01*
X1522313Y-4500755D02*
X1542333Y-4500755D01*
X1537015Y-2429337D02*
X1537015Y-2449357D01*
X1527005Y-2439347D02*
X1547025Y-2439347D01*
X1543614Y-3751991D02*
X1543614Y-3772011D01*
X1533604Y-3762001D02*
X1553624Y-3762001D01*
X1549695Y176766D02*
X1549695Y156746D01*
X1539685Y166756D02*
X1559705Y166756D01*
X1552899Y51941D02*
X1552899Y31921D01*
X1542889Y41931D02*
X1562909Y41931D01*
X1553273Y-77850D02*
X1553273Y-97870D01*
X1543263Y-87860D02*
X1563283Y-87860D01*
X1560120Y-1132212D02*
X1560120Y-1152232D01*
X1550110Y-1142222D02*
X1570130Y-1142222D01*
X1562654Y-3898192D02*
X1562654Y-3918212D01*
X1552644Y-3908202D02*
X1572664Y-3908202D01*
X1564983Y-3673100D02*
X1564983Y-3693120D01*
X1554973Y-3683110D02*
X1574993Y-3683110D01*
X1574785Y-6043205D02*
X1574785Y-6063225D01*
X1564775Y-6053215D02*
X1584795Y-6053215D01*
X1575104Y-522298D02*
X1575104Y-542318D01*
X1565094Y-532308D02*
X1585114Y-532308D01*
X1582386Y-2338211D02*
X1582386Y-2358231D01*
X1572376Y-2348221D02*
X1592396Y-2348221D01*
X1586928Y628512D02*
X1586928Y608492D01*
X1576918Y618502D02*
X1596938Y618502D01*
X1588054Y-3814930D02*
X1588054Y-3834950D01*
X1578044Y-3824940D02*
X1598064Y-3824940D01*
X1593138Y-3100830D02*
X1593138Y-3120850D01*
X1583128Y-3110840D02*
X1603148Y-3110840D01*
X1595337Y-2433558D02*
X1595337Y-2453578D01*
X1585327Y-2443568D02*
X1605347Y-2443568D01*
X1601344Y-4439676D02*
X1601344Y-4459696D01*
X1591334Y-4449686D02*
X1611354Y-4449686D01*
X1602832Y-5604597D02*
X1602832Y-5624617D01*
X1592822Y-5614607D02*
X1612842Y-5614607D01*
X1604652Y-5361342D02*
X1604652Y-5381362D01*
X1594642Y-5371352D02*
X1614662Y-5371352D01*
X1606767Y-3046558D02*
X1606767Y-3066578D01*
X1596757Y-3056568D02*
X1616777Y-3056568D01*
X1607649Y-453167D02*
X1607649Y-473187D01*
X1597639Y-463177D02*
X1617659Y-463177D01*
X1611809Y-4782512D02*
X1611809Y-4802532D01*
X1601799Y-4792522D02*
X1621819Y-4792522D01*
X1617291Y-4910297D02*
X1617291Y-4930317D01*
X1607281Y-4920307D02*
X1627301Y-4920307D01*
X1627544Y552287D02*
X1627544Y532267D01*
X1617534Y542277D02*
X1637554Y542277D01*
X1629849Y-5194660D02*
X1629849Y-5214680D01*
X1619839Y-5204670D02*
X1639859Y-5204670D01*
X1631648Y-1096182D02*
X1631648Y-1116202D01*
X1621638Y-1106192D02*
X1641658Y-1106192D01*
X1639176Y-2393571D02*
X1639176Y-2413591D01*
X1629166Y-2403581D02*
X1649186Y-2403581D01*
X1641457Y-4634951D02*
X1641457Y-4654971D01*
X1631447Y-4644961D02*
X1651467Y-4644961D01*
X1646739Y-3469698D02*
X1646739Y-3489718D01*
X1636729Y-3479708D02*
X1656749Y-3479708D01*
X1647103Y-3180245D02*
X1647103Y-3200265D01*
X1637093Y-3190255D02*
X1657113Y-3190255D01*
X1660248Y-3923978D02*
X1660248Y-3943998D01*
X1650238Y-3933988D02*
X1670258Y-3933988D01*
X1660584Y-1840013D02*
X1660584Y-1860033D01*
X1650574Y-1850023D02*
X1670594Y-1850023D01*
X1685258Y629927D02*
X1685258Y609907D01*
X1675248Y619917D02*
X1695268Y619917D01*
X1693044Y-1051802D02*
X1693044Y-1071822D01*
X1683034Y-1061812D02*
X1703054Y-1061812D01*
X1697480Y-4347448D02*
X1697480Y-4367468D01*
X1687470Y-4357458D02*
X1707490Y-4357458D01*
X1698296Y-2007430D02*
X1698296Y-2027450D01*
X1688286Y-2017440D02*
X1708306Y-2017440D01*
X1701427Y-2978594D02*
X1701427Y-2998614D01*
X1691417Y-2988604D02*
X1711437Y-2988604D01*
X1705805Y-4492063D02*
X1705805Y-4512083D01*
X1695795Y-4502073D02*
X1715815Y-4502073D01*
X1717519Y-2325034D02*
X1717519Y-2345054D01*
X1707509Y-2335044D02*
X1727529Y-2335044D01*
X1730810Y-2079443D02*
X1730810Y-2099463D01*
X1720800Y-2089453D02*
X1740820Y-2089453D01*
X1743895Y-2403054D02*
X1743895Y-2423074D01*
X1733885Y-2413064D02*
X1753905Y-2413064D01*
X1759418Y594340D02*
X1759418Y574320D01*
X1749408Y584330D02*
X1769428Y584330D01*
X1761129Y-2815619D02*
X1761129Y-2835639D01*
X1751119Y-2825629D02*
X1771139Y-2825629D01*
X1761739Y351852D02*
X1761739Y331832D01*
X1751729Y341842D02*
X1771749Y341842D01*
X1766690Y-815018D02*
X1766690Y-835038D01*
X1756680Y-825028D02*
X1776700Y-825028D01*
X1782444Y-6135972D02*
X1782444Y-6155992D01*
X1772434Y-6145982D02*
X1792454Y-6145982D01*
X1789503Y69416D02*
X1789503Y49396D01*
X1779493Y59406D02*
X1799513Y59406D01*
X1797098Y-5842401D02*
X1797098Y-5862421D01*
X1787088Y-5852411D02*
X1807108Y-5852411D01*
X1802353Y-2010651D02*
X1802353Y-2030671D01*
X1792343Y-2020661D02*
X1812363Y-2020661D01*
X1808084Y-3680839D02*
X1808084Y-3700859D01*
X1798074Y-3690849D02*
X1818094Y-3690849D01*
X1812629Y-4073928D02*
X1812629Y-4093948D01*
X1802619Y-4083938D02*
X1822639Y-4083938D01*
X1829539Y-5368875D02*
X1829539Y-5388895D01*
X1819529Y-5378885D02*
X1839549Y-5378885D01*
X1833010Y-3855052D02*
X1833010Y-3875072D01*
X1823000Y-3865062D02*
X1843020Y-3865062D01*
X1839845Y-3976016D02*
X1839845Y-3996036D01*
X1829835Y-3986026D02*
X1849855Y-3986026D01*
X1839867Y-5785526D02*
X1839867Y-5805546D01*
X1829857Y-5795536D02*
X1849877Y-5795536D01*
X1844389Y-3049877D02*
X1844389Y-3069897D01*
X1834379Y-3059887D02*
X1854399Y-3059887D01*
X1845238Y-339238D02*
X1845238Y-359258D01*
X1835228Y-349248D02*
X1855248Y-349248D01*
X1866506Y-532568D02*
X1866506Y-552588D01*
X1856496Y-542578D02*
X1876516Y-542578D01*
X1873470Y-5607985D02*
X1873470Y-5628005D01*
X1863460Y-5617995D02*
X1883480Y-5617995D01*
X1874725Y-5500740D02*
X1874725Y-5520760D01*
X1864715Y-5510750D02*
X1884735Y-5510750D01*
X1877749Y-1950651D02*
X1877749Y-1970671D01*
X1867739Y-1960661D02*
X1887759Y-1960661D01*
X1879812Y-3762295D02*
X1879812Y-3782315D01*
X1869802Y-3772305D02*
X1889822Y-3772305D01*
X1880794Y-2180979D02*
X1880794Y-2200999D01*
X1870784Y-2190989D02*
X1890804Y-2190989D01*
X1880831Y-2005206D02*
X1880831Y-2025226D01*
X1870821Y-2015216D02*
X1890841Y-2015216D01*
X1892233Y-3142714D02*
X1892233Y-3162734D01*
X1882223Y-3152724D02*
X1902243Y-3152724D01*
X1898886Y-3545668D02*
X1898886Y-3565688D01*
X1888876Y-3555678D02*
X1908896Y-3555678D01*
X1899073Y-3434690D02*
X1899073Y-3454710D01*
X1889063Y-3444700D02*
X1909083Y-3444700D01*
X1904782Y-4164700D02*
X1904782Y-4184720D01*
X1894772Y-4174710D02*
X1914792Y-4174710D01*
X1904839Y-2298895D02*
X1904839Y-2318915D01*
X1894829Y-2308905D02*
X1914849Y-2308905D01*
X1925870Y-713905D02*
X1925870Y-733925D01*
X1915860Y-723915D02*
X1935880Y-723915D01*
X1926283Y-1689545D02*
X1926283Y-1709565D01*
X1916273Y-1699555D02*
X1936293Y-1699555D01*
X1927887Y-3966997D02*
X1927887Y-3987017D01*
X1917877Y-3977007D02*
X1937897Y-3977007D01*
X1930808Y-4373605D02*
X1930808Y-4393625D01*
X1920798Y-4383615D02*
X1940818Y-4383615D01*
X1933987Y-5827568D02*
X1933987Y-5847588D01*
X1923977Y-5837578D02*
X1943997Y-5837578D01*
X1945135Y-4032191D02*
X1945135Y-4052211D01*
X1935125Y-4042201D02*
X1955145Y-4042201D01*
X1949077Y-5361767D02*
X1949077Y-5381787D01*
X1939067Y-5371777D02*
X1959087Y-5371777D01*
X1958769Y-2297951D02*
X1958769Y-2317971D01*
X1948759Y-2307961D02*
X1968779Y-2307961D01*
X1959761Y-1294332D02*
X1959761Y-1314352D01*
X1949751Y-1304342D02*
X1969771Y-1304342D01*
X1963623Y-5756070D02*
X1963623Y-5776090D01*
X1953613Y-5766080D02*
X1973633Y-5766080D01*
X1979243Y-5158514D02*
X1979243Y-5178534D01*
X1969233Y-5168524D02*
X1989253Y-5168524D01*
X1997438Y-5348097D02*
X1997438Y-5368117D01*
X1987428Y-5358107D02*
X2007448Y-5358107D01*
X1999185Y-4908782D02*
X1999185Y-4928802D01*
X1989175Y-4918792D02*
X2009195Y-4918792D01*
X2001884Y-5608769D02*
X2001884Y-5628789D01*
X1991874Y-5618779D02*
X2011894Y-5618779D01*
X2013462Y587799D02*
X2013462Y567779D01*
X2003452Y577789D02*
X2023472Y577789D01*
X2014390Y-3897133D02*
X2014390Y-3917153D01*
X2004380Y-3907143D02*
X2024400Y-3907143D01*
X2022023Y-3163516D02*
X2022023Y-3183536D01*
X2012013Y-3173526D02*
X2032033Y-3173526D01*
X2023626Y-1241110D02*
X2023626Y-1261130D01*
X2013616Y-1251120D02*
X2033636Y-1251120D01*
X2026291Y-6041164D02*
X2026291Y-6061184D01*
X2016281Y-6051174D02*
X2036301Y-6051174D01*
X2044899Y-504562D02*
X2044899Y-524582D01*
X2034889Y-514572D02*
X2054909Y-514572D01*
X2051602Y-865695D02*
X2051602Y-885715D01*
X2041592Y-875705D02*
X2061612Y-875705D01*
X2057134Y-3452543D02*
X2057134Y-3472563D01*
X2047124Y-3462553D02*
X2067144Y-3462553D01*
X2058251Y-1169903D02*
X2058251Y-1189923D01*
X2048241Y-1179913D02*
X2068261Y-1179913D01*
X2075144Y-3335018D02*
X2075144Y-3355038D01*
X2065134Y-3345028D02*
X2085154Y-3345028D01*
X2078430Y786006D02*
X2078430Y765986D01*
X2068420Y775996D02*
X2088440Y775996D01*
X2101648Y-1802064D02*
X2101648Y-1822084D01*
X2091637Y-1812074D02*
X2111658Y-1812074D01*
X2126834Y-2317728D02*
X2126834Y-2337748D01*
X2116824Y-2327738D02*
X2136844Y-2327738D01*
X2131247Y-5883251D02*
X2131247Y-5903271D01*
X2121237Y-5893261D02*
X2141257Y-5893261D01*
X2134576Y-5359201D02*
X2134576Y-5379221D01*
X2124566Y-5369211D02*
X2144586Y-5369211D01*
X2140127Y-3296683D02*
X2140127Y-3316703D01*
X2130117Y-3306693D02*
X2150137Y-3306693D01*
X2145224Y-5806014D02*
X2145224Y-5826034D01*
X2135214Y-5816024D02*
X2155234Y-5816024D01*
X2153191Y-1745610D02*
X2153191Y-1765630D01*
X2143181Y-1755620D02*
X2163201Y-1755620D01*
X2158806Y-1543058D02*
X2158806Y-1563078D01*
X2148796Y-1553068D02*
X2168816Y-1553068D01*
X2159478Y-3460356D02*
X2159478Y-3480376D01*
X2149468Y-3470366D02*
X2169488Y-3470366D01*
X2163021Y-5979961D02*
X2163021Y-5999981D01*
X2153011Y-5989971D02*
X2173031Y-5989971D01*
X2181961Y-5632459D02*
X2181961Y-5652479D01*
X2171951Y-5642469D02*
X2191971Y-5642469D01*
X2209221Y-3835133D02*
X2209221Y-3855153D01*
X2199211Y-3845143D02*
X2219231Y-3845143D01*
X2209685Y-3398980D02*
X2209685Y-3419000D01*
X2199675Y-3408990D02*
X2219695Y-3408990D01*
X2220268Y-2098271D02*
X2220268Y-2118291D01*
X2210258Y-2108281D02*
X2230278Y-2108281D01*
X2233881Y-5870081D02*
X2233881Y-5890101D01*
X2223871Y-5880091D02*
X2243891Y-5880091D01*
X2236086Y-5570329D02*
X2236086Y-5590349D01*
X2226076Y-5580339D02*
X2246096Y-5580339D01*
X2242795Y-49450D02*
X2242795Y-69471D01*
X2232785Y-59460D02*
X2252805Y-59460D01*
X2254350Y-3913195D02*
X2254350Y-3933215D01*
X2244340Y-3923205D02*
X2264360Y-3923205D01*
X2267690Y272900D02*
X2267690Y252880D01*
X2257680Y262890D02*
X2277700Y262890D01*
X2271649Y-3455008D02*
X2271649Y-3475028D01*
X2261639Y-3465018D02*
X2281659Y-3465018D01*
X2293903Y-5674108D02*
X2293903Y-5694128D01*
X2283893Y-5684118D02*
X2303913Y-5684118D01*
X2306345Y-6214671D02*
X2306345Y-6234691D01*
X2296335Y-6224681D02*
X2316355Y-6224681D01*
X2340290Y-669057D02*
X2340290Y-689077D01*
X2330280Y-679067D02*
X2350300Y-679067D01*
X2343094Y-3788528D02*
X2343094Y-3808548D01*
X2333084Y-3798538D02*
X2353104Y-3798538D01*
X2345673Y-3465379D02*
X2345673Y-3485399D01*
X2335663Y-3475389D02*
X2355683Y-3475389D01*
X2346425Y-1404873D02*
X2346425Y-1424893D01*
X2336415Y-1414883D02*
X2356435Y-1414883D01*
X2359936Y-313333D02*
X2359936Y-333353D01*
X2349926Y-323343D02*
X2369946Y-323343D01*
X2364995Y-3939603D02*
X2364995Y-3959623D01*
X2354985Y-3949613D02*
X2375005Y-3949613D01*
X2375873Y-2921929D02*
X2375873Y-2941949D01*
X2365863Y-2931939D02*
X2385883Y-2931939D01*
X2387675Y210567D02*
X2387675Y190547D01*
X2377665Y200557D02*
X2397685Y200557D01*
X2391595Y-1819350D02*
X2391595Y-1839370D01*
X2381585Y-1829360D02*
X2401605Y-1829360D01*
X2397563Y-3733225D02*
X2397563Y-3753245D01*
X2387553Y-3743235D02*
X2407573Y-3743235D01*
X2405776Y-273110D02*
X2405776Y-293130D01*
X2395766Y-283120D02*
X2415786Y-283120D01*
X2410440Y-3824013D02*
X2410440Y-3844033D01*
X2400430Y-3834023D02*
X2420450Y-3834023D01*
X2415350Y-5727208D02*
X2415350Y-5747228D01*
X2405340Y-5737218D02*
X2425360Y-5737218D01*
X2421377Y-928208D02*
X2421377Y-948228D01*
X2411367Y-938218D02*
X2431387Y-938218D01*
X2431455Y-2299648D02*
X2431455Y-2319668D01*
X2421445Y-2309658D02*
X2441465Y-2309658D01*
X2435375Y-6276367D02*
X2435375Y-6296387D01*
X2425365Y-6286377D02*
X2445385Y-6286377D01*
X2435920Y500222D02*
X2435920Y480202D01*
X2425910Y490212D02*
X2445930Y490212D01*
X2442559Y279005D02*
X2442559Y258985D01*
X2432549Y268995D02*
X2452569Y268995D01*
X2452594Y-4859908D02*
X2452594Y-4879928D01*
X2442584Y-4869918D02*
X2462604Y-4869918D01*
X2458891Y-5443161D02*
X2458891Y-5463181D01*
X2448881Y-5453171D02*
X2468901Y-5453171D01*
X2473238Y-4446962D02*
X2473238Y-4466982D01*
X2463228Y-4456972D02*
X2483248Y-4456972D01*
X2492592Y-2164646D02*
X2492592Y-2184666D01*
X2482582Y-2174656D02*
X2502602Y-2174656D01*
X2494889Y-962015D02*
X2494889Y-982035D01*
X2484879Y-972025D02*
X2504899Y-972025D01*
X2503562Y-3017326D02*
X2503562Y-3037346D01*
X2493552Y-3027336D02*
X2513572Y-3027336D01*
X2511072Y-1900391D02*
X2511072Y-1920411D01*
X2501062Y-1910401D02*
X2521082Y-1910401D01*
X2534320Y-2232901D02*
X2534320Y-2252921D01*
X2524310Y-2242911D02*
X2544330Y-2242911D01*
X2542364Y-5896044D02*
X2542364Y-5916064D01*
X2532354Y-5906054D02*
X2552374Y-5906054D01*
X2549816Y-4836D02*
X2549816Y-24856D01*
X2539806Y-14846D02*
X2559826Y-14846D01*
X2554196Y-3702991D02*
X2554196Y-3723011D01*
X2544186Y-3713001D02*
X2564206Y-3713001D01*
X2569466Y-1651246D02*
X2569466Y-1671266D01*
X2559456Y-1661256D02*
X2579476Y-1661256D01*
X2569716Y-3752137D02*
X2569716Y-3772157D01*
X2559706Y-3762147D02*
X2579726Y-3762147D01*
X2579826Y-5288690D02*
X2579826Y-5308710D01*
X2569816Y-5298700D02*
X2589836Y-5298700D01*
X2582556Y-2327364D02*
X2582556Y-2347384D01*
X2572546Y-2337374D02*
X2592566Y-2337374D01*
X2583264Y-3973969D02*
X2583264Y-3993989D01*
X2573254Y-3983979D02*
X2593274Y-3983979D01*
X2584803Y-1726200D02*
X2584803Y-1746220D01*
X2574793Y-1736210D02*
X2594813Y-1736210D01*
X2588676Y-2047348D02*
X2588676Y-2067368D01*
X2578666Y-2057358D02*
X2598686Y-2057358D01*
X2617479Y-1406517D02*
X2617479Y-1426537D01*
X2607469Y-1416527D02*
X2627489Y-1416527D01*
X2625158Y-1330838D02*
X2625158Y-1350858D01*
X2615148Y-1340848D02*
X2635168Y-1340848D01*
X2629042Y-605209D02*
X2629042Y-625229D01*
X2619032Y-615219D02*
X2639052Y-615219D01*
X2629578Y-716927D02*
X2629578Y-736947D01*
X2619568Y-726937D02*
X2639588Y-726937D01*
X2650343Y-3301799D02*
X2650343Y-3321819D01*
X2640333Y-3311809D02*
X2660353Y-3311809D01*
X2657939Y-4213727D02*
X2657939Y-4233747D01*
X2647929Y-4223737D02*
X2667949Y-4223737D01*
X2660894Y-274687D02*
X2660894Y-294707D01*
X2650884Y-284697D02*
X2670904Y-284697D01*
X2669351Y-3223468D02*
X2669351Y-3243488D01*
X2659341Y-3233478D02*
X2679361Y-3233478D01*
X2704052Y-3975593D02*
X2704052Y-3995613D01*
X2694042Y-3985603D02*
X2714062Y-3985603D01*
X2704176Y-3787941D02*
X2704176Y-3807961D01*
X2694166Y-3797951D02*
X2714186Y-3797951D01*
X2723790Y-5649834D02*
X2723790Y-5669854D01*
X2713780Y-5659844D02*
X2733800Y-5659844D01*
X2740852Y-1190986D02*
X2740852Y-1211006D01*
X2730842Y-1200996D02*
X2750862Y-1200996D01*
X2742588Y-3445364D02*
X2742588Y-3465384D01*
X2732578Y-3455374D02*
X2752598Y-3455374D01*
X2750098Y599643D02*
X2750098Y579623D01*
X2740088Y589633D02*
X2760108Y589633D01*
X2751186Y-3621482D02*
X2751186Y-3641502D01*
X2741176Y-3631492D02*
X2761196Y-3631492D01*
X2754661Y-859733D02*
X2754661Y-879753D01*
X2744651Y-869743D02*
X2764671Y-869743D01*
X2756287Y-4882031D02*
X2756287Y-4902051D01*
X2746277Y-4892041D02*
X2766297Y-4892041D01*
X2834122Y-4128679D02*
X2834122Y-4148699D01*
X2824112Y-4138689D02*
X2844132Y-4138689D01*
X2840250Y-168821D02*
X2840250Y-188841D01*
X2830240Y-178831D02*
X2850260Y-178831D01*
X2847744Y-2103071D02*
X2847744Y-2123091D01*
X2837734Y-2113081D02*
X2857754Y-2113081D01*
X2858509Y-4719881D02*
X2858509Y-4739901D01*
X2848499Y-4729891D02*
X2868519Y-4729891D01*
X2864601Y-3136102D02*
X2864601Y-3156122D01*
X2854591Y-3146112D02*
X2874611Y-3146112D01*
X2866609Y-5639908D02*
X2866609Y-5659928D01*
X2856599Y-5649918D02*
X2876619Y-5649918D01*
X2874272Y-2181991D02*
X2874272Y-2202011D01*
X2864262Y-2192001D02*
X2884282Y-2192001D01*
X2889976Y-2267859D02*
X2889976Y-2287879D01*
X2879966Y-2277869D02*
X2899986Y-2277869D01*
X2894597Y53212D02*
X2894597Y33192D01*
X2884587Y43202D02*
X2904607Y43202D01*
X2900417Y-3883463D02*
X2900417Y-3903483D01*
X2890407Y-3893473D02*
X2910427Y-3893473D01*
X2901053Y-1912073D02*
X2901053Y-1932093D01*
X2891043Y-1922083D02*
X2911063Y-1922083D01*
X2907322Y-165884D02*
X2907322Y-185904D01*
X2897312Y-175894D02*
X2917332Y-175894D01*
X2910106Y-942473D02*
X2910106Y-962493D01*
X2900096Y-952483D02*
X2920116Y-952483D01*
X2912504Y-5909758D02*
X2912504Y-5929778D01*
X2902494Y-5919768D02*
X2922514Y-5919768D01*
X2915911Y-438958D02*
X2915911Y-458978D01*
X2905901Y-448968D02*
X2925921Y-448968D01*
X2919428Y-2352829D02*
X2919428Y-2372849D01*
X2909418Y-2362839D02*
X2929438Y-2362839D01*
X2926433Y-5660105D02*
X2926433Y-5680125D01*
X2916423Y-5670115D02*
X2936443Y-5670115D01*
X2928040Y-2139002D02*
X2928040Y-2159022D01*
X2918030Y-2149012D02*
X2938050Y-2149012D01*
X2933683Y-3975028D02*
X2933683Y-3995048D01*
X2923673Y-3985038D02*
X2943693Y-3985038D01*
X2941573Y-1879107D02*
X2941573Y-1899127D01*
X2931563Y-1889117D02*
X2951583Y-1889117D01*
X2952099Y-704483D02*
X2952099Y-724503D01*
X2942089Y-714493D02*
X2962109Y-714493D01*
X2953117Y-2193614D02*
X2953117Y-2213634D01*
X2943107Y-2203624D02*
X2963127Y-2203624D01*
X2955658Y-3763205D02*
X2955658Y-3783225D01*
X2945648Y-3773215D02*
X2965668Y-3773215D01*
X2969193Y-6299355D02*
X2969193Y-6319375D01*
X2959183Y-6309365D02*
X2979203Y-6309365D01*
X2972628Y-5728807D02*
X2972628Y-5748827D01*
X2962618Y-5738817D02*
X2982638Y-5738817D01*
X2981663Y-3393905D02*
X2981663Y-3413925D01*
X2971653Y-3403915D02*
X2991673Y-3403915D01*
X2994466Y-4125654D02*
X2994466Y-4145674D01*
X2984456Y-4135664D02*
X3004476Y-4135664D01*
X2994991Y-134241D02*
X2994991Y-154261D01*
X2984981Y-144251D02*
X3005001Y-144251D01*
X3015507Y-4921296D02*
X3015507Y-4941316D01*
X3005497Y-4931306D02*
X3025517Y-4931306D01*
X3017772Y-795897D02*
X3017772Y-815917D01*
X3007762Y-805907D02*
X3027782Y-805907D01*
X3021337Y-689265D02*
X3021337Y-709285D01*
X3011327Y-699275D02*
X3031347Y-699275D01*
X3030865Y-1663862D02*
X3030865Y-1683882D01*
X3020855Y-1673872D02*
X3040875Y-1673872D01*
X3034968Y-3004279D02*
X3034968Y-3024299D01*
X3024958Y-3014289D02*
X3044978Y-3014289D01*
X3035175Y-2055019D02*
X3035175Y-2075039D01*
X3025165Y-2065029D02*
X3045185Y-2065029D01*
X3050855Y-2129787D02*
X3050855Y-2149807D01*
X3040845Y-2139797D02*
X3060865Y-2139797D01*
X3056367Y-2234385D02*
X3056367Y-2254405D01*
X3046357Y-2244395D02*
X3066377Y-2244395D01*
X3063888Y-3421673D02*
X3063888Y-3441693D01*
X3053878Y-3431683D02*
X3073898Y-3431683D01*
X3067321Y-2918159D02*
X3067321Y-2938179D01*
X3057311Y-2928169D02*
X3077331Y-2928169D01*
X3073809Y-4103115D02*
X3073809Y-4123135D01*
X3063799Y-4113125D02*
X3083819Y-4113125D01*
X3074395Y-4277411D02*
X3074395Y-4297431D01*
X3064385Y-4287421D02*
X3084405Y-4287421D01*
X3075180Y-1545648D02*
X3075180Y-1565668D01*
X3065170Y-1555658D02*
X3085190Y-1555658D01*
X3075511Y-4185394D02*
X3075511Y-4205414D01*
X3065501Y-4195404D02*
X3085521Y-4195404D01*
X3076017Y-2184868D02*
X3076017Y-2204888D01*
X3066007Y-2194878D02*
X3086027Y-2194878D01*
X3093389Y-3179397D02*
X3093389Y-3199417D01*
X3083379Y-3189407D02*
X3103399Y-3189407D01*
X3114478Y-3011953D02*
X3114478Y-3031973D01*
X3104468Y-3021963D02*
X3124488Y-3021963D01*
X3116627Y-3684793D02*
X3116627Y-3704813D01*
X3106617Y-3694803D02*
X3126637Y-3694803D01*
X3128085Y-1079099D02*
X3128085Y-1099119D01*
X3118075Y-1089109D02*
X3138095Y-1089109D01*
X3139084Y-1778668D02*
X3139084Y-1798688D01*
X3129074Y-1788678D02*
X3149094Y-1788678D01*
X3166292Y373918D02*
X3166292Y353898D01*
X3156282Y363908D02*
X3176302Y363908D01*
X3173097Y-1193941D02*
X3173097Y-1213961D01*
X3163087Y-1203951D02*
X3183107Y-1203951D01*
X3179348Y-2145942D02*
X3179348Y-2165962D01*
X3169338Y-2155952D02*
X3189358Y-2155952D01*
X3189134Y-3230866D02*
X3189134Y-3250886D01*
X3179124Y-3240876D02*
X3199144Y-3240876D01*
X3190473Y-2637563D02*
X3190473Y-2657583D01*
X3180463Y-2647573D02*
X3200483Y-2647573D01*
X3207393Y-2693452D02*
X3207393Y-2713472D01*
X3197383Y-2703462D02*
X3217403Y-2703462D01*
X3209450Y-3012372D02*
X3209450Y-3032392D01*
X3199440Y-3022382D02*
X3219460Y-3022382D01*
X3215397Y-3157757D02*
X3215397Y-3177777D01*
X3205387Y-3167767D02*
X3225407Y-3167767D01*
X3217600Y-3377839D02*
X3217600Y-3397859D01*
X3207590Y-3387849D02*
X3227610Y-3387849D01*
X3217702Y-3542102D02*
X3217702Y-3562122D01*
X3207692Y-3552112D02*
X3227712Y-3552112D01*
X3223146Y-553786D02*
X3223146Y-573806D01*
X3213136Y-563796D02*
X3233156Y-563796D01*
X3227182Y-2212809D02*
X3227182Y-2232829D01*
X3217172Y-2222819D02*
X3237192Y-2222819D01*
X3243550Y-1730135D02*
X3243550Y-1750155D01*
X3233540Y-1740145D02*
X3253560Y-1740145D01*
X3247476Y274529D02*
X3247476Y254509D01*
X3237466Y264519D02*
X3257486Y264519D01*
X3247728Y-3229673D02*
X3247728Y-3249693D01*
X3237718Y-3239683D02*
X3257738Y-3239683D01*
X3265273Y-3143352D02*
X3265273Y-3163372D01*
X3255263Y-3153362D02*
X3275283Y-3153362D01*
X3270616Y-5091979D02*
X3270616Y-5111999D01*
X3260606Y-5101989D02*
X3280626Y-5101989D01*
X3278305Y-880170D02*
X3278305Y-900190D01*
X3268295Y-890180D02*
X3288315Y-890180D01*
X3283826Y-2336852D02*
X3283826Y-2356872D01*
X3273816Y-2346862D02*
X3293836Y-2346862D01*
X3284353Y-3401266D02*
X3284353Y-3421286D01*
X3274343Y-3411276D02*
X3294363Y-3411276D01*
X3290602Y-3479444D02*
X3290602Y-3499464D01*
X3280592Y-3489454D02*
X3300612Y-3489454D01*
X3292387Y-757690D02*
X3292387Y-777710D01*
X3282377Y-767700D02*
X3302397Y-767700D01*
X3293984Y-5487327D02*
X3293984Y-5507347D01*
X3283974Y-5497337D02*
X3303994Y-5497337D01*
X3295969Y-3348427D02*
X3295969Y-3368447D01*
X3285959Y-3358437D02*
X3305979Y-3358437D01*
X3305828Y-4200703D02*
X3305828Y-4220723D01*
X3295818Y-4210713D02*
X3315838Y-4210713D01*
X3312789Y-2917124D02*
X3312789Y-2937144D01*
X3302779Y-2927134D02*
X3322799Y-2927134D01*
X3320971Y-1318161D02*
X3320971Y-1338181D01*
X3310961Y-1328171D02*
X3330981Y-1328171D01*
X3326980Y-1727551D02*
X3326980Y-1747571D01*
X3316970Y-1737561D02*
X3336990Y-1737561D01*
X3330575Y-3215440D02*
X3330575Y-3235460D01*
X3320565Y-3225450D02*
X3340585Y-3225450D01*
X3332634Y-5648736D02*
X3332634Y-5668756D01*
X3322624Y-5658746D02*
X3342644Y-5658746D01*
X3345649Y-2809714D02*
X3345649Y-2829734D01*
X3335639Y-2819724D02*
X3355659Y-2819724D01*
X3348183Y-3005494D02*
X3348183Y-3025514D01*
X3338173Y-3015504D02*
X3358193Y-3015504D01*
X3389529Y-1831382D02*
X3389529Y-1851402D01*
X3379519Y-1841392D02*
X3399539Y-1841392D01*
X3417883Y-3697247D02*
X3417883Y-3717267D01*
X3407873Y-3707257D02*
X3427893Y-3707257D01*
X3421728Y-4614673D02*
X3421728Y-4634693D01*
X3411718Y-4624683D02*
X3431738Y-4624683D01*
X3425443Y-3258236D02*
X3425443Y-3278256D01*
X3415433Y-3268246D02*
X3435453Y-3268246D01*
X3428668Y-1784940D02*
X3428668Y-1804960D01*
X3418658Y-1794950D02*
X3438678Y-1794950D01*
X3429520Y-1546531D02*
X3429520Y-1566551D01*
X3419510Y-1556541D02*
X3439530Y-1556541D01*
X3431980Y-2859039D02*
X3431980Y-2879059D01*
X3421970Y-2869049D02*
X3441990Y-2869049D01*
X3434813Y586566D02*
X3434813Y566546D01*
X3424803Y576556D02*
X3444823Y576556D01*
X3441841Y-2633485D02*
X3441841Y-2653505D01*
X3431831Y-2643495D02*
X3451851Y-2643495D01*
X3442876Y-4923447D02*
X3442876Y-4943467D01*
X3432866Y-4933457D02*
X3452886Y-4933457D01*
X3445862Y-1855644D02*
X3445862Y-1875664D01*
X3435852Y-1865654D02*
X3455872Y-1865654D01*
X3446514Y-1034679D02*
X3446514Y-1054699D01*
X3436504Y-1044689D02*
X3456524Y-1044689D01*
X3450015Y-3601775D02*
X3450015Y-3621795D01*
X3440005Y-3611785D02*
X3460025Y-3611785D01*
X3460302Y-3161470D02*
X3460302Y-3181490D01*
X3450292Y-3171480D02*
X3470312Y-3171480D01*
X3460793Y-232401D02*
X3460793Y-252421D01*
X3450783Y-242411D02*
X3470803Y-242411D01*
X3461287Y-5011041D02*
X3461287Y-5031061D01*
X3451277Y-5021051D02*
X3471297Y-5021051D01*
X3469281Y-3355486D02*
X3469281Y-3375506D01*
X3459271Y-3365496D02*
X3479291Y-3365496D01*
X3471539Y277999D02*
X3471539Y257979D01*
X3461529Y267989D02*
X3481549Y267989D01*
X3483922Y-1152013D02*
X3483922Y-1172033D01*
X3473912Y-1162023D02*
X3493932Y-1162023D01*
X3494252Y-1050372D02*
X3494252Y-1070392D01*
X3484242Y-1060382D02*
X3504262Y-1060382D01*
X3502414Y-3635287D02*
X3502414Y-3655307D01*
X3492404Y-3645297D02*
X3512424Y-3645297D01*
X3537267Y-2092884D02*
X3537267Y-2112904D01*
X3527257Y-2102894D02*
X3547277Y-2102894D01*
X3547546Y-1156114D02*
X3547546Y-1176134D01*
X3537536Y-1166124D02*
X3557556Y-1166124D01*
X3568833Y-1648505D02*
X3568833Y-1668525D01*
X3558823Y-1658515D02*
X3578843Y-1658515D01*
X3571637Y-3453183D02*
X3571637Y-3473203D01*
X3561627Y-3463193D02*
X3581647Y-3463193D01*
X3574025Y-3008106D02*
X3574025Y-3028126D01*
X3564015Y-3018116D02*
X3584035Y-3018116D01*
X3575534Y-3576900D02*
X3575534Y-3596920D01*
X3565524Y-3586910D02*
X3585544Y-3586910D01*
X3581005Y-2117632D02*
X3581005Y-2137652D01*
X3570995Y-2127642D02*
X3591015Y-2127642D01*
X3598360Y-4077755D02*
X3598360Y-4097775D01*
X3588350Y-4087765D02*
X3608370Y-4087765D01*
X3614667Y-3801750D02*
X3614667Y-3821770D01*
X3604657Y-3811760D02*
X3624677Y-3811760D01*
X3616043Y-1331991D02*
X3616043Y-1352011D01*
X3606033Y-1342001D02*
X3626053Y-1342001D01*
X3616073Y-2461034D02*
X3616073Y-2481054D01*
X3606063Y-2471044D02*
X3626083Y-2471044D01*
X3618125Y490294D02*
X3618125Y470274D01*
X3608115Y480284D02*
X3628135Y480284D01*
X3632590Y-1259002D02*
X3632590Y-1279022D01*
X3622580Y-1269012D02*
X3642600Y-1269012D01*
X3650423Y46026D02*
X3650423Y26006D01*
X3640413Y36016D02*
X3660433Y36016D01*
X3670392Y-4141243D02*
X3670392Y-4161263D01*
X3660382Y-4151253D02*
X3680402Y-4151253D01*
X3676750Y-1631115D02*
X3676750Y-1651135D01*
X3666740Y-1641125D02*
X3686760Y-1641125D01*
X3680721Y-5058960D02*
X3680721Y-5078980D01*
X3670711Y-5068970D02*
X3690731Y-5068970D01*
X3696079Y-509897D02*
X3696079Y-529918D01*
X3686069Y-519907D02*
X3706089Y-519907D01*
X3703257Y36012D02*
X3703257Y15992D01*
X3693247Y26002D02*
X3713267Y26002D01*
X3717168Y-1286720D02*
X3717168Y-1306740D01*
X3707158Y-1296730D02*
X3727178Y-1296730D01*
X3721414Y882532D02*
X3721414Y862512D01*
X3711404Y872522D02*
X3731424Y872522D01*
X3721936Y683358D02*
X3721936Y663338D01*
X3711926Y673348D02*
X3731946Y673348D01*
X3730271Y-1406217D02*
X3730271Y-1426237D01*
X3720261Y-1416227D02*
X3740281Y-1416227D01*
X3744737Y-3891677D02*
X3744737Y-3911697D01*
X3734727Y-3901687D02*
X3754747Y-3901687D01*
X3768995Y302654D02*
X3768995Y282634D01*
X3758985Y292644D02*
X3779005Y292644D01*
X3770644Y155893D02*
X3770644Y135873D01*
X3760634Y145883D02*
X3780654Y145883D01*
X3786906Y439121D02*
X3786906Y419101D01*
X3776896Y429111D02*
X3796916Y429111D01*
X3811144Y-2803595D02*
X3811144Y-2823615D01*
X3801134Y-2813605D02*
X3821154Y-2813605D01*
X3817966Y-39523D02*
X3817966Y-59543D01*
X3807956Y-49533D02*
X3827976Y-49533D01*
X3823757Y-1838879D02*
X3823757Y-1858899D01*
X3813747Y-1848889D02*
X3833767Y-1848889D01*
X3824134Y-390151D02*
X3824134Y-410171D01*
X3814124Y-400161D02*
X3834144Y-400161D01*
X3825830Y-1779978D02*
X3825830Y-1799998D01*
X3815820Y-1789988D02*
X3835840Y-1789988D01*
X3831830Y-501652D02*
X3831830Y-521672D01*
X3821820Y-511662D02*
X3841840Y-511662D01*
X3833340Y-4915312D02*
X3833340Y-4935332D01*
X3823330Y-4925322D02*
X3843350Y-4925322D01*
X3833378Y-5559999D02*
X3833378Y-5580019D01*
X3823368Y-5570009D02*
X3843388Y-5570009D01*
X3839062Y-6269359D02*
X3839062Y-6289379D01*
X3829052Y-6279369D02*
X3849072Y-6279369D01*
X3840778Y413676D02*
X3840778Y393656D01*
X3830768Y403666D02*
X3850788Y403666D01*
X3848619Y-4371442D02*
X3848619Y-4391462D01*
X3838609Y-4381452D02*
X3858629Y-4381452D01*
X3853526Y-1573005D02*
X3853526Y-1593025D01*
X3843516Y-1583015D02*
X3863536Y-1583015D01*
X3853938Y-1707467D02*
X3853938Y-1727487D01*
X3843928Y-1717477D02*
X3863948Y-1717477D01*
X3854844Y-1994309D02*
X3854844Y-2014329D01*
X3844834Y-2004319D02*
X3864854Y-2004319D01*
X3855492Y-4140956D02*
X3855492Y-4160976D01*
X3845482Y-4150966D02*
X3865502Y-4150966D01*
X3860457Y-1182D02*
X3860457Y-21202D01*
X3850447Y-11192D02*
X3870467Y-11192D01*
X3875551Y459686D02*
X3875551Y439666D01*
X3865541Y449676D02*
X3885561Y449676D01*
X3879776Y869514D02*
X3879776Y849494D01*
X3869766Y859504D02*
X3889786Y859504D01*
X3883449Y-315989D02*
X3883449Y-336009D01*
X3873439Y-325999D02*
X3893459Y-325999D01*
X3892189Y-3456010D02*
X3892189Y-3476030D01*
X3882179Y-3466020D02*
X3902199Y-3466020D01*
X3894633Y-3332028D02*
X3894633Y-3352048D01*
X3884623Y-3342038D02*
X3904643Y-3342038D01*
X3906483Y-4040503D02*
X3906483Y-4060523D01*
X3896473Y-4050513D02*
X3916493Y-4050513D01*
X3906890Y-2818327D02*
X3906890Y-2838347D01*
X3896880Y-2828337D02*
X3916900Y-2828337D01*
X3913970Y-2704735D02*
X3913970Y-2724755D01*
X3903960Y-2714745D02*
X3923980Y-2714745D01*
X3918652Y-4327382D02*
X3918652Y-4347402D01*
X3908642Y-4337392D02*
X3928662Y-4337392D01*
X3923426Y-3136900D02*
X3923426Y-3156920D01*
X3913416Y-3146910D02*
X3933436Y-3146910D01*
X3924868Y-3758677D02*
X3924868Y-3778697D01*
X3914858Y-3768687D02*
X3934878Y-3768687D01*
X3928935Y-4091470D02*
X3928935Y-4111490D01*
X3918925Y-4101480D02*
X3938945Y-4101480D01*
X3936250Y-3620474D02*
X3936250Y-3640494D01*
X3926240Y-3630484D02*
X3946260Y-3630484D01*
X3937411Y-1311189D02*
X3937411Y-1331209D01*
X3927401Y-1321199D02*
X3947421Y-1321199D01*
X3940478Y-3023854D02*
X3940478Y-3043874D01*
X3930468Y-3033864D02*
X3950488Y-3033864D01*
X3944973Y-40139D02*
X3944973Y-60159D01*
X3934963Y-50149D02*
X3954983Y-50149D01*
X3957629Y-3868585D02*
X3957629Y-3888605D01*
X3947619Y-3878595D02*
X3967639Y-3878595D01*
X3958419Y-1158835D02*
X3958419Y-1178855D01*
X3948409Y-1168845D02*
X3968429Y-1168845D01*
X3958421Y-190224D02*
X3958421Y-210244D01*
X3948411Y-200234D02*
X3968431Y-200234D01*
X3961211Y-4538064D02*
X3961211Y-4558084D01*
X3951201Y-4548074D02*
X3971221Y-4548074D01*
X3962825Y-5165423D02*
X3962825Y-5185443D01*
X3952815Y-5175433D02*
X3972835Y-5175433D01*
X3965520Y-4634652D02*
X3965520Y-4654672D01*
X3955510Y-4644662D02*
X3975530Y-4644662D01*
X3969386Y-5874259D02*
X3969386Y-5894279D01*
X3959376Y-5884269D02*
X3979396Y-5884269D01*
X3991192Y-1108393D02*
X3991192Y-1128413D01*
X3981182Y-1118403D02*
X4001202Y-1118403D01*
X3996672Y-99549D02*
X3996672Y-119569D01*
X3986662Y-109559D02*
X4006682Y-109559D01*
X3997924Y-533890D02*
X3997924Y-553910D01*
X3987914Y-543900D02*
X4007934Y-543900D01*
X4009723Y-2139054D02*
X4009723Y-2159074D01*
X3999713Y-2149064D02*
X4019733Y-2149064D01*
X4013433Y-3726367D02*
X4013433Y-3746387D01*
X4003423Y-3736377D02*
X4023443Y-3736377D01*
X4014160Y-3893105D02*
X4014160Y-3913125D01*
X4004150Y-3903115D02*
X4024170Y-3903115D01*
X4019547Y-1361958D02*
X4019547Y-1381978D01*
X4009537Y-1371968D02*
X4029557Y-1371968D01*
X4022428Y646095D02*
X4022428Y626075D01*
X4012418Y636085D02*
X4032438Y636085D01*
X4024657Y-3325078D02*
X4024657Y-3345098D01*
X4014647Y-3335088D02*
X4034667Y-3335088D01*
X4032224Y855991D02*
X4032224Y835971D01*
X4022214Y845981D02*
X4042234Y845981D01*
X4033056Y-5130814D02*
X4033056Y-5150834D01*
X4023046Y-5140824D02*
X4043066Y-5140824D01*
X4034275Y-2477496D02*
X4034275Y-2497516D01*
X4024265Y-2487506D02*
X4044285Y-2487506D01*
X4035766Y-1573842D02*
X4035766Y-1593862D01*
X4025756Y-1583852D02*
X4045776Y-1583852D01*
X4047653Y-44928D02*
X4047653Y-64948D01*
X4037643Y-54938D02*
X4057663Y-54938D01*
X4054076Y-2280189D02*
X4054076Y-2300209D01*
X4044066Y-2290199D02*
X4064086Y-2290199D01*
X4060237Y-512802D02*
X4060237Y-532822D01*
X4050227Y-522812D02*
X4070247Y-522812D01*
X4061433Y-3159871D02*
X4061433Y-3179891D01*
X4051423Y-3169881D02*
X4071443Y-3169881D01*
X4067837Y-795736D02*
X4067837Y-815756D01*
X4057827Y-805746D02*
X4077847Y-805746D01*
X4079259Y-5205586D02*
X4079259Y-5225606D01*
X4069249Y-5215596D02*
X4089269Y-5215596D01*
X4081547Y-856610D02*
X4081547Y-876630D01*
X4071537Y-866620D02*
X4091557Y-866620D01*
X4086829Y-917501D02*
X4086829Y-937521D01*
X4076819Y-927511D02*
X4096839Y-927511D01*
X4101128Y757323D02*
X4101128Y737303D01*
X4091118Y747313D02*
X4111138Y747313D01*
X4104905Y-163360D02*
X4104905Y-183380D01*
X4094895Y-173370D02*
X4114915Y-173370D01*
X4114804Y-1225282D02*
X4114804Y-1245302D01*
X4104794Y-1235292D02*
X4124814Y-1235292D01*
X4121510Y-4516950D02*
X4121510Y-4536970D01*
X4111500Y-4526960D02*
X4131520Y-4526960D01*
X4122738Y-4132051D02*
X4122738Y-4152071D01*
X4112728Y-4142061D02*
X4132748Y-4142061D01*
X4123358Y-523595D02*
X4123358Y-543615D01*
X4113348Y-533605D02*
X4133368Y-533605D01*
X4129224Y-4826989D02*
X4129224Y-4847009D01*
X4119214Y-4836999D02*
X4139234Y-4836999D01*
X4151421Y693788D02*
X4151421Y673768D01*
X4141411Y683778D02*
X4161431Y683778D01*
X4153797Y-4695378D02*
X4153797Y-4715398D01*
X4143787Y-4705388D02*
X4163807Y-4705388D01*
X4163362Y501062D02*
X4163362Y481042D01*
X4153352Y491052D02*
X4173372Y491052D01*
X4170877Y-2222511D02*
X4170877Y-2242531D01*
X4160867Y-2232521D02*
X4180887Y-2232521D01*
X4177627Y809245D02*
X4177627Y789225D01*
X4167617Y799235D02*
X4187637Y799235D01*
X4183159Y-298483D02*
X4183159Y-318503D01*
X4173149Y-308493D02*
X4193169Y-308493D01*
X4200374Y-3844791D02*
X4200374Y-3864811D01*
X4190364Y-3854801D02*
X4210384Y-3854801D01*
X4239802Y-1384427D02*
X4239802Y-1404447D01*
X4229792Y-1394437D02*
X4249812Y-1394437D01*
X4247205Y-4153936D02*
X4247205Y-4173956D01*
X4237195Y-4163946D02*
X4257215Y-4163946D01*
X4251643Y435557D02*
X4251643Y415537D01*
X4241633Y425547D02*
X4261653Y425547D01*
X4258075Y-2000948D02*
X4258075Y-2020968D01*
X4248065Y-2010958D02*
X4268085Y-2010958D01*
X4262355Y-2083797D02*
X4262355Y-2103817D01*
X4252345Y-2093807D02*
X4272365Y-2093807D01*
X4269601Y-6249085D02*
X4269601Y-6269105D01*
X4259591Y-6259095D02*
X4279611Y-6259095D01*
X4273754Y38797D02*
X4273754Y18777D01*
X4263744Y28787D02*
X4283764Y28787D01*
X4275181Y-4749672D02*
X4275181Y-4769692D01*
X4265171Y-4759682D02*
X4285191Y-4759682D01*
X4292090Y-1631900D02*
X4292090Y-1651920D01*
X4282080Y-1641910D02*
X4302100Y-1641910D01*
X4300554Y-4844423D02*
X4300554Y-4864443D01*
X4290544Y-4854433D02*
X4310564Y-4854433D01*
X4302946Y-3353361D02*
X4302946Y-3373381D01*
X4292936Y-3363371D02*
X4312956Y-3363371D01*
X4322014Y-1219373D02*
X4322014Y-1239393D01*
X4312004Y-1229383D02*
X4332024Y-1229383D01*
X4322366Y-1104724D02*
X4322366Y-1124744D01*
X4312356Y-1114734D02*
X4332376Y-1114734D01*
X4322443Y-936201D02*
X4322443Y-956221D01*
X4312433Y-946211D02*
X4332453Y-946211D01*
X4326642Y-1737151D02*
X4326642Y-1757171D01*
X4316632Y-1747161D02*
X4336652Y-1747161D01*
X4330782Y302607D02*
X4330782Y282587D01*
X4320772Y292597D02*
X4340792Y292597D01*
X4332847Y103289D02*
X4332847Y83269D01*
X4322837Y93279D02*
X4342857Y93279D01*
X4334186Y-1414106D02*
X4334186Y-1434126D01*
X4324176Y-1424116D02*
X4344196Y-1424116D01*
X4340219Y-4490202D02*
X4340219Y-4510222D01*
X4330209Y-4500212D02*
X4350229Y-4500212D01*
X4343208Y-5610495D02*
X4343208Y-5630515D01*
X4333198Y-5620505D02*
X4353218Y-5620505D01*
X4344978Y-2176680D02*
X4344978Y-2196700D01*
X4334968Y-2186690D02*
X4354988Y-2186690D01*
X4350659Y549237D02*
X4350659Y529217D01*
X4340649Y539227D02*
X4360669Y539227D01*
X4354134Y-1036590D02*
X4354134Y-1056610D01*
X4344124Y-1046600D02*
X4364144Y-1046600D01*
X4356388Y-383679D02*
X4356388Y-403699D01*
X4346378Y-393689D02*
X4366398Y-393689D01*
X4358214Y-4157351D02*
X4358214Y-4177371D01*
X4348204Y-4167361D02*
X4368224Y-4167361D01*
X4360191Y-5558381D02*
X4360191Y-5578401D01*
X4350181Y-5568391D02*
X4370201Y-5568391D01*
X4363550Y-3275667D02*
X4363550Y-3295687D01*
X4353540Y-3285677D02*
X4373560Y-3285677D01*
X4365014Y625011D02*
X4365014Y604991D01*
X4355004Y615001D02*
X4375024Y615001D01*
X4368592Y-2376711D02*
X4368592Y-2396731D01*
X4358582Y-2386721D02*
X4378602Y-2386721D01*
X4380422Y-2776469D02*
X4380422Y-2796489D01*
X4370412Y-2786479D02*
X4390432Y-2786479D01*
X4397999Y457845D02*
X4397999Y437825D01*
X4387989Y447835D02*
X4408009Y447835D01*
X4402255Y-2430863D02*
X4402255Y-2450883D01*
X4392245Y-2440873D02*
X4412265Y-2440873D01*
X4404621Y-606895D02*
X4404621Y-626915D01*
X4394611Y-616905D02*
X4414631Y-616905D01*
X4411852Y-3476162D02*
X4411852Y-3496182D01*
X4401842Y-3486172D02*
X4421862Y-3486172D01*
X4434817Y684104D02*
X4434817Y664084D01*
X4424807Y674094D02*
X4444827Y674094D01*
X4444321Y-1061695D02*
X4444321Y-1081715D01*
X4434311Y-1071705D02*
X4454331Y-1071705D01*
X4444620Y-4825856D02*
X4444620Y-4845876D01*
X4434610Y-4835866D02*
X4454630Y-4835866D01*
X4446303Y376730D02*
X4446303Y356710D01*
X4436293Y366720D02*
X4456313Y366720D01*
X4449724Y-3964535D02*
X4449724Y-3984555D01*
X4439714Y-3974545D02*
X4459734Y-3974545D01*
X4450616Y-2682955D02*
X4450616Y-2702975D01*
X4440606Y-2692965D02*
X4460626Y-2692965D01*
X4451054Y886966D02*
X4451054Y866946D01*
X4441044Y876956D02*
X4461064Y876956D01*
X4462641Y-2143071D02*
X4462641Y-2163091D01*
X4452631Y-2153081D02*
X4472651Y-2153081D01*
X4467851Y429208D02*
X4467851Y409188D01*
X4457841Y419198D02*
X4477861Y419198D01*
X4477376Y98865D02*
X4477376Y78845D01*
X4467366Y88855D02*
X4487386Y88855D01*
X4479263Y-1414276D02*
X4479263Y-1434296D01*
X4469253Y-1424286D02*
X4489273Y-1424286D01*
X4491330Y-1733500D02*
X4491330Y-1753520D01*
X4481320Y-1743510D02*
X4501340Y-1743510D01*
X4511745Y-4741237D02*
X4511745Y-4761257D01*
X4501735Y-4751247D02*
X4521755Y-4751247D01*
X4514790Y-3449397D02*
X4514790Y-3469417D01*
X4504780Y-3459407D02*
X4524800Y-3459407D01*
X4516191Y-1141141D02*
X4516191Y-1161161D01*
X4506181Y-1151151D02*
X4526201Y-1151151D01*
X4531635Y230444D02*
X4531635Y210424D01*
X4521625Y220434D02*
X4541645Y220434D01*
X4538869Y-1876965D02*
X4538869Y-1896985D01*
X4528859Y-1886975D02*
X4548879Y-1886975D01*
X4565297Y-1511917D02*
X4565297Y-1531937D01*
X4555287Y-1521927D02*
X4575307Y-1521927D01*
X4569434Y-63792D02*
X4569434Y-83812D01*
X4559424Y-73802D02*
X4579444Y-73802D01*
X4609961Y-245506D02*
X4609961Y-265526D01*
X4599951Y-255516D02*
X4619971Y-255516D01*
X4615776Y-1288097D02*
X4615776Y-1308117D01*
X4605766Y-1298107D02*
X4625786Y-1298107D01*
X4624215Y-19845D02*
X4624215Y-39865D01*
X4614205Y-29855D02*
X4634225Y-29855D01*
X4628585Y-5262813D02*
X4628585Y-5282833D01*
X4618575Y-5272823D02*
X4638595Y-5272823D01*
X4648677Y-1979050D02*
X4648677Y-1999070D01*
X4638667Y-1989060D02*
X4658687Y-1989060D01*
X4657472Y389216D02*
X4657472Y369196D01*
X4647462Y379206D02*
X4667482Y379206D01*
X4665508Y507152D02*
X4665508Y487132D01*
X4655498Y497142D02*
X4675518Y497142D01*
X4667980Y-5630862D02*
X4667980Y-5650882D01*
X4657970Y-5640872D02*
X4677990Y-5640872D01*
X4672789Y-3032038D02*
X4672789Y-3052058D01*
X4662779Y-3042048D02*
X4682799Y-3042048D01*
X4681923Y-620808D02*
X4681923Y-640828D01*
X4671913Y-630818D02*
X4691933Y-630818D01*
X4702483Y428905D02*
X4702483Y408885D01*
X4692473Y418895D02*
X4712493Y418895D01*
X4704226Y-3914340D02*
X4704226Y-3934360D01*
X4694216Y-3924350D02*
X4714236Y-3924350D01*
X4721979Y-2395855D02*
X4721979Y-2415875D01*
X4711969Y-2405865D02*
X4731989Y-2405865D01*
X4734064Y-2175717D02*
X4734064Y-2195737D01*
X4724054Y-2185727D02*
X4744074Y-2185727D01*
X2189213Y863787D02*
X2189213Y906213D01*
X2146787Y906213D01*
X2146787Y863787D01*
X2189213Y863787D01*
X2198000Y855000D02*
X2198000Y915000D01*
X2138000Y915000D02*
G75*
G02*
X2198000Y915000I30000J0D01*
G01*
X2138000Y915000D02*
X2138000Y855000D01*
X2138000Y855000D02*
G75*
G03*
X2198000Y855000I30000J0D01*
G01*
X2189213Y445787D02*
X2189213Y488213D01*
X2146787Y488213D01*
X2146787Y445787D01*
X2189213Y445787D01*
X2198000Y412000D02*
X2198000Y522000D01*
X2138000Y522000D02*
G75*
G02*
X2198000Y522000I30000J0D01*
G01*
X2138000Y522000D02*
X2138000Y412000D01*
X2138000Y412000D02*
G75*
G03*
X2198000Y412000I30000J0D01*
G01*
X3053213Y863787D02*
X3053213Y906213D01*
X3010787Y906213D01*
X3010787Y863787D01*
X3053213Y863787D01*
X3062000Y855000D02*
X3062000Y915000D01*
X3002000Y915000D02*
G75*
G02*
X3062000Y915000I30000J0D01*
G01*
X3002000Y915000D02*
X3002000Y855000D01*
X3002000Y855000D02*
G75*
G03*
X3062000Y855000I30000J0D01*
G01*
X3053213Y445787D02*
X3053213Y488213D01*
X3010787Y488213D01*
X3010787Y445787D01*
X3053213Y445787D01*
X3062000Y412000D02*
X3062000Y522000D01*
X3002000Y522000D02*
G75*
G02*
X3062000Y522000I30000J0D01*
G01*
X3002000Y522000D02*
X3002000Y412000D01*
X3002000Y412000D02*
G75*
G03*
X3062000Y412000I30000J0D01*
G01*
D11*
X55777Y-6766484D02*
X55777Y-6566484D01*
X55777Y-6566484D02*
X103396Y-6566484D01*
X103396Y-6566484D02*
X131967Y-6576008D01*
X131967Y-6576008D02*
X151015Y-6595055D01*
X151015Y-6595055D02*
X160539Y-6614103D01*
X160539Y-6614103D02*
X170063Y-6652198D01*
X170063Y-6652198D02*
X170063Y-6680769D01*
X170063Y-6680769D02*
X160539Y-6718865D01*
X160539Y-6718865D02*
X151015Y-6737912D01*
X151015Y-6737912D02*
X131967Y-6756960D01*
X131967Y-6756960D02*
X103396Y-6766484D01*
X103396Y-6766484D02*
X55777Y-6766484D01*
X255777Y-6766484D02*
X255777Y-6633150D01*
X255777Y-6671246D02*
X265301Y-6652198D01*
X265301Y-6652198D02*
X274824Y-6642674D01*
X274824Y-6642674D02*
X293872Y-6633150D01*
X293872Y-6633150D02*
X312920Y-6633150D01*
X379586Y-6766484D02*
X379586Y-6633150D01*
X379586Y-6566484D02*
X370062Y-6576008D01*
X370062Y-6576008D02*
X379586Y-6585531D01*
X379586Y-6585531D02*
X389110Y-6576008D01*
X389110Y-6576008D02*
X379586Y-6566484D01*
X379586Y-6566484D02*
X379586Y-6585531D01*
X503396Y-6766484D02*
X484348Y-6756960D01*
X484348Y-6756960D02*
X474824Y-6737912D01*
X474824Y-6737912D02*
X474824Y-6566484D01*
X608158Y-6766484D02*
X589110Y-6756960D01*
X589110Y-6756960D02*
X579586Y-6737912D01*
X579586Y-6737912D02*
X579586Y-6566484D01*
X836729Y-6766484D02*
X836729Y-6566484D01*
X836729Y-6566484D02*
X903396Y-6709341D01*
X903396Y-6709341D02*
X970062Y-6566484D01*
X970062Y-6566484D02*
X970062Y-6766484D01*
X1151015Y-6766484D02*
X1151015Y-6661722D01*
X1151015Y-6661722D02*
X1141491Y-6642674D01*
X1141491Y-6642674D02*
X1122444Y-6633150D01*
X1122444Y-6633150D02*
X1084348Y-6633150D01*
X1084348Y-6633150D02*
X1065301Y-6642674D01*
X1151015Y-6756960D02*
X1131967Y-6766484D01*
X1131967Y-6766484D02*
X1084348Y-6766484D01*
X1084348Y-6766484D02*
X1065301Y-6756960D01*
X1065301Y-6756960D02*
X1055777Y-6737912D01*
X1055777Y-6737912D02*
X1055777Y-6718865D01*
X1055777Y-6718865D02*
X1065301Y-6699817D01*
X1065301Y-6699817D02*
X1084348Y-6690293D01*
X1084348Y-6690293D02*
X1131967Y-6690293D01*
X1131967Y-6690293D02*
X1151015Y-6680769D01*
X1246253Y-6633150D02*
X1246253Y-6833150D01*
X1246253Y-6642674D02*
X1265301Y-6633150D01*
X1265301Y-6633150D02*
X1303396Y-6633150D01*
X1303396Y-6633150D02*
X1322444Y-6642674D01*
X1322444Y-6642674D02*
X1331967Y-6652198D01*
X1331967Y-6652198D02*
X1341491Y-6671246D01*
X1341491Y-6671246D02*
X1341491Y-6728388D01*
X1341491Y-6728388D02*
X1331967Y-6747436D01*
X1331967Y-6747436D02*
X1322444Y-6756960D01*
X1322444Y-6756960D02*
X1303396Y-6766484D01*
X1303396Y-6766484D02*
X1265301Y-6766484D01*
X1265301Y-6766484D02*
X1246253Y-6756960D01*
X1427205Y-6747436D02*
X1436729Y-6756960D01*
X1436729Y-6756960D02*
X1427205Y-6766484D01*
X1427205Y-6766484D02*
X1417682Y-6756960D01*
X1417682Y-6756960D02*
X1427205Y-6747436D01*
X1427205Y-6747436D02*
X1427205Y-6766484D01*
X1427205Y-6642674D02*
X1436729Y-6652198D01*
X1436729Y-6652198D02*
X1427205Y-6661722D01*
X1427205Y-6661722D02*
X1417682Y-6652198D01*
X1417682Y-6652198D02*
X1427205Y-6642674D01*
X1427205Y-6642674D02*
X1427205Y-6661722D01*
D10*
X-220000Y-7087500D02*
X-205000Y-7102500D01*
X-205000Y-7087500D02*
X-220000Y-7102500D01*
D11*
X93872Y-6986484D02*
X112920Y-6986484D01*
X112920Y-6986484D02*
X131967Y-6996008D01*
X131967Y-6996008D02*
X141491Y-7005531D01*
X141491Y-7005531D02*
X151015Y-7024579D01*
X151015Y-7024579D02*
X160539Y-7062674D01*
X160539Y-7062674D02*
X160539Y-7110293D01*
X160539Y-7110293D02*
X151015Y-7148388D01*
X151015Y-7148388D02*
X141491Y-7167436D01*
X141491Y-7167436D02*
X131967Y-7176960D01*
X131967Y-7176960D02*
X112920Y-7186484D01*
X112920Y-7186484D02*
X93872Y-7186484D01*
X93872Y-7186484D02*
X74824Y-7176960D01*
X74824Y-7176960D02*
X65301Y-7167436D01*
X65301Y-7167436D02*
X55777Y-7148388D01*
X55777Y-7148388D02*
X46253Y-7110293D01*
X46253Y-7110293D02*
X46253Y-7062674D01*
X46253Y-7062674D02*
X55777Y-7024579D01*
X55777Y-7024579D02*
X65301Y-7005531D01*
X65301Y-7005531D02*
X74824Y-6996008D01*
X74824Y-6996008D02*
X93872Y-6986484D01*
X246253Y-7167436D02*
X255777Y-7176960D01*
X255777Y-7176960D02*
X246253Y-7186484D01*
X246253Y-7186484D02*
X236729Y-7176960D01*
X236729Y-7176960D02*
X246253Y-7167436D01*
X246253Y-7167436D02*
X246253Y-7186484D01*
X446253Y-7186484D02*
X331967Y-7186484D01*
X389110Y-7186484D02*
X389110Y-6986484D01*
X389110Y-6986484D02*
X370062Y-7015055D01*
X370062Y-7015055D02*
X351015Y-7034103D01*
X351015Y-7034103D02*
X331967Y-7043627D01*
X627205Y-6986484D02*
X531967Y-6986484D01*
X531967Y-6986484D02*
X522443Y-7081722D01*
X522443Y-7081722D02*
X531967Y-7072198D01*
X531967Y-7072198D02*
X551015Y-7062674D01*
X551015Y-7062674D02*
X598634Y-7062674D01*
X598634Y-7062674D02*
X617682Y-7072198D01*
X617682Y-7072198D02*
X627205Y-7081722D01*
X627205Y-7081722D02*
X636729Y-7100769D01*
X636729Y-7100769D02*
X636729Y-7148388D01*
X636729Y-7148388D02*
X627205Y-7167436D01*
X627205Y-7167436D02*
X617682Y-7176960D01*
X617682Y-7176960D02*
X598634Y-7186484D01*
X598634Y-7186484D02*
X551015Y-7186484D01*
X551015Y-7186484D02*
X531967Y-7176960D01*
X531967Y-7176960D02*
X522443Y-7167436D01*
X760539Y-6986484D02*
X779586Y-6986484D01*
X779586Y-6986484D02*
X798634Y-6996008D01*
X798634Y-6996008D02*
X808158Y-7005531D01*
X808158Y-7005531D02*
X817682Y-7024579D01*
X817682Y-7024579D02*
X827205Y-7062674D01*
X827205Y-7062674D02*
X827205Y-7110293D01*
X827205Y-7110293D02*
X817682Y-7148388D01*
X817682Y-7148388D02*
X808158Y-7167436D01*
X808158Y-7167436D02*
X798634Y-7176960D01*
X798634Y-7176960D02*
X779586Y-7186484D01*
X779586Y-7186484D02*
X760539Y-7186484D01*
X760539Y-7186484D02*
X741491Y-7176960D01*
X741491Y-7176960D02*
X731967Y-7167436D01*
X731967Y-7167436D02*
X722443Y-7148388D01*
X722443Y-7148388D02*
X712920Y-7110293D01*
X712920Y-7110293D02*
X712920Y-7062674D01*
X712920Y-7062674D02*
X722443Y-7024579D01*
X722443Y-7024579D02*
X731967Y-7005531D01*
X731967Y-7005531D02*
X741491Y-6996008D01*
X741491Y-6996008D02*
X760539Y-6986484D01*
X912920Y-7186484D02*
X912920Y-7053150D01*
X912920Y-7072198D02*
X922443Y-7062674D01*
X922443Y-7062674D02*
X941491Y-7053150D01*
X941491Y-7053150D02*
X970063Y-7053150D01*
X970063Y-7053150D02*
X989110Y-7062674D01*
X989110Y-7062674D02*
X998634Y-7081722D01*
X998634Y-7081722D02*
X998634Y-7186484D01*
X998634Y-7081722D02*
X1008158Y-7062674D01*
X1008158Y-7062674D02*
X1027205Y-7053150D01*
X1027205Y-7053150D02*
X1055777Y-7053150D01*
X1055777Y-7053150D02*
X1074825Y-7062674D01*
X1074825Y-7062674D02*
X1084348Y-7081722D01*
X1084348Y-7081722D02*
X1084348Y-7186484D01*
X1179586Y-7186484D02*
X1179586Y-7053150D01*
X1179586Y-7072198D02*
X1189110Y-7062674D01*
X1189110Y-7062674D02*
X1208158Y-7053150D01*
X1208158Y-7053150D02*
X1236729Y-7053150D01*
X1236729Y-7053150D02*
X1255777Y-7062674D01*
X1255777Y-7062674D02*
X1265301Y-7081722D01*
X1265301Y-7081722D02*
X1265301Y-7186484D01*
X1265301Y-7081722D02*
X1274825Y-7062674D01*
X1274825Y-7062674D02*
X1293872Y-7053150D01*
X1293872Y-7053150D02*
X1322444Y-7053150D01*
X1322444Y-7053150D02*
X1341491Y-7062674D01*
X1341491Y-7062674D02*
X1351015Y-7081722D01*
X1351015Y-7081722D02*
X1351015Y-7186484D01*
X1741491Y-6976960D02*
X1570063Y-7234103D01*
X1998634Y-6986484D02*
X2017682Y-6986484D01*
X2017682Y-6986484D02*
X2036729Y-6996008D01*
X2036729Y-6996008D02*
X2046253Y-7005531D01*
X2046253Y-7005531D02*
X2055777Y-7024579D01*
X2055777Y-7024579D02*
X2065301Y-7062674D01*
X2065301Y-7062674D02*
X2065301Y-7110293D01*
X2065301Y-7110293D02*
X2055777Y-7148388D01*
X2055777Y-7148388D02*
X2046253Y-7167436D01*
X2046253Y-7167436D02*
X2036729Y-7176960D01*
X2036729Y-7176960D02*
X2017682Y-7186484D01*
X2017682Y-7186484D02*
X1998634Y-7186484D01*
X1998634Y-7186484D02*
X1979586Y-7176960D01*
X1979586Y-7176960D02*
X1970063Y-7167436D01*
X1970063Y-7167436D02*
X1960539Y-7148388D01*
X1960539Y-7148388D02*
X1951015Y-7110293D01*
X1951015Y-7110293D02*
X1951015Y-7062674D01*
X1951015Y-7062674D02*
X1960539Y-7024579D01*
X1960539Y-7024579D02*
X1970063Y-7005531D01*
X1970063Y-7005531D02*
X1979586Y-6996008D01*
X1979586Y-6996008D02*
X1998634Y-6986484D01*
X2151015Y-7167436D02*
X2160539Y-7176960D01*
X2160539Y-7176960D02*
X2151015Y-7186484D01*
X2151015Y-7186484D02*
X2141491Y-7176960D01*
X2141491Y-7176960D02*
X2151015Y-7167436D01*
X2151015Y-7167436D02*
X2151015Y-7186484D01*
X2284348Y-6986484D02*
X2303396Y-6986484D01*
X2303396Y-6986484D02*
X2322444Y-6996008D01*
X2322444Y-6996008D02*
X2331968Y-7005531D01*
X2331968Y-7005531D02*
X2341491Y-7024579D01*
X2341491Y-7024579D02*
X2351015Y-7062674D01*
X2351015Y-7062674D02*
X2351015Y-7110293D01*
X2351015Y-7110293D02*
X2341491Y-7148388D01*
X2341491Y-7148388D02*
X2331968Y-7167436D01*
X2331968Y-7167436D02*
X2322444Y-7176960D01*
X2322444Y-7176960D02*
X2303396Y-7186484D01*
X2303396Y-7186484D02*
X2284348Y-7186484D01*
X2284348Y-7186484D02*
X2265301Y-7176960D01*
X2265301Y-7176960D02*
X2255777Y-7167436D01*
X2255777Y-7167436D02*
X2246253Y-7148388D01*
X2246253Y-7148388D02*
X2236729Y-7110293D01*
X2236729Y-7110293D02*
X2236729Y-7062674D01*
X2236729Y-7062674D02*
X2246253Y-7024579D01*
X2246253Y-7024579D02*
X2255777Y-7005531D01*
X2255777Y-7005531D02*
X2265301Y-6996008D01*
X2265301Y-6996008D02*
X2284348Y-6986484D01*
X2474825Y-6986484D02*
X2493872Y-6986484D01*
X2493872Y-6986484D02*
X2512920Y-6996008D01*
X2512920Y-6996008D02*
X2522444Y-7005531D01*
X2522444Y-7005531D02*
X2531968Y-7024579D01*
X2531968Y-7024579D02*
X2541491Y-7062674D01*
X2541491Y-7062674D02*
X2541491Y-7110293D01*
X2541491Y-7110293D02*
X2531968Y-7148388D01*
X2531968Y-7148388D02*
X2522444Y-7167436D01*
X2522444Y-7167436D02*
X2512920Y-7176960D01*
X2512920Y-7176960D02*
X2493872Y-7186484D01*
X2493872Y-7186484D02*
X2474825Y-7186484D01*
X2474825Y-7186484D02*
X2455777Y-7176960D01*
X2455777Y-7176960D02*
X2446253Y-7167436D01*
X2446253Y-7167436D02*
X2436729Y-7148388D01*
X2436729Y-7148388D02*
X2427206Y-7110293D01*
X2427206Y-7110293D02*
X2427206Y-7062674D01*
X2427206Y-7062674D02*
X2436729Y-7024579D01*
X2436729Y-7024579D02*
X2446253Y-7005531D01*
X2446253Y-7005531D02*
X2455777Y-6996008D01*
X2455777Y-6996008D02*
X2474825Y-6986484D01*
X2722444Y-6986484D02*
X2627206Y-6986484D01*
X2627206Y-6986484D02*
X2617682Y-7081722D01*
X2617682Y-7081722D02*
X2627206Y-7072198D01*
X2627206Y-7072198D02*
X2646253Y-7062674D01*
X2646253Y-7062674D02*
X2693872Y-7062674D01*
X2693872Y-7062674D02*
X2712920Y-7072198D01*
X2712920Y-7072198D02*
X2722444Y-7081722D01*
X2722444Y-7081722D02*
X2731968Y-7100769D01*
X2731968Y-7100769D02*
X2731968Y-7148388D01*
X2731968Y-7148388D02*
X2722444Y-7167436D01*
X2722444Y-7167436D02*
X2712920Y-7176960D01*
X2712920Y-7176960D02*
X2693872Y-7186484D01*
X2693872Y-7186484D02*
X2646253Y-7186484D01*
X2646253Y-7186484D02*
X2627206Y-7176960D01*
X2627206Y-7176960D02*
X2617682Y-7167436D01*
X2827206Y-7186484D02*
X2865301Y-7186484D01*
X2865301Y-7186484D02*
X2884348Y-7176960D01*
X2884348Y-7176960D02*
X2893872Y-7167436D01*
X2893872Y-7167436D02*
X2912920Y-7138865D01*
X2912920Y-7138865D02*
X2922444Y-7100769D01*
X2922444Y-7100769D02*
X2922444Y-7024579D01*
X2922444Y-7024579D02*
X2912920Y-7005531D01*
X2912920Y-7005531D02*
X2903396Y-6996008D01*
X2903396Y-6996008D02*
X2884348Y-6986484D01*
X2884348Y-6986484D02*
X2846253Y-6986484D01*
X2846253Y-6986484D02*
X2827206Y-6996008D01*
X2827206Y-6996008D02*
X2817682Y-7005531D01*
X2817682Y-7005531D02*
X2808158Y-7024579D01*
X2808158Y-7024579D02*
X2808158Y-7072198D01*
X2808158Y-7072198D02*
X2817682Y-7091246D01*
X2817682Y-7091246D02*
X2827206Y-7100769D01*
X2827206Y-7100769D02*
X2846253Y-7110293D01*
X2846253Y-7110293D02*
X2884348Y-7110293D01*
X2884348Y-7110293D02*
X2903396Y-7100769D01*
X2903396Y-7100769D02*
X2912920Y-7091246D01*
X2912920Y-7091246D02*
X2922444Y-7072198D01*
X2998634Y-6986484D02*
X2998634Y-7024579D01*
X3074825Y-6986484D02*
X3074825Y-7024579D01*
X3370063Y-7262674D02*
X3360539Y-7253150D01*
X3360539Y-7253150D02*
X3341491Y-7224579D01*
X3341491Y-7224579D02*
X3331968Y-7205531D01*
X3331968Y-7205531D02*
X3322444Y-7176960D01*
X3322444Y-7176960D02*
X3312920Y-7129341D01*
X3312920Y-7129341D02*
X3312920Y-7091246D01*
X3312920Y-7091246D02*
X3322444Y-7043627D01*
X3322444Y-7043627D02*
X3331968Y-7015055D01*
X3331968Y-7015055D02*
X3341491Y-6996008D01*
X3341491Y-6996008D02*
X3360539Y-6967436D01*
X3360539Y-6967436D02*
X3370063Y-6957912D01*
X3531968Y-7053150D02*
X3531968Y-7186484D01*
X3484348Y-6976960D02*
X3436729Y-7119817D01*
X3436729Y-7119817D02*
X3560539Y-7119817D01*
X3722444Y-6986484D02*
X3684348Y-6986484D01*
X3684348Y-6986484D02*
X3665301Y-6996008D01*
X3665301Y-6996008D02*
X3655777Y-7005531D01*
X3655777Y-7005531D02*
X3636729Y-7034103D01*
X3636729Y-7034103D02*
X3627206Y-7072198D01*
X3627206Y-7072198D02*
X3627206Y-7148388D01*
X3627206Y-7148388D02*
X3636729Y-7167436D01*
X3636729Y-7167436D02*
X3646253Y-7176960D01*
X3646253Y-7176960D02*
X3665301Y-7186484D01*
X3665301Y-7186484D02*
X3703396Y-7186484D01*
X3703396Y-7186484D02*
X3722444Y-7176960D01*
X3722444Y-7176960D02*
X3731968Y-7167436D01*
X3731968Y-7167436D02*
X3741491Y-7148388D01*
X3741491Y-7148388D02*
X3741491Y-7100769D01*
X3741491Y-7100769D02*
X3731968Y-7081722D01*
X3731968Y-7081722D02*
X3722444Y-7072198D01*
X3722444Y-7072198D02*
X3703396Y-7062674D01*
X3703396Y-7062674D02*
X3665301Y-7062674D01*
X3665301Y-7062674D02*
X3646253Y-7072198D01*
X3646253Y-7072198D02*
X3636729Y-7081722D01*
X3636729Y-7081722D02*
X3627206Y-7100769D01*
X3979587Y-7186484D02*
X3979587Y-6986484D01*
X4065301Y-7186484D02*
X4065301Y-7081722D01*
X4065301Y-7081722D02*
X4055777Y-7062674D01*
X4055777Y-7062674D02*
X4036730Y-7053150D01*
X4036730Y-7053150D02*
X4008158Y-7053150D01*
X4008158Y-7053150D02*
X3989110Y-7062674D01*
X3989110Y-7062674D02*
X3979587Y-7072198D01*
X4189110Y-7186484D02*
X4170063Y-7176960D01*
X4170063Y-7176960D02*
X4160539Y-7167436D01*
X4160539Y-7167436D02*
X4151015Y-7148388D01*
X4151015Y-7148388D02*
X4151015Y-7091246D01*
X4151015Y-7091246D02*
X4160539Y-7072198D01*
X4160539Y-7072198D02*
X4170063Y-7062674D01*
X4170063Y-7062674D02*
X4189110Y-7053150D01*
X4189110Y-7053150D02*
X4217682Y-7053150D01*
X4217682Y-7053150D02*
X4236730Y-7062674D01*
X4236730Y-7062674D02*
X4246253Y-7072198D01*
X4246253Y-7072198D02*
X4255777Y-7091246D01*
X4255777Y-7091246D02*
X4255777Y-7148388D01*
X4255777Y-7148388D02*
X4246253Y-7167436D01*
X4246253Y-7167436D02*
X4236730Y-7176960D01*
X4236730Y-7176960D02*
X4217682Y-7186484D01*
X4217682Y-7186484D02*
X4189110Y-7186484D01*
X4370063Y-7186484D02*
X4351015Y-7176960D01*
X4351015Y-7176960D02*
X4341492Y-7157912D01*
X4341492Y-7157912D02*
X4341492Y-6986484D01*
X4522444Y-7176960D02*
X4503396Y-7186484D01*
X4503396Y-7186484D02*
X4465301Y-7186484D01*
X4465301Y-7186484D02*
X4446253Y-7176960D01*
X4446253Y-7176960D02*
X4436730Y-7157912D01*
X4436730Y-7157912D02*
X4436730Y-7081722D01*
X4436730Y-7081722D02*
X4446253Y-7062674D01*
X4446253Y-7062674D02*
X4465301Y-7053150D01*
X4465301Y-7053150D02*
X4503396Y-7053150D01*
X4503396Y-7053150D02*
X4522444Y-7062674D01*
X4522444Y-7062674D02*
X4531968Y-7081722D01*
X4531968Y-7081722D02*
X4531968Y-7100769D01*
X4531968Y-7100769D02*
X4436730Y-7119817D01*
X4608158Y-7176960D02*
X4627206Y-7186484D01*
X4627206Y-7186484D02*
X4665301Y-7186484D01*
X4665301Y-7186484D02*
X4684349Y-7176960D01*
X4684349Y-7176960D02*
X4693873Y-7157912D01*
X4693873Y-7157912D02*
X4693873Y-7148388D01*
X4693873Y-7148388D02*
X4684349Y-7129341D01*
X4684349Y-7129341D02*
X4665301Y-7119817D01*
X4665301Y-7119817D02*
X4636730Y-7119817D01*
X4636730Y-7119817D02*
X4617682Y-7110293D01*
X4617682Y-7110293D02*
X4608158Y-7091246D01*
X4608158Y-7091246D02*
X4608158Y-7081722D01*
X4608158Y-7081722D02*
X4617682Y-7062674D01*
X4617682Y-7062674D02*
X4636730Y-7053150D01*
X4636730Y-7053150D02*
X4665301Y-7053150D01*
X4665301Y-7053150D02*
X4684349Y-7062674D01*
X4760539Y-7262674D02*
X4770063Y-7253150D01*
X4770063Y-7253150D02*
X4789111Y-7224579D01*
X4789111Y-7224579D02*
X4798634Y-7205531D01*
X4798634Y-7205531D02*
X4808158Y-7176960D01*
X4808158Y-7176960D02*
X4817682Y-7129341D01*
X4817682Y-7129341D02*
X4817682Y-7091246D01*
X4817682Y-7091246D02*
X4808158Y-7043627D01*
X4808158Y-7043627D02*
X4798634Y-7015055D01*
X4798634Y-7015055D02*
X4789111Y-6996008D01*
X4789111Y-6996008D02*
X4770063Y-6967436D01*
X4770063Y-6967436D02*
X4760539Y-6957912D01*
D10*
X-205000Y-7359000D02*
G75*
G02*
X-225000Y-7359000I-10000J0D01*
G01*
X-225000Y-7359000D02*
G75*
G02*
X-205000Y-7359000I10000J0D01*
G01*
D11*
X93872Y-7250484D02*
X112920Y-7250484D01*
X112920Y-7250484D02*
X131967Y-7260008D01*
X131967Y-7260008D02*
X141491Y-7269531D01*
X141491Y-7269531D02*
X151015Y-7288579D01*
X151015Y-7288579D02*
X160539Y-7326674D01*
X160539Y-7326674D02*
X160539Y-7374293D01*
X160539Y-7374293D02*
X151015Y-7412388D01*
X151015Y-7412388D02*
X141491Y-7431436D01*
X141491Y-7431436D02*
X131967Y-7440960D01*
X131967Y-7440960D02*
X112920Y-7450484D01*
X112920Y-7450484D02*
X93872Y-7450484D01*
X93872Y-7450484D02*
X74824Y-7440960D01*
X74824Y-7440960D02*
X65301Y-7431436D01*
X65301Y-7431436D02*
X55777Y-7412388D01*
X55777Y-7412388D02*
X46253Y-7374293D01*
X46253Y-7374293D02*
X46253Y-7326674D01*
X46253Y-7326674D02*
X55777Y-7288579D01*
X55777Y-7288579D02*
X65301Y-7269531D01*
X65301Y-7269531D02*
X74824Y-7260008D01*
X74824Y-7260008D02*
X93872Y-7250484D01*
X246253Y-7431436D02*
X255777Y-7440960D01*
X255777Y-7440960D02*
X246253Y-7450484D01*
X246253Y-7450484D02*
X236729Y-7440960D01*
X236729Y-7440960D02*
X246253Y-7431436D01*
X246253Y-7431436D02*
X246253Y-7450484D01*
X331967Y-7269531D02*
X341491Y-7260008D01*
X341491Y-7260008D02*
X360539Y-7250484D01*
X360539Y-7250484D02*
X408158Y-7250484D01*
X408158Y-7250484D02*
X427205Y-7260008D01*
X427205Y-7260008D02*
X436729Y-7269531D01*
X436729Y-7269531D02*
X446253Y-7288579D01*
X446253Y-7288579D02*
X446253Y-7307627D01*
X446253Y-7307627D02*
X436729Y-7336198D01*
X436729Y-7336198D02*
X322444Y-7450484D01*
X322444Y-7450484D02*
X446253Y-7450484D01*
X570063Y-7250484D02*
X589110Y-7250484D01*
X589110Y-7250484D02*
X608158Y-7260008D01*
X608158Y-7260008D02*
X617682Y-7269531D01*
X617682Y-7269531D02*
X627205Y-7288579D01*
X627205Y-7288579D02*
X636729Y-7326674D01*
X636729Y-7326674D02*
X636729Y-7374293D01*
X636729Y-7374293D02*
X627205Y-7412388D01*
X627205Y-7412388D02*
X617682Y-7431436D01*
X617682Y-7431436D02*
X608158Y-7440960D01*
X608158Y-7440960D02*
X589110Y-7450484D01*
X589110Y-7450484D02*
X570063Y-7450484D01*
X570063Y-7450484D02*
X551015Y-7440960D01*
X551015Y-7440960D02*
X541491Y-7431436D01*
X541491Y-7431436D02*
X531967Y-7412388D01*
X531967Y-7412388D02*
X522443Y-7374293D01*
X522443Y-7374293D02*
X522443Y-7326674D01*
X522443Y-7326674D02*
X531967Y-7288579D01*
X531967Y-7288579D02*
X541491Y-7269531D01*
X541491Y-7269531D02*
X551015Y-7260008D01*
X551015Y-7260008D02*
X570063Y-7250484D01*
X760539Y-7250484D02*
X779586Y-7250484D01*
X779586Y-7250484D02*
X798634Y-7260008D01*
X798634Y-7260008D02*
X808158Y-7269531D01*
X808158Y-7269531D02*
X817682Y-7288579D01*
X817682Y-7288579D02*
X827205Y-7326674D01*
X827205Y-7326674D02*
X827205Y-7374293D01*
X827205Y-7374293D02*
X817682Y-7412388D01*
X817682Y-7412388D02*
X808158Y-7431436D01*
X808158Y-7431436D02*
X798634Y-7440960D01*
X798634Y-7440960D02*
X779586Y-7450484D01*
X779586Y-7450484D02*
X760539Y-7450484D01*
X760539Y-7450484D02*
X741491Y-7440960D01*
X741491Y-7440960D02*
X731967Y-7431436D01*
X731967Y-7431436D02*
X722443Y-7412388D01*
X722443Y-7412388D02*
X712920Y-7374293D01*
X712920Y-7374293D02*
X712920Y-7326674D01*
X712920Y-7326674D02*
X722443Y-7288579D01*
X722443Y-7288579D02*
X731967Y-7269531D01*
X731967Y-7269531D02*
X741491Y-7260008D01*
X741491Y-7260008D02*
X760539Y-7250484D01*
X912920Y-7450484D02*
X912920Y-7317150D01*
X912920Y-7336198D02*
X922443Y-7326674D01*
X922443Y-7326674D02*
X941491Y-7317150D01*
X941491Y-7317150D02*
X970063Y-7317150D01*
X970063Y-7317150D02*
X989110Y-7326674D01*
X989110Y-7326674D02*
X998634Y-7345722D01*
X998634Y-7345722D02*
X998634Y-7450484D01*
X998634Y-7345722D02*
X1008158Y-7326674D01*
X1008158Y-7326674D02*
X1027205Y-7317150D01*
X1027205Y-7317150D02*
X1055777Y-7317150D01*
X1055777Y-7317150D02*
X1074825Y-7326674D01*
X1074825Y-7326674D02*
X1084348Y-7345722D01*
X1084348Y-7345722D02*
X1084348Y-7450484D01*
X1179586Y-7450484D02*
X1179586Y-7317150D01*
X1179586Y-7336198D02*
X1189110Y-7326674D01*
X1189110Y-7326674D02*
X1208158Y-7317150D01*
X1208158Y-7317150D02*
X1236729Y-7317150D01*
X1236729Y-7317150D02*
X1255777Y-7326674D01*
X1255777Y-7326674D02*
X1265301Y-7345722D01*
X1265301Y-7345722D02*
X1265301Y-7450484D01*
X1265301Y-7345722D02*
X1274825Y-7326674D01*
X1274825Y-7326674D02*
X1293872Y-7317150D01*
X1293872Y-7317150D02*
X1322444Y-7317150D01*
X1322444Y-7317150D02*
X1341491Y-7326674D01*
X1341491Y-7326674D02*
X1351015Y-7345722D01*
X1351015Y-7345722D02*
X1351015Y-7450484D01*
X1741491Y-7240960D02*
X1570063Y-7498103D01*
X1998634Y-7250484D02*
X2017682Y-7250484D01*
X2017682Y-7250484D02*
X2036729Y-7260008D01*
X2036729Y-7260008D02*
X2046253Y-7269531D01*
X2046253Y-7269531D02*
X2055777Y-7288579D01*
X2055777Y-7288579D02*
X2065301Y-7326674D01*
X2065301Y-7326674D02*
X2065301Y-7374293D01*
X2065301Y-7374293D02*
X2055777Y-7412388D01*
X2055777Y-7412388D02*
X2046253Y-7431436D01*
X2046253Y-7431436D02*
X2036729Y-7440960D01*
X2036729Y-7440960D02*
X2017682Y-7450484D01*
X2017682Y-7450484D02*
X1998634Y-7450484D01*
X1998634Y-7450484D02*
X1979586Y-7440960D01*
X1979586Y-7440960D02*
X1970063Y-7431436D01*
X1970063Y-7431436D02*
X1960539Y-7412388D01*
X1960539Y-7412388D02*
X1951015Y-7374293D01*
X1951015Y-7374293D02*
X1951015Y-7326674D01*
X1951015Y-7326674D02*
X1960539Y-7288579D01*
X1960539Y-7288579D02*
X1970063Y-7269531D01*
X1970063Y-7269531D02*
X1979586Y-7260008D01*
X1979586Y-7260008D02*
X1998634Y-7250484D01*
X2151015Y-7431436D02*
X2160539Y-7440960D01*
X2160539Y-7440960D02*
X2151015Y-7450484D01*
X2151015Y-7450484D02*
X2141491Y-7440960D01*
X2141491Y-7440960D02*
X2151015Y-7431436D01*
X2151015Y-7431436D02*
X2151015Y-7450484D01*
X2284348Y-7250484D02*
X2303396Y-7250484D01*
X2303396Y-7250484D02*
X2322444Y-7260008D01*
X2322444Y-7260008D02*
X2331968Y-7269531D01*
X2331968Y-7269531D02*
X2341491Y-7288579D01*
X2341491Y-7288579D02*
X2351015Y-7326674D01*
X2351015Y-7326674D02*
X2351015Y-7374293D01*
X2351015Y-7374293D02*
X2341491Y-7412388D01*
X2341491Y-7412388D02*
X2331968Y-7431436D01*
X2331968Y-7431436D02*
X2322444Y-7440960D01*
X2322444Y-7440960D02*
X2303396Y-7450484D01*
X2303396Y-7450484D02*
X2284348Y-7450484D01*
X2284348Y-7450484D02*
X2265301Y-7440960D01*
X2265301Y-7440960D02*
X2255777Y-7431436D01*
X2255777Y-7431436D02*
X2246253Y-7412388D01*
X2246253Y-7412388D02*
X2236729Y-7374293D01*
X2236729Y-7374293D02*
X2236729Y-7326674D01*
X2236729Y-7326674D02*
X2246253Y-7288579D01*
X2246253Y-7288579D02*
X2255777Y-7269531D01*
X2255777Y-7269531D02*
X2265301Y-7260008D01*
X2265301Y-7260008D02*
X2284348Y-7250484D01*
X2474825Y-7250484D02*
X2493872Y-7250484D01*
X2493872Y-7250484D02*
X2512920Y-7260008D01*
X2512920Y-7260008D02*
X2522444Y-7269531D01*
X2522444Y-7269531D02*
X2531968Y-7288579D01*
X2531968Y-7288579D02*
X2541491Y-7326674D01*
X2541491Y-7326674D02*
X2541491Y-7374293D01*
X2541491Y-7374293D02*
X2531968Y-7412388D01*
X2531968Y-7412388D02*
X2522444Y-7431436D01*
X2522444Y-7431436D02*
X2512920Y-7440960D01*
X2512920Y-7440960D02*
X2493872Y-7450484D01*
X2493872Y-7450484D02*
X2474825Y-7450484D01*
X2474825Y-7450484D02*
X2455777Y-7440960D01*
X2455777Y-7440960D02*
X2446253Y-7431436D01*
X2446253Y-7431436D02*
X2436729Y-7412388D01*
X2436729Y-7412388D02*
X2427206Y-7374293D01*
X2427206Y-7374293D02*
X2427206Y-7326674D01*
X2427206Y-7326674D02*
X2436729Y-7288579D01*
X2436729Y-7288579D02*
X2446253Y-7269531D01*
X2446253Y-7269531D02*
X2455777Y-7260008D01*
X2455777Y-7260008D02*
X2474825Y-7250484D01*
X2608158Y-7250484D02*
X2741491Y-7250484D01*
X2741491Y-7250484D02*
X2655777Y-7450484D01*
X2827206Y-7450484D02*
X2865301Y-7450484D01*
X2865301Y-7450484D02*
X2884348Y-7440960D01*
X2884348Y-7440960D02*
X2893872Y-7431436D01*
X2893872Y-7431436D02*
X2912920Y-7402865D01*
X2912920Y-7402865D02*
X2922444Y-7364769D01*
X2922444Y-7364769D02*
X2922444Y-7288579D01*
X2922444Y-7288579D02*
X2912920Y-7269531D01*
X2912920Y-7269531D02*
X2903396Y-7260008D01*
X2903396Y-7260008D02*
X2884348Y-7250484D01*
X2884348Y-7250484D02*
X2846253Y-7250484D01*
X2846253Y-7250484D02*
X2827206Y-7260008D01*
X2827206Y-7260008D02*
X2817682Y-7269531D01*
X2817682Y-7269531D02*
X2808158Y-7288579D01*
X2808158Y-7288579D02*
X2808158Y-7336198D01*
X2808158Y-7336198D02*
X2817682Y-7355246D01*
X2817682Y-7355246D02*
X2827206Y-7364769D01*
X2827206Y-7364769D02*
X2846253Y-7374293D01*
X2846253Y-7374293D02*
X2884348Y-7374293D01*
X2884348Y-7374293D02*
X2903396Y-7364769D01*
X2903396Y-7364769D02*
X2912920Y-7355246D01*
X2912920Y-7355246D02*
X2922444Y-7336198D01*
X2998634Y-7250484D02*
X2998634Y-7288579D01*
X3074825Y-7250484D02*
X3074825Y-7288579D01*
X3370063Y-7526674D02*
X3360539Y-7517150D01*
X3360539Y-7517150D02*
X3341491Y-7488579D01*
X3341491Y-7488579D02*
X3331968Y-7469531D01*
X3331968Y-7469531D02*
X3322444Y-7440960D01*
X3322444Y-7440960D02*
X3312920Y-7393341D01*
X3312920Y-7393341D02*
X3312920Y-7355246D01*
X3312920Y-7355246D02*
X3322444Y-7307627D01*
X3322444Y-7307627D02*
X3331968Y-7279055D01*
X3331968Y-7279055D02*
X3341491Y-7260008D01*
X3341491Y-7260008D02*
X3360539Y-7231436D01*
X3360539Y-7231436D02*
X3370063Y-7221912D01*
X3551015Y-7450484D02*
X3436729Y-7450484D01*
X3493872Y-7450484D02*
X3493872Y-7250484D01*
X3493872Y-7250484D02*
X3474825Y-7279055D01*
X3474825Y-7279055D02*
X3455777Y-7298103D01*
X3455777Y-7298103D02*
X3436729Y-7307627D01*
X3731968Y-7250484D02*
X3636729Y-7250484D01*
X3636729Y-7250484D02*
X3627206Y-7345722D01*
X3627206Y-7345722D02*
X3636729Y-7336198D01*
X3636729Y-7336198D02*
X3655777Y-7326674D01*
X3655777Y-7326674D02*
X3703396Y-7326674D01*
X3703396Y-7326674D02*
X3722444Y-7336198D01*
X3722444Y-7336198D02*
X3731968Y-7345722D01*
X3731968Y-7345722D02*
X3741491Y-7364769D01*
X3741491Y-7364769D02*
X3741491Y-7412388D01*
X3741491Y-7412388D02*
X3731968Y-7431436D01*
X3731968Y-7431436D02*
X3722444Y-7440960D01*
X3722444Y-7440960D02*
X3703396Y-7450484D01*
X3703396Y-7450484D02*
X3655777Y-7450484D01*
X3655777Y-7450484D02*
X3636729Y-7440960D01*
X3636729Y-7440960D02*
X3627206Y-7431436D01*
X3808158Y-7250484D02*
X3931968Y-7250484D01*
X3931968Y-7250484D02*
X3865301Y-7326674D01*
X3865301Y-7326674D02*
X3893872Y-7326674D01*
X3893872Y-7326674D02*
X3912920Y-7336198D01*
X3912920Y-7336198D02*
X3922444Y-7345722D01*
X3922444Y-7345722D02*
X3931968Y-7364769D01*
X3931968Y-7364769D02*
X3931968Y-7412388D01*
X3931968Y-7412388D02*
X3922444Y-7431436D01*
X3922444Y-7431436D02*
X3912920Y-7440960D01*
X3912920Y-7440960D02*
X3893872Y-7450484D01*
X3893872Y-7450484D02*
X3836729Y-7450484D01*
X3836729Y-7450484D02*
X3817682Y-7440960D01*
X3817682Y-7440960D02*
X3808158Y-7431436D01*
X4170063Y-7450484D02*
X4170063Y-7250484D01*
X4255777Y-7450484D02*
X4255777Y-7345722D01*
X4255777Y-7345722D02*
X4246253Y-7326674D01*
X4246253Y-7326674D02*
X4227206Y-7317150D01*
X4227206Y-7317150D02*
X4198634Y-7317150D01*
X4198634Y-7317150D02*
X4179587Y-7326674D01*
X4179587Y-7326674D02*
X4170063Y-7336198D01*
X4379587Y-7450484D02*
X4360539Y-7440960D01*
X4360539Y-7440960D02*
X4351015Y-7431436D01*
X4351015Y-7431436D02*
X4341492Y-7412388D01*
X4341492Y-7412388D02*
X4341492Y-7355246D01*
X4341492Y-7355246D02*
X4351015Y-7336198D01*
X4351015Y-7336198D02*
X4360539Y-7326674D01*
X4360539Y-7326674D02*
X4379587Y-7317150D01*
X4379587Y-7317150D02*
X4408158Y-7317150D01*
X4408158Y-7317150D02*
X4427206Y-7326674D01*
X4427206Y-7326674D02*
X4436730Y-7336198D01*
X4436730Y-7336198D02*
X4446253Y-7355246D01*
X4446253Y-7355246D02*
X4446253Y-7412388D01*
X4446253Y-7412388D02*
X4436730Y-7431436D01*
X4436730Y-7431436D02*
X4427206Y-7440960D01*
X4427206Y-7440960D02*
X4408158Y-7450484D01*
X4408158Y-7450484D02*
X4379587Y-7450484D01*
X4560539Y-7450484D02*
X4541492Y-7440960D01*
X4541492Y-7440960D02*
X4531968Y-7421912D01*
X4531968Y-7421912D02*
X4531968Y-7250484D01*
X4712920Y-7440960D02*
X4693873Y-7450484D01*
X4693873Y-7450484D02*
X4655777Y-7450484D01*
X4655777Y-7450484D02*
X4636730Y-7440960D01*
X4636730Y-7440960D02*
X4627206Y-7421912D01*
X4627206Y-7421912D02*
X4627206Y-7345722D01*
X4627206Y-7345722D02*
X4636730Y-7326674D01*
X4636730Y-7326674D02*
X4655777Y-7317150D01*
X4655777Y-7317150D02*
X4693873Y-7317150D01*
X4693873Y-7317150D02*
X4712920Y-7326674D01*
X4712920Y-7326674D02*
X4722444Y-7345722D01*
X4722444Y-7345722D02*
X4722444Y-7364769D01*
X4722444Y-7364769D02*
X4627206Y-7383817D01*
X4798634Y-7440960D02*
X4817682Y-7450484D01*
X4817682Y-7450484D02*
X4855777Y-7450484D01*
X4855777Y-7450484D02*
X4874825Y-7440960D01*
X4874825Y-7440960D02*
X4884349Y-7421912D01*
X4884349Y-7421912D02*
X4884349Y-7412388D01*
X4884349Y-7412388D02*
X4874825Y-7393341D01*
X4874825Y-7393341D02*
X4855777Y-7383817D01*
X4855777Y-7383817D02*
X4827206Y-7383817D01*
X4827206Y-7383817D02*
X4808158Y-7374293D01*
X4808158Y-7374293D02*
X4798634Y-7355246D01*
X4798634Y-7355246D02*
X4798634Y-7345722D01*
X4798634Y-7345722D02*
X4808158Y-7326674D01*
X4808158Y-7326674D02*
X4827206Y-7317150D01*
X4827206Y-7317150D02*
X4855777Y-7317150D01*
X4855777Y-7317150D02*
X4874825Y-7326674D01*
X4951015Y-7526674D02*
X4960539Y-7517150D01*
X4960539Y-7517150D02*
X4979587Y-7488579D01*
X4979587Y-7488579D02*
X4989111Y-7469531D01*
X4989111Y-7469531D02*
X4998634Y-7440960D01*
X4998634Y-7440960D02*
X5008158Y-7393341D01*
X5008158Y-7393341D02*
X5008158Y-7355246D01*
X5008158Y-7355246D02*
X4998634Y-7307627D01*
X4998634Y-7307627D02*
X4989111Y-7279055D01*
X4989111Y-7279055D02*
X4979587Y-7260008D01*
X4979587Y-7260008D02*
X4960539Y-7231436D01*
X4960539Y-7231436D02*
X4951015Y-7221912D01*
D10*
X-215010Y-7612990D02*
X-215010Y-7633010D01*
X-225020Y-7623000D02*
X-205000Y-7623000D01*
D11*
X93872Y-7514484D02*
X112920Y-7514484D01*
X112920Y-7514484D02*
X131967Y-7524008D01*
X131967Y-7524008D02*
X141491Y-7533531D01*
X141491Y-7533531D02*
X151015Y-7552579D01*
X151015Y-7552579D02*
X160539Y-7590674D01*
X160539Y-7590674D02*
X160539Y-7638293D01*
X160539Y-7638293D02*
X151015Y-7676388D01*
X151015Y-7676388D02*
X141491Y-7695436D01*
X141491Y-7695436D02*
X131967Y-7704960D01*
X131967Y-7704960D02*
X112920Y-7714484D01*
X112920Y-7714484D02*
X93872Y-7714484D01*
X93872Y-7714484D02*
X74824Y-7704960D01*
X74824Y-7704960D02*
X65301Y-7695436D01*
X65301Y-7695436D02*
X55777Y-7676388D01*
X55777Y-7676388D02*
X46253Y-7638293D01*
X46253Y-7638293D02*
X46253Y-7590674D01*
X46253Y-7590674D02*
X55777Y-7552579D01*
X55777Y-7552579D02*
X65301Y-7533531D01*
X65301Y-7533531D02*
X74824Y-7524008D01*
X74824Y-7524008D02*
X93872Y-7514484D01*
X246253Y-7695436D02*
X255777Y-7704960D01*
X255777Y-7704960D02*
X246253Y-7714484D01*
X246253Y-7714484D02*
X236729Y-7704960D01*
X236729Y-7704960D02*
X246253Y-7695436D01*
X246253Y-7695436D02*
X246253Y-7714484D01*
X331967Y-7533531D02*
X341491Y-7524008D01*
X341491Y-7524008D02*
X360539Y-7514484D01*
X360539Y-7514484D02*
X408158Y-7514484D01*
X408158Y-7514484D02*
X427205Y-7524008D01*
X427205Y-7524008D02*
X436729Y-7533531D01*
X436729Y-7533531D02*
X446253Y-7552579D01*
X446253Y-7552579D02*
X446253Y-7571627D01*
X446253Y-7571627D02*
X436729Y-7600198D01*
X436729Y-7600198D02*
X322444Y-7714484D01*
X322444Y-7714484D02*
X446253Y-7714484D01*
X570063Y-7514484D02*
X589110Y-7514484D01*
X589110Y-7514484D02*
X608158Y-7524008D01*
X608158Y-7524008D02*
X617682Y-7533531D01*
X617682Y-7533531D02*
X627205Y-7552579D01*
X627205Y-7552579D02*
X636729Y-7590674D01*
X636729Y-7590674D02*
X636729Y-7638293D01*
X636729Y-7638293D02*
X627205Y-7676388D01*
X627205Y-7676388D02*
X617682Y-7695436D01*
X617682Y-7695436D02*
X608158Y-7704960D01*
X608158Y-7704960D02*
X589110Y-7714484D01*
X589110Y-7714484D02*
X570063Y-7714484D01*
X570063Y-7714484D02*
X551015Y-7704960D01*
X551015Y-7704960D02*
X541491Y-7695436D01*
X541491Y-7695436D02*
X531967Y-7676388D01*
X531967Y-7676388D02*
X522443Y-7638293D01*
X522443Y-7638293D02*
X522443Y-7590674D01*
X522443Y-7590674D02*
X531967Y-7552579D01*
X531967Y-7552579D02*
X541491Y-7533531D01*
X541491Y-7533531D02*
X551015Y-7524008D01*
X551015Y-7524008D02*
X570063Y-7514484D01*
X760539Y-7514484D02*
X779586Y-7514484D01*
X779586Y-7514484D02*
X798634Y-7524008D01*
X798634Y-7524008D02*
X808158Y-7533531D01*
X808158Y-7533531D02*
X817682Y-7552579D01*
X817682Y-7552579D02*
X827205Y-7590674D01*
X827205Y-7590674D02*
X827205Y-7638293D01*
X827205Y-7638293D02*
X817682Y-7676388D01*
X817682Y-7676388D02*
X808158Y-7695436D01*
X808158Y-7695436D02*
X798634Y-7704960D01*
X798634Y-7704960D02*
X779586Y-7714484D01*
X779586Y-7714484D02*
X760539Y-7714484D01*
X760539Y-7714484D02*
X741491Y-7704960D01*
X741491Y-7704960D02*
X731967Y-7695436D01*
X731967Y-7695436D02*
X722443Y-7676388D01*
X722443Y-7676388D02*
X712920Y-7638293D01*
X712920Y-7638293D02*
X712920Y-7590674D01*
X712920Y-7590674D02*
X722443Y-7552579D01*
X722443Y-7552579D02*
X731967Y-7533531D01*
X731967Y-7533531D02*
X741491Y-7524008D01*
X741491Y-7524008D02*
X760539Y-7514484D01*
X912920Y-7714484D02*
X912920Y-7581150D01*
X912920Y-7600198D02*
X922443Y-7590674D01*
X922443Y-7590674D02*
X941491Y-7581150D01*
X941491Y-7581150D02*
X970063Y-7581150D01*
X970063Y-7581150D02*
X989110Y-7590674D01*
X989110Y-7590674D02*
X998634Y-7609722D01*
X998634Y-7609722D02*
X998634Y-7714484D01*
X998634Y-7609722D02*
X1008158Y-7590674D01*
X1008158Y-7590674D02*
X1027205Y-7581150D01*
X1027205Y-7581150D02*
X1055777Y-7581150D01*
X1055777Y-7581150D02*
X1074825Y-7590674D01*
X1074825Y-7590674D02*
X1084348Y-7609722D01*
X1084348Y-7609722D02*
X1084348Y-7714484D01*
X1179586Y-7714484D02*
X1179586Y-7581150D01*
X1179586Y-7600198D02*
X1189110Y-7590674D01*
X1189110Y-7590674D02*
X1208158Y-7581150D01*
X1208158Y-7581150D02*
X1236729Y-7581150D01*
X1236729Y-7581150D02*
X1255777Y-7590674D01*
X1255777Y-7590674D02*
X1265301Y-7609722D01*
X1265301Y-7609722D02*
X1265301Y-7714484D01*
X1265301Y-7609722D02*
X1274825Y-7590674D01*
X1274825Y-7590674D02*
X1293872Y-7581150D01*
X1293872Y-7581150D02*
X1322444Y-7581150D01*
X1322444Y-7581150D02*
X1341491Y-7590674D01*
X1341491Y-7590674D02*
X1351015Y-7609722D01*
X1351015Y-7609722D02*
X1351015Y-7714484D01*
X1741491Y-7504960D02*
X1570063Y-7762103D01*
X1998634Y-7514484D02*
X2017682Y-7514484D01*
X2017682Y-7514484D02*
X2036729Y-7524008D01*
X2036729Y-7524008D02*
X2046253Y-7533531D01*
X2046253Y-7533531D02*
X2055777Y-7552579D01*
X2055777Y-7552579D02*
X2065301Y-7590674D01*
X2065301Y-7590674D02*
X2065301Y-7638293D01*
X2065301Y-7638293D02*
X2055777Y-7676388D01*
X2055777Y-7676388D02*
X2046253Y-7695436D01*
X2046253Y-7695436D02*
X2036729Y-7704960D01*
X2036729Y-7704960D02*
X2017682Y-7714484D01*
X2017682Y-7714484D02*
X1998634Y-7714484D01*
X1998634Y-7714484D02*
X1979586Y-7704960D01*
X1979586Y-7704960D02*
X1970063Y-7695436D01*
X1970063Y-7695436D02*
X1960539Y-7676388D01*
X1960539Y-7676388D02*
X1951015Y-7638293D01*
X1951015Y-7638293D02*
X1951015Y-7590674D01*
X1951015Y-7590674D02*
X1960539Y-7552579D01*
X1960539Y-7552579D02*
X1970063Y-7533531D01*
X1970063Y-7533531D02*
X1979586Y-7524008D01*
X1979586Y-7524008D02*
X1998634Y-7514484D01*
X2151015Y-7695436D02*
X2160539Y-7704960D01*
X2160539Y-7704960D02*
X2151015Y-7714484D01*
X2151015Y-7714484D02*
X2141491Y-7704960D01*
X2141491Y-7704960D02*
X2151015Y-7695436D01*
X2151015Y-7695436D02*
X2151015Y-7714484D01*
X2284348Y-7514484D02*
X2303396Y-7514484D01*
X2303396Y-7514484D02*
X2322444Y-7524008D01*
X2322444Y-7524008D02*
X2331968Y-7533531D01*
X2331968Y-7533531D02*
X2341491Y-7552579D01*
X2341491Y-7552579D02*
X2351015Y-7590674D01*
X2351015Y-7590674D02*
X2351015Y-7638293D01*
X2351015Y-7638293D02*
X2341491Y-7676388D01*
X2341491Y-7676388D02*
X2331968Y-7695436D01*
X2331968Y-7695436D02*
X2322444Y-7704960D01*
X2322444Y-7704960D02*
X2303396Y-7714484D01*
X2303396Y-7714484D02*
X2284348Y-7714484D01*
X2284348Y-7714484D02*
X2265301Y-7704960D01*
X2265301Y-7704960D02*
X2255777Y-7695436D01*
X2255777Y-7695436D02*
X2246253Y-7676388D01*
X2246253Y-7676388D02*
X2236729Y-7638293D01*
X2236729Y-7638293D02*
X2236729Y-7590674D01*
X2236729Y-7590674D02*
X2246253Y-7552579D01*
X2246253Y-7552579D02*
X2255777Y-7533531D01*
X2255777Y-7533531D02*
X2265301Y-7524008D01*
X2265301Y-7524008D02*
X2284348Y-7514484D01*
X2474825Y-7514484D02*
X2493872Y-7514484D01*
X2493872Y-7514484D02*
X2512920Y-7524008D01*
X2512920Y-7524008D02*
X2522444Y-7533531D01*
X2522444Y-7533531D02*
X2531968Y-7552579D01*
X2531968Y-7552579D02*
X2541491Y-7590674D01*
X2541491Y-7590674D02*
X2541491Y-7638293D01*
X2541491Y-7638293D02*
X2531968Y-7676388D01*
X2531968Y-7676388D02*
X2522444Y-7695436D01*
X2522444Y-7695436D02*
X2512920Y-7704960D01*
X2512920Y-7704960D02*
X2493872Y-7714484D01*
X2493872Y-7714484D02*
X2474825Y-7714484D01*
X2474825Y-7714484D02*
X2455777Y-7704960D01*
X2455777Y-7704960D02*
X2446253Y-7695436D01*
X2446253Y-7695436D02*
X2436729Y-7676388D01*
X2436729Y-7676388D02*
X2427206Y-7638293D01*
X2427206Y-7638293D02*
X2427206Y-7590674D01*
X2427206Y-7590674D02*
X2436729Y-7552579D01*
X2436729Y-7552579D02*
X2446253Y-7533531D01*
X2446253Y-7533531D02*
X2455777Y-7524008D01*
X2455777Y-7524008D02*
X2474825Y-7514484D01*
X2608158Y-7514484D02*
X2741491Y-7514484D01*
X2741491Y-7514484D02*
X2655777Y-7714484D01*
X2827206Y-7714484D02*
X2865301Y-7714484D01*
X2865301Y-7714484D02*
X2884348Y-7704960D01*
X2884348Y-7704960D02*
X2893872Y-7695436D01*
X2893872Y-7695436D02*
X2912920Y-7666865D01*
X2912920Y-7666865D02*
X2922444Y-7628769D01*
X2922444Y-7628769D02*
X2922444Y-7552579D01*
X2922444Y-7552579D02*
X2912920Y-7533531D01*
X2912920Y-7533531D02*
X2903396Y-7524008D01*
X2903396Y-7524008D02*
X2884348Y-7514484D01*
X2884348Y-7514484D02*
X2846253Y-7514484D01*
X2846253Y-7514484D02*
X2827206Y-7524008D01*
X2827206Y-7524008D02*
X2817682Y-7533531D01*
X2817682Y-7533531D02*
X2808158Y-7552579D01*
X2808158Y-7552579D02*
X2808158Y-7600198D01*
X2808158Y-7600198D02*
X2817682Y-7619246D01*
X2817682Y-7619246D02*
X2827206Y-7628769D01*
X2827206Y-7628769D02*
X2846253Y-7638293D01*
X2846253Y-7638293D02*
X2884348Y-7638293D01*
X2884348Y-7638293D02*
X2903396Y-7628769D01*
X2903396Y-7628769D02*
X2912920Y-7619246D01*
X2912920Y-7619246D02*
X2922444Y-7600198D01*
X2998634Y-7514484D02*
X2998634Y-7552579D01*
X3074825Y-7514484D02*
X3074825Y-7552579D01*
X3370063Y-7790674D02*
X3360539Y-7781150D01*
X3360539Y-7781150D02*
X3341491Y-7752579D01*
X3341491Y-7752579D02*
X3331968Y-7733531D01*
X3331968Y-7733531D02*
X3322444Y-7704960D01*
X3322444Y-7704960D02*
X3312920Y-7657341D01*
X3312920Y-7657341D02*
X3312920Y-7619246D01*
X3312920Y-7619246D02*
X3322444Y-7571627D01*
X3322444Y-7571627D02*
X3331968Y-7543055D01*
X3331968Y-7543055D02*
X3341491Y-7524008D01*
X3341491Y-7524008D02*
X3360539Y-7495436D01*
X3360539Y-7495436D02*
X3370063Y-7485912D01*
X3531968Y-7514484D02*
X3493872Y-7514484D01*
X3493872Y-7514484D02*
X3474825Y-7524008D01*
X3474825Y-7524008D02*
X3465301Y-7533531D01*
X3465301Y-7533531D02*
X3446253Y-7562103D01*
X3446253Y-7562103D02*
X3436729Y-7600198D01*
X3436729Y-7600198D02*
X3436729Y-7676388D01*
X3436729Y-7676388D02*
X3446253Y-7695436D01*
X3446253Y-7695436D02*
X3455777Y-7704960D01*
X3455777Y-7704960D02*
X3474825Y-7714484D01*
X3474825Y-7714484D02*
X3512920Y-7714484D01*
X3512920Y-7714484D02*
X3531968Y-7704960D01*
X3531968Y-7704960D02*
X3541491Y-7695436D01*
X3541491Y-7695436D02*
X3551015Y-7676388D01*
X3551015Y-7676388D02*
X3551015Y-7628769D01*
X3551015Y-7628769D02*
X3541491Y-7609722D01*
X3541491Y-7609722D02*
X3531968Y-7600198D01*
X3531968Y-7600198D02*
X3512920Y-7590674D01*
X3512920Y-7590674D02*
X3474825Y-7590674D01*
X3474825Y-7590674D02*
X3455777Y-7600198D01*
X3455777Y-7600198D02*
X3446253Y-7609722D01*
X3446253Y-7609722D02*
X3436729Y-7628769D01*
X3627206Y-7533531D02*
X3636729Y-7524008D01*
X3636729Y-7524008D02*
X3655777Y-7514484D01*
X3655777Y-7514484D02*
X3703396Y-7514484D01*
X3703396Y-7514484D02*
X3722444Y-7524008D01*
X3722444Y-7524008D02*
X3731968Y-7533531D01*
X3731968Y-7533531D02*
X3741491Y-7552579D01*
X3741491Y-7552579D02*
X3741491Y-7571627D01*
X3741491Y-7571627D02*
X3731968Y-7600198D01*
X3731968Y-7600198D02*
X3617682Y-7714484D01*
X3617682Y-7714484D02*
X3741491Y-7714484D01*
X3912920Y-7581150D02*
X3912920Y-7714484D01*
X3865301Y-7504960D02*
X3817682Y-7647817D01*
X3817682Y-7647817D02*
X3941491Y-7647817D01*
X4170063Y-7714484D02*
X4170063Y-7514484D01*
X4255777Y-7714484D02*
X4255777Y-7609722D01*
X4255777Y-7609722D02*
X4246253Y-7590674D01*
X4246253Y-7590674D02*
X4227206Y-7581150D01*
X4227206Y-7581150D02*
X4198634Y-7581150D01*
X4198634Y-7581150D02*
X4179587Y-7590674D01*
X4179587Y-7590674D02*
X4170063Y-7600198D01*
X4379587Y-7714484D02*
X4360539Y-7704960D01*
X4360539Y-7704960D02*
X4351015Y-7695436D01*
X4351015Y-7695436D02*
X4341492Y-7676388D01*
X4341492Y-7676388D02*
X4341492Y-7619246D01*
X4341492Y-7619246D02*
X4351015Y-7600198D01*
X4351015Y-7600198D02*
X4360539Y-7590674D01*
X4360539Y-7590674D02*
X4379587Y-7581150D01*
X4379587Y-7581150D02*
X4408158Y-7581150D01*
X4408158Y-7581150D02*
X4427206Y-7590674D01*
X4427206Y-7590674D02*
X4436730Y-7600198D01*
X4436730Y-7600198D02*
X4446253Y-7619246D01*
X4446253Y-7619246D02*
X4446253Y-7676388D01*
X4446253Y-7676388D02*
X4436730Y-7695436D01*
X4436730Y-7695436D02*
X4427206Y-7704960D01*
X4427206Y-7704960D02*
X4408158Y-7714484D01*
X4408158Y-7714484D02*
X4379587Y-7714484D01*
X4560539Y-7714484D02*
X4541492Y-7704960D01*
X4541492Y-7704960D02*
X4531968Y-7685912D01*
X4531968Y-7685912D02*
X4531968Y-7514484D01*
X4712920Y-7704960D02*
X4693873Y-7714484D01*
X4693873Y-7714484D02*
X4655777Y-7714484D01*
X4655777Y-7714484D02*
X4636730Y-7704960D01*
X4636730Y-7704960D02*
X4627206Y-7685912D01*
X4627206Y-7685912D02*
X4627206Y-7609722D01*
X4627206Y-7609722D02*
X4636730Y-7590674D01*
X4636730Y-7590674D02*
X4655777Y-7581150D01*
X4655777Y-7581150D02*
X4693873Y-7581150D01*
X4693873Y-7581150D02*
X4712920Y-7590674D01*
X4712920Y-7590674D02*
X4722444Y-7609722D01*
X4722444Y-7609722D02*
X4722444Y-7628769D01*
X4722444Y-7628769D02*
X4627206Y-7647817D01*
X4798634Y-7704960D02*
X4817682Y-7714484D01*
X4817682Y-7714484D02*
X4855777Y-7714484D01*
X4855777Y-7714484D02*
X4874825Y-7704960D01*
X4874825Y-7704960D02*
X4884349Y-7685912D01*
X4884349Y-7685912D02*
X4884349Y-7676388D01*
X4884349Y-7676388D02*
X4874825Y-7657341D01*
X4874825Y-7657341D02*
X4855777Y-7647817D01*
X4855777Y-7647817D02*
X4827206Y-7647817D01*
X4827206Y-7647817D02*
X4808158Y-7638293D01*
X4808158Y-7638293D02*
X4798634Y-7619246D01*
X4798634Y-7619246D02*
X4798634Y-7609722D01*
X4798634Y-7609722D02*
X4808158Y-7590674D01*
X4808158Y-7590674D02*
X4827206Y-7581150D01*
X4827206Y-7581150D02*
X4855777Y-7581150D01*
X4855777Y-7581150D02*
X4874825Y-7590674D01*
X4951015Y-7790674D02*
X4960539Y-7781150D01*
X4960539Y-7781150D02*
X4979587Y-7752579D01*
X4979587Y-7752579D02*
X4989111Y-7733531D01*
X4989111Y-7733531D02*
X4998634Y-7704960D01*
X4998634Y-7704960D02*
X5008158Y-7657341D01*
X5008158Y-7657341D02*
X5008158Y-7619246D01*
X5008158Y-7619246D02*
X4998634Y-7571627D01*
X4998634Y-7571627D02*
X4989111Y-7543055D01*
X4989111Y-7543055D02*
X4979587Y-7524008D01*
X4979587Y-7524008D02*
X4960539Y-7495436D01*
X4960539Y-7495436D02*
X4951015Y-7485912D01*
D10*
X-213787Y-7908213D02*
X-213787Y-7865787D01*
X-256213Y-7865787D01*
X-256213Y-7908213D01*
X-213787Y-7908213D01*
D11*
X93872Y-7778484D02*
X112920Y-7778484D01*
X112920Y-7778484D02*
X131967Y-7788008D01*
X131967Y-7788008D02*
X141491Y-7797531D01*
X141491Y-7797531D02*
X151015Y-7816579D01*
X151015Y-7816579D02*
X160539Y-7854674D01*
X160539Y-7854674D02*
X160539Y-7902293D01*
X160539Y-7902293D02*
X151015Y-7940388D01*
X151015Y-7940388D02*
X141491Y-7959436D01*
X141491Y-7959436D02*
X131967Y-7968960D01*
X131967Y-7968960D02*
X112920Y-7978484D01*
X112920Y-7978484D02*
X93872Y-7978484D01*
X93872Y-7978484D02*
X74824Y-7968960D01*
X74824Y-7968960D02*
X65301Y-7959436D01*
X65301Y-7959436D02*
X55777Y-7940388D01*
X55777Y-7940388D02*
X46253Y-7902293D01*
X46253Y-7902293D02*
X46253Y-7854674D01*
X46253Y-7854674D02*
X55777Y-7816579D01*
X55777Y-7816579D02*
X65301Y-7797531D01*
X65301Y-7797531D02*
X74824Y-7788008D01*
X74824Y-7788008D02*
X93872Y-7778484D01*
X246253Y-7959436D02*
X255777Y-7968960D01*
X255777Y-7968960D02*
X246253Y-7978484D01*
X246253Y-7978484D02*
X236729Y-7968960D01*
X236729Y-7968960D02*
X246253Y-7959436D01*
X246253Y-7959436D02*
X246253Y-7978484D01*
X427205Y-7778484D02*
X389110Y-7778484D01*
X389110Y-7778484D02*
X370062Y-7788008D01*
X370062Y-7788008D02*
X360539Y-7797531D01*
X360539Y-7797531D02*
X341491Y-7826103D01*
X341491Y-7826103D02*
X331967Y-7864198D01*
X331967Y-7864198D02*
X331967Y-7940388D01*
X331967Y-7940388D02*
X341491Y-7959436D01*
X341491Y-7959436D02*
X351015Y-7968960D01*
X351015Y-7968960D02*
X370062Y-7978484D01*
X370062Y-7978484D02*
X408158Y-7978484D01*
X408158Y-7978484D02*
X427205Y-7968960D01*
X427205Y-7968960D02*
X436729Y-7959436D01*
X436729Y-7959436D02*
X446253Y-7940388D01*
X446253Y-7940388D02*
X446253Y-7892769D01*
X446253Y-7892769D02*
X436729Y-7873722D01*
X436729Y-7873722D02*
X427205Y-7864198D01*
X427205Y-7864198D02*
X408158Y-7854674D01*
X408158Y-7854674D02*
X370062Y-7854674D01*
X370062Y-7854674D02*
X351015Y-7864198D01*
X351015Y-7864198D02*
X341491Y-7873722D01*
X341491Y-7873722D02*
X331967Y-7892769D01*
X570063Y-7778484D02*
X589110Y-7778484D01*
X589110Y-7778484D02*
X608158Y-7788008D01*
X608158Y-7788008D02*
X617682Y-7797531D01*
X617682Y-7797531D02*
X627205Y-7816579D01*
X627205Y-7816579D02*
X636729Y-7854674D01*
X636729Y-7854674D02*
X636729Y-7902293D01*
X636729Y-7902293D02*
X627205Y-7940388D01*
X627205Y-7940388D02*
X617682Y-7959436D01*
X617682Y-7959436D02*
X608158Y-7968960D01*
X608158Y-7968960D02*
X589110Y-7978484D01*
X589110Y-7978484D02*
X570063Y-7978484D01*
X570063Y-7978484D02*
X551015Y-7968960D01*
X551015Y-7968960D02*
X541491Y-7959436D01*
X541491Y-7959436D02*
X531967Y-7940388D01*
X531967Y-7940388D02*
X522443Y-7902293D01*
X522443Y-7902293D02*
X522443Y-7854674D01*
X522443Y-7854674D02*
X531967Y-7816579D01*
X531967Y-7816579D02*
X541491Y-7797531D01*
X541491Y-7797531D02*
X551015Y-7788008D01*
X551015Y-7788008D02*
X570063Y-7778484D01*
X760539Y-7778484D02*
X779586Y-7778484D01*
X779586Y-7778484D02*
X798634Y-7788008D01*
X798634Y-7788008D02*
X808158Y-7797531D01*
X808158Y-7797531D02*
X817682Y-7816579D01*
X817682Y-7816579D02*
X827205Y-7854674D01*
X827205Y-7854674D02*
X827205Y-7902293D01*
X827205Y-7902293D02*
X817682Y-7940388D01*
X817682Y-7940388D02*
X808158Y-7959436D01*
X808158Y-7959436D02*
X798634Y-7968960D01*
X798634Y-7968960D02*
X779586Y-7978484D01*
X779586Y-7978484D02*
X760539Y-7978484D01*
X760539Y-7978484D02*
X741491Y-7968960D01*
X741491Y-7968960D02*
X731967Y-7959436D01*
X731967Y-7959436D02*
X722443Y-7940388D01*
X722443Y-7940388D02*
X712920Y-7902293D01*
X712920Y-7902293D02*
X712920Y-7854674D01*
X712920Y-7854674D02*
X722443Y-7816579D01*
X722443Y-7816579D02*
X731967Y-7797531D01*
X731967Y-7797531D02*
X741491Y-7788008D01*
X741491Y-7788008D02*
X760539Y-7778484D01*
X912920Y-7978484D02*
X912920Y-7845150D01*
X912920Y-7864198D02*
X922443Y-7854674D01*
X922443Y-7854674D02*
X941491Y-7845150D01*
X941491Y-7845150D02*
X970063Y-7845150D01*
X970063Y-7845150D02*
X989110Y-7854674D01*
X989110Y-7854674D02*
X998634Y-7873722D01*
X998634Y-7873722D02*
X998634Y-7978484D01*
X998634Y-7873722D02*
X1008158Y-7854674D01*
X1008158Y-7854674D02*
X1027205Y-7845150D01*
X1027205Y-7845150D02*
X1055777Y-7845150D01*
X1055777Y-7845150D02*
X1074825Y-7854674D01*
X1074825Y-7854674D02*
X1084348Y-7873722D01*
X1084348Y-7873722D02*
X1084348Y-7978484D01*
X1179586Y-7978484D02*
X1179586Y-7845150D01*
X1179586Y-7864198D02*
X1189110Y-7854674D01*
X1189110Y-7854674D02*
X1208158Y-7845150D01*
X1208158Y-7845150D02*
X1236729Y-7845150D01*
X1236729Y-7845150D02*
X1255777Y-7854674D01*
X1255777Y-7854674D02*
X1265301Y-7873722D01*
X1265301Y-7873722D02*
X1265301Y-7978484D01*
X1265301Y-7873722D02*
X1274825Y-7854674D01*
X1274825Y-7854674D02*
X1293872Y-7845150D01*
X1293872Y-7845150D02*
X1322444Y-7845150D01*
X1322444Y-7845150D02*
X1341491Y-7854674D01*
X1341491Y-7854674D02*
X1351015Y-7873722D01*
X1351015Y-7873722D02*
X1351015Y-7978484D01*
X1741491Y-7768960D02*
X1570063Y-8026103D01*
X1998634Y-7778484D02*
X2017682Y-7778484D01*
X2017682Y-7778484D02*
X2036729Y-7788008D01*
X2036729Y-7788008D02*
X2046253Y-7797531D01*
X2046253Y-7797531D02*
X2055777Y-7816579D01*
X2055777Y-7816579D02*
X2065301Y-7854674D01*
X2065301Y-7854674D02*
X2065301Y-7902293D01*
X2065301Y-7902293D02*
X2055777Y-7940388D01*
X2055777Y-7940388D02*
X2046253Y-7959436D01*
X2046253Y-7959436D02*
X2036729Y-7968960D01*
X2036729Y-7968960D02*
X2017682Y-7978484D01*
X2017682Y-7978484D02*
X1998634Y-7978484D01*
X1998634Y-7978484D02*
X1979586Y-7968960D01*
X1979586Y-7968960D02*
X1970063Y-7959436D01*
X1970063Y-7959436D02*
X1960539Y-7940388D01*
X1960539Y-7940388D02*
X1951015Y-7902293D01*
X1951015Y-7902293D02*
X1951015Y-7854674D01*
X1951015Y-7854674D02*
X1960539Y-7816579D01*
X1960539Y-7816579D02*
X1970063Y-7797531D01*
X1970063Y-7797531D02*
X1979586Y-7788008D01*
X1979586Y-7788008D02*
X1998634Y-7778484D01*
X2151015Y-7959436D02*
X2160539Y-7968960D01*
X2160539Y-7968960D02*
X2151015Y-7978484D01*
X2151015Y-7978484D02*
X2141491Y-7968960D01*
X2141491Y-7968960D02*
X2151015Y-7959436D01*
X2151015Y-7959436D02*
X2151015Y-7978484D01*
X2284348Y-7778484D02*
X2303396Y-7778484D01*
X2303396Y-7778484D02*
X2322444Y-7788008D01*
X2322444Y-7788008D02*
X2331968Y-7797531D01*
X2331968Y-7797531D02*
X2341491Y-7816579D01*
X2341491Y-7816579D02*
X2351015Y-7854674D01*
X2351015Y-7854674D02*
X2351015Y-7902293D01*
X2351015Y-7902293D02*
X2341491Y-7940388D01*
X2341491Y-7940388D02*
X2331968Y-7959436D01*
X2331968Y-7959436D02*
X2322444Y-7968960D01*
X2322444Y-7968960D02*
X2303396Y-7978484D01*
X2303396Y-7978484D02*
X2284348Y-7978484D01*
X2284348Y-7978484D02*
X2265301Y-7968960D01*
X2265301Y-7968960D02*
X2255777Y-7959436D01*
X2255777Y-7959436D02*
X2246253Y-7940388D01*
X2246253Y-7940388D02*
X2236729Y-7902293D01*
X2236729Y-7902293D02*
X2236729Y-7854674D01*
X2236729Y-7854674D02*
X2246253Y-7816579D01*
X2246253Y-7816579D02*
X2255777Y-7797531D01*
X2255777Y-7797531D02*
X2265301Y-7788008D01*
X2265301Y-7788008D02*
X2284348Y-7778484D01*
X2427206Y-7797531D02*
X2436729Y-7788008D01*
X2436729Y-7788008D02*
X2455777Y-7778484D01*
X2455777Y-7778484D02*
X2503396Y-7778484D01*
X2503396Y-7778484D02*
X2522444Y-7788008D01*
X2522444Y-7788008D02*
X2531968Y-7797531D01*
X2531968Y-7797531D02*
X2541491Y-7816579D01*
X2541491Y-7816579D02*
X2541491Y-7835627D01*
X2541491Y-7835627D02*
X2531968Y-7864198D01*
X2531968Y-7864198D02*
X2417682Y-7978484D01*
X2417682Y-7978484D02*
X2541491Y-7978484D01*
X2608158Y-7778484D02*
X2731968Y-7778484D01*
X2731968Y-7778484D02*
X2665301Y-7854674D01*
X2665301Y-7854674D02*
X2693872Y-7854674D01*
X2693872Y-7854674D02*
X2712920Y-7864198D01*
X2712920Y-7864198D02*
X2722444Y-7873722D01*
X2722444Y-7873722D02*
X2731968Y-7892769D01*
X2731968Y-7892769D02*
X2731968Y-7940388D01*
X2731968Y-7940388D02*
X2722444Y-7959436D01*
X2722444Y-7959436D02*
X2712920Y-7968960D01*
X2712920Y-7968960D02*
X2693872Y-7978484D01*
X2693872Y-7978484D02*
X2636729Y-7978484D01*
X2636729Y-7978484D02*
X2617682Y-7968960D01*
X2617682Y-7968960D02*
X2608158Y-7959436D01*
X2903396Y-7778484D02*
X2865301Y-7778484D01*
X2865301Y-7778484D02*
X2846253Y-7788008D01*
X2846253Y-7788008D02*
X2836729Y-7797531D01*
X2836729Y-7797531D02*
X2817682Y-7826103D01*
X2817682Y-7826103D02*
X2808158Y-7864198D01*
X2808158Y-7864198D02*
X2808158Y-7940388D01*
X2808158Y-7940388D02*
X2817682Y-7959436D01*
X2817682Y-7959436D02*
X2827206Y-7968960D01*
X2827206Y-7968960D02*
X2846253Y-7978484D01*
X2846253Y-7978484D02*
X2884348Y-7978484D01*
X2884348Y-7978484D02*
X2903396Y-7968960D01*
X2903396Y-7968960D02*
X2912920Y-7959436D01*
X2912920Y-7959436D02*
X2922444Y-7940388D01*
X2922444Y-7940388D02*
X2922444Y-7892769D01*
X2922444Y-7892769D02*
X2912920Y-7873722D01*
X2912920Y-7873722D02*
X2903396Y-7864198D01*
X2903396Y-7864198D02*
X2884348Y-7854674D01*
X2884348Y-7854674D02*
X2846253Y-7854674D01*
X2846253Y-7854674D02*
X2827206Y-7864198D01*
X2827206Y-7864198D02*
X2817682Y-7873722D01*
X2817682Y-7873722D02*
X2808158Y-7892769D01*
X2998634Y-7778484D02*
X2998634Y-7816579D01*
X3074825Y-7778484D02*
X3074825Y-7816579D01*
X3370063Y-8054674D02*
X3360539Y-8045150D01*
X3360539Y-8045150D02*
X3341491Y-8016579D01*
X3341491Y-8016579D02*
X3331968Y-7997531D01*
X3331968Y-7997531D02*
X3322444Y-7968960D01*
X3322444Y-7968960D02*
X3312920Y-7921341D01*
X3312920Y-7921341D02*
X3312920Y-7883246D01*
X3312920Y-7883246D02*
X3322444Y-7835627D01*
X3322444Y-7835627D02*
X3331968Y-7807055D01*
X3331968Y-7807055D02*
X3341491Y-7788008D01*
X3341491Y-7788008D02*
X3360539Y-7759436D01*
X3360539Y-7759436D02*
X3370063Y-7749912D01*
X3484348Y-7778484D02*
X3503396Y-7778484D01*
X3503396Y-7778484D02*
X3522444Y-7788008D01*
X3522444Y-7788008D02*
X3531968Y-7797531D01*
X3531968Y-7797531D02*
X3541491Y-7816579D01*
X3541491Y-7816579D02*
X3551015Y-7854674D01*
X3551015Y-7854674D02*
X3551015Y-7902293D01*
X3551015Y-7902293D02*
X3541491Y-7940388D01*
X3541491Y-7940388D02*
X3531968Y-7959436D01*
X3531968Y-7959436D02*
X3522444Y-7968960D01*
X3522444Y-7968960D02*
X3503396Y-7978484D01*
X3503396Y-7978484D02*
X3484348Y-7978484D01*
X3484348Y-7978484D02*
X3465301Y-7968960D01*
X3465301Y-7968960D02*
X3455777Y-7959436D01*
X3455777Y-7959436D02*
X3446253Y-7940388D01*
X3446253Y-7940388D02*
X3436729Y-7902293D01*
X3436729Y-7902293D02*
X3436729Y-7854674D01*
X3436729Y-7854674D02*
X3446253Y-7816579D01*
X3446253Y-7816579D02*
X3455777Y-7797531D01*
X3455777Y-7797531D02*
X3465301Y-7788008D01*
X3465301Y-7788008D02*
X3484348Y-7778484D01*
X3789110Y-7978484D02*
X3789110Y-7778484D01*
X3874825Y-7978484D02*
X3874825Y-7873722D01*
X3874825Y-7873722D02*
X3865301Y-7854674D01*
X3865301Y-7854674D02*
X3846253Y-7845150D01*
X3846253Y-7845150D02*
X3817682Y-7845150D01*
X3817682Y-7845150D02*
X3798634Y-7854674D01*
X3798634Y-7854674D02*
X3789110Y-7864198D01*
X3998634Y-7978484D02*
X3979587Y-7968960D01*
X3979587Y-7968960D02*
X3970063Y-7959436D01*
X3970063Y-7959436D02*
X3960539Y-7940388D01*
X3960539Y-7940388D02*
X3960539Y-7883246D01*
X3960539Y-7883246D02*
X3970063Y-7864198D01*
X3970063Y-7864198D02*
X3979587Y-7854674D01*
X3979587Y-7854674D02*
X3998634Y-7845150D01*
X3998634Y-7845150D02*
X4027206Y-7845150D01*
X4027206Y-7845150D02*
X4046253Y-7854674D01*
X4046253Y-7854674D02*
X4055777Y-7864198D01*
X4055777Y-7864198D02*
X4065301Y-7883246D01*
X4065301Y-7883246D02*
X4065301Y-7940388D01*
X4065301Y-7940388D02*
X4055777Y-7959436D01*
X4055777Y-7959436D02*
X4046253Y-7968960D01*
X4046253Y-7968960D02*
X4027206Y-7978484D01*
X4027206Y-7978484D02*
X3998634Y-7978484D01*
X4179587Y-7978484D02*
X4160539Y-7968960D01*
X4160539Y-7968960D02*
X4151015Y-7949912D01*
X4151015Y-7949912D02*
X4151015Y-7778484D01*
X4331968Y-7968960D02*
X4312920Y-7978484D01*
X4312920Y-7978484D02*
X4274825Y-7978484D01*
X4274825Y-7978484D02*
X4255777Y-7968960D01*
X4255777Y-7968960D02*
X4246253Y-7949912D01*
X4246253Y-7949912D02*
X4246253Y-7873722D01*
X4246253Y-7873722D02*
X4255777Y-7854674D01*
X4255777Y-7854674D02*
X4274825Y-7845150D01*
X4274825Y-7845150D02*
X4312920Y-7845150D01*
X4312920Y-7845150D02*
X4331968Y-7854674D01*
X4331968Y-7854674D02*
X4341492Y-7873722D01*
X4341492Y-7873722D02*
X4341492Y-7892769D01*
X4341492Y-7892769D02*
X4246253Y-7911817D01*
X4417682Y-7968960D02*
X4436730Y-7978484D01*
X4436730Y-7978484D02*
X4474825Y-7978484D01*
X4474825Y-7978484D02*
X4493873Y-7968960D01*
X4493873Y-7968960D02*
X4503396Y-7949912D01*
X4503396Y-7949912D02*
X4503396Y-7940388D01*
X4503396Y-7940388D02*
X4493873Y-7921341D01*
X4493873Y-7921341D02*
X4474825Y-7911817D01*
X4474825Y-7911817D02*
X4446253Y-7911817D01*
X4446253Y-7911817D02*
X4427206Y-7902293D01*
X4427206Y-7902293D02*
X4417682Y-7883246D01*
X4417682Y-7883246D02*
X4417682Y-7873722D01*
X4417682Y-7873722D02*
X4427206Y-7854674D01*
X4427206Y-7854674D02*
X4446253Y-7845150D01*
X4446253Y-7845150D02*
X4474825Y-7845150D01*
X4474825Y-7845150D02*
X4493873Y-7854674D01*
X4741492Y-7902293D02*
X4893873Y-7902293D01*
X4817682Y-7978484D02*
X4817682Y-7826103D01*
X5227206Y-7845150D02*
X5227206Y-7978484D01*
X5179587Y-7768960D02*
X5131968Y-7911817D01*
X5131968Y-7911817D02*
X5255777Y-7911817D01*
X5474825Y-7968960D02*
X5493873Y-7978484D01*
X5493873Y-7978484D02*
X5531968Y-7978484D01*
X5531968Y-7978484D02*
X5551016Y-7968960D01*
X5551016Y-7968960D02*
X5560539Y-7949912D01*
X5560539Y-7949912D02*
X5560539Y-7940388D01*
X5560539Y-7940388D02*
X5551016Y-7921341D01*
X5551016Y-7921341D02*
X5531968Y-7911817D01*
X5531968Y-7911817D02*
X5503396Y-7911817D01*
X5503396Y-7911817D02*
X5484349Y-7902293D01*
X5484349Y-7902293D02*
X5474825Y-7883246D01*
X5474825Y-7883246D02*
X5474825Y-7873722D01*
X5474825Y-7873722D02*
X5484349Y-7854674D01*
X5484349Y-7854674D02*
X5503396Y-7845150D01*
X5503396Y-7845150D02*
X5531968Y-7845150D01*
X5531968Y-7845150D02*
X5551016Y-7854674D01*
X5674825Y-7978484D02*
X5655777Y-7968960D01*
X5655777Y-7968960D02*
X5646254Y-7949912D01*
X5646254Y-7949912D02*
X5646254Y-7778484D01*
X5779587Y-7978484D02*
X5760539Y-7968960D01*
X5760539Y-7968960D02*
X5751015Y-7959436D01*
X5751015Y-7959436D02*
X5741492Y-7940388D01*
X5741492Y-7940388D02*
X5741492Y-7883246D01*
X5741492Y-7883246D02*
X5751015Y-7864198D01*
X5751015Y-7864198D02*
X5760539Y-7854674D01*
X5760539Y-7854674D02*
X5779587Y-7845150D01*
X5779587Y-7845150D02*
X5808158Y-7845150D01*
X5808158Y-7845150D02*
X5827206Y-7854674D01*
X5827206Y-7854674D02*
X5836730Y-7864198D01*
X5836730Y-7864198D02*
X5846254Y-7883246D01*
X5846254Y-7883246D02*
X5846254Y-7940388D01*
X5846254Y-7940388D02*
X5836730Y-7959436D01*
X5836730Y-7959436D02*
X5827206Y-7968960D01*
X5827206Y-7968960D02*
X5808158Y-7978484D01*
X5808158Y-7978484D02*
X5779587Y-7978484D01*
X5903396Y-7845150D02*
X5979587Y-7845150D01*
X5931968Y-7778484D02*
X5931968Y-7949912D01*
X5931968Y-7949912D02*
X5941492Y-7968960D01*
X5941492Y-7968960D02*
X5960539Y-7978484D01*
X5960539Y-7978484D02*
X5979587Y-7978484D01*
X6036730Y-7968960D02*
X6055777Y-7978484D01*
X6055777Y-7978484D02*
X6093873Y-7978484D01*
X6093873Y-7978484D02*
X6112920Y-7968960D01*
X6112920Y-7968960D02*
X6122444Y-7949912D01*
X6122444Y-7949912D02*
X6122444Y-7940388D01*
X6122444Y-7940388D02*
X6112920Y-7921341D01*
X6112920Y-7921341D02*
X6093873Y-7911817D01*
X6093873Y-7911817D02*
X6065301Y-7911817D01*
X6065301Y-7911817D02*
X6046254Y-7902293D01*
X6046254Y-7902293D02*
X6036730Y-7883246D01*
X6036730Y-7883246D02*
X6036730Y-7873722D01*
X6036730Y-7873722D02*
X6046254Y-7854674D01*
X6046254Y-7854674D02*
X6065301Y-7845150D01*
X6065301Y-7845150D02*
X6093873Y-7845150D01*
X6093873Y-7845150D02*
X6112920Y-7854674D01*
X6189111Y-8054674D02*
X6198635Y-8045150D01*
X6198635Y-8045150D02*
X6217682Y-8016579D01*
X6217682Y-8016579D02*
X6227206Y-7997531D01*
X6227206Y-7997531D02*
X6236730Y-7968960D01*
X6236730Y-7968960D02*
X6246254Y-7921341D01*
X6246254Y-7921341D02*
X6246254Y-7883246D01*
X6246254Y-7883246D02*
X6236730Y-7835627D01*
X6236730Y-7835627D02*
X6227206Y-7807055D01*
X6227206Y-7807055D02*
X6217682Y-7788008D01*
X6217682Y-7788008D02*
X6198635Y-7759436D01*
X6198635Y-7759436D02*
X6189111Y-7749912D01*
M02*
