%TF.GenerationSoftware,KiCad,Pcbnew,10.0.4*%
%TF.CreationDate,2026-10-09T22:51:56+01:00*%
%TF.ProjectId,vitalq_v2,76697461-6c71-45f7-9632-2e6b69636164,rev?*%
%TF.SameCoordinates,Original*%
%TF.FileFunction,Copper,L3,Inr*%
%TF.FilePolarity,Positive*%
%FSLAX46Y46*%
G04 Gerber Fmt 4.6, Leading zero omitted, Abs format (unit mm)*
G04 Created by KiCad (PCBNEW 10.0.4) date 2026-10-09 22:51:56*
%MOMM*%
%LPD*%
G01*
G04 APERTURE LIST*
%TA.AperFunction,ComponentPad*%
%ADD10O,1.000000X2.100000*%
%TD*%
%TA.AperFunction,ComponentPad*%
%ADD11O,1.000000X1.600000*%
%TD*%
%TA.AperFunction,ViaPad*%
%ADD12C,0.400400*%
%TD*%
%TA.AperFunction,ViaPad*%
%ADD13C,0.250000*%
%TD*%
%TA.AperFunction,ViaPad*%
%ADD14C,0.400000*%
%TD*%
%TA.AperFunction,ViaPad*%
%ADD15C,0.300000*%
%TD*%
%TA.AperFunction,Conductor*%
%ADD16C,0.101702*%
%TD*%
%TA.AperFunction,Conductor*%
%ADD17C,0.101600*%
%TD*%
G04 APERTURE END LIST*
D10*
%TO.N,GND*%
%TO.C,J1*%
X30320000Y4670000D03*
D11*
X30320000Y8850000D03*
D10*
X21680000Y4670000D03*
D11*
X21680000Y8850000D03*
%TD*%
D12*
%TO.N,SP_ISO*%
X34458621Y-18656538D03*
X32271818Y-22228193D03*
%TO.N,GND*%
X25498161Y-148463D03*
X38486186Y-43814520D03*
X44506156Y-26929648D03*
X8046760Y6462838D03*
X227785Y-56177272D03*
X37219361Y6733476D03*
X34428759Y-49334568D03*
X24314550Y-23096579D03*
X20220226Y-31735259D03*
X28585093Y-47298914D03*
X39979241Y-5439002D03*
X41514212Y6837782D03*
X43804224Y-27864788D03*
X27408518Y-12009956D03*
X19258703Y-7239151D03*
X32783052Y-8901799D03*
X44626414Y-21530806D03*
D13*
X28000000Y-51000000D03*
D12*
X23975633Y-37432352D03*
X11487537Y-2170890D03*
X-915447Y-45309972D03*
D13*
X36985910Y-10680775D03*
D12*
X43449775Y-21866896D03*
X11768645Y-3683909D03*
X27511861Y-36314923D03*
X11474444Y3736769D03*
X18807940Y-21909891D03*
X38797761Y8595044D03*
X46727889Y-30420484D03*
X7714558Y-46461077D03*
X15496950Y1667563D03*
X30213371Y-6992750D03*
X22202683Y-21082814D03*
X28646007Y-31461123D03*
X9033728Y-16396644D03*
X19451354Y-40422007D03*
X36807214Y-50689703D03*
X16467389Y-34797077D03*
X34612866Y-50210510D03*
X15131913Y-43882070D03*
X14477846Y-18767265D03*
X40357661Y-15838516D03*
D13*
X26400000Y-51000000D03*
D12*
X7260866Y-21521934D03*
X18398446Y-39860258D03*
X20018837Y-56187787D03*
X20582507Y-11799132D03*
X15136127Y5730418D03*
X37689955Y2926442D03*
X1075407Y-52975382D03*
X46242152Y-298547D03*
X47219792Y-24058646D03*
X10105507Y-36680839D03*
X8420435Y5749293D03*
X36767498Y-16411247D03*
X2145524Y-49885261D03*
X6225550Y-48695629D03*
X35688330Y-16585150D03*
X36960795Y-5199075D03*
X12878135Y5394303D03*
D14*
X15400000Y-39900000D03*
D12*
X31730968Y-12039512D03*
X30755114Y-41954041D03*
X13394352Y3832649D03*
X27546608Y-8697430D03*
X20571337Y-34625529D03*
X45316352Y2204338D03*
X10578283Y-22550501D03*
X17594183Y5843303D03*
X12411827Y3897469D03*
X3135440Y6389079D03*
X22676898Y2628899D03*
X6473928Y-20057492D03*
X31144782Y-30219628D03*
X6829248Y-62871193D03*
X32706157Y-51019885D03*
D13*
X26800000Y-50200000D03*
D12*
X43541340Y-10465996D03*
X46819229Y-6308177D03*
X20784303Y7759964D03*
X17175192Y-23350442D03*
X26693514Y-32334782D03*
X2128426Y-63038885D03*
X43220141Y-12293832D03*
X44497237Y-39745454D03*
X25848029Y-17362098D03*
D13*
X37785910Y-11480775D03*
D12*
X8243967Y158890D03*
X19991852Y-49187915D03*
X43224429Y-9462112D03*
X2091877Y-38714290D03*
X38946327Y-33420378D03*
X43563878Y-3936893D03*
X-356509Y-38111007D03*
X23464246Y-14148831D03*
X15869281Y6185023D03*
X38111438Y-28136055D03*
X18734701Y-56179950D03*
X25697164Y-37621466D03*
X12134415Y-23199737D03*
X11776441Y-11790943D03*
X8067012Y4031837D03*
X13787428Y6075675D03*
X37447369Y-39016867D03*
X43005542Y-48544333D03*
X12916093Y-34916278D03*
X9391413Y5851644D03*
X36146668Y-38117601D03*
X38241338Y-4001608D03*
X34295204Y-15565407D03*
X21268341Y-23277379D03*
X44792632Y-14242863D03*
X32474756Y2645187D03*
X12645766Y6210911D03*
X25798257Y-52987001D03*
X29556585Y-37732153D03*
X42398023Y-13944372D03*
X29159109Y-4489682D03*
X23649952Y-39496131D03*
X14860649Y-23422209D03*
X15229139Y-21647134D03*
X4666499Y-5112688D03*
D14*
X31400000Y-54500000D03*
D12*
X7793067Y-54429215D03*
X34178831Y-37072568D03*
X46655075Y4971419D03*
X42920895Y-16419101D03*
X17617394Y3418421D03*
X86948Y-612436D03*
X31280846Y-10891093D03*
D14*
X2750000Y-39900000D03*
D12*
X8767787Y6358871D03*
X3703694Y-43688995D03*
X15528989Y419306D03*
X14130277Y-50694016D03*
X39248677Y-37686866D03*
X2202951Y-4598419D03*
X8700297Y-49580891D03*
X22360861Y-55803390D03*
X38318302Y-5116621D03*
X38535262Y-15830148D03*
X19587687Y-23079605D03*
X10476956Y-52884714D03*
X36504234Y360164D03*
X18798120Y-37723055D03*
X18295391Y-53788853D03*
X41011283Y7473130D03*
X31891338Y-32408761D03*
X30177718Y-8059071D03*
X44022546Y-24408730D03*
X46486773Y-19890603D03*
X7137960Y6454237D03*
X9277370Y1543183D03*
X15649828Y-36831100D03*
X6314583Y6569100D03*
X23876752Y2005566D03*
X16028320Y-56146075D03*
X30155067Y-49313058D03*
X41233582Y-5336052D03*
X8102341Y-21917310D03*
X12341612Y-38305497D03*
X38554925Y-41509664D03*
X38548440Y-20043195D03*
X34715389Y2679892D03*
X20134623Y5777893D03*
X28666094Y-56499180D03*
X36181248Y4802845D03*
X45388692Y-18869753D03*
X13336595Y-20365927D03*
X6015291Y-21882248D03*
X2136551Y-53562628D03*
X11748369Y6030043D03*
X40330558Y-51408237D03*
X19792427Y-51685242D03*
X32959691Y-33584371D03*
X24153500Y-57372180D03*
X39068897Y-28283371D03*
X32906020Y-34894538D03*
X42472053Y-41639460D03*
X44678512Y4191978D03*
X16852576Y6199165D03*
D14*
X6785910Y-59530775D03*
D12*
X35024141Y-36452968D03*
X45652971Y-15219271D03*
X22543499Y-39232053D03*
X42737541Y287872D03*
X16275437Y5422771D03*
X10153307Y5944225D03*
X43635498Y-32856769D03*
X24732380Y-44569722D03*
X41776273Y7992352D03*
X42003737Y-38548008D03*
X24525941Y-48699183D03*
%TO.N,RLDOUT*%
X44046214Y-6169053D03*
X43307818Y2925966D03*
%TO.N,RLDINV*%
X44773761Y888547D03*
X43341860Y-14241161D03*
D14*
%TO.N,+3V3_ANA*%
X37785910Y-7780775D03*
D12*
X30751796Y-15556583D03*
D13*
X38185910Y-10280775D03*
D14*
X26785910Y-49080775D03*
X25685910Y-49830775D03*
X29385910Y-49480775D03*
X25985910Y-36830775D03*
X21985910Y-45130775D03*
X31235910Y-50330775D03*
D13*
X26800000Y-50600000D03*
D12*
X37302708Y-14162266D03*
D14*
%TO.N,CS_AFE4900*%
X21800000Y-23200000D03*
X22000000Y-29000000D03*
D12*
X30308652Y-16738718D03*
D14*
X21600000Y-25300000D03*
D12*
X9640057Y-7699795D03*
D13*
X27200000Y-51400000D03*
D12*
%TO.N,+3V3*%
X23456725Y-34753891D03*
X18080840Y-36908494D03*
X33305748Y-32254496D03*
X39186522Y-43373915D03*
X34692814Y-33654956D03*
X4348173Y-54997439D03*
X35740252Y-30181157D03*
X11546945Y-53531272D03*
X4939099Y-45963425D03*
X33127888Y-29271342D03*
X35716370Y-34631931D03*
D14*
X10750000Y-42400000D03*
X9600000Y-38550000D03*
D12*
X27041761Y-37979510D03*
X22092208Y-38451427D03*
X30673208Y-29281688D03*
X11070022Y-35733394D03*
X13340448Y-46857661D03*
X30743954Y-42874208D03*
X32153967Y-31677670D03*
X16172907Y-49203069D03*
D14*
X18950000Y-43600000D03*
D12*
X23430939Y-37985384D03*
X26503433Y-33118094D03*
X30933887Y-31894073D03*
X35983598Y-40877647D03*
X31166272Y-36948030D03*
X47340642Y-21857265D03*
X27040518Y-39856029D03*
X30738086Y-41131246D03*
D14*
X21250000Y-50400000D03*
D12*
X11232612Y-42591689D03*
X5713924Y-48591116D03*
X27425883Y-34553743D03*
X10055351Y-46303206D03*
X27562874Y-48920408D03*
X15251944Y-49772776D03*
X12638133Y-35919541D03*
X10290220Y-44181235D03*
X20751444Y-33450276D03*
D14*
X36350000Y-43300000D03*
X29150000Y-25300000D03*
D12*
X21819605Y-56424687D03*
X11255321Y-53089462D03*
X25423641Y-59060540D03*
X30638876Y-34316831D03*
X24353751Y-62863767D03*
X21345764Y-53692109D03*
D14*
X22100000Y-39500000D03*
D12*
X18330105Y-38650623D03*
X20143900Y-39071428D03*
X32177024Y-35521120D03*
X18988856Y-35556780D03*
D14*
X31250851Y-59690000D03*
D12*
X16414574Y-46449606D03*
X32175998Y-33878491D03*
X35755337Y-35869102D03*
X11045985Y-46265432D03*
X24588913Y-54531712D03*
X14277500Y-33732158D03*
X10764460Y-37389646D03*
X19308080Y-43836148D03*
%TO.N,ESP_EN*%
X23915951Y-18293603D03*
D14*
X26700000Y-61050000D03*
D12*
X44118515Y-34861722D03*
D14*
X35000000Y-49850000D03*
X27100000Y-54550000D03*
X29350000Y-42500000D03*
D12*
X18126288Y-40839377D03*
X25541961Y-37130011D03*
X39612108Y-45480735D03*
D14*
X13350000Y-7750000D03*
D12*
X16316482Y-11061920D03*
D14*
X31800000Y-59700000D03*
D12*
X41215099Y-45269602D03*
X21016475Y-18120740D03*
D14*
X31800000Y-47000000D03*
D12*
%TO.N,ECG_N*%
X46574720Y3792062D03*
X10942826Y-29954934D03*
X41831587Y-3084931D03*
X38834493Y-3259994D03*
X40224282Y6360851D03*
X30563675Y-22443946D03*
%TO.N,FSR_ADC*%
X-279609Y-33481153D03*
X7430121Y3226603D03*
%TO.N,+1V8*%
X18747253Y-55107501D03*
D14*
X30650000Y-55900000D03*
D12*
X27237902Y-56598444D03*
D14*
X27100000Y-59350000D03*
X26300000Y-48900000D03*
X35950000Y-55800000D03*
D12*
%TO.N,CS_FLASH*%
X9435427Y-7139489D03*
X14856504Y-47197181D03*
D14*
X24400000Y-46150000D03*
X27400000Y-42350000D03*
X12100000Y-37200000D03*
D12*
X6366149Y-37993124D03*
%TO.N,EDA_DE_PAD*%
X18922331Y-31527237D03*
%TO.N,DE_SURGE*%
X1769137Y-12452426D03*
X16982964Y-20174402D03*
%TO.N,TS*%
X23599358Y-3233427D03*
X24057763Y-2831204D03*
X29520988Y-7144931D03*
X26608942Y-2846966D03*
D13*
%TO.N,CS_AD5940*%
X36585910Y-10280775D03*
D14*
X23685910Y-9930775D03*
D12*
X34603022Y-31714798D03*
X8833405Y-7284266D03*
X43601913Y-55683912D03*
D14*
X21085910Y-8180775D03*
X34585910Y-9380775D03*
D12*
%TO.N,USB_DM*%
X6928240Y-13265051D03*
X3980712Y-13643267D03*
D14*
X9600000Y-12050000D03*
D12*
%TO.N,USB_DM_S3*%
X6002976Y-12407149D03*
X4177304Y-7763602D03*
%TO.N,I2C_SCL*%
X42623545Y-20938066D03*
X32843526Y-34112756D03*
D14*
X19400000Y-44850000D03*
D12*
X21594784Y-34703660D03*
X32652727Y-31533620D03*
X34500149Y-36117846D03*
X5649712Y-46270263D03*
X40342749Y-24875064D03*
X14537078Y-39598367D03*
X15436141Y-37620015D03*
X6778785Y-4732903D03*
X8907517Y-46646710D03*
X16298487Y-52046697D03*
D14*
X18900000Y-52050000D03*
D12*
X13546457Y-47993087D03*
D14*
X19550000Y-48900000D03*
D12*
%TO.N,I2C_SDA*%
X32094502Y-30223817D03*
X7958962Y-49308570D03*
X9348496Y-43850029D03*
X8451997Y-53279839D03*
X4207864Y-4784407D03*
X16067666Y-30565676D03*
X14362820Y-52335761D03*
D14*
X18950000Y-44250000D03*
D12*
X36160732Y-24710438D03*
D14*
X19100000Y-52600000D03*
D12*
X3915719Y-18307545D03*
X12566695Y-52818997D03*
X12622148Y-37772493D03*
X18990726Y-34447000D03*
D14*
X21150000Y-49250000D03*
D12*
X43685918Y-23867205D03*
%TO.N,CS_MAX86178*%
X13820136Y-8416749D03*
X28341222Y-41386889D03*
X39064830Y-40505130D03*
%TO.N,MX_SDO_1V8*%
X36703919Y-41512528D03*
%TO.N,I2C_SDA_1V8*%
X13699253Y-53603406D03*
X19490774Y-53717769D03*
X29264326Y-56701149D03*
X19636226Y-57660803D03*
X32838265Y-23468623D03*
X12790162Y-53517367D03*
X21312472Y-58932609D03*
X35810046Y-21276416D03*
%TO.N,NIR730_GATE*%
X39628248Y-51754331D03*
X43582143Y-41673607D03*
X45147899Y-34594072D03*
X40868289Y-9275113D03*
%TO.N,SPI_MISO*%
X41537972Y-47053877D03*
X29073222Y-1758943D03*
X44913302Y-17435097D03*
X15532730Y-878597D03*
X44443212Y-10717052D03*
X43402188Y-45002123D03*
%TO.N,VBUS*%
X6774091Y-33838252D03*
X27500982Y5896325D03*
X24359197Y4902121D03*
X18808308Y-20152165D03*
X13336341Y-21101172D03*
%TO.N,CHG_ISET*%
X26174789Y-14165268D03*
X25694662Y-16612562D03*
%TO.N,CHG_STAT*%
X25035621Y-30273361D03*
X22096849Y-34089902D03*
X30760171Y-21948782D03*
X16013440Y-44496855D03*
%TO.N,CHG_PG*%
X30508554Y-21397968D03*
X12380739Y-3640199D03*
X26290423Y-6152188D03*
X31904733Y-26475733D03*
%TO.N,CHG_VSET*%
X40322245Y8459809D03*
X29101056Y-9524828D03*
%TO.N,VBAT*%
X26295775Y-7269375D03*
D13*
%TO.N,VBIAS0*%
X36585910Y-11480775D03*
D14*
X34285910Y-9830775D03*
D12*
%TO.N,MISO_ADS*%
X34607933Y-2424107D03*
X40476528Y-549378D03*
D14*
%TO.N,AFE_INP*%
X29250000Y-48900000D03*
D12*
X22338813Y-58800910D03*
D14*
%TO.N,MAX86178_INT*%
X27500000Y-37700000D03*
D13*
X26500000Y-47350000D03*
D14*
X29900000Y-31300000D03*
D12*
X18452382Y-3492482D03*
X31793482Y-21559519D03*
%TO.N,USB_DP*%
X4317738Y-14022139D03*
X7382157Y-13039022D03*
D14*
%TO.N,ESP_TX*%
X27950000Y-34600000D03*
D12*
X24948888Y-9720250D03*
D14*
X23450000Y-45500000D03*
X18400000Y-45650000D03*
X14200000Y-51850000D03*
X15200000Y-53650000D03*
D12*
X15240092Y-7868544D03*
D14*
X22800000Y-38500000D03*
D12*
%TO.N,ESP_RX*%
X17666900Y-8250277D03*
X12984327Y-59051911D03*
D14*
X6650000Y-57500000D03*
X22200000Y-43600000D03*
X24900000Y-50200000D03*
D12*
X16076490Y-4631772D03*
D14*
X21150000Y-38900000D03*
D12*
X16930444Y-10618121D03*
D14*
X24000000Y-45500000D03*
D12*
%TO.N,ESP_IO0*%
X-220166Y-9003961D03*
X14997592Y-46155671D03*
X17970985Y-58524113D03*
X3603379Y-34615627D03*
%TO.N,RESP_MODP*%
X43979990Y4478355D03*
X41049047Y-1733700D03*
%TO.N,ECG_P*%
X14387384Y-7512818D03*
X18023528Y-20206609D03*
X15601198Y-11422219D03*
X5319445Y-24149524D03*
%TO.N,CS_ADS1292*%
X37032570Y260020D03*
X7062489Y-32850314D03*
X39449729Y-501493D03*
X12813888Y-3196275D03*
%TO.N,EDA_CE_PAD*%
X3137483Y-28195003D03*
X10269159Y-58517603D03*
%TO.N,CHG_DIS*%
X15323226Y-45007550D03*
X20236261Y-12511200D03*
X16391764Y-24035814D03*
X21588061Y-15530678D03*
%TO.N,I2C_SCL_1V8*%
X35372668Y-21028942D03*
D14*
X28800000Y-58350000D03*
D12*
X23063453Y-62246811D03*
X41227378Y-41420612D03*
X38333780Y-55700094D03*
D14*
X33700000Y-58500000D03*
D12*
X8119731Y-60525000D03*
%TO.N,SWEAT_CE*%
X41148042Y-12352923D03*
D14*
X43185910Y-40030775D03*
D12*
X18443891Y-30598875D03*
X25832644Y-39839788D03*
D14*
X29185910Y-41180775D03*
X27035910Y-41030775D03*
D12*
X33326340Y-56587464D03*
X21401272Y-33066932D03*
%TO.N,SWEAT_RE*%
X40195466Y-13719676D03*
X32073931Y-27034623D03*
X4304207Y-47325295D03*
X14858637Y-34408805D03*
X24104404Y-38340228D03*
%TO.N,BIOZ_SN*%
X34286680Y-17949497D03*
X39374114Y-13211987D03*
%TO.N,SE0*%
X36160431Y-13420008D03*
X33895291Y-18413925D03*
%TO.N,CE0*%
X36325900Y-12690122D03*
X20516018Y-8757054D03*
%TO.N,RE0*%
X23402900Y-6790668D03*
X37171685Y-12967301D03*
%TO.N,RCAL1*%
X39584187Y-11688452D03*
X38539385Y-17174769D03*
D14*
%TO.N,BIOZ_FP*%
X24285910Y-24830775D03*
D13*
X38185910Y-11880775D03*
D14*
X35785910Y-16030775D03*
%TO.N,AIN4_LPF0*%
X38735910Y-15130775D03*
D13*
X37785910Y-11880775D03*
%TO.N,BIOZ_SP*%
X37385910Y-11880775D03*
D14*
X35585910Y-18330775D03*
X37335910Y-15230775D03*
%TO.N,DE0*%
X-614090Y-14580775D03*
D13*
X36985910Y-11880775D03*
D14*
%TO.N,VZERO0*%
X34385910Y-14530775D03*
D13*
X36585910Y-11880775D03*
D12*
%TO.N,RC0_1*%
X34839216Y-11620229D03*
X33269804Y-17375610D03*
%TO.N,RCAL0*%
X39911918Y-11184025D03*
X38258299Y-17899884D03*
%TO.N,SWEAT_WE*%
X10246373Y-38074712D03*
D15*
X35750000Y-33350000D03*
D12*
X34217279Y-46246830D03*
X16602484Y-39339879D03*
D13*
X37385910Y-11480775D03*
D15*
X29650000Y-39450000D03*
X35750000Y-32400000D03*
X36750000Y-29450000D03*
D12*
X29944665Y-41356642D03*
D14*
X39235910Y-17630775D03*
D12*
%TO.N,RC0_0*%
X32435502Y-17401455D03*
X35475462Y-11661237D03*
D14*
%TO.N,BIOZ_FN*%
X32635910Y-19230775D03*
D13*
X38585910Y-11080775D03*
D14*
%TO.N,VREF_2V5*%
X34285910Y-13080775D03*
D13*
X36585910Y-11080775D03*
D12*
%TO.N,SPI_MOSI*%
X13427463Y-3069212D03*
X29004169Y-38934733D03*
D14*
X31135910Y-49380775D03*
D13*
X36585910Y-10680775D03*
D14*
X29685910Y-50830775D03*
D13*
X27600000Y-51800000D03*
D12*
X24213768Y-9382184D03*
X28402496Y-1788310D03*
D14*
X34285910Y-6830775D03*
D12*
X38604572Y-111918D03*
D13*
X25700000Y-46950000D03*
D14*
X30885910Y-46480775D03*
%TO.N,MISO_AD*%
X39235910Y-9530775D03*
D12*
X34465142Y-10446892D03*
D14*
X35935910Y-9530775D03*
D12*
X43223659Y-11147343D03*
%TO.N,AD5940_RESET*%
X46157756Y-12981070D03*
X40815470Y-8666204D03*
D14*
%TO.N,AD5940_GPIO0*%
X8185910Y-7180775D03*
D13*
X37385910Y-10280775D03*
D14*
%TO.N,SPI_SCK*%
X29535910Y-46880775D03*
X29335910Y-53380775D03*
D12*
X28945970Y432020D03*
X34942521Y-10603821D03*
X39966720Y-1095592D03*
D13*
X26500000Y-46950000D03*
D12*
X6880559Y-7301729D03*
D14*
X27985910Y-40230775D03*
D12*
X31390842Y-17886778D03*
%TO.N,IOVDD*%
X44510537Y8769562D03*
D14*
X44000900Y9210447D03*
X38455600Y-8483600D03*
D12*
X40678366Y-8057463D03*
%TO.N,RLDREF*%
X45694336Y-738021D03*
X44463030Y3667196D03*
%TO.N,USB_CC2*%
X24425586Y2689948D03*
X31662923Y3639076D03*
%TO.N,GAUGE_ALRT*%
X41708766Y-22325211D03*
X7112990Y-3741486D03*
X28742719Y-21920014D03*
%TO.N,AFE4900_RESETZ*%
X21630205Y-59899708D03*
D14*
X30600000Y-51900000D03*
D12*
X14281903Y-62140344D03*
X16974805Y-43574580D03*
%TO.N,VDD_CP2102*%
X13082315Y-12230825D03*
X26251578Y-13408481D03*
X9211507Y-15240624D03*
%TO.N,CP_VBUS*%
X14659779Y-20195529D03*
X25886758Y-20573584D03*
X25110720Y-19104012D03*
X17308102Y-20894534D03*
%TO.N,CP_RST*%
X11334521Y-20059832D03*
X265148Y-19473762D03*
%TO.N,CP_RTS*%
X13933166Y-13411910D03*
X10844624Y-9984736D03*
D15*
%TO.N,CP_RX*%
X12400000Y-13900000D03*
X11400000Y-12450000D03*
X22850000Y-9200000D03*
X13450000Y-9350000D03*
%TO.N,CP_TX*%
X18600000Y-8800000D03*
X11900000Y-13900000D03*
X11700000Y-10400000D03*
X14950000Y-8250000D03*
D12*
%TO.N,CP_DTR*%
X18777491Y-19606612D03*
X8537211Y-14388899D03*
X5537658Y-12888648D03*
D14*
%TO.N,TX_5V*%
X31400000Y-51900000D03*
X27500000Y-47250000D03*
X23400000Y-55450000D03*
D12*
X14000000Y-58071400D03*
D14*
X29600000Y-56000000D03*
D12*
%TO.N,STATUS_LED*%
X-205472Y-23100411D03*
X10426099Y-7569821D03*
%TO.N,RTC_INT*%
X14254939Y-34940596D03*
X1226916Y-16156619D03*
X11893785Y-44603873D03*
%TO.N,PGA1N*%
X38407780Y4036663D03*
X42516426Y4255473D03*
%TO.N,PGA1P*%
X37869062Y4291111D03*
X41633617Y4910522D03*
%TO.N,IN1N*%
X43506593Y5392269D03*
X39139701Y-27147445D03*
X43266422Y-17471610D03*
X45161908Y-11511511D03*
%TO.N,IN1P*%
X46099606Y-2555156D03*
X34348129Y5765564D03*
X43650139Y6150014D03*
X22427945Y-594605D03*
%TO.N,PGA2P*%
X37214145Y8725224D03*
X38755513Y4496765D03*
%TO.N,ADS1292_PWDN*%
X32231457Y-5637961D03*
X29949906Y-1442513D03*
X37706443Y1458833D03*
%TO.N,ADS1292_DRDY*%
X38179663Y-495326D03*
X894541Y-22271713D03*
X7377572Y996043D03*
X117103Y-52732605D03*
%TO.N,ADS_GPIO1*%
X43328470Y932794D03*
X39584215Y-2002343D03*
%TO.N,RESP_MODN*%
X44348173Y6740943D03*
X47024829Y4188955D03*
%TO.N,VBAT_SYS*%
X39404783Y-30338637D03*
X40134331Y-37363767D03*
X38921887Y-34660196D03*
X39234256Y-31469103D03*
X39576289Y-38785948D03*
X40614327Y-31698809D03*
X39362496Y-36304837D03*
%TO.N,TX_SW*%
X40246569Y-33350879D03*
X40141603Y-39031154D03*
%TO.N,RE_SURGE*%
X16471035Y-31902549D03*
X13876281Y-20545388D03*
X13996138Y-23223350D03*
X15953371Y-24435682D03*
%TO.N,FP_SURGE*%
X5935671Y-38676912D03*
%TO.N,FP_ISO*%
X17438953Y-24130644D03*
X7528329Y-34593985D03*
%TO.N,Q3_B1*%
X21531914Y-17556199D03*
X10268512Y-14631234D03*
%TO.N,AFE_P_AC*%
X32477280Y-32396833D03*
X34254433Y-32682459D03*
X34418415Y-26434949D03*
X38237569Y-18488889D03*
%TO.N,AFE4900_ADC_RDY*%
X28899765Y-22778691D03*
X15751040Y-5323077D03*
D14*
X29850000Y-42650000D03*
X29850000Y-55100000D03*
D12*
%TO.N,IR_GATE*%
X-293340Y-55204502D03*
X-461556Y-52909935D03*
%TO.N,IR_K*%
X4222622Y-50602022D03*
X8136513Y-46029642D03*
X12570512Y-47488098D03*
%TO.N,IN1N_AC*%
X40097227Y-21490642D03*
X40602371Y-5228121D03*
%TO.N,RLD_CLAMP*%
X29194281Y-23628389D03*
X40540757Y-22901994D03*
X15931381Y-31108396D03*
%TO.N,EXP_INT*%
X10162031Y-33626883D03*
X15880541Y-38249404D03*
X17058052Y-45020728D03*
X-1214197Y-16044185D03*
D14*
%TO.N,TMP117_ALERT*%
X18800000Y-53700000D03*
X5200000Y-39900000D03*
X14500000Y-53150000D03*
X19150000Y-49250000D03*
D12*
X7831972Y-4414809D03*
D14*
X2250000Y-43600000D03*
D12*
X14109592Y-32237236D03*
%TO.N,USB_DP_S3*%
X6507449Y-12458502D03*
X4579098Y-8072942D03*
%TO.N,MIC_CLK*%
X28477442Y-21130806D03*
X20448992Y-5145717D03*
%TO.N,MIC_DAT*%
X18665058Y-5425778D03*
X29280402Y-21490120D03*
%TO.N,SPARE_IN*%
X33209713Y-13281707D03*
X42580746Y-20109576D03*
X17895031Y594061D03*
X32923872Y-7676997D03*
D14*
%TO.N,MISO_FL*%
X32400000Y-51500000D03*
X29650000Y-47400000D03*
D12*
%TO.N,J13_INP*%
X38333404Y-49253216D03*
%TO.N,RTC_VBK*%
X17014270Y-29886038D03*
X29531175Y-22036240D03*
X11744255Y-38375012D03*
X43029458Y-33633708D03*
%TO.N,FN_SURGE*%
X16605837Y-18500230D03*
%TO.N,FN_ISO*%
X19048388Y-23089051D03*
X30351752Y-20650288D03*
X19262832Y-16995546D03*
%TO.N,AFE_P_SER*%
X42696010Y-62590948D03*
X34319800Y-28690487D03*
%TO.N,SN_ISO*%
X25825557Y-23373740D03*
X25343204Y-22429113D03*
%TO.N,MX_ECG_INM*%
X29125039Y-59197679D03*
X19047820Y-41747101D03*
%TO.N,SN_SURGE*%
X19597614Y-13043416D03*
X22716491Y-34650177D03*
%TO.N,NIR_AN*%
X15626540Y-39082017D03*
%TO.N,TX5_EN*%
X39289350Y-41014801D03*
X29336834Y-39850380D03*
X19278868Y-39770075D03*
%TO.N,NIR_K*%
X16118086Y-47925224D03*
D14*
X36450000Y-52100000D03*
X32250000Y-56600000D03*
X20500000Y-53500000D03*
X26250000Y-55850000D03*
X28300000Y-58200000D03*
D12*
%TO.N,Q3_B2*%
X6935557Y-10924362D03*
X7956088Y-8954478D03*
D14*
%TO.N,AFE_INM*%
X31350000Y-58550000D03*
D13*
X28000000Y-49800000D03*
D14*
X41600000Y-56200000D03*
D12*
%TO.N,CE_ISO*%
X10441545Y-23332145D03*
X15823857Y-23482208D03*
X15040392Y-11183811D03*
X790394Y-27732066D03*
D13*
%TO.N,AFE_BG*%
X27600000Y-51000000D03*
D14*
X28750000Y-49450000D03*
D12*
%TO.N,SP_SURGE*%
X33456490Y-28197239D03*
X33481826Y-30155044D03*
X30349677Y-30142890D03*
D14*
%TO.N,MX_VREF*%
X31950000Y-49300000D03*
X29350000Y-46150000D03*
X25000000Y-46650000D03*
D12*
%TO.N,BIOZ_FP_PAD*%
X4784682Y-63807125D03*
%TO.N,BIOZ_FN_PAD*%
X11844503Y-60734762D03*
X5596857Y-45461536D03*
%TO.N,BIOZ_SP_PAD*%
X15747854Y-60532148D03*
%TO.N,BIOZ_SN_PAD*%
X20262914Y-60511743D03*
D14*
X25650000Y-57350000D03*
X29950000Y-48200000D03*
X33800000Y-50200000D03*
D12*
X26579389Y-42237369D03*
D14*
X31750000Y-56700000D03*
D12*
%TO.N,IR_AN*%
X12468467Y-45161417D03*
%TO.N,LED_AN*%
X2147205Y-52898337D03*
X44446203Y-48358659D03*
X7340462Y-50692682D03*
X29726278Y-57388174D03*
X14223058Y-59389736D03*
%TO.N,SE_ISO*%
X29010529Y-19220834D03*
X15370155Y-24393469D03*
%TO.N,J13_INM*%
X29691932Y-63093654D03*
%TO.N,AFE_N_AC*%
X43432076Y-56205046D03*
X29816628Y-34039151D03*
X41292244Y-48369991D03*
D14*
%TO.N,AFE_CLK*%
X16100000Y-58800000D03*
D13*
X28000000Y-51800000D03*
D12*
%TO.N,EDA_RE_PAD*%
X17611288Y-28256295D03*
X12207353Y-43123533D03*
%TO.N,SE_SURGE*%
X14333422Y-31473818D03*
X29415733Y-18891172D03*
%TO.N,EDA_SE_PAD*%
X2954020Y-39255205D03*
X8086663Y-59472707D03*
X10421244Y-27046759D03*
%TO.N,ECG2_PAD*%
X18398674Y-57955359D03*
X4481734Y-34383552D03*
%TO.N,J11_RE*%
X40792587Y-52155961D03*
X39655200Y-46446615D03*
%TO.N,J11_CE*%
X38390616Y-62793693D03*
X46679795Y-56408725D03*
D14*
%TO.N,PD_INP*%
X21400000Y-45350000D03*
X28100000Y-48350000D03*
X11200000Y-55900000D03*
%TO.N,PD_INM*%
X25300000Y-49500000D03*
X25200000Y-51850000D03*
D13*
X27200000Y-49800000D03*
D14*
X12450000Y-56200000D03*
D13*
%TO.N,PD2_INP*%
X27600000Y-50200000D03*
D14*
X15200000Y-59000000D03*
%TO.N,TX1*%
X15950000Y-58000000D03*
D13*
X26800000Y-51000000D03*
D14*
X21500000Y-55650000D03*
D13*
%TO.N,TX3*%
X26800000Y-51400000D03*
D14*
X24850000Y-53200000D03*
X15600000Y-54000000D03*
D12*
%TO.N,TX4*%
X14602430Y-53711443D03*
D14*
X25650000Y-51550000D03*
D13*
%TO.N,TX2*%
X26400000Y-51400000D03*
D14*
X10950000Y-55450000D03*
X22800000Y-55450000D03*
X25400000Y-54500000D03*
D12*
%TO.N,AFE_P_PAD*%
X23758732Y-29319389D03*
X17824442Y-61459825D03*
D14*
X27000000Y-41950000D03*
X34700000Y-51900000D03*
X27300000Y-55800000D03*
D12*
%TO.N,LDR*%
X22939030Y-56841177D03*
X21452240Y-58160243D03*
D14*
%TO.N,LED1_K*%
X30300000Y-60350000D03*
D12*
X5356176Y-52606450D03*
D13*
X26900000Y-48150000D03*
D14*
X30300000Y-56300000D03*
D12*
X46285854Y-52728229D03*
D14*
%TO.N,LED2_K*%
X39650000Y-52750000D03*
X32300000Y-50200000D03*
D12*
X4744740Y-52652203D03*
X39693862Y-58842686D03*
%TO.N,LED3_K*%
X5075056Y-52061332D03*
D13*
X26900000Y-47350000D03*
D14*
X29650000Y-58200000D03*
X30650000Y-55350000D03*
D12*
X45117449Y-47512468D03*
%TO.N,PD_K*%
X11699361Y-58437293D03*
X33058285Y-42107134D03*
D14*
X17500000Y-43600000D03*
X24650000Y-47550000D03*
X30400000Y-42500000D03*
D12*
X42751807Y-47596820D03*
X16046525Y-53713518D03*
X6298044Y-55287005D03*
%TO.N,PD_A*%
X8596450Y-56630540D03*
X47042256Y-39243504D03*
D14*
%TO.N,AFE_N_PAD*%
X28900000Y-56000000D03*
X27100000Y-36000000D03*
X24900000Y-58900000D03*
X22100000Y-30700000D03*
X17150000Y-60750000D03*
X28450000Y-37850000D03*
D12*
%TO.N,RLD_PAD*%
X32939840Y-54973369D03*
X24925919Y-21746561D03*
D14*
%TO.N,unconnected-(J12-PadMP)*%
X650000Y-56500000D03*
X650000Y-48550000D03*
D12*
%TO.N,ECG1_PAD*%
X19339868Y-58375776D03*
X4086962Y-31661989D03*
X19974382Y-53581073D03*
X14816146Y-52719541D03*
%TD*%
%TO.N,SP_ISO*%
D16*
X34458621Y-20041390D02*
X32271818Y-22228193D01*
X34458621Y-18656538D02*
X34458621Y-20041390D01*
%TO.N,RLDOUT*%
X42338247Y1956394D02*
X42338247Y-822336D01*
X43307818Y2925966D02*
X42338247Y1956394D01*
X44046214Y-2530303D02*
X44046214Y-6169053D01*
X42338247Y-822336D02*
X44046214Y-2530303D01*
%TO.N,+3V3_ANA*%
D17*
X26685910Y-50580775D02*
X25685910Y-50530775D01*
X25685910Y-50530775D02*
X25685910Y-49830775D01*
%TO.N,ESP_EN*%
D16*
X16750064Y-10202566D02*
X17113613Y-10202566D01*
D17*
X29350000Y-42500000D02*
X27400000Y-41300000D01*
D16*
X16316482Y-10636148D02*
X16750064Y-10202566D01*
X24675427Y-25309379D02*
X24675427Y-22903839D01*
X24403178Y-25581629D02*
X24675427Y-25309379D01*
X25991579Y-37234000D02*
X25645950Y-37234000D01*
X24403178Y-32897100D02*
X24403178Y-25581629D01*
X27398345Y-41297553D02*
X27398345Y-39655080D01*
X16316482Y-11061920D02*
X16316482Y-10636148D01*
X25645950Y-37234000D02*
X25541961Y-37130011D01*
X17113613Y-10202566D02*
X19173259Y-12262212D01*
X26676382Y-37918803D02*
X25991579Y-37234000D01*
X19173259Y-16277524D02*
X21016475Y-18120740D01*
X32341388Y-49817112D02*
X32341388Y-47000000D01*
X26676382Y-38933118D02*
X26676382Y-37918803D01*
X25541961Y-37130011D02*
X25541961Y-34035883D01*
X24675427Y-22903839D02*
X23915951Y-22144363D01*
X39612108Y-45480735D02*
X35275730Y-49817112D01*
X25541961Y-34035883D02*
X24403178Y-32897100D01*
X23915951Y-22144363D02*
X23915951Y-18293603D01*
X35275730Y-49817112D02*
X32341388Y-49817112D01*
X27398345Y-39655080D02*
X26676382Y-38933118D01*
X19173259Y-12262212D02*
X19173259Y-16277524D01*
D17*
X32300000Y-47000000D02*
X31800000Y-47000000D01*
%TO.N,ECG_N*%
D16*
X40224282Y6360851D02*
X42348825Y6360851D01*
X32236673Y-17994164D02*
X31978295Y-17735786D01*
X42348825Y6360851D02*
X42547374Y6559400D01*
X31448651Y-22443946D02*
X32236673Y-21655924D01*
X33919060Y-11966418D02*
X34627638Y-11257840D01*
X38834493Y-7296405D02*
X38834493Y-3259994D01*
X34873058Y-11257840D02*
X38834493Y-7296405D01*
X39009556Y-3084931D02*
X41831587Y-3084931D01*
X31978295Y-17735786D02*
X31978295Y-15710438D01*
X32236673Y-21655924D02*
X32236673Y-17994164D01*
X46574720Y3827687D02*
X46574720Y3792062D01*
X33919060Y-13769673D02*
X33919060Y-11966418D01*
X38834493Y-3259994D02*
X39009556Y-3084931D01*
X31978295Y-15710438D02*
X33919060Y-13769673D01*
X42547374Y6559400D02*
X43843008Y6559400D01*
X34627638Y-11257840D02*
X34873058Y-11257840D01*
X43843008Y6559400D02*
X46574720Y3827687D01*
X30563675Y-22443946D02*
X31448651Y-22443946D01*
%TO.N,FSR_ADC*%
X7430121Y3226603D02*
X3491687Y-711831D01*
X497738Y-14152116D02*
X-584311Y-15234166D01*
X3491687Y-4709572D02*
X497738Y-7703522D01*
X497738Y-7703522D02*
X497738Y-14152116D01*
X-584311Y-33176451D02*
X-279609Y-33481153D01*
X-584311Y-15234166D02*
X-584311Y-33176451D01*
X3491687Y-711831D02*
X3491687Y-4709572D01*
%TO.N,CS_FLASH*%
X10039171Y-7546036D02*
X10039171Y-8282340D01*
X9287444Y-40387037D02*
X9625994Y-40387037D01*
X14340707Y-12583877D02*
X14340707Y-16894620D01*
X13721637Y-30315183D02*
X13721637Y-33837148D01*
D17*
X12100000Y-37200000D02*
X12200000Y-37300000D01*
D16*
X14626258Y-35095973D02*
X13048105Y-36674125D01*
X14766892Y-29269928D02*
X13721637Y-30315183D01*
X9600136Y-7304198D02*
X9797333Y-7304198D01*
X17351397Y-20411725D02*
X17758110Y-20818438D01*
X13048105Y-36674125D02*
X12890653Y-36674125D01*
X14766892Y-24734114D02*
X14766892Y-29269928D01*
X9625994Y-40387037D02*
X9625994Y-41806052D01*
X14340707Y-16894620D02*
X17351397Y-19905309D01*
X6366149Y-37993124D02*
X6893531Y-37993124D01*
X14465181Y-24432403D02*
X14766892Y-24734114D01*
X9435427Y-7139489D02*
X9600136Y-7304198D01*
X14626258Y-34741769D02*
X14626258Y-35095973D01*
X14053960Y-46642000D02*
X14609141Y-47197181D01*
X9625994Y-39938784D02*
X9625994Y-40387037D01*
X17351397Y-19905309D02*
X17351397Y-20411725D01*
D17*
X24400000Y-46150000D02*
X27400000Y-42350000D01*
D16*
X16395375Y-21386327D02*
X14465181Y-23316522D01*
X14053960Y-46234017D02*
X14053960Y-46642000D01*
X12890653Y-36674125D02*
X9625994Y-39938784D01*
X17758110Y-20818438D02*
X17758110Y-21010913D01*
D17*
X10050000Y-8300000D02*
X14350000Y-12550000D01*
D16*
X14053960Y-46592625D02*
X14053960Y-46642000D01*
X9625994Y-41806052D02*
X14053960Y-46234017D01*
X14609141Y-47197181D02*
X14856504Y-47197181D01*
X13721637Y-33837148D02*
X14626258Y-34741769D01*
X17382696Y-21386327D02*
X16395375Y-21386327D01*
X14465181Y-23316522D02*
X14465181Y-24432403D01*
X9797333Y-7304198D02*
X10039171Y-7546036D01*
X6893531Y-37993124D02*
X9287444Y-40387037D01*
X17758110Y-21010913D02*
X17382696Y-21386327D01*
%TO.N,DE_SURGE*%
X4240985Y-12452426D02*
X1769137Y-12452426D01*
X15959534Y-19150972D02*
X13355864Y-19150972D01*
X7716635Y-15928075D02*
X4240985Y-12452426D01*
X13355864Y-19150972D02*
X10132967Y-15928075D01*
X10132967Y-15928075D02*
X7716635Y-15928075D01*
X16982964Y-20174402D02*
X15959534Y-19150972D01*
%TO.N,TS*%
X26608942Y-2846966D02*
X26593180Y-2831204D01*
X26593180Y-2831204D02*
X24057763Y-2831204D01*
X29520988Y-5759012D02*
X26608942Y-2846966D01*
X29520988Y-7144931D02*
X29520988Y-5759012D01*
%TO.N,CS_AD5940*%
X42252609Y-54334608D02*
X42252609Y-44023603D01*
X40397080Y-42168074D02*
X40397080Y-40726667D01*
X16318515Y-6686072D02*
X17208987Y-7576544D01*
X26420895Y-21386147D02*
X28287501Y-23252753D01*
X12428685Y-6686072D02*
X16318515Y-6686072D01*
X28287501Y-25470008D02*
X34532291Y-31714798D01*
X9757269Y-4014656D02*
X12428685Y-6686072D01*
X26420895Y-15020535D02*
X26420895Y-21386147D01*
X25604204Y-14203844D02*
X26420895Y-15020535D01*
X7460059Y-4206459D02*
X7651862Y-4014656D01*
X42252609Y-44023603D02*
X40397080Y-42168074D01*
D17*
X23735910Y-8930775D02*
X24985910Y-8930775D01*
D16*
X25484709Y-9365275D02*
X25604204Y-9692224D01*
X19153903Y-7576544D02*
X19765564Y-8188206D01*
X7460059Y-5910920D02*
X7460059Y-4206459D01*
X25002129Y-8882695D02*
X25484709Y-9365275D01*
X34532291Y-31714798D02*
X34603022Y-31714798D01*
X7651862Y-4014656D02*
X9757269Y-4014656D01*
X8833405Y-7284266D02*
X7460059Y-5910920D01*
D17*
X23685910Y-9930775D02*
X23685910Y-8930775D01*
D16*
X36977823Y-34089599D02*
X34603022Y-31714798D01*
X19765564Y-8188206D02*
X21085910Y-8188206D01*
X28287501Y-23252753D02*
X28287501Y-25470008D01*
X25604204Y-9692224D02*
X25604204Y-14203844D01*
X36977823Y-37307410D02*
X36977823Y-34089599D01*
X40397080Y-40726667D02*
X36977823Y-37307410D01*
X43601913Y-55683912D02*
X42252609Y-54334608D01*
X17208987Y-7576544D02*
X19153903Y-7576544D01*
%TO.N,I2C_SCL*%
X16298487Y-52329480D02*
X16298487Y-52046697D01*
X34500149Y-35769380D02*
X34500149Y-36117846D01*
D17*
X18100000Y-53100000D02*
X17050000Y-53100000D01*
X18600000Y-53000000D02*
X18100000Y-53100000D01*
D16*
X32843526Y-34112756D02*
X34500149Y-35769380D01*
X12495122Y-47993087D02*
X11632001Y-47129967D01*
X9390774Y-47129967D02*
X8907517Y-46646710D01*
X13546457Y-47993087D02*
X12495122Y-47993087D01*
X17030870Y-53061863D02*
X16298487Y-52329480D01*
D17*
X18900000Y-52050000D02*
X18600000Y-53000000D01*
D16*
X11632001Y-47129967D02*
X9390774Y-47129967D01*
%TO.N,I2C_SDA*%
X1407329Y-9176321D02*
X1407329Y-15799155D01*
X1407329Y-15799155D02*
X3915719Y-18307545D01*
X7958962Y-50473093D02*
X8698771Y-51212902D01*
X13879584Y-52818997D02*
X12566695Y-52818997D01*
X7958962Y-49308570D02*
X7958962Y-50473093D01*
X4207864Y-4784407D02*
X4207864Y-6375786D01*
X4207864Y-6375786D02*
X1407329Y-9176321D01*
X8698771Y-51212902D02*
X8698771Y-53033065D01*
X14362820Y-52335761D02*
X13879584Y-52818997D01*
X8698771Y-53033065D02*
X8451997Y-53279839D01*
%TO.N,I2C_SDA_1V8*%
X17971849Y-57495933D02*
X17971849Y-58081956D01*
X18083279Y-55125265D02*
X18083279Y-57384503D01*
X18360625Y-58706177D02*
X18162091Y-58904711D01*
X17410336Y-56652610D02*
X15483630Y-54725904D01*
X14821750Y-54725904D02*
X13699253Y-53603406D01*
X18360625Y-58365745D02*
X18360625Y-58706177D01*
X18083279Y-57384503D02*
X19359926Y-57384503D01*
X17971849Y-58081956D02*
X18360625Y-58365745D01*
X15483630Y-54725904D02*
X14821750Y-54725904D01*
X19359926Y-57384503D02*
X19636226Y-57660803D01*
X17410336Y-58484475D02*
X17410336Y-56652610D01*
X18083279Y-57384503D02*
X17971849Y-57495933D01*
X18162091Y-58904711D02*
X17830571Y-58904711D01*
X17830571Y-58904711D02*
X17410336Y-58484475D01*
X19490774Y-53717769D02*
X18083279Y-55125265D01*
%TO.N,NIR730_GATE*%
X42889546Y-31113839D02*
X45147899Y-33372192D01*
X45147899Y-33372192D02*
X45147899Y-34594072D01*
X40868289Y-9275113D02*
X41834310Y-10241133D01*
X41834310Y-20821923D02*
X42889546Y-21877159D01*
X41834310Y-10241133D02*
X41834310Y-20821923D01*
X42889546Y-21877159D02*
X42889546Y-31113839D01*
%TO.N,SPI_MISO*%
X15532730Y-878597D02*
X16831023Y-2176890D01*
X29356183Y-1758943D02*
X29073222Y-1758943D01*
X31699177Y-2101049D02*
X29698288Y-2101049D01*
X43121707Y-2623018D02*
X39679724Y818965D01*
X43121707Y-6006751D02*
X43121707Y-2623018D01*
X29698288Y-2101049D02*
X29356183Y-1758943D01*
X16831023Y-2176890D02*
X28655276Y-2176890D01*
X44443212Y-7328256D02*
X43121707Y-6006751D01*
X28655276Y-2176890D02*
X29073222Y-1758943D01*
X39679724Y818965D02*
X34619191Y818965D01*
X44443212Y-10717052D02*
X44443212Y-7328256D01*
X34619191Y818965D02*
X31699177Y-2101049D01*
%TO.N,CHG_STAT*%
X18383622Y-40406262D02*
X18889804Y-39900079D01*
X16013440Y-42412510D02*
X18019688Y-40406262D01*
X22096849Y-35552294D02*
X22096849Y-34089902D01*
X18889804Y-38759339D02*
X22096849Y-35552294D01*
X18019688Y-40406262D02*
X18383622Y-40406262D01*
X16013440Y-44496855D02*
X16013440Y-42412510D01*
X18889804Y-39900079D02*
X18889804Y-38759339D01*
%TO.N,CHG_PG*%
X28898424Y-17502295D02*
X30764001Y-19367873D01*
X20946256Y-4441567D02*
X21319006Y-4814318D01*
X18864290Y-4441567D02*
X20946256Y-4441567D01*
X30764001Y-19367873D02*
X30764001Y-21142521D01*
X28898424Y-11116337D02*
X28898424Y-17502295D01*
X26290423Y-6152188D02*
X26807242Y-6669007D01*
X12380739Y-3640199D02*
X12516121Y-3775581D01*
X30764001Y-21142521D02*
X30508554Y-21397968D01*
X18198305Y-3775581D02*
X18864290Y-4441567D01*
X24952553Y-4814318D02*
X26290423Y-6152188D01*
X26807242Y-6669007D02*
X26807242Y-9025155D01*
X21319006Y-4814318D02*
X24952553Y-4814318D01*
X26807242Y-9025155D02*
X28898424Y-11116337D01*
X12516121Y-3775581D02*
X18198305Y-3775581D01*
%TO.N,MISO_ADS*%
X40476528Y-549378D02*
X40476528Y-1142469D01*
X37774769Y-1497785D02*
X36848448Y-2424107D01*
X36848448Y-2424107D02*
X34607933Y-2424107D01*
X40121212Y-1497785D02*
X37774769Y-1497785D01*
X40476528Y-1142469D02*
X40121212Y-1497785D01*
%TO.N,MAX86178_INT*%
X27019273Y-8688876D02*
X29574969Y-11244572D01*
X27019273Y-6381264D02*
X27019273Y-8688876D01*
X29574969Y-11244572D02*
X29574969Y-15012847D01*
X18452382Y-3492482D02*
X21295343Y-3492482D01*
X29574969Y-15012847D02*
X30924402Y-16362280D01*
X31793482Y-19955299D02*
X31793482Y-21559519D01*
X30924402Y-19086218D02*
X31793482Y-19955299D01*
X25227750Y-4589741D02*
X27019273Y-6381264D01*
X22392602Y-4589741D02*
X25227750Y-4589741D01*
X21295343Y-3492482D02*
X22392602Y-4589741D01*
X30924402Y-16362280D02*
X30924402Y-19086218D01*
%TO.N,ESP_TX*%
X23670925Y-10998214D02*
X23367297Y-10998214D01*
X18369761Y-10998214D02*
X23367297Y-10998214D01*
X24948888Y-9720250D02*
X23670925Y-10998214D01*
X15240092Y-7868544D02*
X18369761Y-10998214D01*
%TO.N,ESP_RX*%
X22477917Y-25407471D02*
X20425943Y-23355496D01*
X12984327Y-59051911D02*
X13070572Y-58965666D01*
X21645772Y-36889205D02*
X22321253Y-36213724D01*
X20425943Y-19154644D02*
X18328643Y-17057344D01*
X22477917Y-34178790D02*
X22477917Y-25407471D01*
X21645772Y-36889205D02*
X21645772Y-38900000D01*
X20425943Y-23355496D02*
X20425943Y-19154644D01*
X22321253Y-36213724D02*
X22321253Y-34595476D01*
D17*
X21150000Y-38900000D02*
X21600000Y-38900000D01*
D16*
X22321253Y-34595476D02*
X22477917Y-34178790D01*
X18328643Y-12016321D02*
X16930444Y-10618121D01*
X18328643Y-17057344D02*
X18328643Y-12016321D01*
%TO.N,ESP_IO0*%
X8011773Y-40144891D02*
X8232223Y-40365341D01*
X11089289Y-45550214D02*
X12577681Y-45550214D01*
X17706539Y-58259667D02*
X17706539Y-54287308D01*
X17970985Y-58524113D02*
X17706539Y-58259667D01*
X3603379Y-34615627D02*
X5283217Y-36295464D01*
X14997592Y-46155671D02*
X15426724Y-46584803D01*
X17706539Y-54287308D02*
X15651611Y-52232380D01*
X6830561Y-40144891D02*
X8011773Y-40144891D01*
X15651611Y-52232380D02*
X15651611Y-48006104D01*
X15651611Y-48006104D02*
X15426724Y-47781217D01*
X5283217Y-36295464D02*
X5283217Y-38597547D01*
X12577681Y-45550214D02*
X14808684Y-47781217D01*
X8232223Y-40365341D02*
X8232223Y-42114634D01*
X9802029Y-43684440D02*
X9802029Y-44262954D01*
X15426724Y-46584803D02*
X15426724Y-47781217D01*
X14808684Y-47781217D02*
X15426724Y-47781217D01*
X9802029Y-44262954D02*
X11089289Y-45550214D01*
X5283217Y-38597547D02*
X6830561Y-40144891D01*
X8232223Y-42114634D02*
X9802029Y-43684440D01*
%TO.N,ECG_P*%
X14387384Y-11095076D02*
X14783262Y-11490954D01*
X18023528Y-18481287D02*
X17328088Y-17785848D01*
X17328088Y-14335203D02*
X15937210Y-12944324D01*
X14783262Y-11790376D02*
X15937210Y-12944324D01*
X16021079Y-11842100D02*
X16021079Y-12860455D01*
X15601198Y-11422219D02*
X16021079Y-11842100D01*
X16021079Y-12860455D02*
X15937210Y-12944324D01*
X14387384Y-7512818D02*
X14387384Y-11095076D01*
X17328088Y-17785848D02*
X17328088Y-14335203D01*
X14783262Y-11490954D02*
X14783262Y-11790376D01*
X18023528Y-20206609D02*
X18023528Y-18481287D01*
%TO.N,CS_ADS1292*%
X-315255Y-15512581D02*
X1095024Y-14102301D01*
X39449729Y-412092D02*
X39449729Y-501493D01*
X23719636Y-2437274D02*
X23170559Y-2986351D01*
X23170559Y-2986351D02*
X13998621Y-2986351D01*
X13488505Y-3509344D02*
X13998621Y-2999228D01*
X1095024Y-9055596D02*
X3678828Y-6471793D01*
X5775034Y-2697074D02*
X13738550Y-2697074D01*
X13998621Y-2957146D02*
X13998621Y-2986351D01*
X3678828Y-6471793D02*
X3678828Y-4793281D01*
X-315255Y-20598444D02*
X-315255Y-15512581D01*
X418531Y-24263341D02*
X418531Y-21332230D01*
X3678828Y-4793281D02*
X5775034Y-2697074D01*
X37032570Y260020D02*
X35695759Y-1076791D01*
X33226940Y-1076791D02*
X31866457Y-2437274D01*
X13126958Y-3509344D02*
X13488505Y-3509344D01*
X12813888Y-3196275D02*
X13126958Y-3509344D01*
X38777617Y260020D02*
X39449729Y-412092D01*
X7062489Y-32850314D02*
X7062489Y-30907300D01*
X418531Y-21332230D02*
X-315255Y-20598444D01*
X13998621Y-2999228D02*
X13998621Y-2986351D01*
X35695759Y-1076791D02*
X33226940Y-1076791D01*
X7062489Y-30907300D02*
X418531Y-24263341D01*
X1095024Y-14102301D02*
X1095024Y-9055596D01*
X37032570Y260020D02*
X38777617Y260020D01*
X31866457Y-2437274D02*
X23719636Y-2437274D01*
X13738550Y-2697074D02*
X13998621Y-2957146D01*
%TO.N,EDA_CE_PAD*%
X2729141Y-28603345D02*
X2729141Y-38230237D01*
X8342994Y-48004627D02*
X8342994Y-49850490D01*
X4181609Y-43318539D02*
X6073308Y-45210238D01*
X4181609Y-39682705D02*
X4181609Y-43318539D01*
X8342994Y-49850490D02*
X9429694Y-50937190D01*
X10269159Y-54459373D02*
X10269159Y-58517603D01*
X9429694Y-53619908D02*
X10269159Y-54459373D01*
X9429694Y-50937190D02*
X9429694Y-53619908D01*
X6073308Y-45210238D02*
X6073308Y-45734941D01*
X2729141Y-38230237D02*
X4181609Y-39682705D01*
X3137483Y-28195003D02*
X2729141Y-28603345D01*
X6073308Y-45734941D02*
X8342994Y-48004627D01*
%TO.N,CHG_DIS*%
X15238994Y-37004690D02*
X15238994Y-36619394D01*
X15649067Y-37241180D02*
X15475484Y-37241180D01*
X14775774Y-44460098D02*
X14775774Y-41203458D01*
X16030354Y-38905906D02*
X15495316Y-38370868D01*
X15807573Y-37399686D02*
X15649067Y-37241180D01*
X15495316Y-38092557D02*
X15807573Y-37780300D01*
X15807573Y-37780300D02*
X15807573Y-37399686D01*
X17967941Y-33890447D02*
X17967941Y-25611991D01*
X20236261Y-12511200D02*
X21588061Y-13863000D01*
X16030354Y-39948878D02*
X16030354Y-38905906D01*
X15495316Y-38370868D02*
X15495316Y-38092557D01*
X15323226Y-45007550D02*
X14775774Y-44460098D01*
X15475484Y-37241180D02*
X15238994Y-37004690D01*
X21588061Y-13863000D02*
X21588061Y-15530678D01*
X17967941Y-25611991D02*
X16391764Y-24035814D01*
X15238994Y-36619394D02*
X17967941Y-33890447D01*
X14775774Y-41203458D02*
X16030354Y-39948878D01*
%TO.N,SWEAT_CE*%
X43466522Y-40006346D02*
X44284487Y-40824310D01*
X42336208Y-32278676D02*
X43466522Y-33408990D01*
X44284487Y-47557474D02*
X44835432Y-48108419D01*
X44835432Y-48108419D02*
X44835432Y-55377131D01*
X25832644Y-39839788D02*
X27029770Y-41036915D01*
X21401272Y-33066932D02*
X19803990Y-33066932D01*
X44284487Y-40824310D02*
X44284487Y-47557474D01*
X44835432Y-55377131D02*
X43625099Y-56587464D01*
X43466522Y-33408990D02*
X43466522Y-40006346D01*
X19803990Y-33066932D02*
X18443891Y-31706832D01*
X41148042Y-20844497D02*
X42336208Y-22032662D01*
X41148042Y-12352923D02*
X41148042Y-20844497D01*
D17*
X43435910Y-40030775D02*
X43185910Y-40030775D01*
D16*
X18443891Y-31706832D02*
X18443891Y-30598875D01*
X42336208Y-22032662D02*
X42336208Y-32278676D01*
X43625099Y-56587464D02*
X33326340Y-56587464D01*
%TO.N,SWEAT_RE*%
X41869457Y-21930052D02*
X42103422Y-22164017D01*
X42103422Y-22164017D02*
X42103422Y-22484619D01*
X39984657Y-21930052D02*
X41869457Y-21930052D01*
X40195466Y-14889922D02*
X39716800Y-15368588D01*
X33112821Y-25995733D02*
X32073931Y-27034623D01*
X38592308Y-25995733D02*
X33112821Y-25995733D01*
X40195466Y-13719676D02*
X40195466Y-14889922D01*
X39716800Y-21662195D02*
X39984657Y-21930052D01*
X42103422Y-22484619D02*
X38592308Y-25995733D01*
X39716800Y-15368588D02*
X39716800Y-21662195D01*
%TO.N,BIOZ_SN*%
X38236756Y-15476951D02*
X38236756Y-14349345D01*
X35764210Y-17949497D02*
X38236756Y-15476951D01*
X38236756Y-14349345D02*
X39374114Y-13211987D01*
X34286680Y-17949497D02*
X35764210Y-17949497D01*
%TO.N,SE0*%
X33895291Y-18413925D02*
X33895291Y-17397972D01*
X36160431Y-15132832D02*
X36160431Y-13420008D01*
X33895291Y-17397972D02*
X36160431Y-15132832D01*
%TO.N,RCAL1*%
X39610577Y-13698266D02*
X39758661Y-13244274D01*
X39092284Y-14216559D02*
X39610577Y-13698266D01*
X38539385Y-17174769D02*
X39092284Y-16621870D01*
X39092284Y-16621870D02*
X39092284Y-14216559D01*
X39758661Y-13244274D02*
X39758661Y-11862925D01*
X39758661Y-11862925D02*
X39584187Y-11688452D01*
%TO.N,BIOZ_FP*%
D17*
X37635910Y-15530775D02*
X35785910Y-16030775D01*
X38135910Y-11980775D02*
X37885910Y-14580775D01*
X37885910Y-14580775D02*
X37635910Y-15530775D01*
%TO.N,BIOZ_SP*%
X37685910Y-14380775D02*
X37335910Y-15230775D01*
X37435910Y-11980775D02*
X37535910Y-13030775D01*
X37535910Y-13030775D02*
X37685910Y-14380775D01*
%TO.N,RC0_1*%
D16*
X33269804Y-15124452D02*
X35830735Y-12563521D01*
X35240117Y-11219328D02*
X34839216Y-11620229D01*
X35634907Y-11219328D02*
X35240117Y-11219328D01*
X35830735Y-12563521D02*
X35830735Y-11415156D01*
X35830735Y-11415156D02*
X35634907Y-11219328D01*
X33269804Y-17375610D02*
X33269804Y-15124452D01*
%TO.N,RCAL0*%
X40019203Y-13333033D02*
X39878520Y-13549392D01*
X39911918Y-11184025D02*
X40019203Y-11291310D01*
X38422898Y-17899884D02*
X38258299Y-17899884D01*
X39767074Y-13904217D02*
X39496697Y-14174594D01*
X39496697Y-16826085D02*
X38422898Y-17899884D01*
X39496697Y-14174594D02*
X39496697Y-16826085D01*
X40019203Y-11291310D02*
X40019203Y-13333033D01*
X39878520Y-13549392D02*
X39767074Y-13904217D01*
%TO.N,SWEAT_WE*%
D17*
X29500000Y-33800000D02*
X29450000Y-33850000D01*
X34900000Y-33300000D02*
X34800000Y-33300000D01*
X29450000Y-35150000D02*
X30150000Y-35850000D01*
X29650000Y-33700000D02*
X29600000Y-33700000D01*
X31850000Y-33600000D02*
X31800000Y-33650000D01*
X35750000Y-33350000D02*
X34950000Y-33350000D01*
X34800000Y-33300000D02*
X34750000Y-33250000D01*
X32800000Y-33200000D02*
X32750000Y-33250000D01*
X32750000Y-33250000D02*
X32700000Y-33250000D01*
X34750000Y-33250000D02*
X33150000Y-33250000D01*
X30150000Y-38850000D02*
X29650000Y-39350000D01*
D16*
X30078900Y-41490877D02*
X29944665Y-41356642D01*
D17*
X33100000Y-33200000D02*
X32800000Y-33200000D01*
X32700000Y-33250000D02*
X32450000Y-33500000D01*
X32450000Y-33500000D02*
X32000000Y-33500000D01*
X29550000Y-33750000D02*
X29500000Y-33750000D01*
X33150000Y-33250000D02*
X33100000Y-33200000D01*
X29700000Y-33650000D02*
X29650000Y-33700000D01*
X36750000Y-29450000D02*
X36100000Y-30100000D01*
X36100000Y-30100000D02*
X36100000Y-30400000D01*
X29500000Y-33750000D02*
X29500000Y-33800000D01*
X31800000Y-33650000D02*
X29700000Y-33650000D01*
X32000000Y-33500000D02*
X31900000Y-33600000D01*
X34950000Y-33350000D02*
X34900000Y-33300000D01*
X31900000Y-33600000D02*
X31850000Y-33600000D01*
X29650000Y-39350000D02*
X29650000Y-39450000D01*
X29450000Y-33850000D02*
X29450000Y-35150000D01*
X36100000Y-30400000D02*
X35750000Y-30750000D01*
X30150000Y-35850000D02*
X30150000Y-38850000D01*
D16*
X34217279Y-44778345D02*
X30929811Y-41490877D01*
D17*
X29600000Y-33700000D02*
X29550000Y-33750000D01*
D16*
X34217279Y-46246830D02*
X34217279Y-44778345D01*
X30929811Y-41490877D02*
X30078900Y-41490877D01*
D17*
X35750000Y-30750000D02*
X35750000Y-32400000D01*
%TO.N,RC0_0*%
D16*
X32435502Y-17401455D02*
X32435502Y-15601284D01*
X32435502Y-15601284D02*
X35475462Y-12561323D01*
X35475462Y-12561323D02*
X35475462Y-11661237D01*
%TO.N,SPI_MOSI*%
X24914875Y-22893904D02*
X24914875Y-29843951D01*
X25187267Y-9378486D02*
X25374098Y-9716185D01*
X24609837Y-32293823D02*
X28090700Y-35774686D01*
X24876210Y-22855239D02*
X24914875Y-22893904D01*
X24569857Y-13973193D02*
X24569857Y-22279594D01*
D17*
X25785910Y-46880775D02*
X26535910Y-46580775D01*
D16*
X25374098Y-9716185D02*
X25374098Y-13168952D01*
X25140158Y-9331377D02*
X25187267Y-9378486D01*
X28090700Y-35774686D02*
X28090700Y-38021265D01*
X24729044Y-22438781D02*
X24876210Y-22855239D01*
X24609837Y-30148989D02*
X24609837Y-32293823D01*
X24569857Y-22279594D02*
X24729044Y-22438781D01*
X24264575Y-9331377D02*
X25140158Y-9331377D01*
X24213768Y-9382184D02*
X24264575Y-9331377D01*
X28090700Y-38021265D02*
X29004169Y-38934733D01*
D17*
X26535910Y-46580775D02*
X30885910Y-46480775D01*
D16*
X24914875Y-29843951D02*
X24609837Y-30148989D01*
X25374098Y-13168952D02*
X24569857Y-13973193D01*
%TO.N,MISO_AD*%
D17*
X34835910Y-10230775D02*
X35935910Y-9530775D01*
X34635910Y-10380775D02*
X34835910Y-10230775D01*
%TO.N,AD5940_RESET*%
D16*
X43989867Y-10342373D02*
X43989867Y-10879304D01*
X43493634Y-9846140D02*
X43989867Y-10342373D01*
X40815470Y-8666204D02*
X41995406Y-9846140D01*
X41995406Y-9846140D02*
X43493634Y-9846140D01*
X46091633Y-12981070D02*
X46157756Y-12981070D01*
X43989867Y-10879304D02*
X46091633Y-12981070D01*
%TO.N,SPI_SCK*%
X33566176Y-13817981D02*
X33566176Y-10753780D01*
X33566176Y-10753780D02*
X33884895Y-10435061D01*
X33884895Y-10435061D02*
X33884895Y-2503563D01*
X37131934Y-1593451D02*
X37629793Y-1095592D01*
X34289243Y-10839409D02*
X33884895Y-10435061D01*
X37629793Y-1095592D02*
X39966720Y-1095592D01*
X31390842Y-15993315D02*
X33566176Y-13817981D01*
X34795007Y-1593451D02*
X37131934Y-1593451D01*
D17*
X26585910Y-46880775D02*
X29535910Y-46880775D01*
D16*
X33884895Y-2503563D02*
X34795007Y-1593451D01*
X34706933Y-10839409D02*
X34289243Y-10839409D01*
X34942521Y-10603821D02*
X34706933Y-10839409D01*
X31390842Y-17886778D02*
X31390842Y-15993315D01*
%TO.N,RLDREF*%
X44463030Y2080241D02*
X45694336Y848934D01*
X44463030Y3667196D02*
X44463030Y2080241D01*
X45694336Y848934D02*
X45694336Y-738021D01*
%TO.N,USB_CC2*%
X24425586Y2689948D02*
X30713796Y2689948D01*
X30713796Y2689948D02*
X31662923Y3639076D01*
%TO.N,GAUGE_ALRT*%
X30425522Y-22821842D02*
X30134231Y-22530552D01*
X28680355Y-21515070D02*
X28339329Y-21515070D01*
X24920812Y-7756611D02*
X22108498Y-7756611D01*
X17873408Y-4191407D02*
X10638153Y-4191407D01*
X30134231Y-22530552D02*
X30134231Y-21840488D01*
X26710503Y-9727986D02*
X26236653Y-9254136D01*
X26236653Y-9254136D02*
X26236653Y-9072453D01*
X41708766Y-22325211D02*
X36315459Y-22325211D01*
X36315459Y-22325211D02*
X35818828Y-22821842D01*
X18766831Y-5084830D02*
X17873408Y-4191407D01*
X27513731Y-20689473D02*
X27513731Y-13291415D01*
X26236653Y-9072453D02*
X24920812Y-7756611D01*
X22108498Y-7756611D02*
X19436717Y-5084830D01*
X10638153Y-4191407D02*
X10188233Y-3741486D01*
X28339329Y-21515070D02*
X27513731Y-20689473D01*
X28742719Y-21590256D02*
X28921026Y-21411948D01*
X28948085Y-21247340D02*
X28680355Y-21515070D01*
X29147326Y-20936201D02*
X28948085Y-21135441D01*
X26710503Y-11798137D02*
X26710503Y-9727986D01*
X27095404Y-12873088D02*
X27095404Y-12183038D01*
X27095404Y-12183038D02*
X26710503Y-11798137D01*
X27513731Y-13291415D02*
X27095404Y-12873088D01*
X29229944Y-20936201D02*
X29147326Y-20936201D01*
X28948085Y-21135441D02*
X28948085Y-21247340D01*
X30134231Y-21840488D02*
X29229944Y-20936201D01*
X19436717Y-5084830D02*
X18766831Y-5084830D01*
X28742719Y-21920014D02*
X28742719Y-21590256D01*
X28921026Y-21411948D02*
X29147326Y-20936201D01*
X10188233Y-3741486D02*
X7112990Y-3741486D01*
X35818828Y-22821842D02*
X30425522Y-22821842D01*
%TO.N,CP_VBUS*%
X15358785Y-20894534D02*
X14659779Y-20195529D01*
X17308102Y-20894534D02*
X15358785Y-20894534D01*
X25886758Y-19880049D02*
X25886758Y-20573584D01*
X25110720Y-19104012D02*
X25886758Y-19880049D01*
%TO.N,CP_RST*%
X11334521Y-20059832D02*
X10919854Y-20474499D01*
X10919854Y-20474499D02*
X1265886Y-20474499D01*
X1265886Y-20474499D02*
X265148Y-19473762D01*
%TO.N,CP_RTS*%
X12841779Y-13411910D02*
X10844624Y-11414756D01*
X13933166Y-13411910D02*
X12841779Y-13411910D01*
X10844624Y-11414756D02*
X10844624Y-9984736D01*
%TO.N,CP_RX*%
D17*
X14150000Y-7200000D02*
X14200000Y-7150000D01*
X14000000Y-7350000D02*
X14050000Y-7300000D01*
X17050000Y-7800000D02*
X19000000Y-7800000D01*
X14050000Y-7300000D02*
X14050000Y-7250000D01*
X14100000Y-7200000D02*
X14150000Y-7200000D01*
X13500000Y-8150000D02*
X14000000Y-7650000D01*
X20400000Y-9150000D02*
X22800000Y-9150000D01*
X13450000Y-9350000D02*
X13450000Y-8250000D01*
X14050000Y-7250000D02*
X14100000Y-7200000D01*
X22800000Y-9150000D02*
X22850000Y-9200000D01*
X14000000Y-7650000D02*
X14000000Y-7350000D01*
X19000000Y-7800000D02*
X20300000Y-9100000D01*
X14200000Y-7150000D02*
X16400000Y-7150000D01*
X16400000Y-7150000D02*
X17050000Y-7800000D01*
X20300000Y-9100000D02*
X20350000Y-9100000D01*
X20350000Y-9100000D02*
X20400000Y-9150000D01*
X12400000Y-13450000D02*
X11400000Y-12450000D01*
X13450000Y-8250000D02*
X13500000Y-8200000D01*
X13500000Y-8200000D02*
X13500000Y-8150000D01*
X12400000Y-13900000D02*
X12400000Y-13450000D01*
%TO.N,CP_TX*%
X11900000Y-13450000D02*
X11100000Y-12650000D01*
X11150000Y-9750000D02*
X11200000Y-9750000D01*
X10650000Y-11600000D02*
X10650000Y-11550000D01*
X11100000Y-12650000D02*
X11100000Y-12600000D01*
X10500000Y-9800000D02*
X10500000Y-9750000D01*
X11700000Y-10300000D02*
X11700000Y-10400000D01*
X11200000Y-9750000D02*
X11200000Y-9800000D01*
X10600000Y-9650000D02*
X10650000Y-9650000D01*
X10450000Y-9850000D02*
X10500000Y-9800000D01*
X11100000Y-9700000D02*
X11150000Y-9700000D01*
X11150000Y-9700000D02*
X11150000Y-9750000D01*
X10500000Y-9750000D02*
X10600000Y-9650000D01*
X11000000Y-9600000D02*
X11050000Y-9650000D01*
X10450000Y-10100000D02*
X10450000Y-9850000D01*
X10500000Y-10150000D02*
X10450000Y-10100000D01*
X10500000Y-10200000D02*
X10500000Y-10150000D01*
X11100000Y-9650000D02*
X11100000Y-9700000D01*
X10650000Y-9650000D02*
X10700000Y-9600000D01*
X10650000Y-11550000D02*
X10600000Y-11500000D01*
X11900000Y-13900000D02*
X11900000Y-13450000D01*
X10700000Y-9600000D02*
X11000000Y-9600000D01*
X11200000Y-9800000D02*
X11700000Y-10300000D01*
X11050000Y-12000000D02*
X10650000Y-11600000D01*
X11050000Y-9650000D02*
X11100000Y-9650000D01*
X11100000Y-12600000D02*
X11050000Y-12550000D01*
X11050000Y-12550000D02*
X11050000Y-12000000D01*
X10600000Y-11500000D02*
X10600000Y-10300000D01*
X10600000Y-10300000D02*
X10500000Y-10200000D01*
%TO.N,TX_5V*%
X28500000Y-55350000D02*
X23550000Y-55350000D01*
X31300000Y-51800000D02*
X31400000Y-51900000D01*
X30500000Y-49100000D02*
X31300000Y-51800000D01*
X29600000Y-56000000D02*
X28500000Y-55350000D01*
X29800000Y-48550000D02*
X30500000Y-49100000D01*
X27500000Y-47250000D02*
X29800000Y-48550000D01*
%TO.N,RTC_INT*%
D16*
X3223816Y-22963248D02*
X3223816Y-26146811D01*
X10766313Y-33689308D02*
X10766313Y-34356966D01*
X8759654Y-41469742D02*
X11893785Y-44603873D01*
X1226916Y-16156619D02*
X-100506Y-17484041D01*
X7549625Y-39380712D02*
X8759654Y-40590741D01*
X7161363Y-39380712D02*
X7549625Y-39380712D01*
X5991903Y-38211251D02*
X7161363Y-39380712D01*
X-100506Y-17484041D02*
X-100506Y-19638925D01*
X8759654Y-40590741D02*
X8759654Y-41469742D01*
X13910691Y-35284843D02*
X14254939Y-34940596D01*
X10766313Y-34356966D02*
X9414660Y-34356966D01*
X3223816Y-26146811D02*
X10766313Y-33689308D01*
X11694190Y-35284843D02*
X13910691Y-35284843D01*
X10766313Y-34356966D02*
X11694190Y-35284843D01*
X5991903Y-37779723D02*
X5991903Y-38211251D01*
X-100506Y-19638925D02*
X3223816Y-22963248D01*
X9414660Y-34356966D02*
X5991903Y-37779723D01*
%TO.N,PGA1N*%
X42297615Y4036663D02*
X42516426Y4255473D01*
X38407780Y4036663D02*
X42297615Y4036663D01*
%TO.N,PGA1P*%
X41633617Y4910522D02*
X38488473Y4910522D01*
X38488473Y4910522D02*
X37869062Y4291111D01*
%TO.N,IN1N*%
X45161908Y-6428690D02*
X45161908Y-11511511D01*
X44610136Y-794096D02*
X44610136Y-5876918D01*
X43782479Y3845678D02*
X43782479Y33562D01*
X43782479Y33562D02*
X44610136Y-794096D01*
X44610136Y-5876918D02*
X45161908Y-6428690D01*
X43506593Y4121564D02*
X43782479Y3845678D01*
X43506593Y5392269D02*
X43506593Y4121564D01*
%TO.N,IN1P*%
X24361097Y1338547D02*
X29921112Y1338547D01*
X45297645Y-260614D02*
X45297645Y-1753195D01*
X45297645Y-1753195D02*
X46099606Y-2555156D01*
X44347058Y4342032D02*
X44057114Y4052088D01*
X43265688Y5765564D02*
X34348129Y5765564D01*
X43650139Y6150014D02*
X43265688Y5765564D01*
X43748698Y6150014D02*
X44347058Y5551654D01*
X44347058Y5551654D02*
X44347058Y4342032D01*
X44057114Y4052088D02*
X44057114Y979917D01*
X29921112Y1338547D02*
X34348129Y5765564D01*
X44057114Y979917D02*
X45297645Y-260614D01*
X43650139Y6150014D02*
X43748698Y6150014D01*
X22427945Y-594605D02*
X24361097Y1338547D01*
%TO.N,ADS1292_PWDN*%
X37706443Y1458833D02*
X32851252Y1458833D01*
X32851252Y1458833D02*
X29949906Y-1442513D01*
%TO.N,RESP_MODN*%
X44348173Y6740943D02*
X46900162Y4188955D01*
X46900162Y4188955D02*
X47024829Y4188955D01*
%TO.N,TX_SW*%
X39776928Y-33820520D02*
X39776928Y-37744907D01*
X40141603Y-38109582D02*
X40141603Y-39031154D01*
X39776928Y-37744907D02*
X40141603Y-38109582D01*
X40246569Y-33350879D02*
X39776928Y-33820520D01*
%TO.N,RE_SURGE*%
X13996138Y-23223350D02*
X13876281Y-23103493D01*
X16471035Y-31902549D02*
X16471035Y-24953346D01*
X13876281Y-23103493D02*
X13876281Y-20545388D01*
X16471035Y-24953346D02*
X15953371Y-24435682D01*
%TO.N,AFE_P_AC*%
X33049427Y-31824686D02*
X32477280Y-32396833D01*
X33396661Y-31824686D02*
X33049427Y-31824686D01*
X34254433Y-32682459D02*
X33396661Y-31824686D01*
%TO.N,AFE4900_ADC_RDY*%
X16657029Y-6229067D02*
X19689550Y-6229067D01*
X26746777Y-14344258D02*
X26746777Y-20860922D01*
X26746777Y-20860922D02*
X28664546Y-22778691D01*
X22105523Y-8645040D02*
X25138044Y-8645040D01*
X25891619Y-12336659D02*
X26619290Y-13064330D01*
X25138044Y-8645040D02*
X25440041Y-8947036D01*
X25891619Y-9503401D02*
X25891619Y-12336659D01*
X25440041Y-8947036D02*
X25787666Y-9399448D01*
X28664546Y-22778691D02*
X28899765Y-22778691D01*
X19689550Y-6229067D02*
X22105523Y-8645040D01*
X15751040Y-5323077D02*
X16657029Y-6229067D01*
X26619290Y-14216771D02*
X26746777Y-14344258D01*
X25787666Y-9399448D02*
X25891619Y-9503401D01*
X26619290Y-13064330D02*
X26619290Y-14216771D01*
%TO.N,IR_GATE*%
X-293340Y-53078151D02*
X-293340Y-55204502D01*
X-461556Y-52909935D02*
X-293340Y-53078151D01*
%TO.N,IR_K*%
X9214037Y-46029642D02*
X8136513Y-46029642D01*
X12007699Y-46925285D02*
X10109680Y-46925285D01*
X10109680Y-46925285D02*
X9214037Y-46029642D01*
X12570512Y-47488098D02*
X12007699Y-46925285D01*
%TO.N,IN1N_AC*%
X40442541Y-12735528D02*
X40645497Y-12938484D01*
X40602371Y-5228121D02*
X40602371Y-7011608D01*
X39951894Y-21345308D02*
X40097227Y-21490642D01*
X40239586Y-8266137D02*
X40442541Y-8469093D01*
X40602371Y-7011608D02*
X40239586Y-7374394D01*
X40239586Y-7374394D02*
X40239586Y-8266137D01*
X40645497Y-14871219D02*
X39951894Y-15564822D01*
X40645497Y-12938484D02*
X40645497Y-14871219D01*
X40442541Y-8469093D02*
X40442541Y-12735528D01*
X39951894Y-15564822D02*
X39951894Y-21345308D01*
%TO.N,RLD_CLAMP*%
X29708059Y-23114611D02*
X29194281Y-23628389D01*
X40540757Y-22901994D02*
X40328140Y-23114611D01*
X40328140Y-23114611D02*
X29708059Y-23114611D01*
%TO.N,EXP_INT*%
X2932791Y-27805157D02*
X3391821Y-27805157D01*
X-1214197Y-16044185D02*
X-1214197Y-33055272D01*
X15653545Y-44701453D02*
X15653545Y-42446078D01*
X-414710Y-33854758D02*
X-136756Y-33854758D01*
X3391821Y-27805157D02*
X6668685Y-31082021D01*
X17392839Y-40706784D02*
X17392839Y-39526959D01*
X-136756Y-33854758D02*
X1413853Y-32304150D01*
X16115284Y-38249404D02*
X15880541Y-38249404D01*
X7211327Y-33626883D02*
X10162031Y-33626883D01*
X15972820Y-45020728D02*
X15653545Y-44701453D01*
X17392839Y-39526959D02*
X16115284Y-38249404D01*
X15653545Y-42446078D02*
X17392839Y-40706784D01*
X17058052Y-45020728D02*
X15972820Y-45020728D01*
X-1214197Y-33055272D02*
X-414710Y-33854758D01*
X1413853Y-29324095D02*
X2932791Y-27805157D01*
X1413853Y-32304150D02*
X1413853Y-29324095D01*
X6668685Y-31082021D02*
X6668685Y-33084241D01*
X6668685Y-33084241D02*
X7211327Y-33626883D01*
%TO.N,TMP117_ALERT*%
X15174831Y-23879754D02*
X14981988Y-24072597D01*
X7831972Y-4414809D02*
X11533802Y-8116639D01*
X14570378Y-11580748D02*
X14570378Y-13371014D01*
X17027148Y-15827783D02*
X17027148Y-19063445D01*
X18008504Y-20701855D02*
X18008504Y-21206050D01*
X16710209Y-22504346D02*
X16267643Y-22504346D01*
X16267643Y-22504346D02*
X15174831Y-23597158D01*
X17027148Y-19063445D02*
X17642172Y-19678469D01*
X17642172Y-20335523D02*
X18008504Y-20701855D01*
X14570378Y-13371014D02*
X17027148Y-15827783D01*
X13937725Y-30504312D02*
X13937725Y-32065368D01*
X15174831Y-23597158D02*
X15174831Y-23879754D01*
X18008504Y-21206050D02*
X16710209Y-22504346D01*
X11533802Y-8544172D02*
X14570378Y-11580748D01*
X14981988Y-29460049D02*
X13937725Y-30504312D01*
X17642172Y-19678469D02*
X17642172Y-20335523D01*
X11533802Y-8116639D02*
X11533802Y-8544172D01*
X14981988Y-24072597D02*
X14981988Y-29460049D01*
X13937725Y-32065368D02*
X14109592Y-32237236D01*
%TO.N,MIC_CLK*%
X26566061Y-9268919D02*
X28477442Y-11180300D01*
X28477442Y-11180300D02*
X28477442Y-21130806D01*
X22747045Y-5145717D02*
X26566061Y-8964734D01*
X20448992Y-5145717D02*
X22747045Y-5145717D01*
X26566061Y-8964734D02*
X26566061Y-9268919D01*
%TO.N,MIC_DAT*%
X26431185Y-9748520D02*
X26431185Y-12461578D01*
X28552056Y-22294276D02*
X28932845Y-22294276D01*
X26431185Y-12461578D02*
X26855351Y-12885744D01*
X22065652Y-8096285D02*
X24899667Y-8096285D01*
X24899667Y-8096285D02*
X25951727Y-9148345D01*
X27037137Y-20779357D02*
X28552056Y-22294276D01*
X25951727Y-9148345D02*
X25951727Y-9269062D01*
X19222360Y-5983080D02*
X19952448Y-5983080D01*
X29135053Y-21635469D02*
X29280402Y-21490120D01*
X29135053Y-22092068D02*
X29135053Y-21635469D01*
X28932845Y-22294276D02*
X29135053Y-22092068D01*
X26855351Y-12885744D02*
X26855351Y-13790097D01*
X18665058Y-5425778D02*
X19222360Y-5983080D01*
X19952448Y-5983080D02*
X22065652Y-8096285D01*
X27037137Y-13971883D02*
X27037137Y-20779357D01*
X26855351Y-13790097D02*
X27037137Y-13971883D01*
X25951727Y-9269062D02*
X26431185Y-9748520D01*
%TO.N,MISO_FL*%
D17*
X29650000Y-47400000D02*
X31550000Y-49250000D01*
X31550000Y-49250000D02*
X31700000Y-49650000D01*
X31700000Y-49650000D02*
X32400000Y-51500000D01*
%TO.N,RTC_VBK*%
D16*
X17014270Y-32768282D02*
X17014270Y-29886038D01*
X12041320Y-38672076D02*
X12592488Y-38672076D01*
X15508765Y-34273788D02*
X17014270Y-32768282D01*
X29531175Y-22036240D02*
X29531175Y-22779141D01*
X11744255Y-38375012D02*
X12041320Y-38672076D01*
X43029458Y-33463102D02*
X43029458Y-33633708D01*
X34127327Y-27606979D02*
X35646217Y-29125869D01*
X32033979Y-27606979D02*
X34127327Y-27606979D01*
X28825307Y-23485009D02*
X28825307Y-24398307D01*
X12592488Y-38672076D02*
X13497547Y-37767017D01*
X13497547Y-37767017D02*
X13497547Y-37026012D01*
X38692224Y-29125869D02*
X43029458Y-33463102D01*
D17*
X38650000Y-29100000D02*
X35650000Y-29100000D01*
D16*
X28825307Y-24398307D02*
X32033979Y-27606979D01*
X13497547Y-37026012D02*
X15508765Y-35014793D01*
X29531175Y-22779141D02*
X28825307Y-23485009D01*
X15508765Y-35014793D02*
X15508765Y-34273788D01*
%TO.N,SN_ISO*%
X25825557Y-22911466D02*
X25343204Y-22429113D01*
X25825557Y-23373740D02*
X25825557Y-22911466D01*
%TO.N,SN_SURGE*%
X22716491Y-34650177D02*
X22716491Y-19315250D01*
X22716491Y-19315250D02*
X19597614Y-16196374D01*
X19597614Y-16196374D02*
X19597614Y-13043416D01*
%TO.N,TX5_EN*%
X39289350Y-41014801D02*
X37632317Y-41014801D01*
X37632317Y-41014801D02*
X36467896Y-39850380D01*
X36467896Y-39850380D02*
X29336834Y-39850380D01*
%TO.N,NIR_K*%
D17*
X26250000Y-55850000D02*
X22250000Y-56200000D01*
X21850000Y-56050000D02*
X21300000Y-56000000D01*
X20500000Y-54750000D02*
X20500000Y-53500000D01*
X22250000Y-56200000D02*
X21850000Y-56050000D01*
D16*
X16027445Y-47834583D02*
X16118086Y-47925224D01*
D17*
X21300000Y-56000000D02*
X20500000Y-54750000D01*
%TO.N,Q3_B2*%
D16*
X7956088Y-9903831D02*
X7956088Y-8954478D01*
X6935557Y-10924362D02*
X7956088Y-9903831D01*
%TO.N,CE_ISO*%
X15823857Y-23482208D02*
X16022667Y-23482208D01*
X18442872Y-19736439D02*
X18289126Y-19582693D01*
X15193642Y-11030561D02*
X15040392Y-11183811D01*
X17708934Y-13000714D02*
X15738781Y-11030561D01*
X15738781Y-11030561D02*
X15193642Y-11030561D01*
X16022667Y-23482208D02*
X18442872Y-21062003D01*
X17708934Y-17502054D02*
X17708934Y-13000714D01*
X18289126Y-18082246D02*
X17708934Y-17502054D01*
X18289126Y-19582693D02*
X18289126Y-18082246D01*
X18442872Y-21062003D02*
X18442872Y-19736439D01*
%TO.N,SP_SURGE*%
X33481826Y-28222574D02*
X33456490Y-28197239D01*
X33481826Y-30155044D02*
X33481826Y-28222574D01*
%TO.N,MX_VREF*%
D17*
X26650000Y-46350000D02*
X29350000Y-46150000D01*
X25000000Y-46650000D02*
X26650000Y-46350000D01*
%TO.N,BIOZ_FN_PAD*%
D16*
X6925911Y-53810264D02*
X6925911Y-47029307D01*
X7381062Y-54265415D02*
X6925911Y-53810264D01*
X5596857Y-45700253D02*
X5596857Y-45461536D01*
X11844503Y-60734762D02*
X11649035Y-60734762D01*
X7381062Y-56466789D02*
X7381062Y-54265415D01*
X6925911Y-47029307D02*
X5596857Y-45700253D01*
X11649035Y-60734762D02*
X7381062Y-56466789D01*
%TO.N,BIOZ_SN_PAD*%
D17*
X31000000Y-54650000D02*
X31750000Y-56700000D01*
D16*
X23654238Y-58047073D02*
X23654238Y-57368124D01*
X22405292Y-59296019D02*
X23654238Y-58047073D01*
D17*
X32400000Y-52100000D02*
X31500000Y-52300000D01*
D16*
X23654238Y-57368124D02*
X24599122Y-56423240D01*
D17*
X31500000Y-52300000D02*
X31000000Y-54650000D01*
D16*
X24599122Y-56423240D02*
X25113849Y-56423240D01*
X21478638Y-59296019D02*
X22405292Y-59296019D01*
D17*
X25650000Y-57350000D02*
X25150000Y-56450000D01*
D16*
X20262914Y-60511743D02*
X21478638Y-59296019D01*
D17*
X33800000Y-50200000D02*
X32400000Y-52100000D01*
%TO.N,LED_AN*%
D16*
X23456085Y-59472406D02*
X21986374Y-60942117D01*
X16582089Y-61905073D02*
X14223058Y-59546042D01*
X20175000Y-61236059D02*
X19505986Y-61905073D01*
X29726278Y-57388174D02*
X27664722Y-57388174D01*
X19505986Y-61905073D02*
X16582089Y-61905073D01*
X14223058Y-59546042D02*
X14223058Y-59389736D01*
X27664722Y-57388174D02*
X25580489Y-59472406D01*
X21986374Y-60942117D02*
X21075915Y-60942117D01*
X25580489Y-59472406D02*
X23456085Y-59472406D01*
X21075915Y-60942117D02*
X20175000Y-61236059D01*
%TO.N,AFE_N_AC*%
X35197188Y-39419712D02*
X38479796Y-39419712D01*
X40174036Y-41113952D02*
X40174036Y-43356659D01*
X41292244Y-54065215D02*
X43432076Y-56205046D01*
X40733140Y-47810886D02*
X41292244Y-48369991D01*
X38479796Y-39419712D02*
X40174036Y-41113952D01*
X40174036Y-43356659D02*
X40733140Y-43915763D01*
X29816628Y-34039151D02*
X35197188Y-39419712D01*
X40733140Y-43915763D02*
X40733140Y-47810886D01*
X41292244Y-48369991D02*
X41292244Y-54065215D01*
%TO.N,EDA_RE_PAD*%
X12207353Y-40896163D02*
X12207353Y-43123533D01*
X17611288Y-32698332D02*
X16095104Y-34214517D01*
X14055176Y-37185743D02*
X14055176Y-39048339D01*
X16095104Y-35145815D02*
X14055176Y-37185743D01*
X16095104Y-34214517D02*
X16095104Y-35145815D01*
X14055176Y-39048339D02*
X12207353Y-40896163D01*
X17611288Y-28256295D02*
X17611288Y-32698332D01*
%TO.N,EDA_SE_PAD*%
X4599260Y-48314378D02*
X4599260Y-50732510D01*
X4599260Y-50732510D02*
X4382436Y-50949334D01*
X4382436Y-53707083D02*
X5269040Y-54593687D01*
X5269040Y-54593687D02*
X5269040Y-56655084D01*
X2954020Y-39255205D02*
X3340962Y-39642148D01*
X5269040Y-56655084D02*
X8086663Y-59472707D01*
X3340962Y-39642148D02*
X3340962Y-47056080D01*
X3340962Y-47056080D02*
X4599260Y-48314378D01*
X4382436Y-50949334D02*
X4382436Y-53707083D01*
%TO.N,ECG2_PAD*%
X18598969Y-58834362D02*
X18598969Y-58155654D01*
X8935493Y-48808375D02*
X10278867Y-50151749D01*
X13188541Y-53370106D02*
X13188541Y-53592687D01*
X12525209Y-53220130D02*
X12913680Y-53095246D01*
X12913680Y-53095246D02*
X13188541Y-53370106D01*
X10278867Y-51180744D02*
X12318253Y-53220130D01*
X6920431Y-45897426D02*
X6920431Y-46281378D01*
X2940934Y-34278782D02*
X2940934Y-38132379D01*
X6584588Y-45561583D02*
X6920431Y-45897426D01*
X18285453Y-59147877D02*
X18598969Y-58834362D01*
X17664473Y-59147877D02*
X18285453Y-59147877D01*
X4075560Y-33977378D02*
X3242338Y-33977378D01*
X8935493Y-48296439D02*
X8935493Y-48808375D01*
X15906244Y-55492196D02*
X16410186Y-55996138D01*
X16410186Y-55996138D02*
X16410186Y-57893590D01*
X15088050Y-55492196D02*
X15906244Y-55492196D01*
X3242338Y-33977378D02*
X2940934Y-34278782D01*
X6113135Y-44680794D02*
X6248744Y-45097755D01*
X4481734Y-34383552D02*
X4075560Y-33977378D01*
X2940934Y-38132379D02*
X4621433Y-39812877D01*
X6248744Y-45097755D02*
X6584588Y-45561583D01*
X6920431Y-46281378D02*
X8935493Y-48296439D01*
X18598969Y-58155654D02*
X18398674Y-57955359D01*
X16410186Y-57893590D02*
X17664473Y-59147877D01*
X4621433Y-43189092D02*
X6113135Y-44680794D01*
X4621433Y-39812877D02*
X4621433Y-43189092D01*
X12318253Y-53220130D02*
X12525209Y-53220130D01*
X10278867Y-50151749D02*
X10278867Y-51180744D01*
X13188541Y-53592687D02*
X15088050Y-55492196D01*
%TO.N,J11_RE*%
X39655200Y-49040548D02*
X39655200Y-46446615D01*
X40792587Y-50177935D02*
X39655200Y-49040548D01*
X40792587Y-52155961D02*
X40792587Y-50177935D01*
%TO.N,J11_CE*%
X40294827Y-62793693D02*
X38390616Y-62793693D01*
X46679795Y-56408725D02*
X40294827Y-62793693D01*
%TO.N,TX1*%
D17*
X29350000Y-53000000D02*
X28900000Y-53050000D01*
X29850000Y-52200000D02*
X29800000Y-52600000D01*
X28900000Y-53050000D02*
X26900000Y-53900000D01*
X26900000Y-50950000D02*
X27100000Y-50900000D01*
X26900000Y-53900000D02*
X23850000Y-54250000D01*
X27750000Y-50650000D02*
X28750000Y-50700000D01*
X29800000Y-51800000D02*
X29850000Y-52200000D01*
X29800000Y-52600000D02*
X29350000Y-53000000D01*
X23850000Y-54250000D02*
X23100000Y-54900000D01*
X23100000Y-54900000D02*
X21500000Y-55650000D01*
X27350000Y-50700000D02*
X27750000Y-50650000D01*
X27100000Y-50900000D02*
X27350000Y-50700000D01*
X28750000Y-50700000D02*
X29800000Y-51800000D01*
%TO.N,TX3*%
X26750000Y-51500000D02*
X26700000Y-52550000D01*
X26700000Y-52550000D02*
X25400000Y-52650000D01*
X25400000Y-52650000D02*
X24850000Y-53200000D01*
%TO.N,TX2*%
X25400000Y-54500000D02*
X24700000Y-54900000D01*
X24700000Y-54900000D02*
X23200000Y-55100000D01*
X23200000Y-55100000D02*
X22800000Y-55450000D01*
%TO.N,AFE_P_PAD*%
X27200000Y-57150000D02*
X26850000Y-56700000D01*
D16*
X18405978Y-60878290D02*
X17824442Y-61459825D01*
X26419358Y-57980368D02*
X27224863Y-57174863D01*
X25640673Y-40350616D02*
X27001830Y-41711773D01*
X25640673Y-40214703D02*
X25640673Y-40350616D01*
X23758732Y-29319389D02*
X23758732Y-33759876D01*
X26419358Y-57980368D02*
X24413637Y-57980368D01*
X25017907Y-35019051D02*
X25017907Y-39591937D01*
X25017907Y-39591937D02*
X25640673Y-40214703D01*
D17*
X27000000Y-41950000D02*
X27050000Y-41950000D01*
D16*
X24413637Y-57980368D02*
X22058592Y-60335413D01*
X23758732Y-33759876D02*
X25017907Y-35019051D01*
D17*
X26950000Y-56150000D02*
X27300000Y-55800000D01*
D16*
X21023368Y-60335413D02*
X20480491Y-60878290D01*
X27001830Y-41711773D02*
X27139498Y-42107149D01*
X22058592Y-60335413D02*
X21023368Y-60335413D01*
D17*
X26850000Y-56700000D02*
X26950000Y-56150000D01*
D16*
X20480491Y-60878290D02*
X18405978Y-60878290D01*
%TO.N,LED1_K*%
D17*
X30300000Y-60350000D02*
X30300000Y-60550000D01*
D16*
X6697904Y-54867146D02*
X5356176Y-53525419D01*
D17*
X27000000Y-48200000D02*
X27900000Y-48700000D01*
D16*
X6697904Y-56630005D02*
X6697904Y-54867146D01*
X5356176Y-53525419D02*
X5356176Y-52606450D01*
X38456226Y-58091107D02*
X35990099Y-60557234D01*
X25380536Y-60557234D02*
X23326559Y-62611210D01*
D17*
X30100000Y-50350000D02*
X30300000Y-56300000D01*
D16*
X46285854Y-55007526D02*
X43202273Y-58091107D01*
X35990099Y-60557234D02*
X25380536Y-60557234D01*
D17*
X28600000Y-49900000D02*
X30100000Y-50350000D01*
D16*
X12679109Y-62611210D02*
X6697904Y-56630005D01*
X46285854Y-52728229D02*
X46285854Y-55007526D01*
D17*
X27900000Y-48700000D02*
X28600000Y-49900000D01*
D16*
X43202273Y-58091107D02*
X38456226Y-58091107D01*
X23326559Y-62611210D02*
X12679109Y-62611210D01*
%TO.N,LED2_K*%
X27999290Y-63264088D02*
X12936582Y-63264088D01*
X12936582Y-63264088D02*
X5552639Y-55880146D01*
X5552639Y-55880146D02*
X5552639Y-54499544D01*
X36050520Y-62486029D02*
X28777349Y-62486029D01*
X5552639Y-54499544D02*
X4744740Y-53691645D01*
X4744740Y-53691645D02*
X4744740Y-52652203D01*
X39693862Y-58842686D02*
X36050520Y-62486029D01*
X28777349Y-62486029D02*
X27999290Y-63264088D01*
%TO.N,LED3_K*%
X45287744Y-47682763D02*
X45287744Y-55597213D01*
X6181699Y-53765180D02*
X6181699Y-52921048D01*
D17*
X29550000Y-48650000D02*
X29650000Y-49000000D01*
D16*
X6181699Y-52921048D02*
X5321983Y-52061332D01*
X6987566Y-56432243D02*
X6987566Y-54571047D01*
D17*
X29650000Y-49000000D02*
X30000000Y-49900000D01*
D16*
X29049529Y-58846446D02*
X28362685Y-58846446D01*
D17*
X28500000Y-48150000D02*
X29550000Y-48650000D01*
D16*
X20802043Y-61599175D02*
X20065028Y-62336190D01*
X36724701Y-57639680D02*
X36423009Y-57941372D01*
X5321983Y-52061332D02*
X5075056Y-52061332D01*
X43245277Y-57639680D02*
X36724701Y-57639680D01*
D17*
X31000000Y-51900000D02*
X30650000Y-55350000D01*
D16*
X13993151Y-61281718D02*
X11837041Y-61281718D01*
X29954604Y-57941372D02*
X29049529Y-58846446D01*
X45117449Y-47512468D02*
X45287744Y-47682763D01*
X15047624Y-62336190D02*
X13993151Y-61281718D01*
X26983256Y-60225875D02*
X24922722Y-60225875D01*
X11837041Y-61281718D02*
X6987566Y-56432243D01*
D17*
X30000000Y-49900000D02*
X30350000Y-50300000D01*
X27000000Y-47400000D02*
X28500000Y-48150000D01*
X30350000Y-50300000D02*
X31000000Y-51900000D01*
D16*
X6987566Y-54571047D02*
X6181699Y-53765180D01*
X45287744Y-55597213D02*
X43245277Y-57639680D01*
X24922722Y-60225875D02*
X23549421Y-61599175D01*
X20065028Y-62336190D02*
X15047624Y-62336190D01*
X28362685Y-58846446D02*
X26983256Y-60225875D01*
X23549421Y-61599175D02*
X20802043Y-61599175D01*
X36423009Y-57941372D02*
X29954604Y-57941372D01*
%TO.N,PD_K*%
D17*
X30400000Y-42500000D02*
X29850000Y-43250000D01*
X18950000Y-44950000D02*
X17500000Y-43600000D01*
X19700000Y-45650000D02*
X18950000Y-44950000D01*
X23250000Y-45800000D02*
X19700000Y-45650000D01*
X24550000Y-46500000D02*
X24150000Y-46850000D01*
X24650000Y-47550000D02*
X23250000Y-45800000D01*
X29850000Y-43250000D02*
X24550000Y-46500000D01*
%TO.N,PD_A*%
D16*
X14250500Y-60055796D02*
X11271037Y-60055796D01*
X22194493Y-61298929D02*
X20684194Y-61298929D01*
X11271037Y-60055796D02*
X9832155Y-58616914D01*
X28074457Y-57827084D02*
X26009795Y-59891747D01*
X45058732Y-55487110D02*
X45058732Y-48032907D01*
X30705894Y-57065574D02*
X43480268Y-57065574D01*
X29645343Y-57827084D02*
X28074457Y-57827084D01*
X23601676Y-59891747D02*
X22194493Y-61298929D01*
X45058732Y-48032907D02*
X44679934Y-47654109D01*
X26009795Y-59891747D02*
X23601676Y-59891747D01*
X16316807Y-62122103D02*
X14250500Y-60055796D01*
X43480268Y-57065574D02*
X45058732Y-55487110D01*
X44679934Y-41605827D02*
X47042256Y-39243504D01*
X30080617Y-57616221D02*
X30155246Y-57616221D01*
X20684194Y-61298929D02*
X19861020Y-62122103D01*
X9832155Y-57866246D02*
X8596450Y-56630540D01*
X9832155Y-58616914D02*
X9832155Y-57866246D01*
X30080617Y-57616221D02*
X29645343Y-57827084D01*
X30155246Y-57616221D02*
X30705894Y-57065574D01*
X44679934Y-47654109D02*
X44679934Y-41605827D01*
X19861020Y-62122103D02*
X16316807Y-62122103D01*
%TO.N,AFE_N_PAD*%
D17*
X24900000Y-58900000D02*
X26600000Y-58150000D01*
X26600000Y-58150000D02*
X28650000Y-56000000D01*
X28650000Y-56000000D02*
X28900000Y-56000000D01*
%TO.N,RLD_PAD*%
D16*
X29929128Y-38688237D02*
X29929128Y-35999761D01*
X24881204Y-22000218D02*
X24925919Y-21955503D01*
X39265714Y-44629847D02*
X38198676Y-44629847D01*
X28949304Y-39668061D02*
X29929128Y-38688237D01*
X34111419Y-40542590D02*
X29446867Y-40542590D01*
X26560934Y-32715814D02*
X25653071Y-31807951D01*
X38198676Y-44629847D02*
X34111419Y-40542590D01*
X39724517Y-45970173D02*
X39986754Y-45707937D01*
X25653071Y-28172830D02*
X25168901Y-27688660D01*
X28949304Y-40045027D02*
X28949304Y-39668061D01*
X25168901Y-22756059D02*
X25009378Y-22596536D01*
X29929128Y-35999761D02*
X26645180Y-32715814D01*
X25009378Y-22596536D02*
X24881204Y-22000218D01*
X29446867Y-40542590D02*
X28949304Y-40045027D01*
X39539236Y-45970173D02*
X39724517Y-45970173D01*
X39986754Y-45707937D02*
X39986754Y-45350886D01*
X32939840Y-54973369D02*
X32939840Y-52569569D01*
X32939840Y-52569569D02*
X39539236Y-45970173D01*
X25168901Y-27688660D02*
X25168901Y-22756059D01*
X26645180Y-32715814D02*
X26560934Y-32715814D01*
X39986754Y-45350886D02*
X39265714Y-44629847D01*
X24925919Y-21955503D02*
X24925919Y-21746561D01*
X25653071Y-31807951D02*
X25653071Y-28172830D01*
%TO.N,ECG1_PAD*%
X19999230Y-57100810D02*
X19999230Y-57913924D01*
X13725336Y-50828831D02*
X14816146Y-51919641D01*
X3212827Y-36448206D02*
X4844705Y-38080084D01*
X4844705Y-38080084D02*
X4844705Y-42829269D01*
X6340593Y-44621980D02*
X6476583Y-45054794D01*
X10912931Y-46657523D02*
X12420375Y-46657523D01*
X4844705Y-42829269D02*
X6340593Y-44325156D01*
X4854010Y-34631879D02*
X4682330Y-34803558D01*
X3391831Y-34212877D02*
X3212827Y-34391881D01*
X13254490Y-47491638D02*
X13575773Y-47491638D01*
X12420375Y-46657523D02*
X13254490Y-47491638D01*
X6476583Y-45054794D02*
X6918349Y-45496561D01*
X4682330Y-34803558D02*
X4309504Y-34803558D01*
X19537378Y-58375776D02*
X19339868Y-58375776D01*
X6918349Y-45496561D02*
X9751968Y-45496561D01*
X4086962Y-31661989D02*
X4854010Y-32429037D01*
X13725336Y-49489193D02*
X13725336Y-50828831D01*
X19974382Y-53581073D02*
X19974382Y-54744357D01*
X9751968Y-45496561D02*
X10912931Y-46657523D01*
X13904056Y-47819921D02*
X13904056Y-49310473D01*
X3212827Y-34391881D02*
X3212827Y-36448206D01*
X19999230Y-57913924D02*
X19537378Y-58375776D01*
X19649003Y-56750583D02*
X19999230Y-57100810D01*
X6340593Y-44325156D02*
X6340593Y-44621980D01*
X19649003Y-55069736D02*
X19649003Y-56750583D01*
X4854010Y-32429037D02*
X4854010Y-34631879D01*
X14816146Y-51919641D02*
X14816146Y-52719541D01*
X4309504Y-34803558D02*
X3718822Y-34212877D01*
X13575773Y-47491638D02*
X13904056Y-47819921D01*
X13904056Y-49310473D02*
X13725336Y-49489193D01*
X3718822Y-34212877D02*
X3391831Y-34212877D01*
X19974382Y-54744357D02*
X19649003Y-55069736D01*
%TD*%
M02*
