%TF.GenerationSoftware,KiCad,Pcbnew,10.0.4*%
%TF.CreationDate,2026-10-09T22:51:57+01:00*%
%TF.ProjectId,vitalq_v2,76697461-6c71-45f7-9632-2e6b69636164,rev?*%
%TF.SameCoordinates,Original*%
%TF.FileFunction,Profile,NP*%
%FSLAX46Y46*%
G04 Gerber Fmt 4.6, Leading zero omitted, Abs format (unit mm)*
G04 Created by KiCad (PCBNEW 10.0.4) date 2026-10-09 22:51:57*
%MOMM*%
%LPD*%
G01*
G04 APERTURE LIST*
%TA.AperFunction,Profile*%
%ADD10C,0.100000*%
%TD*%
G04 APERTURE END LIST*
D10*
X-2000000Y10500000D02*
X48000000Y10500000D01*
X-2000000Y-64500000D02*
X-2000000Y10500000D01*
X6825000Y-24800000D02*
X7825000Y-24800000D01*
X6825000Y-29200000D02*
X6825000Y-24800000D01*
X6825000Y-40500000D02*
X7825000Y-40500000D01*
X6825000Y-44900000D02*
X6825000Y-40500000D01*
X7300000Y-51550000D02*
X8300000Y-51550000D01*
X7300000Y-52600000D02*
X7300000Y-51550000D01*
X7825000Y-24800000D02*
X7825000Y-29200000D01*
X7825000Y-29200000D02*
X6825000Y-29200000D01*
X7825000Y-40500000D02*
X7825000Y-44900000D01*
X7825000Y-44900000D02*
X6825000Y-44900000D01*
X8300000Y-51550000D02*
X8300000Y-52600000D01*
X8300000Y-52600000D02*
X7300000Y-52600000D01*
X9300000Y-47600000D02*
X11500000Y-47600000D01*
X9300000Y-48600000D02*
X9300000Y-47600000D01*
X11500000Y-47600000D02*
X11500000Y-48600000D01*
X11500000Y-48600000D02*
X9300000Y-48600000D01*
X11900000Y-49500000D02*
X12900000Y-49500000D01*
X11900000Y-52300000D02*
X11900000Y-49500000D01*
X12900000Y-49500000D02*
X12900000Y-52300000D01*
X12900000Y-52300000D02*
X11900000Y-52300000D01*
X13275000Y-24800000D02*
X14275000Y-24800000D01*
X13275000Y-29200000D02*
X13275000Y-24800000D01*
X13275000Y-40500000D02*
X14275000Y-40500000D01*
X13275000Y-44900000D02*
X13275000Y-40500000D01*
X14275000Y-24800000D02*
X14275000Y-29200000D01*
X14275000Y-29200000D02*
X13275000Y-29200000D01*
X14275000Y-40500000D02*
X14275000Y-44900000D01*
X14275000Y-44900000D02*
X13275000Y-44900000D01*
X17200000Y-46190000D02*
X23100000Y-46190000D01*
X17200000Y-52700000D02*
X17200000Y-46190000D01*
X18300000Y-51700000D02*
X18300000Y-52700000D01*
X18300000Y-52700000D02*
X17200000Y-52700000D01*
X18530000Y-47900000D02*
X18530000Y-51700000D01*
X18530000Y-51700000D02*
X18300000Y-51700000D01*
X19725000Y-24800000D02*
X20725000Y-24800000D01*
X19725000Y-29200000D02*
X19725000Y-24800000D01*
X20100000Y-40500000D02*
X21100000Y-40500000D01*
X20100000Y-44900000D02*
X20100000Y-40500000D01*
X20700000Y-51700000D02*
X21870000Y-51700000D01*
X20700000Y-52700000D02*
X20700000Y-51700000D01*
X20725000Y-24800000D02*
X20725000Y-29200000D01*
X20725000Y-29200000D02*
X19725000Y-29200000D01*
X21100000Y-40500000D02*
X21100000Y-44900000D01*
X21100000Y-44900000D02*
X20100000Y-44900000D01*
X21870000Y-47900000D02*
X18530000Y-47900000D01*
X21870000Y-51700000D02*
X21870000Y-47900000D01*
X22000000Y-53500000D02*
X23000000Y-53500000D01*
X22000000Y-54500000D02*
X22000000Y-53500000D01*
X23000000Y-53500000D02*
X23000000Y-54500000D01*
X23000000Y-54500000D02*
X22000000Y-54500000D01*
X23100000Y-46190000D02*
X23100000Y-52700000D01*
X23100000Y-52700000D02*
X20700000Y-52700000D01*
X26175000Y-24800000D02*
X27175000Y-24800000D01*
X26175000Y-29200000D02*
X26175000Y-24800000D01*
X27175000Y-24800000D02*
X27175000Y-29200000D01*
X27175000Y-29200000D02*
X26175000Y-29200000D01*
X48000000Y10500000D02*
X48000000Y-64500000D01*
X48000000Y-64500000D02*
X-2000000Y-64500000D01*
M02*
